0
SECTION
2
BLOCKS
0
BLOCK
2
MINI USB 54819_top
10
0
20
0
30
0
0
3DFACE
8
3d_top
62
29
10
2.250
20
-2.800
30
3.000
11
-2.250
21
-2.800
31
3.000
12
-2.250
22
4.700
32
3.000
13
2.250
23
4.700
33
3.000
0
3DFACE
8
3d_top
62
29
10
2.250
20
-2.800
30
4.000
11
-2.250
21
-2.800
31
4.000
12
-2.250
22
4.700
32
4.000
13
2.250
23
4.700
33
4.000
0
3DFACE
8
3d_top
62
29
10
2.250
20
-2.800
30
3.000
11
-2.250
21
-2.800
31
3.000
12
-2.250
22
-2.800
32
4.000
13
2.250
23
-2.800
33
4.000
0
3DFACE
8
3d_top
62
29
10
2.250
20
4.700
30
3.000
11
-2.250
21
4.700
31
3.000
12
-2.250
22
4.700
32
4.000
13
2.250
23
4.700
33
4.000
0
3DFACE
8
3d_top
62
29
10
-2.250
20
-2.800
30
3.000
11
-2.250
21
4.700
31
3.000
12
-2.250
22
4.700
32
4.000
13
-2.250
23
-2.800
33
4.000
0
3DFACE
8
3d_top
62
29
10
2.250
20
-2.800
30
3.000
11
2.250
21
4.700
31
3.000
12
2.250
22
4.700
32
4.000
13
2.250
23
-2.800
33
4.000
0
3DFACE
8
3d_top
62
29
10
3.350
20
2.500
30
2.350
11
3.350
21
5.200
31
2.350
12
3.236
22
5.200
32
1.925
13
3.236
23
2.500
33
1.925
0
3DFACE
8
3d_top
62
29
10
3.236
20
2.500
30
1.925
11
3.236
21
5.200
31
1.925
12
2.925
22
5.200
32
1.614
13
2.925
23
2.500
33
1.614
0
3DFACE
8
3d_top
62
29
10
2.925
20
2.500
30
1.614
11
2.925
21
5.200
31
1.614
12
2.500
22
5.200
32
1.500
13
2.500
23
2.500
33
1.500
0
3DFACE
8
3d_top
62
29
10
-2.500
20
2.500
30
1.500
11
-2.500
21
5.200
31
1.500
12
-2.925
22
5.200
32
1.614
13
-2.925
23
2.500
33
1.614
0
3DFACE
8
3d_top
62
29
10
-2.925
20
2.500
30
1.614
11
-2.925
21
5.200
31
1.614
12
-3.236
22
5.200
32
1.925
13
-3.236
23
2.500
33
1.925
0
3DFACE
8
3d_top
62
29
10
-3.236
20
2.500
30
1.925
11
-3.236
21
5.200
31
1.925
12
-3.350
22
5.200
32
2.350
13
-3.350
23
2.500
33
2.350
0
3DFACE
8
3d_top
62
29
10
3.850
20
5.200
30
4.700
11
3.850
21
-3.000
31
4.700
12
3.736
22
-3.000
32
5.125
13
3.736
23
5.200
33
5.125
0
3DFACE
8
3d_top
62
29
10
3.736
20
5.200
30
5.125
11
3.736
21
-3.000
31
5.125
12
3.425
22
-3.000
32
5.436
13
3.425
23
5.200
33
5.436
0
3DFACE
8
3d_top
62
29
10
3.425
20
5.200
30
5.436
11
3.425
21
-3.000
31
5.436
12
3.000
22
-3.000
32
5.550
13
3.000
23
5.200
33
5.550
0
3DFACE
8
3d_top
62
29
10
-3.850
20
-3.000
30
4.700
11
-3.850
21
5.200
31
4.700
12
-3.736
22
5.200
32
5.125
13
-3.736
23
-3.000
33
5.125
0
3DFACE
8
3d_top
62
29
10
-3.736
20
-3.000
30
5.125
11
-3.736
21
5.200
31
5.125
12
-3.425
22
5.200
32
5.436
13
-3.425
23
-3.000
33
5.436
0
3DFACE
8
3d_top
62
29
10
-3.425
20
-3.000
30
5.436
11
-3.425
21
5.200
31
5.436
12
-3.000
22
5.200
32
5.550
13
-3.000
23
-3.000
33
5.550
0
3DFACE
8
3d_top
62
29
10
-3.600
20
2.500
30
3.450
11
-3.600
21
5.200
31
3.450
12
-3.725
22
5.200
32
3.483
13
-3.725
23
2.500
33
3.483
0
3DFACE
8
3d_top
62
29
10
-3.725
20
2.500
30
3.483
11
-3.725
21
5.200
31
3.483
12
-3.817
22
5.200
32
3.575
13
-3.817
23
2.500
33
3.575
0
3DFACE
8
3d_top
62
29
10
-3.817
20
2.500
30
3.575
11
-3.817
21
5.200
31
3.575
12
-3.850
22
5.200
32
3.700
13
-3.850
23
2.500
33
3.700
0
3DFACE
8
3d_top
62
29
10
-3.850
20
2.500
30
3.700
11
-3.850
21
2.500
31
4.700
12
-3.850
22
5.200
32
4.700
13
-3.850
23
5.200
33
3.700
0
3DFACE
8
3d_top
62
29
10
-3.600
20
2.500
30
3.450
11
-3.600
21
5.200
31
3.450
12
-3.475
22
5.200
32
3.417
13
-3.475
23
2.500
33
3.417
0
3DFACE
8
3d_top
62
29
10
-3.475
20
2.500
30
3.417
11
-3.475
21
5.200
31
3.417
12
-3.383
22
5.200
32
3.325
13
-3.383
23
2.500
33
3.325
0
3DFACE
8
3d_top
62
29
10
-3.383
20
2.500
30
3.325
11
-3.383
21
5.200
31
3.325
12
-3.350
22
5.200
32
3.200
13
-3.350
23
2.500
33
3.200
0
3DFACE
8
3d_top
62
29
10
-3.350
20
2.500
30
3.200
11
-3.350
21
2.500
31
2.200
12
-3.350
22
5.200
32
2.200
13
-3.350
23
5.200
33
3.200
0
3DFACE
8
3d_top
62
29
10
3.600
20
5.200
30
3.450
11
3.600
21
2.500
31
3.450
12
3.725
22
2.500
32
3.483
13
3.725
23
5.200
33
3.483
0
3DFACE
8
3d_top
62
29
10
3.725
20
5.200
30
3.483
11
3.725
21
2.500
31
3.483
12
3.817
22
2.500
32
3.575
13
3.817
23
5.200
33
3.575
0
3DFACE
8
3d_top
62
29
10
3.817
20
5.200
30
3.575
11
3.817
21
2.500
31
3.575
12
3.850
22
2.500
32
3.700
13
3.850
23
5.200
33
3.700
0
3DFACE
8
3d_top
62
29
10
3.850
20
5.200
30
3.700
11
3.850
21
5.200
31
4.700
12
3.850
22
2.500
32
4.700
13
3.850
23
2.500
33
3.700
0
3DFACE
8
3d_top
62
29
10
3.600
20
5.200
30
3.450
11
3.600
21
2.500
31
3.450
12
3.475
22
2.500
32
3.417
13
3.475
23
5.200
33
3.417
0
3DFACE
8
3d_top
62
29
10
3.475
20
5.200
30
3.417
11
3.475
21
2.500
31
3.417
12
3.383
22
2.500
32
3.325
13
3.383
23
5.200
33
3.325
0
3DFACE
8
3d_top
62
29
10
3.383
20
5.200
30
3.325
11
3.383
21
2.500
31
3.325
12
3.350
22
2.500
32
3.200
13
3.350
23
5.200
33
3.200
0
3DFACE
8
3d_top
62
29
10
3.350
20
5.200
30
3.200
11
3.350
21
5.200
31
2.200
12
3.350
22
2.500
32
2.200
13
3.350
23
2.500
33
3.200
0
3DFACE
8
3d_top
62
29
10
3.350
20
-3.000
30
1.500
11
3.350
21
-3.000
31
4.700
12
3.350
22
2.000
32
4.700
13
3.350
23
2.000
33
1.500
0
3DFACE
8
3d_top
62
29
10
3.850
20
-3.000
30
1.500
11
3.850
21
-3.000
31
4.700
12
3.850
22
2.000
32
4.700
13
3.850
23
2.000
33
1.500
0
3DFACE
8
3d_top
62
29
10
3.350
20
-3.000
30
1.500
11
3.350
21
-3.000
31
4.700
12
3.850
22
-3.000
32
4.700
13
3.850
23
-3.000
33
1.500
0
3DFACE
8
3d_top
62
29
10
3.350
20
2.000
30
1.500
11
3.350
21
2.000
31
4.700
12
3.850
22
2.000
32
4.700
13
3.850
23
2.000
33
1.500
0
3DFACE
8
3d_top
62
29
10
3.350
20
-3.000
30
4.700
11
3.350
21
2.000
31
4.700
12
3.850
22
2.000
32
4.700
13
3.850
23
-3.000
33
4.700
0
3DFACE
8
3d_top
62
29
10
3.350
20
-3.000
30
1.500
11
3.350
21
2.000
31
1.500
12
3.850
22
2.000
32
1.500
13
3.850
23
-3.000
33
1.500
0
3DFACE
8
3d_top
62
29
10
-3.850
20
-3.000
30
1.500
11
-3.850
21
-3.000
31
4.700
12
-3.850
22
2.000
32
4.700
13
-3.850
23
2.000
33
1.500
0
3DFACE
8
3d_top
62
29
10
-3.350
20
-3.000
30
1.500
11
-3.350
21
-3.000
31
4.700
12
-3.350
22
2.000
32
4.700
13
-3.350
23
2.000
33
1.500
0
3DFACE
8
3d_top
62
29
10
-3.850
20
-3.000
30
1.500
11
-3.850
21
-3.000
31
4.700
12
-3.350
22
-3.000
32
4.700
13
-3.350
23
-3.000
33
1.500
0
3DFACE
8
3d_top
62
29
10
-3.850
20
2.000
30
1.500
11
-3.850
21
2.000
31
4.700
12
-3.350
22
2.000
32
4.700
13
-3.350
23
2.000
33
1.500
0
3DFACE
8
3d_top
62
29
10
-3.850
20
-3.000
30
4.700
11
-3.850
21
2.000
31
4.700
12
-3.350
22
2.000
32
4.700
13
-3.350
23
-3.000
33
4.700
0
3DFACE
8
3d_top
62
29
10
-3.850
20
-3.000
30
1.500
11
-3.850
21
2.000
31
1.500
12
-3.350
22
2.000
32
1.500
13
-3.350
23
-3.000
33
1.500
0
3DFACE
8
3d_top
62
29
10
2.500
20
2.500
30
1.500
11
-2.500
21
2.500
31
1.500
12
-2.500
22
5.200
32
1.500
13
2.500
23
5.200
33
1.500
0
3DFACE
8
3d_top
62
29
10
2.500
20
2.500
30
1.500
11
-2.500
21
2.500
31
1.500
12
-2.500
22
5.200
32
1.500
13
2.500
23
5.200
33
1.500
0
3DFACE
8
3d_top
62
29
10
2.500
20
2.500
30
1.500
11
-2.500
21
2.500
31
1.500
12
-2.500
22
2.500
32
1.500
13
2.500
23
2.500
33
1.500
0
3DFACE
8
3d_top
62
29
10
2.500
20
5.200
30
1.500
11
-2.500
21
5.200
31
1.500
12
-2.500
22
5.200
32
1.500
13
2.500
23
5.200
33
1.500
0
3DFACE
8
3d_top
62
29
10
-2.500
20
2.500
30
1.500
11
-2.500
21
5.200
31
1.500
12
-2.500
22
5.200
32
1.500
13
-2.500
23
2.500
33
1.500
0
3DFACE
8
3d_top
62
29
10
2.500
20
2.500
30
1.500
11
2.500
21
5.200
31
1.500
12
2.500
22
5.200
32
1.500
13
2.500
23
2.500
33
1.500
0
3DFACE
8
3d_top
62
29
10
3.000
20
-3.000
30
5.050
11
-3.000
21
-3.000
31
5.050
12
-3.000
22
5.200
32
5.050
13
3.000
23
5.200
33
5.050
0
3DFACE
8
3d_top
62
29
10
3.000
20
-3.000
30
5.550
11
-3.000
21
-3.000
31
5.550
12
-3.000
22
5.200
32
5.550
13
3.000
23
5.200
33
5.550
0
3DFACE
8
3d_top
62
29
10
3.000
20
-3.000
30
5.050
11
-3.000
21
-3.000
31
5.050
12
-3.000
22
-3.000
32
5.550
13
3.000
23
-3.000
33
5.550
0
3DFACE
8
3d_top
62
29
10
3.000
20
5.200
30
5.050
11
-3.000
21
5.200
31
5.050
12
-3.000
22
5.200
32
5.550
13
3.000
23
5.200
33
5.550
0
3DFACE
8
3d_top
62
29
10
-3.000
20
-3.000
30
5.050
11
-3.000
21
5.200
31
5.050
12
-3.000
22
5.200
32
5.550
13
-3.000
23
-3.000
33
5.550
0
3DFACE
8
3d_top
62
29
10
3.000
20
-3.000
30
5.050
11
3.000
21
5.200
31
5.050
12
3.000
22
5.200
32
5.550
13
3.000
23
-3.000
33
5.550
0
3DFACE
8
3d_top
62
30
10
4.600
20
-4.000
30
1.500
11
3.500
21
-4.000
31
1.500
12
3.500
22
-2.500
32
1.500
13
4.600
23
-2.500
33
1.500
0
3DFACE
8
3d_top
62
30
10
4.600
20
-4.000
30
1.950
11
3.500
21
-4.000
31
1.950
12
3.500
22
-2.500
32
1.950
13
4.600
23
-2.500
33
1.950
0
3DFACE
8
3d_top
62
30
10
4.600
20
-4.000
30
1.500
11
3.500
21
-4.000
31
1.500
12
3.500
22
-4.000
32
1.950
13
4.600
23
-4.000
33
1.950
0
3DFACE
8
3d_top
62
30
10
4.600
20
-2.500
30
1.500
11
3.500
21
-2.500
31
1.500
12
3.500
22
-2.500
32
1.950
13
4.600
23
-2.500
33
1.950
0
3DFACE
8
3d_top
62
30
10
3.500
20
-4.000
30
1.500
11
3.500
21
-2.500
31
1.500
12
3.500
22
-2.500
32
1.950
13
3.500
23
-4.000
33
1.950
0
3DFACE
8
3d_top
62
30
10
4.600
20
-4.000
30
1.500
11
4.600
21
-2.500
31
1.500
12
4.600
22
-2.500
32
1.950
13
4.600
23
-4.000
33
1.950
0
3DFACE
8
3d_top
62
30
10
4.600
20
-3.650
30
1.500
11
4.600
21
-4.000
31
1.500
12
4.600
22
-4.000
32
1.500
13
4.950
23
-4.000
33
1.500
0
3DFACE
8
3d_top
62
30
10
4.600
20
-3.650
30
1.950
11
4.600
21
-4.000
31
1.950
12
4.600
22
-4.000
32
1.950
13
4.950
23
-4.000
33
1.950
0
3DFACE
8
3d_top
62
30
10
4.600
20
-3.650
30
1.500
11
4.600
21
-4.000
31
1.500
12
4.600
22
-4.000
32
1.950
13
4.600
23
-3.650
33
1.950
0
3DFACE
8
3d_top
62
30
10
4.950
20
-4.000
30
1.500
11
4.600
21
-4.000
31
1.500
12
4.600
22
-4.000
32
1.950
13
4.950
23
-4.000
33
1.950
0
3DFACE
8
3d_top
62
30
10
4.600
20
-3.650
30
1.500
11
4.950
21
-4.000
31
1.500
12
4.950
22
-4.000
32
1.950
13
4.600
23
-3.650
33
1.950
0
3DFACE
8
3d_top
62
30
10
4.950
20
-2.500
30
1.500
11
4.600
21
-2.500
31
1.500
12
4.600
22
-2.500
32
1.500
13
4.600
23
-2.850
33
1.500
0
3DFACE
8
3d_top
62
30
10
4.950
20
-2.500
30
1.950
11
4.600
21
-2.500
31
1.950
12
4.600
22
-2.500
32
1.950
13
4.600
23
-2.850
33
1.950
0
3DFACE
8
3d_top
62
30
10
4.950
20
-2.500
30
1.500
11
4.600
21
-2.500
31
1.500
12
4.600
22
-2.500
32
1.950
13
4.950
23
-2.500
33
1.950
0
3DFACE
8
3d_top
62
30
10
4.600
20
-2.850
30
1.500
11
4.600
21
-2.500
31
1.500
12
4.600
22
-2.500
32
1.950
13
4.600
23
-2.850
33
1.950
0
3DFACE
8
3d_top
62
30
10
4.950
20
-2.500
30
1.500
11
4.600
21
-2.850
31
1.500
12
4.600
22
-2.850
32
1.950
13
4.950
23
-2.500
33
1.950
0
3DFACE
8
3d_top
62
30
10
-4.600
20
-2.500
30
1.500
11
-3.500
21
-2.500
31
1.500
12
-3.500
22
-4.000
32
1.500
13
-4.600
23
-4.000
33
1.500
0
3DFACE
8
3d_top
62
30
10
-4.600
20
-2.500
30
1.950
11
-3.500
21
-2.500
31
1.950
12
-3.500
22
-4.000
32
1.950
13
-4.600
23
-4.000
33
1.950
0
3DFACE
8
3d_top
62
30
10
-4.600
20
-2.500
30
1.500
11
-3.500
21
-2.500
31
1.500
12
-3.500
22
-2.500
32
1.950
13
-4.600
23
-2.500
33
1.950
0
3DFACE
8
3d_top
62
30
10
-4.600
20
-4.000
30
1.500
11
-3.500
21
-4.000
31
1.500
12
-3.500
22
-4.000
32
1.950
13
-4.600
23
-4.000
33
1.950
0
3DFACE
8
3d_top
62
30
10
-3.500
20
-2.500
30
1.500
11
-3.500
21
-4.000
31
1.500
12
-3.500
22
-4.000
32
1.950
13
-3.500
23
-2.500
33
1.950
0
3DFACE
8
3d_top
62
30
10
-4.600
20
-2.500
30
1.500
11
-4.600
21
-4.000
31
1.500
12
-4.600
22
-4.000
32
1.950
13
-4.600
23
-2.500
33
1.950
0
3DFACE
8
3d_top
62
30
10
-4.600
20
-2.850
30
1.500
11
-4.600
21
-2.500
31
1.500
12
-4.600
22
-2.500
32
1.500
13
-4.950
23
-2.500
33
1.500
0
3DFACE
8
3d_top
62
30
10
-4.600
20
-2.850
30
1.950
11
-4.600
21
-2.500
31
1.950
12
-4.600
22
-2.500
32
1.950
13
-4.950
23
-2.500
33
1.950
0
3DFACE
8
3d_top
62
30
10
-4.600
20
-2.850
30
1.500
11
-4.600
21
-2.500
31
1.500
12
-4.600
22
-2.500
32
1.950
13
-4.600
23
-2.850
33
1.950
0
3DFACE
8
3d_top
62
30
10
-4.950
20
-2.500
30
1.500
11
-4.600
21
-2.500
31
1.500
12
-4.600
22
-2.500
32
1.950
13
-4.950
23
-2.500
33
1.950
0
3DFACE
8
3d_top
62
30
10
-4.600
20
-2.850
30
1.500
11
-4.950
21
-2.500
31
1.500
12
-4.950
22
-2.500
32
1.950
13
-4.600
23
-2.850
33
1.950
0
3DFACE
8
3d_top
62
30
10
-4.950
20
-4.000
30
1.500
11
-4.600
21
-4.000
31
1.500
12
-4.600
22
-4.000
32
1.500
13
-4.600
23
-3.650
33
1.500
0
3DFACE
8
3d_top
62
30
10
-4.950
20
-4.000
30
1.950
11
-4.600
21
-4.000
31
1.950
12
-4.600
22
-4.000
32
1.950
13
-4.600
23
-3.650
33
1.950
0
3DFACE
8
3d_top
62
30
10
-4.950
20
-4.000
30
1.500
11
-4.600
21
-4.000
31
1.500
12
-4.600
22
-4.000
32
1.950
13
-4.950
23
-4.000
33
1.950
0
3DFACE
8
3d_top
62
30
10
-4.600
20
-3.650
30
1.500
11
-4.600
21
-4.000
31
1.500
12
-4.600
22
-4.000
32
1.950
13
-4.600
23
-3.650
33
1.950
0
3DFACE
8
3d_top
62
30
10
-4.950
20
-4.000
30
1.500
11
-4.600
21
-3.650
31
1.500
12
-4.600
22
-3.650
32
1.950
13
-4.950
23
-4.000
33
1.950
0
3DFACE
8
3d_top
62
30
10
4.600
20
0.050
30
1.500
11
3.500
21
0.050
31
1.500
12
3.500
22
2.050
32
1.500
13
4.600
23
2.050
33
1.500
0
3DFACE
8
3d_top
62
30
10
4.600
20
0.050
30
1.950
11
3.500
21
0.050
31
1.950
12
3.500
22
2.050
32
1.950
13
4.600
23
2.050
33
1.950
0
3DFACE
8
3d_top
62
30
10
4.600
20
0.050
30
1.500
11
3.500
21
0.050
31
1.500
12
3.500
22
0.050
32
1.950
13
4.600
23
0.050
33
1.950
0
3DFACE
8
3d_top
62
30
10
4.600
20
2.050
30
1.500
11
3.500
21
2.050
31
1.500
12
3.500
22
2.050
32
1.950
13
4.600
23
2.050
33
1.950
0
3DFACE
8
3d_top
62
30
10
3.500
20
0.050
30
1.500
11
3.500
21
2.050
31
1.500
12
3.500
22
2.050
32
1.950
13
3.500
23
0.050
33
1.950
0
3DFACE
8
3d_top
62
30
10
4.600
20
0.050
30
1.500
11
4.600
21
2.050
31
1.500
12
4.600
22
2.050
32
1.950
13
4.600
23
0.050
33
1.950
0
3DFACE
8
3d_top
62
30
10
4.600
20
0.517
30
1.500
11
4.600
21
0.050
31
1.500
12
4.600
22
0.050
32
1.500
13
4.950
23
0.050
33
1.500
0
3DFACE
8
3d_top
62
30
10
4.600
20
0.517
30
1.950
11
4.600
21
0.050
31
1.950
12
4.600
22
0.050
32
1.950
13
4.950
23
0.050
33
1.950
0
3DFACE
8
3d_top
62
30
10
4.600
20
0.517
30
1.500
11
4.600
21
0.050
31
1.500
12
4.600
22
0.050
32
1.950
13
4.600
23
0.517
33
1.950
0
3DFACE
8
3d_top
62
30
10
4.950
20
0.050
30
1.500
11
4.600
21
0.050
31
1.500
12
4.600
22
0.050
32
1.950
13
4.950
23
0.050
33
1.950
0
3DFACE
8
3d_top
62
30
10
4.600
20
0.517
30
1.500
11
4.950
21
0.050
31
1.500
12
4.950
22
0.050
32
1.950
13
4.600
23
0.517
33
1.950
0
3DFACE
8
3d_top
62
30
10
4.950
20
2.050
30
1.500
11
4.600
21
2.050
31
1.500
12
4.600
22
2.050
32
1.500
13
4.600
23
1.583
33
1.500
0
3DFACE
8
3d_top
62
30
10
4.950
20
2.050
30
1.950
11
4.600
21
2.050
31
1.950
12
4.600
22
2.050
32
1.950
13
4.600
23
1.583
33
1.950
0
3DFACE
8
3d_top
62
30
10
4.950
20
2.050
30
1.500
11
4.600
21
2.050
31
1.500
12
4.600
22
2.050
32
1.950
13
4.950
23
2.050
33
1.950
0
3DFACE
8
3d_top
62
30
10
4.600
20
1.583
30
1.500
11
4.600
21
2.050
31
1.500
12
4.600
22
2.050
32
1.950
13
4.600
23
1.583
33
1.950
0
3DFACE
8
3d_top
62
30
10
4.950
20
2.050
30
1.500
11
4.600
21
1.583
31
1.500
12
4.600
22
1.583
32
1.950
13
4.950
23
2.050
33
1.950
0
3DFACE
8
3d_top
62
30
10
-4.600
20
2.000
30
1.500
11
-3.500
21
2.000
31
1.500
12
-3.500
22
0.000
32
1.500
13
-4.600
23
0.000
33
1.500
0
3DFACE
8
3d_top
62
30
10
-4.600
20
2.000
30
1.950
11
-3.500
21
2.000
31
1.950
12
-3.500
22
0.000
32
1.950
13
-4.600
23
0.000
33
1.950
0
3DFACE
8
3d_top
62
30
10
-4.600
20
2.000
30
1.500
11
-3.500
21
2.000
31
1.500
12
-3.500
22
2.000
32
1.950
13
-4.600
23
2.000
33
1.950
0
3DFACE
8
3d_top
62
30
10
-4.600
20
0.000
30
1.500
11
-3.500
21
0.000
31
1.500
12
-3.500
22
0.000
32
1.950
13
-4.600
23
0.000
33
1.950
0
3DFACE
8
3d_top
62
30
10
-3.500
20
2.000
30
1.500
11
-3.500
21
0.000
31
1.500
12
-3.500
22
0.000
32
1.950
13
-3.500
23
2.000
33
1.950
0
3DFACE
8
3d_top
62
30
10
-4.600
20
2.000
30
1.500
11
-4.600
21
0.000
31
1.500
12
-4.600
22
0.000
32
1.950
13
-4.600
23
2.000
33
1.950
0
3DFACE
8
3d_top
62
30
10
-4.600
20
1.533
30
1.500
11
-4.600
21
2.000
31
1.500
12
-4.600
22
2.000
32
1.500
13
-4.950
23
2.000
33
1.500
0
3DFACE
8
3d_top
62
30
10
-4.600
20
1.533
30
1.950
11
-4.600
21
2.000
31
1.950
12
-4.600
22
2.000
32
1.950
13
-4.950
23
2.000
33
1.950
0
3DFACE
8
3d_top
62
30
10
-4.600
20
1.533
30
1.500
11
-4.600
21
2.000
31
1.500
12
-4.600
22
2.000
32
1.950
13
-4.600
23
1.533
33
1.950
0
3DFACE
8
3d_top
62
30
10
-4.950
20
2.000
30
1.500
11
-4.600
21
2.000
31
1.500
12
-4.600
22
2.000
32
1.950
13
-4.950
23
2.000
33
1.950
0
3DFACE
8
3d_top
62
30
10
-4.600
20
1.533
30
1.500
11
-4.950
21
2.000
31
1.500
12
-4.950
22
2.000
32
1.950
13
-4.600
23
1.533
33
1.950
0
3DFACE
8
3d_top
62
30
10
-4.950
20
0.000
30
1.500
11
-4.600
21
0.000
31
1.500
12
-4.600
22
0.000
32
1.500
13
-4.600
23
0.467
33
1.500
0
3DFACE
8
3d_top
62
30
10
-4.950
20
0.000
30
1.950
11
-4.600
21
0.000
31
1.950
12
-4.600
22
0.000
32
1.950
13
-4.600
23
0.467
33
1.950
0
3DFACE
8
3d_top
62
30
10
-4.950
20
0.000
30
1.500
11
-4.600
21
0.000
31
1.500
12
-4.600
22
0.000
32
1.950
13
-4.950
23
0.000
33
1.950
0
3DFACE
8
3d_top
62
30
10
-4.600
20
0.467
30
1.500
11
-4.600
21
0.000
31
1.500
12
-4.600
22
0.000
32
1.950
13
-4.600
23
0.467
33
1.950
0
3DFACE
8
3d_top
62
30
10
-4.950
20
0.000
30
1.500
11
-4.600
21
0.467
31
1.500
12
-4.600
22
0.467
32
1.950
13
-4.950
23
0.000
33
1.950
0
3DFACE
8
3d_top
62
30
10
-1.400
20
-3.000
30
1.700
11
-1.800
21
-3.000
31
1.700
12
-1.800
22
-2.800
32
1.700
13
-1.400
23
-2.800
33
1.700
0
3DFACE
8
3d_top
62
30
10
-1.400
20
-3.000
30
3.500
11
-1.800
21
-3.000
31
3.500
12
-1.800
22
-2.800
32
3.500
13
-1.400
23
-2.800
33
3.500
0
3DFACE
8
3d_top
62
30
10
-1.400
20
-3.000
30
1.700
11
-1.800
21
-3.000
31
1.700
12
-1.800
22
-3.000
32
3.500
13
-1.400
23
-3.000
33
3.500
0
3DFACE
8
3d_top
62
30
10
-1.400
20
-2.800
30
1.700
11
-1.800
21
-2.800
31
1.700
12
-1.800
22
-2.800
32
3.500
13
-1.400
23
-2.800
33
3.500
0
3DFACE
8
3d_top
62
30
10
-1.800
20
-3.000
30
1.700
11
-1.800
21
-2.800
31
1.700
12
-1.800
22
-2.800
32
3.500
13
-1.800
23
-3.000
33
3.500
0
3DFACE
8
3d_top
62
30
10
-1.400
20
-3.000
30
1.700
11
-1.400
21
-2.800
31
1.700
12
-1.400
22
-2.800
32
3.500
13
-1.400
23
-3.000
33
3.500
0
3DFACE
8
3d_top
62
30
10
-1.400
20
-4.000
30
1.500
11
-1.800
21
-4.000
31
1.500
12
-1.800
22
-2.800
32
1.500
13
-1.400
23
-2.800
33
1.500
0
3DFACE
8
3d_top
62
30
10
-1.400
20
-4.000
30
1.700
11
-1.800
21
-4.000
31
1.700
12
-1.800
22
-2.800
32
1.700
13
-1.400
23
-2.800
33
1.700
0
3DFACE
8
3d_top
62
30
10
-1.400
20
-4.000
30
1.500
11
-1.800
21
-4.000
31
1.500
12
-1.800
22
-4.000
32
1.700
13
-1.400
23
-4.000
33
1.700
0
3DFACE
8
3d_top
62
30
10
-1.400
20
-2.800
30
1.500
11
-1.800
21
-2.800
31
1.500
12
-1.800
22
-2.800
32
1.700
13
-1.400
23
-2.800
33
1.700
0
3DFACE
8
3d_top
62
30
10
-1.800
20
-4.000
30
1.500
11
-1.800
21
-2.800
31
1.500
12
-1.800
22
-2.800
32
1.700
13
-1.800
23
-4.000
33
1.700
0
3DFACE
8
3d_top
62
30
10
-1.400
20
-4.000
30
1.500
11
-1.400
21
-2.800
31
1.500
12
-1.400
22
-2.800
32
1.700
13
-1.400
23
-4.000
33
1.700
0
3DFACE
8
3d_top
62
30
10
-0.600
20
-3.000
30
1.700
11
-1.000
21
-3.000
31
1.700
12
-1.000
22
-2.800
32
1.700
13
-0.600
23
-2.800
33
1.700
0
3DFACE
8
3d_top
62
30
10
-0.600
20
-3.000
30
3.500
11
-1.000
21
-3.000
31
3.500
12
-1.000
22
-2.800
32
3.500
13
-0.600
23
-2.800
33
3.500
0
3DFACE
8
3d_top
62
30
10
-0.600
20
-3.000
30
1.700
11
-1.000
21
-3.000
31
1.700
12
-1.000
22
-3.000
32
3.500
13
-0.600
23
-3.000
33
3.500
0
3DFACE
8
3d_top
62
30
10
-0.600
20
-2.800
30
1.700
11
-1.000
21
-2.800
31
1.700
12
-1.000
22
-2.800
32
3.500
13
-0.600
23
-2.800
33
3.500
0
3DFACE
8
3d_top
62
30
10
-1.000
20
-3.000
30
1.700
11
-1.000
21
-2.800
31
1.700
12
-1.000
22
-2.800
32
3.500
13
-1.000
23
-3.000
33
3.500
0
3DFACE
8
3d_top
62
30
10
-0.600
20
-3.000
30
1.700
11
-0.600
21
-2.800
31
1.700
12
-0.600
22
-2.800
32
3.500
13
-0.600
23
-3.000
33
3.500
0
3DFACE
8
3d_top
62
30
10
-0.600
20
-4.000
30
1.500
11
-1.000
21
-4.000
31
1.500
12
-1.000
22
-2.800
32
1.500
13
-0.600
23
-2.800
33
1.500
0
3DFACE
8
3d_top
62
30
10
-0.600
20
-4.000
30
1.700
11
-1.000
21
-4.000
31
1.700
12
-1.000
22
-2.800
32
1.700
13
-0.600
23
-2.800
33
1.700
0
3DFACE
8
3d_top
62
30
10
-0.600
20
-4.000
30
1.500
11
-1.000
21
-4.000
31
1.500
12
-1.000
22
-4.000
32
1.700
13
-0.600
23
-4.000
33
1.700
0
3DFACE
8
3d_top
62
30
10
-0.600
20
-2.800
30
1.500
11
-1.000
21
-2.800
31
1.500
12
-1.000
22
-2.800
32
1.700
13
-0.600
23
-2.800
33
1.700
0
3DFACE
8
3d_top
62
30
10
-1.000
20
-4.000
30
1.500
11
-1.000
21
-2.800
31
1.500
12
-1.000
22
-2.800
32
1.700
13
-1.000
23
-4.000
33
1.700
0
3DFACE
8
3d_top
62
30
10
-0.600
20
-4.000
30
1.500
11
-0.600
21
-2.800
31
1.500
12
-0.600
22
-2.800
32
1.700
13
-0.600
23
-4.000
33
1.700
0
3DFACE
8
3d_top
62
30
10
0.200
20
-3.000
30
1.700
11
-0.200
21
-3.000
31
1.700
12
-0.200
22
-2.800
32
1.700
13
0.200
23
-2.800
33
1.700
0
3DFACE
8
3d_top
62
30
10
0.200
20
-3.000
30
3.500
11
-0.200
21
-3.000
31
3.500
12
-0.200
22
-2.800
32
3.500
13
0.200
23
-2.800
33
3.500
0
3DFACE
8
3d_top
62
30
10
0.200
20
-3.000
30
1.700
11
-0.200
21
-3.000
31
1.700
12
-0.200
22
-3.000
32
3.500
13
0.200
23
-3.000
33
3.500
0
3DFACE
8
3d_top
62
30
10
0.200
20
-2.800
30
1.700
11
-0.200
21
-2.800
31
1.700
12
-0.200
22
-2.800
32
3.500
13
0.200
23
-2.800
33
3.500
0
3DFACE
8
3d_top
62
30
10
-0.200
20
-3.000
30
1.700
11
-0.200
21
-2.800
31
1.700
12
-0.200
22
-2.800
32
3.500
13
-0.200
23
-3.000
33
3.500
0
3DFACE
8
3d_top
62
30
10
0.200
20
-3.000
30
1.700
11
0.200
21
-2.800
31
1.700
12
0.200
22
-2.800
32
3.500
13
0.200
23
-3.000
33
3.500
0
3DFACE
8
3d_top
62
30
10
0.200
20
-4.000
30
1.500
11
-0.200
21
-4.000
31
1.500
12
-0.200
22
-2.800
32
1.500
13
0.200
23
-2.800
33
1.500
0
3DFACE
8
3d_top
62
30
10
0.200
20
-4.000
30
1.700
11
-0.200
21
-4.000
31
1.700
12
-0.200
22
-2.800
32
1.700
13
0.200
23
-2.800
33
1.700
0
3DFACE
8
3d_top
62
30
10
0.200
20
-4.000
30
1.500
11
-0.200
21
-4.000
31
1.500
12
-0.200
22
-4.000
32
1.700
13
0.200
23
-4.000
33
1.700
0
3DFACE
8
3d_top
62
30
10
0.200
20
-2.800
30
1.500
11
-0.200
21
-2.800
31
1.500
12
-0.200
22
-2.800
32
1.700
13
0.200
23
-2.800
33
1.700
0
3DFACE
8
3d_top
62
30
10
-0.200
20
-4.000
30
1.500
11
-0.200
21
-2.800
31
1.500
12
-0.200
22
-2.800
32
1.700
13
-0.200
23
-4.000
33
1.700
0
3DFACE
8
3d_top
62
30
10
0.200
20
-4.000
30
1.500
11
0.200
21
-2.800
31
1.500
12
0.200
22
-2.800
32
1.700
13
0.200
23
-4.000
33
1.700
0
3DFACE
8
3d_top
62
30
10
1.000
20
-3.000
30
1.700
11
0.600
21
-3.000
31
1.700
12
0.600
22
-2.800
32
1.700
13
1.000
23
-2.800
33
1.700
0
3DFACE
8
3d_top
62
30
10
1.000
20
-3.000
30
3.500
11
0.600
21
-3.000
31
3.500
12
0.600
22
-2.800
32
3.500
13
1.000
23
-2.800
33
3.500
0
3DFACE
8
3d_top
62
30
10
1.000
20
-3.000
30
1.700
11
0.600
21
-3.000
31
1.700
12
0.600
22
-3.000
32
3.500
13
1.000
23
-3.000
33
3.500
0
3DFACE
8
3d_top
62
30
10
1.000
20
-2.800
30
1.700
11
0.600
21
-2.800
31
1.700
12
0.600
22
-2.800
32
3.500
13
1.000
23
-2.800
33
3.500
0
3DFACE
8
3d_top
62
30
10
0.600
20
-3.000
30
1.700
11
0.600
21
-2.800
31
1.700
12
0.600
22
-2.800
32
3.500
13
0.600
23
-3.000
33
3.500
0
3DFACE
8
3d_top
62
30
10
1.000
20
-3.000
30
1.700
11
1.000
21
-2.800
31
1.700
12
1.000
22
-2.800
32
3.500
13
1.000
23
-3.000
33
3.500
0
3DFACE
8
3d_top
62
30
10
1.000
20
-4.000
30
1.500
11
0.600
21
-4.000
31
1.500
12
0.600
22
-2.800
32
1.500
13
1.000
23
-2.800
33
1.500
0
3DFACE
8
3d_top
62
30
10
1.000
20
-4.000
30
1.700
11
0.600
21
-4.000
31
1.700
12
0.600
22
-2.800
32
1.700
13
1.000
23
-2.800
33
1.700
0
3DFACE
8
3d_top
62
30
10
1.000
20
-4.000
30
1.500
11
0.600
21
-4.000
31
1.500
12
0.600
22
-4.000
32
1.700
13
1.000
23
-4.000
33
1.700
0
3DFACE
8
3d_top
62
30
10
1.000
20
-2.800
30
1.500
11
0.600
21
-2.800
31
1.500
12
0.600
22
-2.800
32
1.700
13
1.000
23
-2.800
33
1.700
0
3DFACE
8
3d_top
62
30
10
0.600
20
-4.000
30
1.500
11
0.600
21
-2.800
31
1.500
12
0.600
22
-2.800
32
1.700
13
0.600
23
-4.000
33
1.700
0
3DFACE
8
3d_top
62
30
10
1.000
20
-4.000
30
1.500
11
1.000
21
-2.800
31
1.500
12
1.000
22
-2.800
32
1.700
13
1.000
23
-4.000
33
1.700
0
3DFACE
8
3d_top
62
30
10
1.800
20
-3.000
30
1.700
11
1.400
21
-3.000
31
1.700
12
1.400
22
-2.800
32
1.700
13
1.800
23
-2.800
33
1.700
0
3DFACE
8
3d_top
62
30
10
1.800
20
-3.000
30
3.500
11
1.400
21
-3.000
31
3.500
12
1.400
22
-2.800
32
3.500
13
1.800
23
-2.800
33
3.500
0
3DFACE
8
3d_top
62
30
10
1.800
20
-3.000
30
1.700
11
1.400
21
-3.000
31
1.700
12
1.400
22
-3.000
32
3.500
13
1.800
23
-3.000
33
3.500
0
3DFACE
8
3d_top
62
30
10
1.800
20
-2.800
30
1.700
11
1.400
21
-2.800
31
1.700
12
1.400
22
-2.800
32
3.500
13
1.800
23
-2.800
33
3.500
0
3DFACE
8
3d_top
62
30
10
1.400
20
-3.000
30
1.700
11
1.400
21
-2.800
31
1.700
12
1.400
22
-2.800
32
3.500
13
1.400
23
-3.000
33
3.500
0
3DFACE
8
3d_top
62
30
10
1.800
20
-3.000
30
1.700
11
1.800
21
-2.800
31
1.700
12
1.800
22
-2.800
32
3.500
13
1.800
23
-3.000
33
3.500
0
3DFACE
8
3d_top
62
30
10
1.800
20
-4.000
30
1.500
11
1.400
21
-4.000
31
1.500
12
1.400
22
-2.800
32
1.500
13
1.800
23
-2.800
33
1.500
0
3DFACE
8
3d_top
62
30
10
1.800
20
-4.000
30
1.700
11
1.400
21
-4.000
31
1.700
12
1.400
22
-2.800
32
1.700
13
1.800
23
-2.800
33
1.700
0
3DFACE
8
3d_top
62
30
10
1.800
20
-4.000
30
1.500
11
1.400
21
-4.000
31
1.500
12
1.400
22
-4.000
32
1.700
13
1.800
23
-4.000
33
1.700
0
3DFACE
8
3d_top
62
30
10
1.800
20
-2.800
30
1.500
11
1.400
21
-2.800
31
1.500
12
1.400
22
-2.800
32
1.700
13
1.800
23
-2.800
33
1.700
0
3DFACE
8
3d_top
62
30
10
1.400
20
-4.000
30
1.500
11
1.400
21
-2.800
31
1.500
12
1.400
22
-2.800
32
1.700
13
1.400
23
-4.000
33
1.700
0
3DFACE
8
3d_top
62
30
10
1.800
20
-4.000
30
1.500
11
1.800
21
-2.800
31
1.500
12
1.800
22
-2.800
32
1.700
13
1.800
23
-4.000
33
1.700
0
ENDBLK
0
ENDSEC
0
SECTION
2
ENTITIES
0
INSERT
2
MINI USB 54819_top
8
3d_top
62
20
10
0.0
20
0.0
50
0.0
0
ENDSEC
0
EOF
