G04 FreePCB version 1.359*
G04 d:\мои прогр\FreePCB_ImportPCAD\Import_Tango\CAM\top_copper.grb*
G04 top copper layer *
G04 Scale: 100 percent, Rotated: No, Reflected: No *
%FSLAX24Y24*%
%MOIN*%
%LN top copper *%
G04 Rounded Rectangle Macro, params: W/2, H/2, R *
%AMRNDREC*
21,1,$1+$1,$2+$2-$3-$3,0,0,0*
21,1,$1+$1-$3-$3,$2+$2,0,0,0*
1,1,$3+$3,$1-$3,$2-$3*
1,1,$3+$3,$3-$1,$2-$3*
1,1,$3+$3,$1-$3,$3-$2*
1,1,$3+$3,$3-$1,$3-$2*%
G04 Rectangular Thermal Macro, params: W/2, H/2, T/2 *
%AMRECTHERM*
$4=$3/2*
21,1,$1-$3,$2-$3,0-$1/2-$4,0-$2/2-$4,0*
21,1,$1-$3,$2-$3,0-$1/2-$4,$2/2+$4,0*
21,1,$1-$3,$2-$3,$1/2+$4,0-$2/2-$4,0*
21,1,$1-$3,$2-$3,$1/2+$4,$2/2+$4,0*%
%ADD10C,0.005906*%
%ADD11RNDREC,0.029528X0.029528X0.001969*%
%ADD12RNDREC,0.031496X0.068898X0.001969*%
%ADD13RNDREC,0.025591X0.019685X0.001969*%
%ADD14RNDREC,0.017717X0.006890X0.001969*%
%ADD15RNDREC,0.012795X0.039370X0.001969*%
%ADD16C,0.010000*%
%ADD17C,0.015748*%
%ADD18C,0.011811*%
%ADD19C,0.019685*%
%ADD20C,0.053000*%
%ADD21C,0.011024*%
%ADD22C,0.001969*%
G90*
G70D02*

G04 Step and Repeat for panelization *

G04 ----------------------- Draw board outline (positive)*
%LPD*%
G54D10*
G01X55749Y6500D02*
G01X55749Y13980D01*
G04 end of side 1*
G01X59293Y13980D01*
G04 end of side 2*
G01X59293Y6500D01*
G04 end of side 3*
G01X55749Y6500D01*
G04 end of side 4*
G01X55749Y6500D01*

G04 -------------- Draw Parts, Pads, Traces, Vias and Text (positive)*
%LPD*%
G04 Draw part FreePad__1*
G54D11*
G01X56312Y7312D03*
G04 Draw part FreePad__3*
G04 Draw part FreePad__5*
G01X56375Y13500D03*
G04 Draw part FreePad__6*
G04 Draw part FreePad__8*
G04 Draw part FreePad__9*
G54D12*
G01X58062Y7312D03*
G04 Draw part FreePad__12*
G04 Draw part FreePad__13*
G54D11*
G01X58812Y7312D03*
G04 Draw part C7*
G04 Draw part R4*
G54D13*
G01X58687Y11206D03*
G01X58687Y10418D03*
G04 Draw part FreePad__16*
G54D11*
G01X57875Y13500D03*
G04 Draw part FreePad__17*
G01X58625Y13500D03*
G04 Draw part FreePad__18*
G04 Draw part FreePad__19*
G04 Draw part FreePad__21*
G04 Draw part C6*
G04 Draw part R5*
G04 Draw part FreePad__22*
G04 Draw part FreePad__23*
G54D12*
G01X57062Y7312D03*
G04 Draw part C8*
G04 Draw part R3*
G04 Draw part C5*
G04 Draw part FreePad__24*
G54D11*
G01X57125Y13500D03*
G04 Draw part FreePad__25*
G04 Draw part C2*
G04 Draw part VD1*
G54D14*
G01X57913Y13005D03*
G01X57913Y12494D03*
G01X57086Y13001D03*
G01X57086Y12494D03*
G01X57086Y12749D03*
G04 Draw part DA4*
G04 Draw part R2*
G04 Draw part DA3*
G54D15*
G01X58062Y11812D03*
G01X57562Y11812D03*
G01X57562Y9562D03*
G01X58062Y9562D03*
G01X57062Y11812D03*
G01X56562Y11812D03*
G01X56562Y9562D03*
G01X57062Y9562D03*
G04 Draw part VD2*
G54D14*
G01X56586Y8306D03*
G01X56586Y8818D03*
G01X57413Y8310D03*
G01X57413Y8818D03*
G01X57413Y8562D03*

G04 Draw traces*
G54D16*
G01X58062Y11812D02*
G01X58062Y11562D01*
G54D17*
G01X58062Y11562D02*
G01X58374Y11250D01*
G01X58374Y11250D02*
G01X58554Y11250D01*
G54D16*
G01X58554Y11250D02*
G01X58687Y11206D01*
G01X58062Y11812D02*
G01X58125Y11750D01*
G54D18*
G01X58125Y11750D02*
G01X58437Y12062D01*
G54D16*
G01X58687Y10418D02*
G01X58749Y10375D01*
G54D17*
G01X58749Y10375D02*
G01X58374Y10375D01*
G01X58374Y10375D02*
G01X58062Y10062D01*
G01X58062Y10062D02*
G01X58062Y9937D01*
G54D16*
G01X58062Y9937D02*
G01X58062Y9562D01*
G01X57562Y9562D02*
G01X57562Y9250D01*
G54D19*
G01X57562Y9250D02*
G01X57937Y8875D01*
G01X57937Y8875D02*
G01X58343Y8875D01*
G01X58343Y8875D02*
G01X58781Y8437D01*
G01X58781Y8437D02*
G01X58820Y8437D01*
G54D20*
G01X58820Y8437D03*
G54D16*
G01X57562Y9562D02*
G01X57562Y9562D01*
G54D18*
G01X57562Y9562D02*
G01X57562Y10000D01*
G01X57562Y10000D02*
G01X58374Y10812D01*
G01X58374Y10812D02*
G01X59000Y10812D01*
G01X59000Y10812D02*
G01X59101Y10913D01*
G01X59101Y10913D02*
G01X59101Y11812D01*
G01X59101Y11812D02*
G01X58163Y12750D01*
G01X58163Y12750D02*
G01X58062Y12750D01*
G01X58062Y12750D02*
G01X57937Y12875D01*
G01X57937Y12875D02*
G01X57937Y13000D01*
G54D16*
G01X57937Y13000D02*
G01X57913Y13005D01*
G01X57913Y13005D02*
G01X57937Y13000D01*
G54D18*
G01X57937Y13000D02*
G01X58250Y13000D01*
G01X58250Y13000D02*
G01X58500Y13250D01*
G54D16*
G01X58500Y13250D02*
G01X58625Y13500D01*
G01X58625Y13500D02*
G01X58749Y13375D01*
G54D19*
G01X58749Y13375D02*
G01X58749Y12687D01*
G01X58749Y12687D02*
G01X58750Y12774D01*
G54D20*
G01X58750Y12774D03*
G01X57304Y10875D03*
G54D19*
G01X57304Y10875D02*
G01X56937Y10875D01*
G01X56937Y10875D02*
G01X56562Y11250D01*
G01X56562Y11250D02*
G01X56562Y11812D01*
G54D16*
G01X56562Y11812D02*
G01X56562Y12000D01*
G54D19*
G01X56562Y12000D02*
G01X56029Y12235D01*
G01X56029Y12235D02*
G01X56029Y12761D01*
G01X56029Y12761D02*
G01X56367Y13102D01*
G01X56367Y13102D02*
G01X56375Y13500D01*
G54D16*
G01X57086Y12749D02*
G01X57086Y12750D01*
G54D18*
G01X57086Y12750D02*
G01X56890Y12750D01*
G01X56890Y12750D02*
G01X56537Y13102D01*
G54D19*
G01X56537Y13102D02*
G01X56367Y13102D01*
G54D20*
G01X58187Y8375D03*
G54D18*
G01X58187Y8375D02*
G01X58187Y8375D01*
G01X58187Y8375D02*
G01X58000Y8562D01*
G01X58000Y8562D02*
G01X57413Y8562D01*
G54D16*
G01X58062Y7312D02*
G01X58187Y7812D01*
G54D19*
G01X58187Y7812D02*
G01X58187Y8375D01*
G54D16*
G01X58187Y8375D02*
G01X58187Y8375D01*
G01X58812Y7312D02*
G01X58812Y7312D01*
G54D19*
G01X58812Y7312D02*
G01X58187Y7312D01*
G54D16*
G01X58187Y7312D02*
G01X58062Y7312D01*
G01X56312Y7312D02*
G01X56312Y7312D01*
G54D19*
G01X56312Y7312D02*
G01X57062Y7312D01*
G54D16*
G01X57062Y9562D02*
G01X57062Y9625D01*
G54D17*
G01X57062Y9625D02*
G01X57062Y10000D01*
G01X57062Y10000D02*
G01X57812Y10750D01*
G01X57812Y10750D02*
G01X57812Y10937D01*
G01X57812Y10937D02*
G01X57930Y10968D01*
G54D20*
G01X57930Y10968D03*
G54D16*
G01X57086Y12494D02*
G01X57080Y12500D01*
G54D18*
G01X57080Y12500D02*
G01X56629Y12503D01*
G01X56629Y12503D02*
G01X56499Y12562D01*
G54D20*
G01X56499Y12562D03*
G54D16*
G01X56562Y9562D02*
G01X56562Y9789D01*
G54D17*
G01X56562Y9789D02*
G01X56125Y9789D01*
G54D20*
G01X56125Y9789D03*
G54D16*
G01X56586Y8306D02*
G01X56500Y8310D01*
G54D18*
G01X56500Y8310D02*
G01X56500Y7937D01*
G01X56500Y7937D02*
G01X56382Y7953D01*
G54D20*
G01X56382Y7953D03*
G54D16*
G01X57562Y11812D02*
G01X57625Y12187D01*
G54D18*
G01X57625Y12187D02*
G01X57812Y12375D01*
G01X57812Y12375D02*
G01X57812Y12500D01*
G54D16*
G01X57812Y12500D02*
G01X57913Y12494D01*
G01X57875Y13500D02*
G01X57597Y13340D01*
G54D18*
G01X57597Y13340D02*
G01X57597Y12840D01*
G01X57597Y12840D02*
G01X57812Y12625D01*
G01X57812Y12625D02*
G01X57812Y12500D01*
G54D16*
G01X57812Y12500D02*
G01X57913Y12494D01*
G01X57062Y11812D02*
G01X57100Y12062D01*
G54D21*
G01X57100Y12062D02*
G01X57402Y12363D01*
G01X57402Y12363D02*
G01X57402Y12910D01*
G01X57402Y12910D02*
G01X57312Y13000D01*
G01X57312Y13000D02*
G01X57250Y13000D01*
G54D16*
G01X57250Y13000D02*
G01X57086Y13001D01*
G01X57086Y13001D02*
G01X57062Y13026D01*
G54D18*
G01X57062Y13026D02*
G01X57062Y13500D01*
G54D16*
G01X57062Y13500D02*
G01X57125Y13500D01*

G04 Draw Text*
G54D22*
G01X56093Y9370D02*
G01X55905Y9370D01*
G01X56093Y9370D02*
G01X56093Y9307D01*
G01X56093Y9307D02*
G01X56084Y9280D01*
G01X56084Y9280D02*
G01X56066Y9262D01*
G01X56066Y9262D02*
G01X56048Y9253D01*
G01X56048Y9253D02*
G01X56021Y9244D01*
G01X56021Y9244D02*
G01X55977Y9244D01*
G01X55977Y9244D02*
G01X55950Y9253D01*
G01X55950Y9253D02*
G01X55932Y9262D01*
G01X55932Y9262D02*
G01X55914Y9280D01*
G01X55914Y9280D02*
G01X55905Y9307D01*
G01X55905Y9307D02*
G01X55905Y9370D01*
G01X56093Y9173D02*
G01X55905Y9173D01*
G01X56093Y9173D02*
G01X56093Y9092D01*
G01X56093Y9092D02*
G01X56084Y9065D01*
G01X56084Y9065D02*
G01X56075Y9056D01*
G01X56075Y9056D02*
G01X56057Y9047D01*
G01X56057Y9047D02*
G01X56030Y9047D01*
G01X56030Y9047D02*
G01X56012Y9056D01*
G01X56012Y9056D02*
G01X56003Y9065D01*
G01X56003Y9065D02*
G01X55994Y9092D01*
G01X55994Y9092D02*
G01X55994Y9173D01*
G01X56048Y8842D02*
G01X56066Y8851D01*
G01X56066Y8851D02*
G01X56084Y8869D01*
G01X56084Y8869D02*
G01X56093Y8886D01*
G01X56093Y8886D02*
G01X56093Y8922D01*
G01X56093Y8922D02*
G01X56084Y8940D01*
G01X56084Y8940D02*
G01X56066Y8958D01*
G01X56066Y8958D02*
G01X56048Y8967D01*
G01X56048Y8967D02*
G01X56021Y8976D01*
G01X56021Y8976D02*
G01X55977Y8976D01*
G01X55977Y8976D02*
G01X55950Y8967D01*
G01X55950Y8967D02*
G01X55932Y8958D01*
G01X55932Y8958D02*
G01X55914Y8940D01*
G01X55914Y8940D02*
G01X55905Y8922D01*
G01X55905Y8922D02*
G01X55905Y8886D01*
G01X55905Y8886D02*
G01X55914Y8869D01*
G01X55914Y8869D02*
G01X55932Y8851D01*
G01X55932Y8851D02*
G01X55950Y8842D01*
G01X55950Y8842D02*
G01X55977Y8842D01*
G01X55977Y8886D02*
G01X55977Y8842D01*
G01X56093Y8663D02*
G01X55905Y8663D01*
G01X56003Y8663D02*
G01X56021Y8681D01*
G01X56021Y8681D02*
G01X56030Y8698D01*
G01X56030Y8698D02*
G01X56030Y8725D01*
G01X56030Y8725D02*
G01X56021Y8743D01*
G01X56021Y8743D02*
G01X56003Y8761D01*
G01X56003Y8761D02*
G01X55977Y8770D01*
G01X55977Y8770D02*
G01X55959Y8770D01*
G01X55959Y8770D02*
G01X55932Y8761D01*
G01X55932Y8761D02*
G01X55914Y8743D01*
G01X55914Y8743D02*
G01X55905Y8725D01*
G01X55905Y8725D02*
G01X55905Y8698D01*
G01X55905Y8698D02*
G01X55914Y8681D01*
G01X55914Y8681D02*
G01X55932Y8663D01*
G01X56057Y8591D02*
G01X56066Y8573D01*
G01X56066Y8573D02*
G01X56093Y8546D01*
G01X56093Y8546D02*
G01X55905Y8546D01*
G01X55923Y8466D02*
G01X55914Y8475D01*
G01X55914Y8475D02*
G01X55905Y8466D01*
G01X55905Y8466D02*
G01X55914Y8457D01*
G01X55914Y8457D02*
G01X55923Y8466D01*
G01X56093Y8332D02*
G01X56084Y8358D01*
G01X56084Y8358D02*
G01X56057Y8376D01*
G01X56057Y8376D02*
G01X56012Y8385D01*
G01X56012Y8385D02*
G01X55986Y8385D01*
G01X55986Y8385D02*
G01X55941Y8376D01*
G01X55941Y8376D02*
G01X55914Y8358D01*
G01X55914Y8358D02*
G01X55905Y8332D01*
G01X55905Y8332D02*
G01X55905Y8314D01*
G01X55905Y8314D02*
G01X55914Y8287D01*
G01X55914Y8287D02*
G01X55941Y8269D01*
G01X55941Y8269D02*
G01X55986Y8260D01*
G01X55986Y8260D02*
G01X56012Y8260D01*
G01X56012Y8260D02*
G01X56057Y8269D01*
G01X56057Y8269D02*
G01X56084Y8287D01*
G01X56084Y8287D02*
G01X56093Y8314D01*
G01X56093Y8314D02*
G01X56093Y8332D01*

G04 ----------------------- Draw Pilot Holes (scratch)*
%LPC*%
G04 draw pilot holes for part FreePad__1*
G04 draw pilot holes for part FreePad__3*
G04 draw pilot holes for part FreePad__5*
G04 draw pilot holes for part FreePad__6*
G04 draw pilot holes for part FreePad__8*
G04 draw pilot holes for part FreePad__9*
G04 draw pilot holes for part FreePad__12*
G04 draw pilot holes for part FreePad__13*
G04 draw pilot holes for part C7*
G04 draw pilot holes for part R4*
G04 draw pilot holes for part FreePad__16*
G04 draw pilot holes for part FreePad__17*
G04 draw pilot holes for part FreePad__18*
G04 draw pilot holes for part FreePad__19*
G04 draw pilot holes for part FreePad__21*
G04 draw pilot holes for part C6*
G04 draw pilot holes for part R5*
G04 draw pilot holes for part FreePad__22*
G04 draw pilot holes for part FreePad__23*
G04 draw pilot holes for part C8*
G04 draw pilot holes for part R3*
G04 draw pilot holes for part C5*
G04 draw pilot holes for part FreePad__24*
G04 draw pilot holes for part FreePad__25*
G04 draw pilot holes for part C2*
G04 draw pilot holes for part VD1*
G04 draw pilot holes for part DA4*
G04 draw pilot holes for part R2*
G04 draw pilot holes for part DA3*
G04 draw pilot holes for part VD2*

G04 Draw pilot holes for vias*
G54D18*
G01X58820Y8437D03*
G01X58750Y12774D03*
G01X57304Y10875D03*
G01X58187Y8375D03*
G01X57930Y10968D03*
G01X56499Y12562D03*
G01X56125Y9789D03*
G01X56382Y7953D03*
M00*
M02*
