G04 FreePCB version 1.359*
G04 D:\Мои прогр\FreePCB_RndRects\CAM\top_copper.grb*
G04 top copper layer *
G04 Scale: 100 percent, Rotated: No, Reflected: No *
%FSLAX24Y24*%
%MOIN*%
%LN top copper *%
G04 Rounded Rectangle Macro, params: W/2, H/2, R *
%AMRNDREC*
21,1,$1+$1,$2+$2-$3-$3,0,0,0*
21,1,$1+$1-$3-$3,$2+$2,0,0,0*
1,1,$3+$3,$1-$3,$2-$3*
1,1,$3+$3,$3-$1,$2-$3*
1,1,$3+$3,$1-$3,$3-$2*
1,1,$3+$3,$3-$1,$3-$2*%
G04 Rectangular Thermal Macro, params: W/2, H/2, T/2 *
%AMRECTHERM*
$4=$3/2*
21,1,$1-$3,$2-$3,0-$1/2-$4,0-$2/2-$4,0*
21,1,$1-$3,$2-$3,0-$1/2-$4,$2/2+$4,0*
21,1,$1-$3,$2-$3,$1/2+$4,0-$2/2-$4,0*
21,1,$1-$3,$2-$3,$1/2+$4,$2/2+$4,0*%
%ADD10R,0.074803X0.062992*%
%ADD11C,0.001000*%
%ADD12R,0.062992X0.074803*%
%ADD13R,0.035433X0.094488*%
%ADD14R,0.072835X0.220472*%
%ADD15R,0.039370X0.102362*%
%ADD16RNDREC,0.031311X0.024811X0.011811*%
%ADD17R,0.049213X0.102362*%
%ADD18R,0.102362X0.049213*%
%ADD19R,0.082677X0.082677*%
%ADD20C,0.082677*%
%ADD21C,0.086614*%
%ADD22C,0.200787*%
%ADD23C,0.065622*%
%ADD24C,0.031496*%
%ADD25C,0.037622*%
%ADD26C,0.034622*%
%ADD27C,0.066622*%
%ADD28C,0.043307*%
%ADD29C,0.061622*%
%ADD30C,0.083622*%
%ADD31C,0.038622*%
%ADD32C,0.063622*%
%ADD33C,0.058622*%
%ADD34C,0.035622*%
%ADD35R,0.051181X0.039370*%
%ADD36R,0.039370X0.051181*%
%ADD37R,0.011811X0.070866*%
%ADD38R,0.049213X0.196850*%
%ADD39R,0.015748X0.078740*%
%ADD40RNDREC,0.019500X0.013000X0.000000*%
%ADD41R,0.025591X0.078740*%
%ADD42R,0.078740X0.025591*%
%ADD43R,0.059055X0.059055*%
%ADD44C,0.059055*%
%ADD45C,0.062992*%
%ADD46C,0.177165*%
%ADD47C,0.042000*%
%ADD48C,0.003937*%
%ADD49C,0.014000*%
%ADD50C,0.011000*%
%ADD51C,0.043000*%
%ADD52C,0.019685*%
%ADD53C,0.035000*%
%ADD54C,0.025000*%
%ADD55C,0.012000*%
%ADD56C,0.026000*%
%ADD57C,0.015000*%
%ADD58C,0.038000*%
%ADD59C,0.060000*%
%ADD60C,0.040000*%
G90*
G70D02*

G04 Step and Repeat for panelization *

G04 ----------------------- Draw copper area (positive)*
G36*
G01X-42598Y73031D02*
G01X-42992Y73031D01*
G01X-43346Y72677D01*
G01X-43346Y70728D01*
G01X-43858Y70728D01*
G01X-43858Y72952D01*
G01X-43267Y73543D01*
G01X-42598Y73543D01*
G01X-42598Y73031D01*
G37*

G04 ----------------------- Draw copper area (positive)*
G36*
G01X-42598Y70728D02*
G01X-43110Y70728D01*
G01X-43110Y72598D01*
G01X-42874Y72834D01*
G01X-42598Y72834D01*
G01X-42598Y70728D01*
G37*

G04 ----------------------- Draw copper area (positive)*
G36*
G01X-43385Y81141D02*
G01X-46850Y81141D01*
G01X-46850Y81811D01*
G01X-43385Y81811D01*
G01X-43385Y81141D01*
G37*

G04 -------------------- Draw copper area clearances (negative)*
%LPC*%

G04 Draw clearances for pads*
G54D10*
G01X-41155Y74449D03*
G01X-41155Y73661D03*
G01X-43661Y80700D03*
G54D11*
G54D10*
G01X-43763Y84674D03*
G01X-43763Y85462D03*
G01X-46562Y82112D03*
G54D11*
G54D10*
G01X-41150Y73073D03*
G01X-41150Y72286D03*
G01X-40590Y87165D03*
G01X-40590Y86377D03*
G01X-43905Y74318D03*
G01X-43905Y75042D03*
G01X-43217Y74318D03*
G01X-43217Y75042D03*
G01X-43178Y78393D03*
G01X-43178Y77606D03*
G54D12*
G01X-43745Y83930D03*
G01X-44532Y83930D03*
G54D10*
G01X-42625Y87331D03*
G01X-42625Y86543D03*
G01X-43250Y87331D03*
G01X-43250Y86543D03*
G01X-43937Y86543D03*
G01X-43937Y87331D03*
G54D12*
G01X-43872Y89687D03*
G01X-44659Y89687D03*
G54D11*
G54D10*
G01X-46614Y77433D03*
G01X-46614Y78157D03*
G54D13*
G01X-45259Y78700D03*
G01X-45456Y78700D03*
G01X-45653Y78700D03*
G01X-45850Y78700D03*
G01X-46047Y78700D03*
G01X-46047Y76929D03*
G01X-45850Y76929D03*
G01X-45653Y76929D03*
G01X-45456Y76929D03*
G01X-45259Y76929D03*
G54D10*
G01X-45875Y86543D03*
G01X-45875Y87331D03*
G01X-42086Y70708D03*
G01X-42086Y71496D03*
G01X-44370Y70669D03*
G01X-44370Y71456D03*
G01X-45280Y74449D03*
G01X-45280Y73661D03*
G54D12*
G01X-40687Y78307D03*
G01X-39962Y78307D03*
G54D10*
G01X-40669Y77616D03*
G01X-40669Y76891D03*
G54D12*
G01X-45855Y79687D03*
G01X-45130Y79687D03*
G54D14*
G01X-40517Y79812D03*
G01X-42917Y79812D03*
G01X-40517Y82125D03*
G01X-42917Y82125D03*
G54D12*
G01X-45299Y84724D03*
G01X-44511Y84724D03*
G01X-43872Y88905D03*
G01X-44659Y88905D03*
G01X-44589Y88069D03*
G01X-43864Y88069D03*
G54D10*
G01X-45280Y73074D03*
G01X-45280Y72286D03*
G01X-42530Y75042D03*
G01X-42530Y74318D03*
G01X-44592Y74318D03*
G01X-44592Y75042D03*
G01X-41842Y75042D03*
G01X-41842Y74318D03*
G54D12*
G01X-42433Y78312D03*
G01X-41645Y78312D03*
G54D14*
G01X-42927Y84437D03*
G01X-40527Y84437D03*
G54D15*
G01X-43850Y78464D03*
G01X-44106Y78464D03*
G01X-44362Y78464D03*
G01X-44618Y78464D03*
G01X-44618Y76692D03*
G01X-44362Y76692D03*
G01X-44106Y76692D03*
G01X-43850Y76692D03*
G54D16*
G01X-41417Y76889D03*
G01X-41417Y77259D03*
G01X-41417Y77639D03*
G01X-42437Y77639D03*
G01X-42437Y76889D03*
G54D12*
G01X-45226Y83930D03*
G01X-46013Y83930D03*
G54D17*
G01X-44368Y82936D03*
G01X-44868Y82936D03*
G01X-44868Y80686D03*
G01X-44368Y80686D03*
G01X-45368Y82936D03*
G01X-45868Y82936D03*
G01X-45868Y80686D03*
G01X-45368Y80686D03*
G54D10*
G01X-42000Y87331D03*
G01X-42000Y86543D03*
G01X-45187Y87299D03*
G01X-45187Y86575D03*
G01X-44562Y86543D03*
G01X-44562Y87331D03*
G01X-41299Y86535D03*
G01X-41299Y87322D03*
G01X-46500Y87299D03*
G01X-46500Y86575D03*
G54D18*
G01X-42896Y89647D03*
G01X-42896Y89147D03*
G01X-40646Y89147D03*
G01X-40646Y89647D03*
G01X-42896Y88647D03*
G01X-42896Y88147D03*
G01X-40646Y88147D03*
G01X-40646Y88647D03*
G54D19*
G01X-46250Y91000D03*
G54D20*
G01X-46250Y89425D03*
G01X-46250Y88637D03*
G01X-46250Y90212D03*
G54D18*
G01X-44353Y73683D03*
G01X-44353Y73183D03*
G01X-42103Y73183D03*
G01X-42103Y73683D03*
G01X-44353Y72683D03*
G01X-44353Y72183D03*
G01X-42103Y72183D03*
G01X-42103Y72683D03*
G54D21*
G01X-44921Y90641D03*
G01X-43937Y90641D03*
G54D22*
G01X-41968Y92609D03*
G01X-45906Y92609D03*
G54D11*
G54D23*
G01X-46614Y78582D03*
G54D11*
G54D24*
G01X-37755Y78543D03*
G54D23*
G01X-39960Y86181D03*

G04 Draw clearances for traces*
G54D25*
G01X-42103Y72183D02*
G01X-42092Y72180D01*
G01X-42092Y72180D02*
G01X-41272Y72180D01*
G01X-41272Y72180D02*
G01X-41247Y72183D01*
G01X-41247Y72183D02*
G01X-41224Y72192D01*
G01X-41224Y72192D02*
G01X-41204Y72207D01*
G01X-41204Y72207D02*
G01X-41188Y72226D01*
G01X-41188Y72226D02*
G01X-41150Y72286D01*
G01X-42103Y72183D02*
G01X-42086Y72086D01*
G01X-42086Y72086D02*
G01X-42086Y71496D01*
G01X-42625Y87331D02*
G01X-42730Y87320D01*
G01X-42730Y87320D02*
G01X-42762Y87311D01*
G01X-42762Y87311D02*
G01X-42789Y87291D01*
G01X-42789Y87291D02*
G01X-42806Y87263D01*
G01X-42806Y87263D02*
G01X-42812Y87230D01*
G01X-42812Y87230D02*
G01X-42812Y87171D01*
G01X-42812Y87171D02*
G01X-42817Y87120D01*
G01X-42817Y87120D02*
G01X-42832Y87070D01*
G01X-42832Y87070D02*
G01X-42856Y87025D01*
G01X-42856Y87025D02*
G01X-42889Y86985D01*
G01X-42889Y86985D02*
G01X-42985Y86889D01*
G01X-42985Y86889D02*
G01X-43018Y86849D01*
G01X-43018Y86849D02*
G01X-43042Y86804D01*
G01X-43042Y86804D02*
G01X-43057Y86754D01*
G01X-43057Y86754D02*
G01X-43062Y86703D01*
G01X-43062Y86703D02*
G01X-43062Y86644D01*
G01X-43062Y86644D02*
G01X-43068Y86611D01*
G01X-43068Y86611D02*
G01X-43085Y86583D01*
G01X-43085Y86583D02*
G01X-43112Y86563D01*
G01X-43112Y86563D02*
G01X-43144Y86554D01*
G01X-43144Y86554D02*
G01X-43250Y86543D01*
G01X-42000Y87331D02*
G01X-42000Y87374D01*
G01X-42000Y87374D02*
G01X-42625Y87374D01*
G01X-42625Y87374D02*
G01X-42625Y87331D01*
G01X-42896Y89647D02*
G01X-43000Y89625D01*
G01X-43000Y89625D02*
G01X-43690Y89625D01*
G01X-43690Y89625D02*
G01X-43719Y89626D01*
G01X-43719Y89626D02*
G01X-43748Y89631D01*
G01X-43748Y89631D02*
G01X-43776Y89640D01*
G01X-43776Y89640D02*
G01X-43803Y89652D01*
G01X-43803Y89652D02*
G01X-43872Y89687D01*
G01X-43872Y88905D02*
G01X-43872Y89687D01*
G01X-42433Y78312D02*
G01X-42433Y78549D01*
G01X-42433Y78549D02*
G01X-42440Y78626D01*
G01X-42440Y78626D02*
G01X-42463Y78700D01*
G01X-42463Y78700D02*
G01X-42499Y78768D01*
G01X-42499Y78768D02*
G01X-42548Y78827D01*
G01X-42548Y78827D02*
G01X-42736Y79015D01*
G01X-42736Y79015D02*
G01X-42917Y79812D01*
G01X-42437Y77639D02*
G01X-42437Y78137D01*
G01X-42437Y78137D02*
G01X-42425Y78150D01*
G01X-42425Y78150D02*
G01X-42433Y78312D01*
G01X-42437Y77639D02*
G01X-43035Y77639D01*
G01X-43035Y77639D02*
G01X-43050Y77625D01*
G01X-43050Y77625D02*
G01X-43178Y77606D01*
G01X-43850Y76692D02*
G01X-43856Y76536D01*
G01X-43856Y76536D02*
G01X-43856Y77051D01*
G01X-43856Y77051D02*
G01X-43853Y77082D01*
G01X-43853Y77082D02*
G01X-43844Y77112D01*
G01X-43844Y77112D02*
G01X-43829Y77139D01*
G01X-43829Y77139D02*
G01X-43809Y77163D01*
G01X-43809Y77163D02*
G01X-43795Y77177D01*
G01X-43795Y77177D02*
G01X-43771Y77197D01*
G01X-43771Y77197D02*
G01X-43744Y77212D01*
G01X-43744Y77212D02*
G01X-43714Y77221D01*
G01X-43714Y77221D02*
G01X-43683Y77224D01*
G01X-43683Y77224D02*
G01X-41872Y77223D01*
G01X-41872Y77223D02*
G01X-41872Y77629D01*
G01X-41872Y77629D02*
G01X-41866Y77694D01*
G01X-41866Y77694D02*
G01X-41847Y77756D01*
G01X-41847Y77756D02*
G01X-41817Y77813D01*
G01X-41817Y77813D02*
G01X-41777Y77864D01*
G01X-41777Y77864D02*
G01X-41748Y77893D01*
G01X-41748Y77893D02*
G01X-41707Y77944D01*
G01X-41707Y77944D02*
G01X-41677Y78002D01*
G01X-41677Y78002D02*
G01X-41657Y78064D01*
G01X-41657Y78064D02*
G01X-41650Y78128D01*
G01X-41650Y78128D02*
G01X-41645Y78312D01*
G01X-40517Y79812D02*
G01X-40669Y79055D01*
G01X-40669Y79055D02*
G01X-41214Y79055D01*
G01X-41214Y79055D02*
G01X-41291Y79047D01*
G01X-41291Y79047D02*
G01X-41365Y79025D01*
G01X-41365Y79025D02*
G01X-41433Y78988D01*
G01X-41433Y78988D02*
G01X-41493Y78939D01*
G01X-41493Y78939D02*
G01X-41535Y78897D01*
G01X-41535Y78897D02*
G01X-41585Y78836D01*
G01X-41585Y78836D02*
G01X-41622Y78766D01*
G01X-41622Y78766D02*
G01X-41644Y78691D01*
G01X-41644Y78691D02*
G01X-41650Y78612D01*
G01X-41650Y78612D02*
G01X-41645Y78312D01*
G01X-41417Y76889D02*
G01X-41575Y76875D01*
G01X-41575Y76875D02*
G01X-41513Y76868D01*
G01X-41513Y76868D02*
G01X-41670Y76868D01*
G01X-41670Y76868D02*
G01X-41706Y76871D01*
G01X-41706Y76871D02*
G01X-41741Y76882D01*
G01X-41741Y76882D02*
G01X-41773Y76899D01*
G01X-41773Y76899D02*
G01X-41801Y76922D01*
G01X-41801Y76922D02*
G01X-41818Y76938D01*
G01X-41818Y76938D02*
G01X-41841Y76966D01*
G01X-41841Y76966D02*
G01X-41858Y76998D01*
G01X-41858Y76998D02*
G01X-41868Y77033D01*
G01X-41868Y77033D02*
G01X-41872Y77069D01*
G01X-41872Y77069D02*
G01X-41872Y77223D01*
G01X-44868Y82936D02*
G01X-44874Y82874D01*
G01X-44874Y82874D02*
G01X-44875Y83025D01*
G01X-44875Y83025D02*
G01X-44875Y83254D01*
G01X-44875Y83254D02*
G01X-44868Y83323D01*
G01X-44868Y83323D02*
G01X-44848Y83388D01*
G01X-44848Y83388D02*
G01X-44815Y83449D01*
G01X-44815Y83449D02*
G01X-44772Y83502D01*
G01X-44772Y83502D02*
G01X-44673Y83601D01*
G01X-44673Y83601D02*
G01X-44658Y83619D01*
G01X-44658Y83619D02*
G01X-44647Y83639D01*
G01X-44647Y83639D02*
G01X-44641Y83662D01*
G01X-44641Y83662D02*
G01X-44638Y83685D01*
G01X-44638Y83685D02*
G01X-44638Y83700D01*
G01X-44638Y83700D02*
G01X-44637Y83724D01*
G01X-44637Y83724D02*
G01X-44632Y83748D01*
G01X-44632Y83748D02*
G01X-44624Y83771D01*
G01X-44624Y83771D02*
G01X-44613Y83792D01*
G01X-44613Y83792D02*
G01X-44532Y83930D01*
G01X-44532Y83930D02*
G01X-44515Y84109D01*
G01X-44515Y84109D02*
G01X-44514Y84118D01*
G01X-44514Y84118D02*
G01X-44514Y84127D01*
G01X-44514Y84127D02*
G01X-44513Y84136D01*
G01X-44513Y84136D02*
G01X-44513Y84145D01*
G01X-44513Y84145D02*
G01X-44511Y84724D01*
G54D26*
G01X-45259Y76929D02*
G01X-45258Y77319D01*
G01X-45258Y77319D02*
G01X-45252Y77388D01*
G01X-45252Y77388D02*
G01X-45231Y77455D01*
G01X-45231Y77455D02*
G01X-45199Y77516D01*
G01X-45199Y77516D02*
G01X-45155Y77570D01*
G01X-45155Y77570D02*
G01X-45124Y77602D01*
G01X-45124Y77602D02*
G01X-45071Y77646D01*
G01X-45071Y77646D02*
G01X-45010Y77679D01*
G01X-45010Y77679D02*
G01X-44943Y77699D01*
G01X-44943Y77699D02*
G01X-44874Y77706D01*
G01X-44874Y77706D02*
G01X-44228Y77706D01*
G01X-44228Y77706D02*
G01X-44161Y77713D01*
G01X-44161Y77713D02*
G01X-44097Y77733D01*
G01X-44097Y77733D02*
G01X-44037Y77765D01*
G01X-44037Y77765D02*
G01X-43986Y77807D01*
G01X-43986Y77807D02*
G01X-43921Y77873D01*
G01X-43921Y77873D02*
G01X-43893Y77907D01*
G01X-43893Y77907D02*
G01X-43873Y77946D01*
G01X-43873Y77946D02*
G01X-43860Y77988D01*
G01X-43860Y77988D02*
G01X-43856Y78032D01*
G01X-43856Y78032D02*
G01X-43856Y78153D01*
G01X-43856Y78153D02*
G01X-43850Y78464D01*
G54D25*
G01X-44368Y82936D02*
G01X-44374Y82874D01*
G01X-44374Y82874D02*
G01X-44374Y82312D01*
G54D27*
G01X-44375Y82343D03*
G54D25*
G01X-44374Y82312D02*
G01X-44375Y82343D01*
G54D27*
G01X-43503Y79055D03*
G54D25*
G01X-43503Y79055D02*
G01X-43503Y78865D01*
G01X-43503Y78865D02*
G01X-43497Y78797D01*
G01X-43497Y78797D02*
G01X-43477Y78731D01*
G01X-43477Y78731D02*
G01X-43444Y78670D01*
G01X-43444Y78670D02*
G01X-43401Y78617D01*
G01X-43401Y78617D02*
G01X-43178Y78393D01*
G01X-44106Y78464D02*
G01X-44106Y78215D01*
G01X-44106Y78215D02*
G01X-44106Y78878D01*
G01X-44106Y78878D02*
G01X-44103Y78910D01*
G01X-44103Y78910D02*
G01X-44093Y78940D01*
G01X-44093Y78940D02*
G01X-44078Y78968D01*
G01X-44078Y78968D02*
G01X-44058Y78993D01*
G01X-44058Y78993D02*
G01X-44043Y79007D01*
G01X-44043Y79007D02*
G01X-44019Y79027D01*
G01X-44019Y79027D02*
G01X-43990Y79042D01*
G01X-43990Y79042D02*
G01X-43960Y79052D01*
G01X-43960Y79052D02*
G01X-43928Y79055D01*
G01X-43928Y79055D02*
G01X-43503Y79055D01*
G01X-44368Y82936D02*
G01X-43974Y82940D01*
G01X-43974Y82940D02*
G01X-43855Y83058D01*
G01X-43855Y83058D02*
G01X-43816Y83106D01*
G01X-43816Y83106D02*
G01X-43787Y83159D01*
G01X-43787Y83159D02*
G01X-43769Y83218D01*
G01X-43769Y83218D02*
G01X-43763Y83279D01*
G01X-43763Y83279D02*
G01X-43763Y83834D01*
G01X-43763Y83834D02*
G01X-43740Y83858D01*
G01X-43740Y83858D02*
G01X-43745Y83930D01*
G01X-43745Y83930D02*
G01X-43745Y84562D01*
G01X-43745Y84562D02*
G01X-43740Y84566D01*
G01X-43740Y84566D02*
G01X-43763Y84674D01*
G01X-41150Y73073D02*
G01X-41155Y73074D01*
G01X-41155Y73074D02*
G01X-41155Y73661D01*
G01X-42103Y73683D02*
G01X-42092Y73680D01*
G01X-42092Y73680D02*
G01X-41155Y73680D01*
G01X-41155Y73680D02*
G01X-41155Y73661D01*
G54D11*
G54D27*
G01X-43937Y86187D03*
G54D11*
G54D27*
G01X-46614Y77047D03*
G54D11*
G54D27*
G01X-44606Y79448D03*
G54D11*
G54D27*
G01X-42000Y86187D03*
G54D11*
G54D27*
G01X-43661Y80236D03*
G54D11*
G54D27*
G01X-40669Y76476D03*
G54D11*
G54D27*
G01X-44055Y79429D03*
G54D11*
G54D27*
G01X-45000Y88188D03*
G54D11*
G54D27*
G01X-45187Y86187D03*
G54D11*
G54D27*
G01X-46500Y86187D03*
G54D11*
G54D27*
G01X-42530Y75430D03*
G54D11*
G54D27*
G01X-43217Y75430D03*
G54D11*
G54D27*
G01X-41842Y75430D03*
G54D11*
G54D27*
G01X-46023Y84488D03*
G54D11*
G54D27*
G01X-40590Y87598D03*
G54D11*
G54D27*
G01X-41102Y78307D03*
G54D11*
G54D25*
G01X-42896Y88147D02*
G01X-43070Y88070D01*
G01X-43070Y88070D02*
G01X-43250Y87891D01*
G01X-43250Y87891D02*
G01X-43250Y87331D01*
G01X-43864Y88069D02*
G01X-43779Y87913D01*
G01X-43779Y87913D02*
G01X-43757Y87891D01*
G01X-43757Y87891D02*
G01X-43250Y87891D01*
G01X-44562Y87331D02*
G01X-44562Y87374D01*
G54D28*
G01X-44562Y87374D02*
G01X-43893Y87374D01*
G54D25*
G01X-43893Y87374D02*
G01X-43937Y87331D01*
G54D29*
G01X-45187Y87299D02*
G01X-45187Y87374D01*
G01X-45187Y87374D02*
G01X-45187Y87514D01*
G01X-45187Y87514D02*
G01X-45192Y87564D01*
G01X-45192Y87564D02*
G01X-45207Y87613D01*
G01X-45207Y87613D02*
G01X-45231Y87657D01*
G01X-45231Y87657D02*
G01X-45263Y87697D01*
G01X-45263Y87697D02*
G01X-45445Y87880D01*
G01X-45445Y87880D02*
G01X-45494Y87939D01*
G01X-45494Y87939D02*
G01X-45531Y88007D01*
G01X-45531Y88007D02*
G01X-45553Y88081D01*
G01X-45553Y88081D02*
G01X-45561Y88158D01*
G01X-45561Y88158D02*
G01X-45561Y88982D01*
G01X-45561Y88982D02*
G01X-45568Y89059D01*
G01X-45568Y89059D02*
G01X-45591Y89134D01*
G01X-45591Y89134D02*
G01X-45628Y89202D01*
G01X-45628Y89202D02*
G01X-45678Y89262D01*
G01X-45678Y89262D02*
G01X-45678Y89417D01*
G01X-45678Y89417D02*
G01X-45628Y89357D01*
G01X-45628Y89357D02*
G01X-45591Y89288D01*
G01X-45591Y89288D02*
G01X-45568Y89214D01*
G01X-45568Y89214D02*
G01X-45561Y89137D01*
G01X-45561Y89137D02*
G01X-45561Y88827D01*
G01X-45561Y88827D02*
G01X-45568Y88905D01*
G01X-45568Y88905D02*
G01X-45591Y88979D01*
G01X-45591Y88979D02*
G01X-45628Y89048D01*
G01X-45628Y89048D02*
G01X-45678Y89108D01*
G01X-45678Y89108D02*
G01X-45832Y89260D01*
G01X-45832Y89260D02*
G01X-45755Y89338D01*
G54D30*
G01X-45755Y89338D02*
G01X-45734Y89318D01*
G01X-45734Y89318D02*
G01X-45792Y89365D01*
G01X-45792Y89365D02*
G01X-45858Y89401D01*
G01X-45858Y89401D02*
G01X-45929Y89423D01*
G01X-45929Y89423D02*
G01X-46003Y89432D01*
G01X-46003Y89432D02*
G01X-46250Y89437D01*
G54D29*
G01X-46250Y89437D02*
G01X-46250Y89425D01*
G54D25*
G01X-44562Y87331D02*
G01X-44562Y87374D01*
G54D28*
G01X-44562Y87374D02*
G01X-45187Y87374D01*
G54D25*
G01X-45187Y87374D02*
G01X-45187Y87299D01*
G01X-45868Y82936D02*
G01X-45874Y82874D01*
G54D28*
G01X-45874Y82874D02*
G01X-45874Y82427D01*
G01X-45874Y82427D02*
G01X-45880Y82373D01*
G01X-45880Y82373D02*
G01X-45896Y82321D01*
G01X-45896Y82321D02*
G01X-45921Y82273D01*
G01X-45921Y82273D02*
G01X-45956Y82230D01*
G01X-45956Y82230D02*
G01X-45980Y82206D01*
G01X-45980Y82206D02*
G01X-46023Y82171D01*
G01X-46023Y82171D02*
G01X-46071Y82146D01*
G01X-46071Y82146D02*
G01X-46123Y82130D01*
G01X-46123Y82130D02*
G01X-46177Y82125D01*
G01X-46177Y82125D02*
G01X-46562Y82125D01*
G54D25*
G01X-46562Y82125D02*
G01X-46562Y82112D01*
G54D31*
G01X-44106Y76692D02*
G01X-44106Y76026D01*
G01X-44106Y76026D02*
G01X-44102Y76004D01*
G01X-44102Y76004D02*
G01X-44090Y75985D01*
G01X-44090Y75985D02*
G01X-44073Y75971D01*
G01X-44073Y75971D02*
G01X-44052Y75964D01*
G01X-44052Y75964D02*
G01X-43982Y75954D01*
G54D32*
G01X-43982Y75954D02*
G01X-40468Y75954D01*
G01X-40468Y75954D02*
G01X-40391Y75962D01*
G01X-40391Y75962D02*
G01X-40317Y75984D01*
G01X-40317Y75984D02*
G01X-40249Y76020D01*
G01X-40249Y76020D02*
G01X-40189Y76069D01*
G01X-40189Y76069D02*
G01X-40075Y76184D01*
G01X-40075Y76184D02*
G01X-40026Y76243D01*
G01X-40026Y76243D02*
G01X-39990Y76311D01*
G01X-39990Y76311D02*
G01X-39968Y76385D01*
G01X-39968Y76385D02*
G01X-39960Y76462D01*
G01X-39960Y76462D02*
G01X-39960Y77254D01*
G01X-39960Y77254D02*
G01X-39962Y78307D01*
G54D33*
G01X-39960Y86181D02*
G01X-39960Y85393D01*
G01X-39960Y85393D02*
G01X-39925Y86179D01*
G01X-39925Y86179D02*
G01X-39995Y86179D01*
G01X-39995Y86179D02*
G01X-39960Y85393D01*
G01X-39960Y85393D02*
G01X-39960Y79094D01*
G01X-39960Y79094D02*
G01X-39962Y78307D01*
G54D32*
G01X-46562Y82112D02*
G01X-46562Y85249D01*
G01X-46562Y85249D02*
G01X-46554Y85326D01*
G01X-46554Y85326D02*
G01X-46532Y85400D01*
G01X-46532Y85400D02*
G01X-46496Y85468D01*
G01X-46496Y85468D02*
G01X-46447Y85527D01*
G54D27*
G01X-45875Y86100D03*
G54D32*
G01X-46447Y85527D02*
G01X-45875Y86100D01*
G01X-45875Y86100D02*
G01X-45875Y86425D01*
G01X-45875Y86425D02*
G01X-45866Y86535D01*
G01X-45866Y86535D02*
G01X-45875Y86543D01*
G54D34*
G01X-41417Y77259D02*
G01X-40055Y77259D01*
G01X-40055Y77259D02*
G01X-40039Y77244D01*
G01X-40039Y77244D02*
G01X-39960Y77254D01*
G01X-45368Y80686D02*
G01X-45368Y80301D01*
G01X-45368Y80301D02*
G01X-45816Y79852D01*
G01X-45816Y79852D02*
G01X-45832Y79832D01*
G01X-45832Y79832D02*
G01X-45845Y79809D01*
G01X-45845Y79809D02*
G01X-45852Y79784D01*
G01X-45852Y79784D02*
G01X-45855Y79758D01*
G01X-45855Y79758D02*
G01X-45855Y79687D01*
G54D26*
G01X-45855Y79687D02*
G01X-45762Y79553D01*
G01X-45762Y79553D02*
G01X-45746Y79526D01*
G01X-45746Y79526D02*
G01X-45734Y79497D01*
G01X-45734Y79497D02*
G01X-45727Y79466D01*
G01X-45727Y79466D02*
G01X-45725Y79434D01*
G01X-45725Y79434D02*
G01X-45725Y79409D01*
G01X-45725Y79409D02*
G01X-45722Y79381D01*
G01X-45722Y79381D02*
G01X-45714Y79354D01*
G01X-45714Y79354D02*
G01X-45700Y79329D01*
G01X-45700Y79329D02*
G01X-45682Y79307D01*
G01X-45682Y79307D02*
G01X-45670Y79294D01*
G01X-45670Y79294D02*
G01X-45648Y79276D01*
G01X-45648Y79276D02*
G01X-45623Y79263D01*
G01X-45623Y79263D02*
G01X-45596Y79254D01*
G01X-45596Y79254D02*
G01X-45568Y79251D01*
G01X-45568Y79251D02*
G01X-45412Y79251D01*
G01X-45412Y79251D02*
G01X-45385Y79249D01*
G01X-45385Y79249D02*
G01X-45358Y79241D01*
G01X-45358Y79241D02*
G01X-45334Y79228D01*
G01X-45334Y79228D02*
G01X-45313Y79210D01*
G01X-45313Y79210D02*
G01X-45300Y79198D01*
G01X-45300Y79198D02*
G01X-45283Y79177D01*
G01X-45283Y79177D02*
G01X-45270Y79153D01*
G01X-45270Y79153D02*
G01X-45262Y79126D01*
G01X-45262Y79126D02*
G01X-45259Y79099D01*
G01X-45259Y79099D02*
G01X-45259Y78700D01*
G01X-45456Y76929D02*
G01X-45453Y76363D01*
G01X-45453Y76363D02*
G01X-45445Y76287D01*
G01X-45445Y76287D02*
G01X-45422Y76214D01*
G01X-45422Y76214D02*
G01X-45386Y76146D01*
G01X-45386Y76146D02*
G01X-45337Y76087D01*
G01X-45337Y76087D02*
G01X-44676Y75426D01*
G01X-44676Y75426D02*
G01X-44638Y75379D01*
G01X-44638Y75379D02*
G01X-44610Y75326D01*
G01X-44610Y75326D02*
G01X-44593Y75268D01*
G01X-44593Y75268D02*
G01X-44588Y75208D01*
G01X-44588Y75208D02*
G01X-44592Y75042D01*
G54D25*
G01X-43905Y75042D02*
G01X-43905Y75118D01*
G01X-43905Y75118D02*
G01X-44592Y75118D01*
G01X-44592Y75118D02*
G01X-44592Y75042D01*
G54D34*
G01X-44868Y80686D02*
G01X-44881Y80393D01*
G01X-44881Y80393D02*
G01X-44881Y80282D01*
G01X-44881Y80282D02*
G01X-44885Y80242D01*
G01X-44885Y80242D02*
G01X-44897Y80203D01*
G01X-44897Y80203D02*
G01X-44916Y80167D01*
G01X-44916Y80167D02*
G01X-44941Y80135D01*
G01X-44941Y80135D02*
G01X-44964Y80112D01*
G01X-44964Y80112D02*
G01X-44990Y80080D01*
G01X-44990Y80080D02*
G01X-45009Y80043D01*
G01X-45009Y80043D02*
G01X-45021Y80004D01*
G01X-45021Y80004D02*
G01X-45025Y79963D01*
G01X-45025Y79963D02*
G01X-45025Y79934D01*
G01X-45025Y79934D02*
G01X-45027Y79893D01*
G01X-45027Y79893D02*
G01X-45036Y79853D01*
G01X-45036Y79853D02*
G01X-45051Y79815D01*
G01X-45051Y79815D02*
G01X-45071Y79779D01*
G01X-45071Y79779D02*
G01X-45130Y79687D01*
G54D26*
G01X-45130Y79687D02*
G01X-45063Y79516D01*
G01X-45063Y79516D02*
G01X-45051Y79481D01*
G01X-45051Y79481D02*
G01X-45042Y79445D01*
G01X-45042Y79445D02*
G01X-45037Y79408D01*
G01X-45037Y79408D02*
G01X-45035Y79371D01*
G01X-45035Y79371D02*
G01X-45035Y78277D01*
G01X-45035Y78277D02*
G01X-45043Y78200D01*
G01X-45043Y78200D02*
G01X-45065Y78126D01*
G01X-45065Y78126D02*
G01X-45101Y78058D01*
G01X-45101Y78058D02*
G01X-45150Y77998D01*
G01X-45150Y77998D02*
G01X-45342Y77806D01*
G01X-45342Y77806D02*
G01X-45391Y77746D01*
G01X-45391Y77746D02*
G01X-45428Y77678D01*
G01X-45428Y77678D02*
G01X-45450Y77604D01*
G01X-45450Y77604D02*
G01X-45458Y77527D01*
G01X-45458Y77527D02*
G01X-45456Y76929D01*
G54D25*
G01X-44353Y73183D02*
G01X-44342Y73180D01*
G54D28*
G01X-44342Y73180D02*
G01X-43943Y73180D01*
G01X-43943Y73180D02*
G01X-43866Y73188D01*
G01X-43866Y73188D02*
G01X-43792Y73210D01*
G01X-43792Y73210D02*
G01X-43724Y73246D01*
G01X-43724Y73246D02*
G01X-43664Y73295D01*
G01X-43664Y73295D02*
G01X-43332Y73627D01*
G01X-43332Y73627D02*
G01X-43283Y73687D01*
G01X-43283Y73687D02*
G01X-43247Y73755D01*
G01X-43247Y73755D02*
G01X-43225Y73829D01*
G01X-43225Y73829D02*
G01X-43217Y73906D01*
G01X-43217Y73906D02*
G01X-43217Y74305D01*
G54D25*
G01X-43217Y74305D02*
G01X-43217Y74318D01*
G01X-41842Y74318D02*
G01X-41771Y74370D01*
G01X-41771Y74370D02*
G01X-41265Y74370D01*
G01X-41265Y74370D02*
G01X-41244Y74372D01*
G01X-41244Y74372D02*
G01X-41224Y74379D01*
G01X-41224Y74379D02*
G01X-41206Y74390D01*
G01X-41206Y74390D02*
G01X-41192Y74404D01*
G01X-41192Y74404D02*
G01X-41155Y74449D01*
G01X-41842Y74318D02*
G01X-42530Y74318D01*
G01X-43905Y74318D02*
G01X-44592Y74318D01*
G01X-44592Y74318D02*
G01X-44667Y74347D01*
G01X-44667Y74347D02*
G01X-44695Y74357D01*
G01X-44695Y74357D02*
G01X-44725Y74364D01*
G01X-44725Y74364D02*
G01X-44755Y74368D01*
G01X-44755Y74368D02*
G01X-44785Y74370D01*
G01X-44785Y74370D02*
G01X-45094Y74370D01*
G01X-45094Y74370D02*
G01X-45124Y74372D01*
G01X-45124Y74372D02*
G01X-45154Y74378D01*
G01X-45154Y74378D02*
G01X-45183Y74389D01*
G01X-45183Y74389D02*
G01X-45210Y74404D01*
G01X-45210Y74404D02*
G01X-45280Y74449D01*
G01X-41299Y87322D02*
G01X-41299Y87553D01*
G01X-41299Y87553D02*
G01X-41306Y87630D01*
G01X-41306Y87630D02*
G01X-41329Y87704D01*
G01X-41329Y87704D02*
G01X-41365Y87772D01*
G01X-41365Y87772D02*
G01X-41414Y87831D01*
G01X-41414Y87831D02*
G01X-41680Y88097D01*
G01X-41680Y88097D02*
G01X-41729Y88157D01*
G01X-41729Y88157D02*
G01X-41766Y88226D01*
G01X-41766Y88226D02*
G01X-41788Y88300D01*
G01X-41788Y88300D02*
G01X-41795Y88377D01*
G01X-41795Y88377D02*
G01X-41795Y88622D01*
G01X-41795Y88622D02*
G01X-41796Y89148D01*
G01X-41796Y89148D02*
G01X-40646Y89147D01*
G01X-40646Y88647D02*
G01X-40750Y88625D01*
G01X-40750Y88625D02*
G01X-42674Y88625D01*
G01X-42674Y88625D02*
G01X-42677Y88622D01*
G01X-42677Y88622D02*
G01X-42896Y88647D01*
G01X-44659Y88905D02*
G01X-44634Y89020D01*
G01X-44634Y89020D02*
G01X-44630Y89041D01*
G01X-44630Y89041D02*
G01X-44627Y89062D01*
G01X-44627Y89062D02*
G01X-44625Y89084D01*
G01X-44625Y89084D02*
G01X-44625Y89105D01*
G01X-44625Y89105D02*
G01X-44625Y89687D01*
G01X-44625Y89687D02*
G01X-44659Y89687D01*
G01X-46250Y90212D02*
G01X-45947Y90212D01*
G01X-45947Y90212D02*
G01X-46115Y90393D01*
G01X-46115Y90393D02*
G01X-46115Y90031D01*
G01X-46115Y90031D02*
G01X-45947Y90212D01*
G01X-45947Y90212D02*
G01X-45807Y90212D01*
G01X-45807Y90212D02*
G01X-45731Y90204D01*
G01X-45731Y90204D02*
G01X-45657Y90182D01*
G01X-45657Y90182D02*
G01X-45589Y90145D01*
G01X-45589Y90145D02*
G01X-45529Y90096D01*
G01X-45529Y90096D02*
G01X-45235Y89802D01*
G01X-45235Y89802D02*
G01X-45175Y89753D01*
G01X-45175Y89753D02*
G01X-45107Y89717D01*
G01X-45107Y89717D02*
G01X-45033Y89694D01*
G01X-45033Y89694D02*
G01X-44956Y89687D01*
G01X-44956Y89687D02*
G01X-44625Y89687D01*
G01X-44625Y89687D02*
G01X-44659Y89687D01*
G01X-43937Y90641D02*
G01X-43937Y90641D01*
G01X-43937Y90641D02*
G01X-44461Y90117D01*
G01X-44461Y90117D02*
G01X-44504Y90065D01*
G01X-44504Y90065D02*
G01X-44536Y90005D01*
G01X-44536Y90005D02*
G01X-44555Y89940D01*
G01X-44555Y89940D02*
G01X-44562Y89873D01*
G01X-44562Y89873D02*
G01X-44562Y89687D01*
G01X-44562Y89687D02*
G01X-44659Y89687D01*
G01X-42896Y89147D02*
G01X-41796Y89148D01*
G01X-44659Y88905D02*
G01X-44653Y88905D01*
G01X-44653Y88905D02*
G01X-44347Y88599D01*
G01X-44347Y88599D02*
G01X-44287Y88550D01*
G01X-44287Y88550D02*
G01X-44219Y88514D01*
G01X-44219Y88514D02*
G01X-44146Y88491D01*
G01X-44146Y88491D02*
G01X-44069Y88484D01*
G01X-44069Y88484D02*
G01X-43608Y88484D01*
G01X-43608Y88484D02*
G01X-43568Y88488D01*
G01X-43568Y88488D02*
G01X-43530Y88499D01*
G01X-43530Y88499D02*
G01X-43494Y88518D01*
G01X-43494Y88518D02*
G01X-43463Y88544D01*
G01X-43463Y88544D02*
G01X-43434Y88573D01*
G01X-43434Y88573D02*
G01X-43409Y88594D01*
G01X-43409Y88594D02*
G01X-43380Y88609D01*
G01X-43380Y88609D02*
G01X-43349Y88618D01*
G01X-43349Y88618D02*
G01X-43317Y88622D01*
G01X-43317Y88622D02*
G01X-43228Y88622D01*
G01X-43228Y88622D02*
G01X-42896Y88647D01*
G01X-40646Y88647D02*
G01X-40826Y88622D01*
G01X-40826Y88622D02*
G01X-41795Y88622D01*
G54D29*
G01X-46500Y87299D02*
G01X-46500Y88227D01*
G01X-46500Y88227D02*
G01X-46492Y88300D01*
G01X-46492Y88300D02*
G01X-46471Y88371D01*
G01X-46471Y88371D02*
G01X-46437Y88436D01*
G01X-46437Y88436D02*
G01X-46391Y88493D01*
G01X-46391Y88493D02*
G01X-46391Y88650D01*
G01X-46391Y88650D02*
G01X-46437Y88593D01*
G01X-46437Y88593D02*
G01X-46471Y88528D01*
G01X-46471Y88528D02*
G01X-46492Y88457D01*
G01X-46492Y88457D02*
G01X-46500Y88384D01*
G01X-46500Y88384D02*
G01X-46500Y88069D01*
G01X-46500Y88069D02*
G01X-46492Y88143D01*
G01X-46492Y88143D02*
G01X-46471Y88213D01*
G01X-46471Y88213D02*
G01X-46437Y88278D01*
G01X-46437Y88278D02*
G01X-46391Y88336D01*
G01X-46391Y88336D02*
G01X-46234Y88496D01*
G01X-46234Y88496D02*
G01X-46312Y88573D01*
G54D30*
G01X-46312Y88573D02*
G01X-46250Y88637D01*
G54D25*
G01X-45875Y87331D02*
G01X-45831Y87374D01*
G54D28*
G01X-45831Y87374D02*
G01X-46500Y87374D01*
G54D25*
G01X-46500Y87374D02*
G01X-46500Y87299D01*
G01X-42927Y84437D02*
G01X-42835Y83565D01*
G01X-42835Y83565D02*
G01X-42349Y83563D01*
G01X-42349Y83563D02*
G01X-42273Y83555D01*
G01X-42273Y83555D02*
G01X-42199Y83532D01*
G01X-42199Y83532D02*
G01X-42132Y83496D01*
G01X-42132Y83496D02*
G01X-42072Y83447D01*
G01X-42072Y83447D02*
G01X-41740Y83115D01*
G01X-41740Y83115D02*
G01X-41680Y83066D01*
G01X-41680Y83066D02*
G01X-41612Y83029D01*
G01X-41612Y83029D02*
G01X-41538Y83007D01*
G01X-41538Y83007D02*
G01X-41461Y83000D01*
G01X-41461Y83000D02*
G01X-40562Y83000D01*
G01X-40562Y83000D02*
G01X-40517Y82125D01*
G01X-42927Y84437D02*
G01X-43050Y85100D01*
G01X-43050Y85100D02*
G01X-43364Y85414D01*
G01X-43364Y85414D02*
G01X-43395Y85440D01*
G01X-43395Y85440D02*
G01X-43431Y85458D01*
G01X-43431Y85458D02*
G01X-43470Y85470D01*
G01X-43470Y85470D02*
G01X-43510Y85473D01*
G01X-43510Y85473D02*
G01X-43622Y85472D01*
G01X-43622Y85472D02*
G01X-43763Y85462D01*
G01X-45280Y73661D02*
G01X-45280Y73618D01*
G01X-45280Y73618D02*
G01X-45280Y73074D01*
G01X-45280Y73661D02*
G01X-45226Y73680D01*
G01X-45226Y73680D02*
G01X-44655Y73680D01*
G01X-44655Y73680D02*
G01X-44353Y73683D01*
G01X-40590Y86377D02*
G01X-40585Y85150D01*
G01X-40585Y85150D02*
G01X-40527Y84437D01*
G01X-41299Y86535D02*
G01X-41254Y86490D01*
G01X-41254Y86490D02*
G01X-41236Y86476D01*
G01X-41236Y86476D02*
G01X-41216Y86465D01*
G01X-41216Y86465D02*
G01X-41194Y86458D01*
G01X-41194Y86458D02*
G01X-41172Y86456D01*
G01X-41172Y86456D02*
G01X-40863Y86456D01*
G01X-40863Y86456D02*
G01X-40825Y86454D01*
G01X-40825Y86454D02*
G01X-40788Y86449D01*
G01X-40788Y86449D02*
G01X-40752Y86440D01*
G01X-40752Y86440D02*
G01X-40717Y86428D01*
G01X-40717Y86428D02*
G01X-40590Y86377D01*
G01X-44353Y72183D02*
G01X-44467Y72180D01*
G01X-44467Y72180D02*
G01X-45233Y72180D01*
G01X-45233Y72180D02*
G01X-45251Y72184D01*
G01X-45251Y72184D02*
G01X-45266Y72194D01*
G01X-45266Y72194D02*
G01X-45276Y72209D01*
G01X-45276Y72209D02*
G01X-45280Y72226D01*
G01X-45280Y72226D02*
G01X-45280Y72286D01*
G01X-44353Y72183D02*
G01X-44370Y72086D01*
G01X-44370Y72086D02*
G01X-44370Y71456D01*
G01X-42917Y82125D02*
G01X-43159Y81937D01*
G01X-43159Y81937D02*
G01X-44774Y81937D01*
G01X-44774Y81937D02*
G01X-44851Y81945D01*
G01X-44851Y81945D02*
G01X-44925Y81967D01*
G01X-44925Y81967D02*
G01X-44993Y82003D01*
G01X-44993Y82003D02*
G01X-45052Y82052D01*
G01X-45052Y82052D02*
G01X-45259Y82259D01*
G01X-45259Y82259D02*
G01X-45308Y82319D01*
G01X-45308Y82319D02*
G01X-45345Y82387D01*
G01X-45345Y82387D02*
G01X-45367Y82461D01*
G01X-45367Y82461D02*
G01X-45374Y82538D01*
G01X-45374Y82538D02*
G01X-45374Y82815D01*
G01X-45374Y82815D02*
G01X-45393Y82834D01*
G01X-45393Y82834D02*
G01X-45368Y82936D01*
G01X-45368Y82936D02*
G01X-45350Y83050D01*
G01X-45350Y83050D02*
G01X-45350Y83405D01*
G01X-45350Y83405D02*
G01X-45346Y83437D01*
G01X-45346Y83437D02*
G01X-45337Y83469D01*
G01X-45337Y83469D02*
G01X-45321Y83498D01*
G01X-45321Y83498D02*
G01X-45300Y83524D01*
G01X-45300Y83524D02*
G01X-45285Y83539D01*
G01X-45285Y83539D02*
G01X-45264Y83564D01*
G01X-45264Y83564D02*
G01X-45249Y83594D01*
G01X-45249Y83594D02*
G01X-45239Y83625D01*
G01X-45239Y83625D02*
G01X-45236Y83658D01*
G01X-45236Y83658D02*
G01X-45236Y83813D01*
G01X-45236Y83813D02*
G01X-45225Y83825D01*
G01X-45225Y83825D02*
G01X-45226Y83930D01*

G04 Draw clearances for text*

G04 -------------- Draw Parts, Pads, Traces, Vias and Text (positive)*
%LPD*%
G04 Draw part R109*
G54D35*
G01X-41155Y74449D03*
G01X-41155Y73661D03*
G04 Draw part C104*
G01X-43661Y80700D03*
G01X-43661Y81425D03*
G04 Draw part R101*
G01X-43763Y84674D03*
G01X-43763Y85462D03*
G04 Draw part C105*
G01X-46562Y82112D03*
G01X-46562Y81387D03*
G04 Draw part r105*
G01X-41150Y73073D03*
G01X-41150Y72286D03*
G04 Draw part R116*
G01X-40590Y87165D03*
G01X-40590Y86377D03*
G04 Draw part C112*
G01X-43905Y74318D03*
G01X-43905Y75042D03*
G04 Draw part C113*
G01X-43217Y74318D03*
G01X-43217Y75042D03*
G04 Draw part R106*
G01X-43178Y78393D03*
G01X-43178Y77606D03*
G04 Draw part R103*
G54D36*
G01X-43745Y83930D03*
G01X-44532Y83930D03*
G04 Draw part RP10*
G54D35*
G01X-42625Y87331D03*
G01X-42625Y86543D03*
G04 Draw part R100*
G01X-43250Y87331D03*
G01X-43250Y86543D03*
G04 Draw part RP13*
G01X-43937Y86543D03*
G01X-43937Y87331D03*
G04 Draw part R113*
G54D36*
G01X-43872Y89687D03*
G01X-44659Y89687D03*
G04 Draw part C114*
G01X-43590Y71417D03*
G01X-42866Y71417D03*
G04 Draw part C109*
G54D35*
G01X-46614Y77433D03*
G01X-46614Y78157D03*
G04 Draw part DA103*
G54D37*
G01X-45259Y78700D03*
G01X-45456Y78700D03*
G01X-45653Y78700D03*
G01X-45850Y78700D03*
G01X-46047Y78700D03*
G01X-46047Y76929D03*
G01X-45850Y76929D03*
G01X-45653Y76929D03*
G01X-45456Y76929D03*
G01X-45259Y76929D03*
G04 Draw part RP14*
G54D35*
G01X-45875Y86543D03*
G01X-45875Y87331D03*
G04 Draw part R112*
G01X-42086Y70708D03*
G01X-42086Y71496D03*
G04 Draw part R111*
G01X-44370Y70669D03*
G01X-44370Y71456D03*
G04 Draw part R108*
G01X-45280Y74449D03*
G01X-45280Y73661D03*
G04 Draw part C108*
G54D36*
G01X-40687Y78307D03*
G01X-39962Y78307D03*
G04 Draw part C107*
G54D35*
G01X-40669Y77616D03*
G01X-40669Y76891D03*
G04 Draw part C110*
G54D36*
G01X-45855Y79687D03*
G01X-45130Y79687D03*
G04 Draw part C106*
G54D38*
G01X-40517Y79812D03*
G01X-42917Y79812D03*
G04 Draw part C101*
G01X-40517Y82125D03*
G01X-42917Y82125D03*
G04 Draw part R102*
G54D36*
G01X-45299Y84724D03*
G01X-44511Y84724D03*
G04 Draw part R114*
G01X-43872Y88905D03*
G01X-44659Y88905D03*
G04 Draw part C119*
G01X-44589Y88069D03*
G01X-43864Y88069D03*
G04 Draw part R110*
G54D35*
G01X-45280Y73074D03*
G01X-45280Y72286D03*
G04 Draw part C115*
G01X-42530Y75042D03*
G01X-42530Y74318D03*
G04 Draw part C111*
G01X-44592Y74318D03*
G01X-44592Y75042D03*
G04 Draw part C120*
G01X-41842Y75042D03*
G01X-41842Y74318D03*
G04 Draw part R107*
G54D36*
G01X-42433Y78312D03*
G01X-41645Y78312D03*
G04 Draw part C100*
G54D38*
G01X-42927Y84437D03*
G01X-40527Y84437D03*
G04 Draw part DA102*
G54D39*
G01X-43850Y78464D03*
G01X-44106Y78464D03*
G01X-44362Y78464D03*
G01X-44618Y78464D03*
G01X-44618Y76692D03*
G01X-44362Y76692D03*
G01X-44106Y76692D03*
G01X-43850Y76692D03*
G04 Draw part DA101*
G54D40*
G01X-41417Y76889D03*
G01X-41417Y77259D03*
G01X-41417Y77639D03*
G01X-42437Y77639D03*
G01X-42437Y76889D03*
G04 Draw part R104*
G54D36*
G01X-45226Y83930D03*
G01X-46013Y83930D03*
G04 Draw part DA100*
G54D41*
G01X-44368Y82936D03*
G01X-44868Y82936D03*
G01X-44868Y80686D03*
G01X-44368Y80686D03*
G01X-45368Y82936D03*
G01X-45868Y82936D03*
G01X-45868Y80686D03*
G01X-45368Y80686D03*
G04 Draw part RP11*
G54D35*
G01X-42000Y87331D03*
G01X-42000Y86543D03*
G04 Draw part C102*
G01X-45187Y87299D03*
G01X-45187Y86575D03*
G04 Draw part RP12*
G01X-44562Y86543D03*
G01X-44562Y87331D03*
G04 Draw part R115*
G01X-41299Y86535D03*
G01X-41299Y87322D03*
G04 Draw part C103*
G01X-46500Y87299D03*
G01X-46500Y86575D03*
G04 Draw part DA105*
G54D42*
G01X-42896Y89647D03*
G01X-42896Y89147D03*
G01X-40646Y89147D03*
G01X-40646Y89647D03*
G01X-42896Y88647D03*
G01X-42896Y88147D03*
G01X-40646Y88147D03*
G01X-40646Y88647D03*
G04 Draw part X10*
G54D43*
G01X-46250Y91000D03*
G54D44*
G01X-46250Y89425D03*
G01X-46250Y88637D03*
G01X-46250Y90212D03*
G04 Draw part DA104*
G54D42*
G01X-44353Y73683D03*
G01X-44353Y73183D03*
G01X-42103Y73183D03*
G01X-42103Y73683D03*
G01X-44353Y72683D03*
G01X-44353Y72183D03*
G01X-42103Y72183D03*
G01X-42103Y72683D03*
G04 Draw part X10**
G54D45*
G01X-44921Y90641D03*
G01X-43937Y90641D03*
G54D46*
G01X-41968Y92609D03*
G01X-45906Y92609D03*
G04 Draw part via_1*
G54D47*
G01X-42834Y70944D03*
G04 Draw part via_2*
G01X-43582Y70944D03*
G04 Draw part via_3*
G01X-46614Y78582D03*
G04 Draw part via_4*
G01X-45866Y81417D03*
G04 Draw part Po1*
G54D48*
G01X-37755Y78543D03*
G04 Draw part via_5*
G54D47*
G01X-39960Y86181D03*

G04 Draw traces*
G54D49*
G01X-42103Y72183D02*
G01X-42092Y72180D01*
G01X-42092Y72180D02*
G01X-41272Y72180D01*
G01X-41272Y72180D02*
G01X-41247Y72183D01*
G01X-41247Y72183D02*
G01X-41224Y72192D01*
G01X-41224Y72192D02*
G01X-41204Y72207D01*
G01X-41204Y72207D02*
G01X-41188Y72226D01*
G01X-41188Y72226D02*
G01X-41150Y72286D01*
G01X-42103Y72183D02*
G01X-42086Y72086D01*
G01X-42086Y72086D02*
G01X-42086Y71496D01*
G01X-42625Y87331D02*
G01X-42730Y87320D01*
G01X-42730Y87320D02*
G01X-42762Y87311D01*
G01X-42762Y87311D02*
G01X-42789Y87291D01*
G01X-42789Y87291D02*
G01X-42806Y87263D01*
G01X-42806Y87263D02*
G01X-42812Y87230D01*
G01X-42812Y87230D02*
G01X-42812Y87171D01*
G01X-42812Y87171D02*
G01X-42817Y87120D01*
G01X-42817Y87120D02*
G01X-42832Y87070D01*
G01X-42832Y87070D02*
G01X-42856Y87025D01*
G01X-42856Y87025D02*
G01X-42889Y86985D01*
G01X-42889Y86985D02*
G01X-42985Y86889D01*
G01X-42985Y86889D02*
G01X-43018Y86849D01*
G01X-43018Y86849D02*
G01X-43042Y86804D01*
G01X-43042Y86804D02*
G01X-43057Y86754D01*
G01X-43057Y86754D02*
G01X-43062Y86703D01*
G01X-43062Y86703D02*
G01X-43062Y86644D01*
G01X-43062Y86644D02*
G01X-43068Y86611D01*
G01X-43068Y86611D02*
G01X-43085Y86583D01*
G01X-43085Y86583D02*
G01X-43112Y86563D01*
G01X-43112Y86563D02*
G01X-43144Y86554D01*
G01X-43144Y86554D02*
G01X-43250Y86543D01*
G01X-42000Y87331D02*
G01X-42000Y87374D01*
G01X-42000Y87374D02*
G01X-42625Y87374D01*
G01X-42625Y87374D02*
G01X-42625Y87331D01*
G01X-42896Y89647D02*
G01X-43000Y89625D01*
G01X-43000Y89625D02*
G01X-43690Y89625D01*
G01X-43690Y89625D02*
G01X-43719Y89626D01*
G01X-43719Y89626D02*
G01X-43748Y89631D01*
G01X-43748Y89631D02*
G01X-43776Y89640D01*
G01X-43776Y89640D02*
G01X-43803Y89652D01*
G01X-43803Y89652D02*
G01X-43872Y89687D01*
G01X-43872Y88905D02*
G01X-43872Y89687D01*
G01X-42433Y78312D02*
G01X-42433Y78549D01*
G01X-42433Y78549D02*
G01X-42440Y78626D01*
G01X-42440Y78626D02*
G01X-42463Y78700D01*
G01X-42463Y78700D02*
G01X-42499Y78768D01*
G01X-42499Y78768D02*
G01X-42548Y78827D01*
G01X-42548Y78827D02*
G01X-42736Y79015D01*
G01X-42736Y79015D02*
G01X-42917Y79812D01*
G01X-42437Y77639D02*
G01X-42437Y78137D01*
G01X-42437Y78137D02*
G01X-42425Y78150D01*
G01X-42425Y78150D02*
G01X-42433Y78312D01*
G01X-42437Y77639D02*
G01X-43035Y77639D01*
G01X-43035Y77639D02*
G01X-43050Y77625D01*
G01X-43050Y77625D02*
G01X-43178Y77606D01*
G01X-43850Y76692D02*
G01X-43856Y76536D01*
G01X-43856Y76536D02*
G01X-43856Y77051D01*
G01X-43856Y77051D02*
G01X-43853Y77082D01*
G01X-43853Y77082D02*
G01X-43844Y77112D01*
G01X-43844Y77112D02*
G01X-43829Y77139D01*
G01X-43829Y77139D02*
G01X-43809Y77163D01*
G01X-43809Y77163D02*
G01X-43795Y77177D01*
G01X-43795Y77177D02*
G01X-43771Y77197D01*
G01X-43771Y77197D02*
G01X-43744Y77212D01*
G01X-43744Y77212D02*
G01X-43714Y77221D01*
G01X-43714Y77221D02*
G01X-43683Y77224D01*
G01X-43683Y77224D02*
G01X-41872Y77223D01*
G01X-41872Y77223D02*
G01X-41872Y77629D01*
G01X-41872Y77629D02*
G01X-41866Y77694D01*
G01X-41866Y77694D02*
G01X-41847Y77756D01*
G01X-41847Y77756D02*
G01X-41817Y77813D01*
G01X-41817Y77813D02*
G01X-41777Y77864D01*
G01X-41777Y77864D02*
G01X-41748Y77893D01*
G01X-41748Y77893D02*
G01X-41707Y77944D01*
G01X-41707Y77944D02*
G01X-41677Y78002D01*
G01X-41677Y78002D02*
G01X-41657Y78064D01*
G01X-41657Y78064D02*
G01X-41650Y78128D01*
G01X-41650Y78128D02*
G01X-41645Y78312D01*
G01X-40517Y79812D02*
G01X-40669Y79055D01*
G01X-40669Y79055D02*
G01X-41214Y79055D01*
G01X-41214Y79055D02*
G01X-41291Y79047D01*
G01X-41291Y79047D02*
G01X-41365Y79025D01*
G01X-41365Y79025D02*
G01X-41433Y78988D01*
G01X-41433Y78988D02*
G01X-41493Y78939D01*
G01X-41493Y78939D02*
G01X-41535Y78897D01*
G01X-41535Y78897D02*
G01X-41585Y78836D01*
G01X-41585Y78836D02*
G01X-41622Y78766D01*
G01X-41622Y78766D02*
G01X-41644Y78691D01*
G01X-41644Y78691D02*
G01X-41650Y78612D01*
G01X-41650Y78612D02*
G01X-41645Y78312D01*
G01X-41417Y76889D02*
G01X-41575Y76875D01*
G01X-41575Y76875D02*
G01X-41513Y76868D01*
G01X-41513Y76868D02*
G01X-41670Y76868D01*
G01X-41670Y76868D02*
G01X-41706Y76871D01*
G01X-41706Y76871D02*
G01X-41741Y76882D01*
G01X-41741Y76882D02*
G01X-41773Y76899D01*
G01X-41773Y76899D02*
G01X-41801Y76922D01*
G01X-41801Y76922D02*
G01X-41818Y76938D01*
G01X-41818Y76938D02*
G01X-41841Y76966D01*
G01X-41841Y76966D02*
G01X-41858Y76998D01*
G01X-41858Y76998D02*
G01X-41868Y77033D01*
G01X-41868Y77033D02*
G01X-41872Y77069D01*
G01X-41872Y77069D02*
G01X-41872Y77223D01*
G01X-44868Y82936D02*
G01X-44874Y82874D01*
G01X-44874Y82874D02*
G01X-44875Y83025D01*
G01X-44875Y83025D02*
G01X-44875Y83254D01*
G01X-44875Y83254D02*
G01X-44868Y83323D01*
G01X-44868Y83323D02*
G01X-44848Y83388D01*
G01X-44848Y83388D02*
G01X-44815Y83449D01*
G01X-44815Y83449D02*
G01X-44772Y83502D01*
G01X-44772Y83502D02*
G01X-44673Y83601D01*
G01X-44673Y83601D02*
G01X-44658Y83619D01*
G01X-44658Y83619D02*
G01X-44647Y83639D01*
G01X-44647Y83639D02*
G01X-44641Y83662D01*
G01X-44641Y83662D02*
G01X-44638Y83685D01*
G01X-44638Y83685D02*
G01X-44638Y83700D01*
G01X-44638Y83700D02*
G01X-44637Y83724D01*
G01X-44637Y83724D02*
G01X-44632Y83748D01*
G01X-44632Y83748D02*
G01X-44624Y83771D01*
G01X-44624Y83771D02*
G01X-44613Y83792D01*
G01X-44613Y83792D02*
G01X-44532Y83930D01*
G01X-44532Y83930D02*
G01X-44515Y84109D01*
G01X-44515Y84109D02*
G01X-44514Y84118D01*
G01X-44514Y84118D02*
G01X-44514Y84127D01*
G01X-44514Y84127D02*
G01X-44513Y84136D01*
G01X-44513Y84136D02*
G01X-44513Y84145D01*
G01X-44513Y84145D02*
G01X-44511Y84724D01*
G54D50*
G01X-45259Y76929D02*
G01X-45258Y77319D01*
G01X-45258Y77319D02*
G01X-45252Y77388D01*
G01X-45252Y77388D02*
G01X-45231Y77455D01*
G01X-45231Y77455D02*
G01X-45199Y77516D01*
G01X-45199Y77516D02*
G01X-45155Y77570D01*
G01X-45155Y77570D02*
G01X-45124Y77602D01*
G01X-45124Y77602D02*
G01X-45071Y77646D01*
G01X-45071Y77646D02*
G01X-45010Y77679D01*
G01X-45010Y77679D02*
G01X-44943Y77699D01*
G01X-44943Y77699D02*
G01X-44874Y77706D01*
G01X-44874Y77706D02*
G01X-44228Y77706D01*
G01X-44228Y77706D02*
G01X-44161Y77713D01*
G01X-44161Y77713D02*
G01X-44097Y77733D01*
G01X-44097Y77733D02*
G01X-44037Y77765D01*
G01X-44037Y77765D02*
G01X-43986Y77807D01*
G01X-43986Y77807D02*
G01X-43921Y77873D01*
G01X-43921Y77873D02*
G01X-43893Y77907D01*
G01X-43893Y77907D02*
G01X-43873Y77946D01*
G01X-43873Y77946D02*
G01X-43860Y77988D01*
G01X-43860Y77988D02*
G01X-43856Y78032D01*
G01X-43856Y78032D02*
G01X-43856Y78153D01*
G01X-43856Y78153D02*
G01X-43850Y78464D01*
G54D49*
G01X-44368Y82936D02*
G01X-44374Y82874D01*
G01X-44374Y82874D02*
G01X-44374Y82312D01*
G01X-44374Y82312D02*
G01X-44375Y82343D01*
G54D51*
G01X-44375Y82343D03*
G01X-43503Y79055D03*
G54D49*
G01X-43503Y79055D02*
G01X-43503Y78865D01*
G01X-43503Y78865D02*
G01X-43497Y78797D01*
G01X-43497Y78797D02*
G01X-43477Y78731D01*
G01X-43477Y78731D02*
G01X-43444Y78670D01*
G01X-43444Y78670D02*
G01X-43401Y78617D01*
G01X-43401Y78617D02*
G01X-43178Y78393D01*
G01X-44106Y78464D02*
G01X-44106Y78215D01*
G01X-44106Y78215D02*
G01X-44106Y78878D01*
G01X-44106Y78878D02*
G01X-44103Y78910D01*
G01X-44103Y78910D02*
G01X-44093Y78940D01*
G01X-44093Y78940D02*
G01X-44078Y78968D01*
G01X-44078Y78968D02*
G01X-44058Y78993D01*
G01X-44058Y78993D02*
G01X-44043Y79007D01*
G01X-44043Y79007D02*
G01X-44019Y79027D01*
G01X-44019Y79027D02*
G01X-43990Y79042D01*
G01X-43990Y79042D02*
G01X-43960Y79052D01*
G01X-43960Y79052D02*
G01X-43928Y79055D01*
G01X-43928Y79055D02*
G01X-43503Y79055D01*
G01X-44368Y82936D02*
G01X-43974Y82940D01*
G01X-43974Y82940D02*
G01X-43855Y83058D01*
G01X-43855Y83058D02*
G01X-43816Y83106D01*
G01X-43816Y83106D02*
G01X-43787Y83159D01*
G01X-43787Y83159D02*
G01X-43769Y83218D01*
G01X-43769Y83218D02*
G01X-43763Y83279D01*
G01X-43763Y83279D02*
G01X-43763Y83834D01*
G01X-43763Y83834D02*
G01X-43740Y83858D01*
G01X-43740Y83858D02*
G01X-43745Y83930D01*
G01X-43745Y83930D02*
G01X-43745Y84562D01*
G01X-43745Y84562D02*
G01X-43740Y84566D01*
G01X-43740Y84566D02*
G01X-43763Y84674D01*
G01X-41150Y73073D02*
G01X-41155Y73074D01*
G01X-41155Y73074D02*
G01X-41155Y73661D01*
G01X-42103Y73683D02*
G01X-42092Y73680D01*
G01X-42092Y73680D02*
G01X-41155Y73680D01*
G01X-41155Y73680D02*
G01X-41155Y73661D01*
G01X-43937Y86543D02*
G01X-43937Y86543D01*
G54D52*
G01X-43937Y86543D02*
G01X-43937Y86187D01*
G01X-43937Y86187D02*
G01X-43937Y86187D01*
G54D51*
G01X-43937Y86187D03*
G54D49*
G01X-43937Y86187D02*
G01X-43937Y86187D01*
G54D53*
G01X-46614Y77433D02*
G01X-46614Y77047D01*
G54D51*
G01X-46614Y77047D03*
G54D49*
G01X-44618Y78464D02*
G01X-44615Y78462D01*
G01X-44615Y78462D02*
G01X-44606Y79448D01*
G54D51*
G01X-44606Y79448D03*
G54D49*
G01X-42000Y86543D02*
G01X-42000Y86543D01*
G54D52*
G01X-42000Y86543D02*
G01X-42000Y86187D01*
G54D51*
G01X-42000Y86187D03*
G54D49*
G01X-42000Y86187D02*
G01X-42000Y86187D01*
G54D54*
G01X-42103Y73183D02*
G01X-42671Y73183D01*
G01X-44353Y72683D02*
G01X-43746Y72683D01*
G01X-43661Y80700D02*
G01X-44322Y80700D01*
G54D49*
G01X-44322Y80700D02*
G01X-44330Y80708D01*
G01X-44330Y80708D02*
G01X-44368Y80686D01*
G54D54*
G01X-43661Y80700D02*
G01X-43661Y80236D01*
G54D51*
G01X-43661Y80236D03*
G54D49*
G01X-42437Y76889D02*
G01X-42350Y76890D01*
G54D54*
G01X-42350Y76890D02*
G01X-42267Y76889D01*
G01X-42267Y76889D02*
G01X-42238Y76886D01*
G01X-42238Y76886D02*
G01X-42209Y76878D01*
G01X-42209Y76878D02*
G01X-42183Y76864D01*
G01X-42183Y76864D02*
G01X-42160Y76845D01*
G01X-42160Y76845D02*
G01X-41926Y76611D01*
G01X-41926Y76611D02*
G01X-41866Y76562D01*
G01X-41866Y76562D02*
G01X-41798Y76526D01*
G01X-41798Y76526D02*
G01X-41724Y76503D01*
G01X-41724Y76503D02*
G01X-41647Y76496D01*
G01X-41647Y76496D02*
G01X-41226Y76496D01*
G01X-41226Y76496D02*
G01X-41149Y76503D01*
G01X-41149Y76503D02*
G01X-41075Y76526D01*
G01X-41075Y76526D02*
G01X-41007Y76562D01*
G01X-41007Y76562D02*
G01X-40947Y76611D01*
G01X-40947Y76611D02*
G01X-40748Y76811D01*
G54D55*
G01X-40748Y76811D02*
G01X-40669Y76891D01*
G01X-40669Y76891D02*
G01X-40669Y76771D01*
G54D54*
G01X-40669Y76771D02*
G01X-40669Y76476D01*
G54D51*
G01X-40669Y76476D03*
G54D53*
G01X-46614Y77433D02*
G01X-46543Y77433D01*
G01X-46543Y77433D02*
G01X-46472Y77504D01*
G01X-46472Y77504D02*
G01X-46443Y77527D01*
G01X-46443Y77527D02*
G01X-46411Y77544D01*
G01X-46411Y77544D02*
G01X-46376Y77555D01*
G01X-46376Y77555D02*
G01X-46339Y77559D01*
G01X-46339Y77559D02*
G01X-45773Y77559D01*
G54D50*
G01X-45773Y77559D02*
G01X-45704Y77553D01*
G01X-45704Y77553D02*
G01X-45684Y77548D01*
G01X-45684Y77548D02*
G01X-45667Y77535D01*
G01X-45667Y77535D02*
G01X-45656Y77517D01*
G01X-45656Y77517D02*
G01X-45652Y77497D01*
G01X-45652Y77497D02*
G01X-45653Y76929D01*
G54D49*
G01X-42103Y72683D02*
G01X-42092Y72680D01*
G54D54*
G01X-42092Y72680D02*
G01X-42717Y72680D01*
G54D52*
G01X-42717Y72680D02*
G01X-42717Y72680D01*
G54D49*
G01X-44362Y78464D02*
G01X-44370Y78425D01*
G01X-44370Y78425D02*
G01X-44365Y78949D01*
G01X-44365Y78949D02*
G01X-44357Y79023D01*
G01X-44357Y79023D02*
G01X-44336Y79094D01*
G01X-44336Y79094D02*
G01X-44302Y79160D01*
G01X-44302Y79160D02*
G01X-44256Y79218D01*
G01X-44256Y79218D02*
G01X-44055Y79429D01*
G54D51*
G01X-44055Y79429D03*
G54D49*
G01X-44589Y88069D02*
G01X-44567Y88136D01*
G01X-44567Y88136D02*
G01X-44566Y88154D01*
G01X-44566Y88154D02*
G01X-44573Y88171D01*
G01X-44573Y88171D02*
G01X-44587Y88183D01*
G01X-44587Y88183D02*
G01X-44605Y88187D01*
G01X-44605Y88187D02*
G01X-44596Y88215D01*
G01X-44596Y88215D02*
G01X-44609Y88215D01*
G01X-44609Y88215D02*
G01X-44587Y88210D01*
G01X-44587Y88210D02*
G01X-44570Y88195D01*
G01X-44570Y88195D02*
G01X-44561Y88174D01*
G01X-44561Y88174D02*
G01X-44562Y88152D01*
G01X-44562Y88152D02*
G01X-44560Y88159D01*
G01X-44560Y88159D02*
G01X-44596Y88159D01*
G01X-44596Y88159D02*
G01X-44596Y88187D01*
G54D52*
G01X-44596Y88187D02*
G01X-44874Y88187D01*
G01X-44874Y88187D02*
G01X-45000Y88188D01*
G54D51*
G01X-45000Y88188D03*
G54D49*
G01X-45187Y86575D02*
G01X-45178Y86605D01*
G54D52*
G01X-45178Y86605D02*
G01X-45187Y86187D01*
G01X-45187Y86187D02*
G01X-45187Y86187D01*
G54D51*
G01X-45187Y86187D03*
G54D49*
G01X-45187Y86187D02*
G01X-45187Y86187D01*
G01X-46500Y86575D02*
G01X-46500Y86573D01*
G54D52*
G01X-46500Y86573D02*
G01X-46500Y86187D01*
G54D51*
G01X-46500Y86187D03*
G54D49*
G01X-46500Y86187D02*
G01X-46500Y86187D01*
G01X-42530Y75042D02*
G01X-42530Y75044D01*
G54D52*
G01X-42530Y75044D02*
G01X-42530Y75430D01*
G01X-42530Y75430D02*
G01X-42530Y75430D01*
G54D51*
G01X-42530Y75430D03*
G54D49*
G01X-42530Y75430D02*
G01X-42530Y75430D01*
G01X-43217Y75042D02*
G01X-43217Y75055D01*
G54D52*
G01X-43217Y75055D02*
G01X-43217Y75430D01*
G01X-43217Y75430D02*
G01X-43217Y75430D01*
G54D51*
G01X-43217Y75430D03*
G54D49*
G01X-43217Y75430D02*
G01X-43217Y75430D01*
G01X-41842Y75042D02*
G01X-41842Y75044D01*
G54D52*
G01X-41842Y75044D02*
G01X-41842Y75430D01*
G54D51*
G01X-41842Y75430D03*
G54D49*
G01X-41842Y75430D02*
G01X-41842Y75430D01*
G54D53*
G01X-46013Y83930D02*
G01X-46025Y83975D01*
G01X-46025Y83975D02*
G01X-46023Y83976D01*
G01X-46023Y83976D02*
G01X-46023Y84488D01*
G54D51*
G01X-46023Y84488D03*
G54D53*
G01X-46023Y84488D02*
G01X-45890Y84621D01*
G01X-45890Y84621D02*
G01X-45836Y84665D01*
G01X-45836Y84665D02*
G01X-45776Y84697D01*
G01X-45776Y84697D02*
G01X-45710Y84717D01*
G01X-45710Y84717D02*
G01X-45642Y84724D01*
G01X-45642Y84724D02*
G01X-45299Y84724D01*
G54D49*
G01X-45866Y81417D02*
G01X-45866Y81338D01*
G01X-45866Y81338D02*
G01X-45868Y81336D01*
G54D54*
G01X-45868Y81336D02*
G01X-45868Y80686D01*
G54D56*
G01X-40590Y87165D02*
G01X-40590Y87598D01*
G54D51*
G01X-40590Y87598D03*
G54D54*
G01X-41417Y77639D02*
G01X-40789Y77639D01*
G01X-40789Y77639D02*
G01X-40787Y77637D01*
G54D55*
G01X-40787Y77637D02*
G01X-40669Y77616D01*
G54D57*
G01X-46614Y78582D02*
G01X-46614Y78157D01*
G54D50*
G01X-45653Y78700D02*
G01X-45649Y78070D01*
G54D53*
G01X-45649Y78070D02*
G01X-46378Y78070D01*
G01X-46378Y78070D02*
G01X-46416Y78073D01*
G01X-46416Y78073D02*
G01X-46454Y78080D01*
G01X-46454Y78080D02*
G01X-46490Y78092D01*
G01X-46490Y78092D02*
G01X-46525Y78108D01*
G01X-46525Y78108D02*
G01X-46614Y78157D01*
G01X-40669Y77616D02*
G01X-40669Y78092D01*
G01X-40669Y78092D02*
G01X-40669Y78101D01*
G01X-40669Y78101D02*
G01X-40669Y78110D01*
G01X-40669Y78110D02*
G01X-40670Y78119D01*
G01X-40670Y78119D02*
G01X-40670Y78128D01*
G01X-40670Y78128D02*
G01X-40687Y78307D01*
G54D56*
G01X-40687Y78307D02*
G01X-41102Y78307D01*
G54D51*
G01X-41102Y78307D03*
G54D50*
G01X-45456Y78700D02*
G01X-45461Y78346D01*
G01X-45461Y78346D02*
G01X-45466Y78304D01*
G01X-45466Y78304D02*
G01X-45478Y78264D01*
G01X-45478Y78264D02*
G01X-45498Y78227D01*
G01X-45498Y78227D02*
G01X-45525Y78194D01*
G01X-45525Y78194D02*
G01X-45525Y78173D01*
G01X-45525Y78173D02*
G01X-45544Y78154D01*
G01X-45544Y78154D02*
G01X-45509Y78197D01*
G01X-45509Y78197D02*
G01X-45483Y78244D01*
G01X-45483Y78244D02*
G01X-45467Y78296D01*
G01X-45467Y78296D02*
G01X-45461Y78351D01*
G01X-45461Y78351D02*
G01X-45460Y78394D01*
G01X-45460Y78394D02*
G01X-45466Y78339D01*
G01X-45466Y78339D02*
G01X-45483Y78287D01*
G01X-45483Y78287D02*
G01X-45509Y78240D01*
G01X-45509Y78240D02*
G01X-45543Y78197D01*
G01X-45543Y78197D02*
G01X-45547Y78194D01*
G01X-45547Y78194D02*
G01X-45536Y78184D01*
G54D49*
G01X-45536Y78184D02*
G01X-45649Y78070D01*
G01X-42896Y88147D02*
G01X-43070Y88070D01*
G01X-43070Y88070D02*
G01X-43250Y87891D01*
G01X-43250Y87891D02*
G01X-43250Y87331D01*
G01X-43864Y88069D02*
G01X-43779Y87913D01*
G01X-43779Y87913D02*
G01X-43757Y87891D01*
G01X-43757Y87891D02*
G01X-43250Y87891D01*
G01X-44562Y87331D02*
G01X-44562Y87374D01*
G54D52*
G01X-44562Y87374D02*
G01X-43893Y87374D01*
G54D49*
G01X-43893Y87374D02*
G01X-43937Y87331D01*
G54D58*
G01X-45187Y87299D02*
G01X-45187Y87374D01*
G01X-45187Y87374D02*
G01X-45187Y87514D01*
G01X-45187Y87514D02*
G01X-45192Y87564D01*
G01X-45192Y87564D02*
G01X-45207Y87613D01*
G01X-45207Y87613D02*
G01X-45231Y87657D01*
G01X-45231Y87657D02*
G01X-45263Y87697D01*
G01X-45263Y87697D02*
G01X-45445Y87880D01*
G01X-45445Y87880D02*
G01X-45494Y87939D01*
G01X-45494Y87939D02*
G01X-45531Y88007D01*
G01X-45531Y88007D02*
G01X-45553Y88081D01*
G01X-45553Y88081D02*
G01X-45561Y88158D01*
G01X-45561Y88158D02*
G01X-45561Y88982D01*
G01X-45561Y88982D02*
G01X-45568Y89059D01*
G01X-45568Y89059D02*
G01X-45591Y89134D01*
G01X-45591Y89134D02*
G01X-45628Y89202D01*
G01X-45628Y89202D02*
G01X-45678Y89262D01*
G01X-45678Y89262D02*
G01X-45678Y89417D01*
G01X-45678Y89417D02*
G01X-45628Y89357D01*
G01X-45628Y89357D02*
G01X-45591Y89288D01*
G01X-45591Y89288D02*
G01X-45568Y89214D01*
G01X-45568Y89214D02*
G01X-45561Y89137D01*
G01X-45561Y89137D02*
G01X-45561Y88827D01*
G01X-45561Y88827D02*
G01X-45568Y88905D01*
G01X-45568Y88905D02*
G01X-45591Y88979D01*
G01X-45591Y88979D02*
G01X-45628Y89048D01*
G01X-45628Y89048D02*
G01X-45678Y89108D01*
G01X-45678Y89108D02*
G01X-45832Y89260D01*
G01X-45832Y89260D02*
G01X-45755Y89338D01*
G54D59*
G01X-45755Y89338D02*
G01X-45734Y89318D01*
G01X-45734Y89318D02*
G01X-45792Y89365D01*
G01X-45792Y89365D02*
G01X-45858Y89401D01*
G01X-45858Y89401D02*
G01X-45929Y89423D01*
G01X-45929Y89423D02*
G01X-46003Y89432D01*
G01X-46003Y89432D02*
G01X-46250Y89437D01*
G54D58*
G01X-46250Y89437D02*
G01X-46250Y89425D01*
G54D49*
G01X-44562Y87331D02*
G01X-44562Y87374D01*
G54D52*
G01X-44562Y87374D02*
G01X-45187Y87374D01*
G54D49*
G01X-45187Y87374D02*
G01X-45187Y87299D01*
G01X-45868Y82936D02*
G01X-45874Y82874D01*
G54D52*
G01X-45874Y82874D02*
G01X-45874Y82427D01*
G01X-45874Y82427D02*
G01X-45880Y82373D01*
G01X-45880Y82373D02*
G01X-45896Y82321D01*
G01X-45896Y82321D02*
G01X-45921Y82273D01*
G01X-45921Y82273D02*
G01X-45956Y82230D01*
G01X-45956Y82230D02*
G01X-45980Y82206D01*
G01X-45980Y82206D02*
G01X-46023Y82171D01*
G01X-46023Y82171D02*
G01X-46071Y82146D01*
G01X-46071Y82146D02*
G01X-46123Y82130D01*
G01X-46123Y82130D02*
G01X-46177Y82125D01*
G01X-46177Y82125D02*
G01X-46562Y82125D01*
G54D49*
G01X-46562Y82125D02*
G01X-46562Y82112D01*
G54D57*
G01X-44106Y76692D02*
G01X-44106Y76026D01*
G01X-44106Y76026D02*
G01X-44102Y76004D01*
G01X-44102Y76004D02*
G01X-44090Y75985D01*
G01X-44090Y75985D02*
G01X-44073Y75971D01*
G01X-44073Y75971D02*
G01X-44052Y75964D01*
G01X-44052Y75964D02*
G01X-43982Y75954D01*
G54D60*
G01X-43982Y75954D02*
G01X-40468Y75954D01*
G01X-40468Y75954D02*
G01X-40391Y75962D01*
G01X-40391Y75962D02*
G01X-40317Y75984D01*
G01X-40317Y75984D02*
G01X-40249Y76020D01*
G01X-40249Y76020D02*
G01X-40189Y76069D01*
G01X-40189Y76069D02*
G01X-40075Y76184D01*
G01X-40075Y76184D02*
G01X-40026Y76243D01*
G01X-40026Y76243D02*
G01X-39990Y76311D01*
G01X-39990Y76311D02*
G01X-39968Y76385D01*
G01X-39968Y76385D02*
G01X-39960Y76462D01*
G01X-39960Y76462D02*
G01X-39960Y77254D01*
G01X-39960Y77254D02*
G01X-39962Y78307D01*
G54D53*
G01X-39960Y86181D02*
G01X-39960Y85393D01*
G01X-39960Y85393D02*
G01X-39925Y86179D01*
G01X-39925Y86179D02*
G01X-39995Y86179D01*
G01X-39995Y86179D02*
G01X-39960Y85393D01*
G01X-39960Y85393D02*
G01X-39960Y79094D01*
G01X-39960Y79094D02*
G01X-39962Y78307D01*
G54D60*
G01X-46562Y82112D02*
G01X-46562Y85249D01*
G01X-46562Y85249D02*
G01X-46554Y85326D01*
G01X-46554Y85326D02*
G01X-46532Y85400D01*
G01X-46532Y85400D02*
G01X-46496Y85468D01*
G01X-46496Y85468D02*
G01X-46447Y85527D01*
G01X-46447Y85527D02*
G01X-45875Y86100D01*
G54D51*
G01X-45875Y86100D03*
G54D60*
G01X-45875Y86100D02*
G01X-45875Y86425D01*
G01X-45875Y86425D02*
G01X-45866Y86535D01*
G01X-45866Y86535D02*
G01X-45875Y86543D01*
G54D55*
G01X-41417Y77259D02*
G01X-40055Y77259D01*
G01X-40055Y77259D02*
G01X-40039Y77244D01*
G01X-40039Y77244D02*
G01X-39960Y77254D01*
G01X-45368Y80686D02*
G01X-45368Y80301D01*
G01X-45368Y80301D02*
G01X-45816Y79852D01*
G01X-45816Y79852D02*
G01X-45832Y79832D01*
G01X-45832Y79832D02*
G01X-45845Y79809D01*
G01X-45845Y79809D02*
G01X-45852Y79784D01*
G01X-45852Y79784D02*
G01X-45855Y79758D01*
G01X-45855Y79758D02*
G01X-45855Y79687D01*
G54D50*
G01X-45855Y79687D02*
G01X-45762Y79553D01*
G01X-45762Y79553D02*
G01X-45746Y79526D01*
G01X-45746Y79526D02*
G01X-45734Y79497D01*
G01X-45734Y79497D02*
G01X-45727Y79466D01*
G01X-45727Y79466D02*
G01X-45725Y79434D01*
G01X-45725Y79434D02*
G01X-45725Y79409D01*
G01X-45725Y79409D02*
G01X-45722Y79381D01*
G01X-45722Y79381D02*
G01X-45714Y79354D01*
G01X-45714Y79354D02*
G01X-45700Y79329D01*
G01X-45700Y79329D02*
G01X-45682Y79307D01*
G01X-45682Y79307D02*
G01X-45670Y79294D01*
G01X-45670Y79294D02*
G01X-45648Y79276D01*
G01X-45648Y79276D02*
G01X-45623Y79263D01*
G01X-45623Y79263D02*
G01X-45596Y79254D01*
G01X-45596Y79254D02*
G01X-45568Y79251D01*
G01X-45568Y79251D02*
G01X-45412Y79251D01*
G01X-45412Y79251D02*
G01X-45385Y79249D01*
G01X-45385Y79249D02*
G01X-45358Y79241D01*
G01X-45358Y79241D02*
G01X-45334Y79228D01*
G01X-45334Y79228D02*
G01X-45313Y79210D01*
G01X-45313Y79210D02*
G01X-45300Y79198D01*
G01X-45300Y79198D02*
G01X-45283Y79177D01*
G01X-45283Y79177D02*
G01X-45270Y79153D01*
G01X-45270Y79153D02*
G01X-45262Y79126D01*
G01X-45262Y79126D02*
G01X-45259Y79099D01*
G01X-45259Y79099D02*
G01X-45259Y78700D01*
G01X-45456Y76929D02*
G01X-45453Y76363D01*
G01X-45453Y76363D02*
G01X-45445Y76287D01*
G01X-45445Y76287D02*
G01X-45422Y76214D01*
G01X-45422Y76214D02*
G01X-45386Y76146D01*
G01X-45386Y76146D02*
G01X-45337Y76087D01*
G01X-45337Y76087D02*
G01X-44676Y75426D01*
G01X-44676Y75426D02*
G01X-44638Y75379D01*
G01X-44638Y75379D02*
G01X-44610Y75326D01*
G01X-44610Y75326D02*
G01X-44593Y75268D01*
G01X-44593Y75268D02*
G01X-44588Y75208D01*
G01X-44588Y75208D02*
G01X-44592Y75042D01*
G54D49*
G01X-43905Y75042D02*
G01X-43905Y75118D01*
G01X-43905Y75118D02*
G01X-44592Y75118D01*
G01X-44592Y75118D02*
G01X-44592Y75042D01*
G54D55*
G01X-44868Y80686D02*
G01X-44881Y80393D01*
G01X-44881Y80393D02*
G01X-44881Y80282D01*
G01X-44881Y80282D02*
G01X-44885Y80242D01*
G01X-44885Y80242D02*
G01X-44897Y80203D01*
G01X-44897Y80203D02*
G01X-44916Y80167D01*
G01X-44916Y80167D02*
G01X-44941Y80135D01*
G01X-44941Y80135D02*
G01X-44964Y80112D01*
G01X-44964Y80112D02*
G01X-44990Y80080D01*
G01X-44990Y80080D02*
G01X-45009Y80043D01*
G01X-45009Y80043D02*
G01X-45021Y80004D01*
G01X-45021Y80004D02*
G01X-45025Y79963D01*
G01X-45025Y79963D02*
G01X-45025Y79934D01*
G01X-45025Y79934D02*
G01X-45027Y79893D01*
G01X-45027Y79893D02*
G01X-45036Y79853D01*
G01X-45036Y79853D02*
G01X-45051Y79815D01*
G01X-45051Y79815D02*
G01X-45071Y79779D01*
G01X-45071Y79779D02*
G01X-45130Y79687D01*
G54D50*
G01X-45130Y79687D02*
G01X-45063Y79516D01*
G01X-45063Y79516D02*
G01X-45051Y79481D01*
G01X-45051Y79481D02*
G01X-45042Y79445D01*
G01X-45042Y79445D02*
G01X-45037Y79408D01*
G01X-45037Y79408D02*
G01X-45035Y79371D01*
G01X-45035Y79371D02*
G01X-45035Y78277D01*
G01X-45035Y78277D02*
G01X-45043Y78200D01*
G01X-45043Y78200D02*
G01X-45065Y78126D01*
G01X-45065Y78126D02*
G01X-45101Y78058D01*
G01X-45101Y78058D02*
G01X-45150Y77998D01*
G01X-45150Y77998D02*
G01X-45342Y77806D01*
G01X-45342Y77806D02*
G01X-45391Y77746D01*
G01X-45391Y77746D02*
G01X-45428Y77678D01*
G01X-45428Y77678D02*
G01X-45450Y77604D01*
G01X-45450Y77604D02*
G01X-45458Y77527D01*
G01X-45458Y77527D02*
G01X-45456Y76929D01*
G54D49*
G01X-44353Y73183D02*
G01X-44342Y73180D01*
G54D52*
G01X-44342Y73180D02*
G01X-43943Y73180D01*
G01X-43943Y73180D02*
G01X-43866Y73188D01*
G01X-43866Y73188D02*
G01X-43792Y73210D01*
G01X-43792Y73210D02*
G01X-43724Y73246D01*
G01X-43724Y73246D02*
G01X-43664Y73295D01*
G01X-43664Y73295D02*
G01X-43332Y73627D01*
G01X-43332Y73627D02*
G01X-43283Y73687D01*
G01X-43283Y73687D02*
G01X-43247Y73755D01*
G01X-43247Y73755D02*
G01X-43225Y73829D01*
G01X-43225Y73829D02*
G01X-43217Y73906D01*
G01X-43217Y73906D02*
G01X-43217Y74305D01*
G54D49*
G01X-43217Y74305D02*
G01X-43217Y74318D01*
G01X-41842Y74318D02*
G01X-41771Y74370D01*
G01X-41771Y74370D02*
G01X-41265Y74370D01*
G01X-41265Y74370D02*
G01X-41244Y74372D01*
G01X-41244Y74372D02*
G01X-41224Y74379D01*
G01X-41224Y74379D02*
G01X-41206Y74390D01*
G01X-41206Y74390D02*
G01X-41192Y74404D01*
G01X-41192Y74404D02*
G01X-41155Y74449D01*
G01X-41842Y74318D02*
G01X-42530Y74318D01*
G01X-43905Y74318D02*
G01X-44592Y74318D01*
G01X-44592Y74318D02*
G01X-44667Y74347D01*
G01X-44667Y74347D02*
G01X-44695Y74357D01*
G01X-44695Y74357D02*
G01X-44725Y74364D01*
G01X-44725Y74364D02*
G01X-44755Y74368D01*
G01X-44755Y74368D02*
G01X-44785Y74370D01*
G01X-44785Y74370D02*
G01X-45094Y74370D01*
G01X-45094Y74370D02*
G01X-45124Y74372D01*
G01X-45124Y74372D02*
G01X-45154Y74378D01*
G01X-45154Y74378D02*
G01X-45183Y74389D01*
G01X-45183Y74389D02*
G01X-45210Y74404D01*
G01X-45210Y74404D02*
G01X-45280Y74449D01*
G01X-41299Y87322D02*
G01X-41299Y87553D01*
G01X-41299Y87553D02*
G01X-41306Y87630D01*
G01X-41306Y87630D02*
G01X-41329Y87704D01*
G01X-41329Y87704D02*
G01X-41365Y87772D01*
G01X-41365Y87772D02*
G01X-41414Y87831D01*
G01X-41414Y87831D02*
G01X-41680Y88097D01*
G01X-41680Y88097D02*
G01X-41729Y88157D01*
G01X-41729Y88157D02*
G01X-41766Y88226D01*
G01X-41766Y88226D02*
G01X-41788Y88300D01*
G01X-41788Y88300D02*
G01X-41795Y88377D01*
G01X-41795Y88377D02*
G01X-41795Y88622D01*
G01X-41795Y88622D02*
G01X-41796Y89148D01*
G01X-41796Y89148D02*
G01X-40646Y89147D01*
G01X-40646Y88647D02*
G01X-40750Y88625D01*
G01X-40750Y88625D02*
G01X-42674Y88625D01*
G01X-42674Y88625D02*
G01X-42677Y88622D01*
G01X-42677Y88622D02*
G01X-42896Y88647D01*
G01X-44659Y88905D02*
G01X-44634Y89020D01*
G01X-44634Y89020D02*
G01X-44630Y89041D01*
G01X-44630Y89041D02*
G01X-44627Y89062D01*
G01X-44627Y89062D02*
G01X-44625Y89084D01*
G01X-44625Y89084D02*
G01X-44625Y89105D01*
G01X-44625Y89105D02*
G01X-44625Y89687D01*
G01X-44625Y89687D02*
G01X-44659Y89687D01*
G01X-46250Y90212D02*
G01X-45947Y90212D01*
G01X-45947Y90212D02*
G01X-46115Y90393D01*
G01X-46115Y90393D02*
G01X-46115Y90031D01*
G01X-46115Y90031D02*
G01X-45947Y90212D01*
G01X-45947Y90212D02*
G01X-45807Y90212D01*
G01X-45807Y90212D02*
G01X-45731Y90204D01*
G01X-45731Y90204D02*
G01X-45657Y90182D01*
G01X-45657Y90182D02*
G01X-45589Y90145D01*
G01X-45589Y90145D02*
G01X-45529Y90096D01*
G01X-45529Y90096D02*
G01X-45235Y89802D01*
G01X-45235Y89802D02*
G01X-45175Y89753D01*
G01X-45175Y89753D02*
G01X-45107Y89717D01*
G01X-45107Y89717D02*
G01X-45033Y89694D01*
G01X-45033Y89694D02*
G01X-44956Y89687D01*
G01X-44956Y89687D02*
G01X-44625Y89687D01*
G01X-44625Y89687D02*
G01X-44659Y89687D01*
G01X-43937Y90641D02*
G01X-43937Y90641D01*
G01X-43937Y90641D02*
G01X-44461Y90117D01*
G01X-44461Y90117D02*
G01X-44504Y90065D01*
G01X-44504Y90065D02*
G01X-44536Y90005D01*
G01X-44536Y90005D02*
G01X-44555Y89940D01*
G01X-44555Y89940D02*
G01X-44562Y89873D01*
G01X-44562Y89873D02*
G01X-44562Y89687D01*
G01X-44562Y89687D02*
G01X-44659Y89687D01*
G01X-42896Y89147D02*
G01X-41796Y89148D01*
G01X-44659Y88905D02*
G01X-44653Y88905D01*
G01X-44653Y88905D02*
G01X-44347Y88599D01*
G01X-44347Y88599D02*
G01X-44287Y88550D01*
G01X-44287Y88550D02*
G01X-44219Y88514D01*
G01X-44219Y88514D02*
G01X-44146Y88491D01*
G01X-44146Y88491D02*
G01X-44069Y88484D01*
G01X-44069Y88484D02*
G01X-43608Y88484D01*
G01X-43608Y88484D02*
G01X-43568Y88488D01*
G01X-43568Y88488D02*
G01X-43530Y88499D01*
G01X-43530Y88499D02*
G01X-43494Y88518D01*
G01X-43494Y88518D02*
G01X-43463Y88544D01*
G01X-43463Y88544D02*
G01X-43434Y88573D01*
G01X-43434Y88573D02*
G01X-43409Y88594D01*
G01X-43409Y88594D02*
G01X-43380Y88609D01*
G01X-43380Y88609D02*
G01X-43349Y88618D01*
G01X-43349Y88618D02*
G01X-43317Y88622D01*
G01X-43317Y88622D02*
G01X-43228Y88622D01*
G01X-43228Y88622D02*
G01X-42896Y88647D01*
G01X-40646Y88647D02*
G01X-40826Y88622D01*
G01X-40826Y88622D02*
G01X-41795Y88622D01*
G54D58*
G01X-46500Y87299D02*
G01X-46500Y88227D01*
G01X-46500Y88227D02*
G01X-46492Y88300D01*
G01X-46492Y88300D02*
G01X-46471Y88371D01*
G01X-46471Y88371D02*
G01X-46437Y88436D01*
G01X-46437Y88436D02*
G01X-46391Y88493D01*
G01X-46391Y88493D02*
G01X-46391Y88650D01*
G01X-46391Y88650D02*
G01X-46437Y88593D01*
G01X-46437Y88593D02*
G01X-46471Y88528D01*
G01X-46471Y88528D02*
G01X-46492Y88457D01*
G01X-46492Y88457D02*
G01X-46500Y88384D01*
G01X-46500Y88384D02*
G01X-46500Y88069D01*
G01X-46500Y88069D02*
G01X-46492Y88143D01*
G01X-46492Y88143D02*
G01X-46471Y88213D01*
G01X-46471Y88213D02*
G01X-46437Y88278D01*
G01X-46437Y88278D02*
G01X-46391Y88336D01*
G01X-46391Y88336D02*
G01X-46234Y88496D01*
G01X-46234Y88496D02*
G01X-46312Y88573D01*
G54D59*
G01X-46312Y88573D02*
G01X-46250Y88637D01*
G54D49*
G01X-45875Y87331D02*
G01X-45831Y87374D01*
G54D52*
G01X-45831Y87374D02*
G01X-46500Y87374D01*
G54D49*
G01X-46500Y87374D02*
G01X-46500Y87299D01*
G01X-42927Y84437D02*
G01X-42835Y83565D01*
G01X-42835Y83565D02*
G01X-42349Y83563D01*
G01X-42349Y83563D02*
G01X-42273Y83555D01*
G01X-42273Y83555D02*
G01X-42199Y83532D01*
G01X-42199Y83532D02*
G01X-42132Y83496D01*
G01X-42132Y83496D02*
G01X-42072Y83447D01*
G01X-42072Y83447D02*
G01X-41740Y83115D01*
G01X-41740Y83115D02*
G01X-41680Y83066D01*
G01X-41680Y83066D02*
G01X-41612Y83029D01*
G01X-41612Y83029D02*
G01X-41538Y83007D01*
G01X-41538Y83007D02*
G01X-41461Y83000D01*
G01X-41461Y83000D02*
G01X-40562Y83000D01*
G01X-40562Y83000D02*
G01X-40517Y82125D01*
G01X-42927Y84437D02*
G01X-43050Y85100D01*
G01X-43050Y85100D02*
G01X-43364Y85414D01*
G01X-43364Y85414D02*
G01X-43395Y85440D01*
G01X-43395Y85440D02*
G01X-43431Y85458D01*
G01X-43431Y85458D02*
G01X-43470Y85470D01*
G01X-43470Y85470D02*
G01X-43510Y85473D01*
G01X-43510Y85473D02*
G01X-43622Y85472D01*
G01X-43622Y85472D02*
G01X-43763Y85462D01*
G01X-45280Y73661D02*
G01X-45280Y73618D01*
G01X-45280Y73618D02*
G01X-45280Y73074D01*
G01X-45280Y73661D02*
G01X-45226Y73680D01*
G01X-45226Y73680D02*
G01X-44655Y73680D01*
G01X-44655Y73680D02*
G01X-44353Y73683D01*
G01X-40590Y86377D02*
G01X-40585Y85150D01*
G01X-40585Y85150D02*
G01X-40527Y84437D01*
G01X-41299Y86535D02*
G01X-41254Y86490D01*
G01X-41254Y86490D02*
G01X-41236Y86476D01*
G01X-41236Y86476D02*
G01X-41216Y86465D01*
G01X-41216Y86465D02*
G01X-41194Y86458D01*
G01X-41194Y86458D02*
G01X-41172Y86456D01*
G01X-41172Y86456D02*
G01X-40863Y86456D01*
G01X-40863Y86456D02*
G01X-40825Y86454D01*
G01X-40825Y86454D02*
G01X-40788Y86449D01*
G01X-40788Y86449D02*
G01X-40752Y86440D01*
G01X-40752Y86440D02*
G01X-40717Y86428D01*
G01X-40717Y86428D02*
G01X-40590Y86377D01*
G01X-44353Y72183D02*
G01X-44467Y72180D01*
G01X-44467Y72180D02*
G01X-45233Y72180D01*
G01X-45233Y72180D02*
G01X-45251Y72184D01*
G01X-45251Y72184D02*
G01X-45266Y72194D01*
G01X-45266Y72194D02*
G01X-45276Y72209D01*
G01X-45276Y72209D02*
G01X-45280Y72226D01*
G01X-45280Y72226D02*
G01X-45280Y72286D01*
G01X-44353Y72183D02*
G01X-44370Y72086D01*
G01X-44370Y72086D02*
G01X-44370Y71456D01*
G01X-42917Y82125D02*
G01X-43159Y81937D01*
G01X-43159Y81937D02*
G01X-44774Y81937D01*
G01X-44774Y81937D02*
G01X-44851Y81945D01*
G01X-44851Y81945D02*
G01X-44925Y81967D01*
G01X-44925Y81967D02*
G01X-44993Y82003D01*
G01X-44993Y82003D02*
G01X-45052Y82052D01*
G01X-45052Y82052D02*
G01X-45259Y82259D01*
G01X-45259Y82259D02*
G01X-45308Y82319D01*
G01X-45308Y82319D02*
G01X-45345Y82387D01*
G01X-45345Y82387D02*
G01X-45367Y82461D01*
G01X-45367Y82461D02*
G01X-45374Y82538D01*
G01X-45374Y82538D02*
G01X-45374Y82815D01*
G01X-45374Y82815D02*
G01X-45393Y82834D01*
G01X-45393Y82834D02*
G01X-45368Y82936D01*
G01X-45368Y82936D02*
G01X-45350Y83050D01*
G01X-45350Y83050D02*
G01X-45350Y83405D01*
G01X-45350Y83405D02*
G01X-45346Y83437D01*
G01X-45346Y83437D02*
G01X-45337Y83469D01*
G01X-45337Y83469D02*
G01X-45321Y83498D01*
G01X-45321Y83498D02*
G01X-45300Y83524D01*
G01X-45300Y83524D02*
G01X-45285Y83539D01*
G01X-45285Y83539D02*
G01X-45264Y83564D01*
G01X-45264Y83564D02*
G01X-45249Y83594D01*
G01X-45249Y83594D02*
G01X-45239Y83625D01*
G01X-45239Y83625D02*
G01X-45236Y83658D01*
G01X-45236Y83658D02*
G01X-45236Y83813D01*
G01X-45236Y83813D02*
G01X-45225Y83825D01*
G01X-45225Y83825D02*
G01X-45226Y83930D01*

G04 Draw Text*
M00*
M02*
