G04 FreePCB version 1.359*
G04 D:\Мои прогр\Release Rounding Rect\CAM\top_copper.grb*
G04 top copper layer *
G04 Scale: 100 percent, Rotated: No, Reflected: No *
%FSLAX24Y24*%
%MOIN*%
%LN top copper *%
G04 Rounded Rectangle Macro, params: W/2, H/2, R *
%AMRNDREC*
21,1,$1+$1,$2+$2-$3-$3,0,0,0*
21,1,$1+$1-$3-$3,$2+$2,0,0,0*
1,1,$3+$3,$1-$3,$2-$3*
1,1,$3+$3,$3-$1,$2-$3*
1,1,$3+$3,$1-$3,$3-$2*
1,1,$3+$3,$3-$1,$3-$2*%
G04 Rectangular Thermal Macro, params: W/2, H/2, T/2 *
%AMRECTHERM*
$4=$3/2*
21,1,$1-$3,$2-$3,0-$1/2-$4,0-$2/2-$4,0*
21,1,$1-$3,$2-$3,0-$1/2-$4,$2/2+$4,0*
21,1,$1-$3,$2-$3,$1/2+$4,0-$2/2-$4,0*
21,1,$1-$3,$2-$3,$1/2+$4,$2/2+$4,0*%
G90*
G70D02*

G04 Step and Repeat for panelization *

G04 ----------------------- Draw copper area (positive)*
G36*
G01X-2745Y-7795D02*
G01X-3171Y-7711D01*
G01X-3532Y-7469D01*
G01X-3774Y-7108D01*
G01X-3858Y-6682D01*
G01X-3858Y6694D01*
G01X-3774Y7116D01*
G01X-3535Y7473D01*
G01X-3177Y7712D01*
G01X-2755Y7795D01*
G01X2756Y7796D01*
G01X3178Y7712D01*
G01X3536Y7472D01*
G01X3774Y7115D01*
G01X3858Y6693D01*
G01X3859Y-6626D01*
G01X3775Y-7044D01*
G01X3539Y-7398D01*
G01X3185Y-7634D01*
G01X2767Y-7717D01*
G01X-2689Y-7717D01*
G01X-3107Y-7634D01*
G01X-3461Y-7398D01*
G01X-3697Y-7044D01*
G01X-3780Y-6626D01*
G01X-3780Y6638D01*
G01X-3698Y7051D01*
G01X-3464Y7402D01*
G01X-3113Y7636D01*
G01X-2700Y7717D01*
G01X2701Y7718D01*
G01X3114Y7635D01*
G01X3464Y7401D01*
G01X3698Y7050D01*
G01X3780Y6637D01*
G01X3781Y-6571D01*
G01X3699Y-6980D01*
G01X3467Y-7326D01*
G01X3120Y-7558D01*
G01X2711Y-7639D01*
G01X-2634Y-7639D01*
G01X-3043Y-7558D01*
G01X-3389Y-7326D01*
G01X-3621Y-6979D01*
G01X-3702Y-6570D01*
G01X-3702Y6582D01*
G01X-3622Y6987D01*
G01X-3392Y7330D01*
G01X-3049Y7559D01*
G01X-2644Y7639D01*
G01X2645Y7640D01*
G01X3050Y7559D01*
G01X3393Y7330D01*
G01X3622Y6986D01*
G01X3702Y6581D01*
G01X3703Y-6515D01*
G01X3623Y-6916D01*
G01X3396Y-7255D01*
G01X3056Y-7482D01*
G01X2656Y-7561D01*
G01X-2578Y-7561D01*
G01X-2979Y-7482D01*
G01X-3318Y-7255D01*
G01X-3545Y-6915D01*
G01X-3624Y-6515D01*
G01X-3624Y6527D01*
G01X-3545Y6923D01*
G01X-3321Y7259D01*
G01X-2985Y7483D01*
G01X-2588Y7561D01*
G01X2589Y7562D01*
G01X2985Y7483D01*
G01X3321Y7258D01*
G01X3546Y6922D01*
G01X3624Y6526D01*
G01X3625Y-6459D01*
G01X3546Y-6851D01*
G01X3324Y-7184D01*
G01X2992Y-7405D01*
G01X2600Y-7483D01*
G01X-2522Y-7483D01*
G01X-2914Y-7405D01*
G01X-3247Y-7183D01*
G01X-3469Y-6851D01*
G01X-3546Y-6459D01*
G01X-3546Y6471D01*
G01X-3469Y6859D01*
G01X-3249Y7187D01*
G01X-2920Y7407D01*
G01X-2532Y7483D01*
G01X2533Y7484D01*
G01X2921Y7406D01*
G01X3250Y7187D01*
G01X3469Y6858D01*
G01X3546Y6470D01*
G01X3547Y-6404D01*
G01X3470Y-6787D01*
G01X3253Y-7112D01*
G01X2928Y-7329D01*
G01X2544Y-7405D01*
G01X-2467Y-7405D01*
G01X-2850Y-7329D01*
G01X-3175Y-7112D01*
G01X-3392Y-6787D01*
G01X-3468Y-6403D01*
G01X-3468Y6415D01*
G01X-3393Y6794D01*
G01X-3178Y7116D01*
G01X-2856Y7330D01*
G01X-2477Y7405D01*
G01X2478Y7406D01*
G01X2857Y7330D01*
G01X3178Y7115D01*
G01X3393Y6794D01*
G01X3468Y6414D01*
G01X3469Y-6348D01*
G01X3394Y-6723D01*
G01X3181Y-7041D01*
G01X2863Y-7253D01*
G01X2488Y-7327D01*
G01X-2411Y-7327D01*
G01X-2786Y-7253D01*
G01X-3104Y-7040D01*
G01X-3316Y-6722D01*
G01X-3390Y-6347D01*
G01X-3390Y6359D01*
G01X-3316Y6730D01*
G01X-3106Y7044D01*
G01X-2792Y7254D01*
G01X-2421Y7327D01*
G01X2422Y7328D01*
G01X2793Y7254D01*
G01X3107Y7044D01*
G01X3317Y6729D01*
G01X3390Y6359D01*
G01X3391Y-6292D01*
G01X3318Y-6659D01*
G01X3110Y-6969D01*
G01X2799Y-7177D01*
G01X2433Y-7249D01*
G01X-2355Y-7249D01*
G01X-2722Y-7176D01*
G01X-3032Y-6969D01*
G01X-3240Y-6658D01*
G01X-3312Y-6292D01*
G01X-3312Y6304D01*
G01X-3240Y6666D01*
G01X-3035Y6973D01*
G01X-2728Y7178D01*
G01X-2365Y7249D01*
G01X2366Y7250D01*
G01X2728Y7177D01*
G01X3035Y6972D01*
G01X3240Y6665D01*
G01X3312Y6303D01*
G01X3313Y-6236D01*
G01X3241Y-6594D01*
G01X3038Y-6898D01*
G01X2735Y-7100D01*
G01X2377Y-7171D01*
G01X-2299Y-7171D01*
G01X-2657Y-7100D01*
G01X-2961Y-6897D01*
G01X-3163Y-6594D01*
G01X-3234Y-6236D01*
G01X-3234Y6248D01*
G01X-3164Y6602D01*
G01X-2963Y6901D01*
G01X-2663Y7101D01*
G01X-2310Y7171D01*
G01X2311Y7172D01*
G01X2664Y7101D01*
G01X2964Y6901D01*
G01X3164Y6601D01*
G01X3234Y6247D01*
G01X3235Y-6181D01*
G01X3165Y-6530D01*
G01X2967Y-6826D01*
G01X2671Y-7024D01*
G01X2321Y-7093D01*
G01X-2244Y-7093D01*
G01X-2593Y-7024D01*
G01X-2889Y-6826D01*
G01X-3087Y-6530D01*
G01X-3156Y-6180D01*
G01X-3156Y6192D01*
G01X-3088Y6537D01*
G01X-2892Y6830D01*
G01X-2599Y7025D01*
G01X-2254Y7093D01*
G01X2255Y7094D01*
G01X2600Y7025D01*
G01X2892Y6829D01*
G01X3088Y6537D01*
G01X3156Y6191D01*
G01X3157Y-6125D01*
G01X3089Y-6466D01*
G01X2895Y-6755D01*
G01X2606Y-6948D01*
G01X2266Y-7015D01*
G01X-2188Y-7015D01*
G01X-2529Y-6948D01*
G01X-2818Y-6754D01*
G01X-3011Y-6465D01*
G01X-3078Y-6125D01*
G01X-3078Y6136D01*
G01X-3011Y6473D01*
G01X-2820Y6758D01*
G01X-2535Y6949D01*
G01X-2198Y7015D01*
G01X2199Y7016D01*
G01X2536Y6949D01*
G01X2821Y6758D01*
G01X3011Y6472D01*
G01X3078Y6136D01*
G01X3079Y-6069D01*
G01X3012Y-6402D01*
G01X2824Y-6683D01*
G01X2542Y-6871D01*
G01X2210Y-6937D01*
G01X-2132Y-6937D01*
G01X-2465Y-6871D01*
G01X-2746Y-6683D01*
G01X-2934Y-6401D01*
G01X-3000Y-6069D01*
G01X-3000Y6081D01*
G01X-2935Y6409D01*
G01X-2749Y6687D01*
G01X-2471Y6872D01*
G01X-2143Y6937D01*
G01X2143Y6938D01*
G01X2471Y6872D01*
G01X2749Y6686D01*
G01X2935Y6408D01*
G01X3000Y6080D01*
G01X3001Y-6014D01*
G01X2936Y-6337D01*
G01X2753Y-6612D01*
G01X2478Y-6795D01*
G01X2154Y-6859D01*
G01X-2077Y-6859D01*
G01X-2400Y-6795D01*
G01X-2675Y-6611D01*
G01X-2858Y-6337D01*
G01X-2922Y-6013D01*
G01X-2922Y6025D01*
G01X-2859Y6345D01*
G01X-2677Y6615D01*
G01X-2406Y6796D01*
G01X-2087Y6859D01*
G01X2088Y6860D01*
G01X2407Y6796D01*
G01X2678Y6615D01*
G01X2859Y6344D01*
G01X2922Y6024D01*
G01X2923Y-5958D01*
G01X2860Y-6273D01*
G01X2681Y-6540D01*
G01X2414Y-6719D01*
G01X2098Y-6781D01*
G01X-2021Y-6781D01*
G01X-2336Y-6719D01*
G01X-2603Y-6540D01*
G01X-2782Y-6273D01*
G01X-2844Y-5957D01*
G01X-2844Y5969D01*
G01X-2782Y6280D01*
G01X-2606Y6544D01*
G01X-2342Y6720D01*
G01X-2031Y6781D01*
G01X2032Y6782D01*
G01X2343Y6720D01*
G01X2606Y6543D01*
G01X2783Y6280D01*
G01X2844Y5969D01*
G01X2845Y-5902D01*
G01X2783Y-6209D01*
G01X2610Y-6469D01*
G01X2349Y-6642D01*
G01X2043Y-6703D01*
G01X-1965Y-6703D01*
G01X-2272Y-6642D01*
G01X-2532Y-6469D01*
G01X-2705Y-6208D01*
G01X-2766Y-5902D01*
G01X-2766Y5914D01*
G01X-2706Y6216D01*
G01X-2535Y6472D01*
G01X-2278Y6644D01*
G01X-1975Y6703D01*
G01X1976Y6704D01*
G01X2279Y6643D01*
G01X2535Y6472D01*
G01X2706Y6215D01*
G01X2766Y5913D01*
G01X2767Y-5846D01*
G01X2707Y-6145D01*
G01X2538Y-6397D01*
G01X2285Y-6566D01*
G01X1987Y-6625D01*
G01X-1909Y-6625D01*
G01X-2208Y-6566D01*
G01X-2460Y-6397D01*
G01X-2629Y-6144D01*
G01X-2688Y-5846D01*
G01X-2688Y5858D01*
G01X-2630Y6152D01*
G01X-2463Y6401D01*
G01X-2214Y6567D01*
G01X-1920Y6625D01*
G01X1920Y6626D01*
G01X2214Y6567D01*
G01X2464Y6400D01*
G01X2630Y6151D01*
G01X2688Y5857D01*
G01X2689Y-5791D01*
G01X2631Y-6080D01*
G01X2467Y-6326D01*
G01X2221Y-6490D01*
G01X1931Y-6547D01*
G01X-1854Y-6547D01*
G01X-2143Y-6490D01*
G01X-2389Y-6326D01*
G01X-2553Y-6080D01*
G01X-2610Y-5790D01*
G01X-2610Y5802D01*
G01X-2553Y6087D01*
G01X-2392Y6329D01*
G01X-2150Y6491D01*
G01X-1864Y6547D01*
G01X1865Y6548D01*
G01X2150Y6491D01*
G01X2392Y6329D01*
G01X2554Y6087D01*
G01X2610Y5801D01*
G01X2611Y-5735D01*
G01X2555Y-6016D01*
G01X2395Y-6254D01*
G01X2157Y-6414D01*
G01X1876Y-6469D01*
G01X-1798Y-6469D01*
G01X-2079Y-6413D01*
G01X-2317Y-6254D01*
G01X-2477Y-6016D01*
G01X-2532Y-5735D01*
G01X-2532Y5746D01*
G01X-2477Y6023D01*
G01X-2320Y6258D01*
G01X-2085Y6415D01*
G01X-1808Y6469D01*
G01X1809Y6470D01*
G01X2086Y6414D01*
G01X2321Y6257D01*
G01X2477Y6023D01*
G01X2532Y5746D01*
G01X2533Y-5679D01*
G01X2478Y-5952D01*
G01X2324Y-6183D01*
G01X2093Y-6337D01*
G01X1820Y-6391D01*
G01X-1742Y-6391D01*
G01X-2015Y-6337D01*
G01X-2246Y-6183D01*
G01X-2400Y-5951D01*
G01X-2454Y-5679D01*
G01X-2454Y5691D01*
G01X-2401Y5959D01*
G01X-2249Y6186D01*
G01X-2021Y6338D01*
G01X-1753Y6391D01*
G01X1753Y6392D01*
G01X2022Y6338D01*
G01X2249Y6186D01*
G01X2401Y5958D01*
G01X2454Y5690D01*
G01X2455Y-6306D01*
G01X2454Y-6307D01*
G01X2452Y-6309D01*
G01X2451Y-6309D01*
G01X2449Y-6308D01*
G01X2421Y-6280D01*
G01X2419Y-6277D01*
G01X2417Y-6274D01*
G01X2416Y-6270D01*
G01X2416Y-6267D01*
G01X2415Y5662D01*
G01X2363Y5926D01*
G01X2213Y6150D01*
G01X1990Y6300D01*
G01X1725Y6353D01*
G01X-1725Y6352D01*
G01X-1989Y6300D01*
G01X-2213Y6150D01*
G01X-2363Y5927D01*
G01X-2416Y5662D01*
G01X-2415Y-5651D01*
G01X-2362Y-5919D01*
G01X-2210Y-6147D01*
G01X-1983Y-6299D01*
G01X-1714Y-6352D01*
G01X1792Y-6352D01*
G01X2060Y-6299D01*
G01X2288Y-6147D01*
G01X2440Y-5920D01*
G01X2494Y-5651D01*
G01X2493Y5718D01*
G01X2439Y5991D01*
G01X2285Y6222D01*
G01X2054Y6376D01*
G01X1781Y6431D01*
G01X-1781Y6430D01*
G01X-2054Y6376D01*
G01X-2285Y6222D01*
G01X-2439Y5991D01*
G01X-2494Y5718D01*
G01X-2493Y-5707D01*
G01X-2438Y-5984D01*
G01X-2282Y-6218D01*
G01X-2047Y-6375D01*
G01X-1770Y-6430D01*
G01X1848Y-6430D01*
G01X2125Y-6375D01*
G01X2359Y-6219D01*
G01X2516Y-5984D01*
G01X2572Y-5707D01*
G01X2571Y5774D01*
G01X2515Y6055D01*
G01X2356Y6293D01*
G01X2118Y6453D01*
G01X1837Y6509D01*
G01X-1837Y6508D01*
G01X-2118Y6452D01*
G01X-2356Y6293D01*
G01X-2516Y6055D01*
G01X-2572Y5774D01*
G01X-2571Y-5762D01*
G01X-2515Y-6048D01*
G01X-2353Y-6290D01*
G01X-2111Y-6452D01*
G01X-1826Y-6508D01*
G01X1903Y-6508D01*
G01X2189Y-6452D01*
G01X2431Y-6290D01*
G01X2593Y-6048D01*
G01X2650Y-5763D01*
G01X2649Y5829D01*
G01X2592Y6119D01*
G01X2428Y6365D01*
G01X2182Y6529D01*
G01X1893Y6587D01*
G01X-1892Y6586D01*
G01X-2182Y6529D01*
G01X-2428Y6365D01*
G01X-2592Y6119D01*
G01X-2650Y5830D01*
G01X-2649Y-5818D01*
G01X-2591Y-6112D01*
G01X-2425Y-6361D01*
G01X-2175Y-6528D01*
G01X-1881Y-6586D01*
G01X1959Y-6586D01*
G01X2253Y-6528D01*
G01X2502Y-6362D01*
G01X2669Y-6112D01*
G01X2728Y-5818D01*
G01X2727Y5885D01*
G01X2668Y6183D01*
G01X2499Y6436D01*
G01X2247Y6605D01*
G01X1948Y6665D01*
G01X-1948Y6664D01*
G01X-2246Y6605D01*
G01X-2499Y6436D01*
G01X-2668Y6184D01*
G01X-2728Y5885D01*
G01X-2727Y-5874D01*
G01X-2667Y-6176D01*
G01X-2496Y-6433D01*
G01X-2240Y-6604D01*
G01X-1937Y-6664D01*
G01X2015Y-6664D01*
G01X2317Y-6604D01*
G01X2574Y-6433D01*
G01X2745Y-6177D01*
G01X2806Y-5874D01*
G01X2805Y5941D01*
G01X2744Y6247D01*
G01X2571Y6508D01*
G01X2311Y6681D01*
G01X2004Y6743D01*
G01X-2004Y6742D01*
G01X-2310Y6681D01*
G01X-2571Y6508D01*
G01X-2745Y6248D01*
G01X-2806Y5941D01*
G01X-2805Y-5930D01*
G01X-2744Y-6241D01*
G01X-2568Y-6504D01*
G01X-2304Y-6681D01*
G01X-1993Y-6742D01*
G01X2071Y-6742D01*
G01X2382Y-6681D01*
G01X2645Y-6504D01*
G01X2822Y-6241D01*
G01X2884Y-5930D01*
G01X2883Y5996D01*
G01X2821Y6312D01*
G01X2642Y6579D01*
G01X2375Y6758D01*
G01X2060Y6821D01*
G01X-2059Y6820D01*
G01X-2375Y6758D01*
G01X-2642Y6579D01*
G01X-2821Y6312D01*
G01X-2884Y5997D01*
G01X-2883Y-5985D01*
G01X-2820Y-6305D01*
G01X-2639Y-6576D01*
G01X-2368Y-6757D01*
G01X-2049Y-6820D01*
G01X2126Y-6820D01*
G01X2446Y-6757D01*
G01X2717Y-6576D01*
G01X2898Y-6305D01*
G01X2962Y-5986D01*
G01X2961Y6052D01*
G01X2897Y6376D01*
G01X2714Y6651D01*
G01X2439Y6834D01*
G01X2116Y6899D01*
G01X-2115Y6898D01*
G01X-2439Y6834D01*
G01X-2714Y6651D01*
G01X-2897Y6376D01*
G01X-2962Y6053D01*
G01X-2961Y-6041D01*
G01X-2896Y-6369D01*
G01X-2710Y-6647D01*
G01X-2432Y-6833D01*
G01X-2104Y-6898D01*
G01X2182Y-6898D01*
G01X2510Y-6833D01*
G01X2788Y-6647D01*
G01X2974Y-6369D01*
G01X3040Y-6041D01*
G01X3039Y6108D01*
G01X2973Y6440D01*
G01X2785Y6722D01*
G01X2504Y6910D01*
G01X2171Y6977D01*
G01X-2171Y6976D01*
G01X-2503Y6910D01*
G01X-2785Y6722D01*
G01X-2973Y6441D01*
G01X-3040Y6108D01*
G01X-3039Y-6097D01*
G01X-2973Y-6433D01*
G01X-2782Y-6719D01*
G01X-2497Y-6909D01*
G01X-2160Y-6976D01*
G01X2238Y-6976D01*
G01X2574Y-6909D01*
G01X2860Y-6719D01*
G01X3050Y-6434D01*
G01X3118Y-6097D01*
G01X3117Y6164D01*
G01X3050Y6504D01*
G01X2857Y6793D01*
G01X2568Y6987D01*
G01X2227Y7055D01*
G01X-2227Y7054D01*
G01X-2567Y6986D01*
G01X-2857Y6794D01*
G01X-3050Y6505D01*
G01X-3118Y6164D01*
G01X-3117Y-6152D01*
G01X-3049Y-6498D01*
G01X-2853Y-6790D01*
G01X-2561Y-6986D01*
G01X-2216Y-7054D01*
G01X2293Y-7054D01*
G01X2639Y-6986D01*
G01X2931Y-6790D01*
G01X3127Y-6498D01*
G01X3196Y-6153D01*
G01X3195Y6219D01*
G01X3126Y6569D01*
G01X2928Y6865D01*
G01X2632Y7063D01*
G01X2283Y7133D01*
G01X-2282Y7132D01*
G01X-2632Y7063D01*
G01X-2928Y6865D01*
G01X-3126Y6569D01*
G01X-3196Y6220D01*
G01X-3195Y-6208D01*
G01X-3125Y-6562D01*
G01X-2925Y-6862D01*
G01X-2625Y-7062D01*
G01X-2272Y-7132D01*
G01X2349Y-7132D01*
G01X2703Y-7062D01*
G01X3003Y-6862D01*
G01X3203Y-6562D01*
G01X3274Y-6209D01*
G01X3273Y6275D01*
G01X3202Y6633D01*
G01X3000Y6936D01*
G01X2696Y7139D01*
G01X2338Y7211D01*
G01X-2338Y7210D01*
G01X-2696Y7139D01*
G01X-2999Y6937D01*
G01X-3202Y6633D01*
G01X-3274Y6275D01*
G01X-3273Y-6264D01*
G01X-3201Y-6626D01*
G01X-2996Y-6933D01*
G01X-2689Y-7138D01*
G01X-2327Y-7210D01*
G01X2405Y-7210D01*
G01X2767Y-7138D01*
G01X3074Y-6933D01*
G01X3279Y-6626D01*
G01X3352Y-6264D01*
G01X3351Y6331D01*
G01X3278Y6697D01*
G01X3071Y7008D01*
G01X2761Y7216D01*
G01X2394Y7289D01*
G01X-2394Y7288D01*
G01X-2760Y7215D01*
G01X-3071Y7008D01*
G01X-3279Y6698D01*
G01X-3352Y6331D01*
G01X-3351Y-6320D01*
G01X-3278Y-6690D01*
G01X-3068Y-7005D01*
G01X-2754Y-7215D01*
G01X-2383Y-7288D01*
G01X2461Y-7288D01*
G01X2831Y-7215D01*
G01X3146Y-7005D01*
G01X3356Y-6691D01*
G01X3430Y-6320D01*
G01X3429Y6386D01*
G01X3355Y6761D01*
G01X3143Y7079D01*
G01X2825Y7292D01*
G01X2450Y7367D01*
G01X-2449Y7366D01*
G01X-2824Y7292D01*
G01X-3142Y7079D01*
G01X-3355Y6762D01*
G01X-3430Y6387D01*
G01X-3429Y-6375D01*
G01X-3354Y-6754D01*
G01X-3139Y-7076D01*
G01X-2818Y-7291D01*
G01X-2439Y-7366D01*
G01X2516Y-7366D01*
G01X2895Y-7291D01*
G01X3217Y-7076D01*
G01X3432Y-6755D01*
G01X3508Y-6376D01*
G01X3507Y6442D01*
G01X3431Y6826D01*
G01X3214Y7151D01*
G01X2889Y7368D01*
G01X2506Y7445D01*
G01X-2505Y7444D01*
G01X-2889Y7368D01*
G01X-3214Y7151D01*
G01X-3431Y6826D01*
G01X-3508Y6443D01*
G01X-3507Y-6431D01*
G01X-3430Y-6819D01*
G01X-3211Y-7148D01*
G01X-2882Y-7367D01*
G01X-2494Y-7444D01*
G01X2572Y-7444D01*
G01X2960Y-7367D01*
G01X3289Y-7148D01*
G01X3508Y-6819D01*
G01X3586Y-6431D01*
G01X3585Y6498D01*
G01X3507Y6890D01*
G01X3285Y7222D01*
G01X2953Y7445D01*
G01X2561Y7523D01*
G01X-2561Y7522D01*
G01X-2953Y7444D01*
G01X-3285Y7222D01*
G01X-3508Y6890D01*
G01X-3586Y6498D01*
G01X-3585Y-6487D01*
G01X-3507Y-6883D01*
G01X-3282Y-7219D01*
G01X-2946Y-7444D01*
G01X-2550Y-7522D01*
G01X2628Y-7522D01*
G01X3024Y-7444D01*
G01X3360Y-7219D01*
G01X3585Y-6883D01*
G01X3664Y-6487D01*
G01X3663Y6554D01*
G01X3584Y6954D01*
G01X3357Y7294D01*
G01X3018Y7521D01*
G01X2617Y7601D01*
G01X-2617Y7600D01*
G01X-3017Y7521D01*
G01X-3357Y7294D01*
G01X-3584Y6954D01*
G01X-3664Y6554D01*
G01X-3663Y-6542D01*
G01X-3583Y-6947D01*
G01X-3354Y-7290D01*
G01X-3011Y-7520D01*
G01X-2606Y-7600D01*
G01X2683Y-7600D01*
G01X3088Y-7520D01*
G01X3431Y-7291D01*
G01X3661Y-6948D01*
G01X3742Y-6543D01*
G01X3741Y6609D01*
G01X3660Y7018D01*
G01X3428Y7365D01*
G01X3082Y7597D01*
G01X2673Y7679D01*
G01X-2672Y7678D01*
G01X-3081Y7597D01*
G01X-3428Y7365D01*
G01X-3660Y7019D01*
G01X-3742Y6610D01*
G01X-3741Y-6598D01*
G01X-3659Y-7011D01*
G01X-3425Y-7362D01*
G01X-3075Y-7596D01*
G01X-2662Y-7678D01*
G01X2739Y-7678D01*
G01X3152Y-7596D01*
G01X3503Y-7362D01*
G01X3737Y-7012D01*
G01X3820Y-6599D01*
G01X3819Y6665D01*
G01X3736Y7083D01*
G01X3500Y7437D01*
G01X3146Y7673D01*
G01X2728Y7757D01*
G01X-2728Y7756D01*
G01X-3146Y7673D01*
G01X-3500Y7437D01*
G01X-3737Y7083D01*
G01X-3820Y6665D01*
G01X-3819Y-6654D01*
G01X-3736Y-7076D01*
G01X-3497Y-7433D01*
G01X-3139Y-7672D01*
G01X-2717Y-7756D01*
G01X2795Y-7756D01*
G01X3217Y-7672D01*
G01X3574Y-7434D01*
G01X3814Y-7076D01*
G01X3898Y-6654D01*
G01X3897Y6721D01*
G01X3813Y7147D01*
G01X3571Y7508D01*
G01X3210Y7750D01*
G01X2784Y7835D01*
G01X-2784Y7834D01*
G01X-3210Y7749D01*
G01X-3571Y7508D01*
G01X-3813Y7147D01*
G01X-3898Y6721D01*
G01X-3897Y-7827D01*
G01X-3898Y-7830D01*
G01X-3899Y-7834D01*
G01X-3901Y-7837D01*
G01X-3903Y-7840D01*
G01X-3931Y-7868D01*
G01X-3933Y-7869D01*
G01X-3934Y-7869D01*
G01X-3936Y-7867D01*
G01X-3936Y-7866D01*
G01X-3936Y6750D01*
G01X-3850Y7180D01*
G01X-3606Y7545D01*
G01X-3241Y7788D01*
G01X-2811Y7873D01*
G01X2812Y7874D01*
G01X3242Y7788D01*
G01X3607Y7544D01*
G01X3851Y7179D01*
G01X3936Y6749D01*
G01X3937Y-6682D01*
G01X3852Y-7108D01*
G01X3610Y-7469D01*
G01X3249Y-7711D01*
G01X2823Y-7795D01*
G01X-2745Y-7795D01*
G37*

G04 ----------------------- Draw copper area (positive)*
G36*
G01X-11485Y-7756D02*
G01X-11911Y-7671D01*
G01X-12273Y-7430D01*
G01X-12514Y-7068D01*
G01X-12599Y-6642D01*
G01X-12599Y6733D01*
G01X-12514Y7155D01*
G01X-12275Y7512D01*
G01X-11917Y7751D01*
G01X-11495Y7835D01*
G01X-5983Y7835D01*
G01X-5561Y7751D01*
G01X-5204Y7512D01*
G01X-4965Y7154D01*
G01X-4881Y6732D01*
G01X-4881Y-6587D01*
G01X-4964Y-7005D01*
G01X-5200Y-7359D01*
G01X-5555Y-7595D01*
G01X-5972Y-7678D01*
G01X-11430Y-7678D01*
G01X-11847Y-7595D01*
G01X-12201Y-7358D01*
G01X-12438Y-7004D01*
G01X-12521Y-6587D01*
G01X-12521Y6677D01*
G01X-12438Y7091D01*
G01X-12204Y7441D01*
G01X-11853Y7675D01*
G01X-11440Y7757D01*
G01X-6039Y7757D01*
G01X-5625Y7675D01*
G01X-5275Y7440D01*
G01X-5041Y7090D01*
G01X-4959Y6676D01*
G01X-4959Y-6531D01*
G01X-5040Y-6940D01*
G01X-5272Y-7287D01*
G01X-5619Y-7519D01*
G01X-6028Y-7600D01*
G01X-11374Y-7600D01*
G01X-11783Y-7519D01*
G01X-12130Y-7287D01*
G01X-12361Y-6940D01*
G01X-12443Y-6531D01*
G01X-12443Y6622D01*
G01X-12362Y7026D01*
G01X-12132Y7370D01*
G01X-11789Y7599D01*
G01X-11384Y7679D01*
G01X-6094Y7679D01*
G01X-5690Y7598D01*
G01X-5346Y7369D01*
G01X-5117Y7026D01*
G01X-5037Y6621D01*
G01X-5037Y-6476D01*
G01X-5116Y-6876D01*
G01X-5343Y-7216D01*
G01X-5683Y-7442D01*
G01X-6084Y-7522D01*
G01X-11318Y-7522D01*
G01X-11719Y-7442D01*
G01X-12058Y-7215D01*
G01X-12285Y-6876D01*
G01X-12365Y-6475D01*
G01X-12365Y6566D01*
G01X-12285Y6962D01*
G01X-12061Y7298D01*
G01X-11725Y7522D01*
G01X-11328Y7601D01*
G01X-6150Y7601D01*
G01X-5754Y7522D01*
G01X-5418Y7297D01*
G01X-5194Y6961D01*
G01X-5115Y6565D01*
G01X-5115Y-6420D01*
G01X-5193Y-6812D01*
G01X-5415Y-7144D01*
G01X-5747Y-7366D01*
G01X-6139Y-7444D01*
G01X-11262Y-7444D01*
G01X-11654Y-7366D01*
G01X-11987Y-7144D01*
G01X-12209Y-6811D01*
G01X-12287Y-6419D01*
G01X-12287Y6510D01*
G01X-12209Y6898D01*
G01X-11989Y7227D01*
G01X-11660Y7446D01*
G01X-11273Y7523D01*
G01X-6206Y7523D01*
G01X-5818Y7446D01*
G01X-5489Y7226D01*
G01X-5270Y6897D01*
G01X-5193Y6509D01*
G01X-5193Y-6364D01*
G01X-5269Y-6748D01*
G01X-5486Y-7073D01*
G01X-5812Y-7290D01*
G01X-6195Y-7366D01*
G01X-11207Y-7366D01*
G01X-11590Y-7290D01*
G01X-11915Y-7072D01*
G01X-12132Y-6747D01*
G01X-12209Y-6364D01*
G01X-12209Y6455D01*
G01X-12133Y6834D01*
G01X-11918Y7155D01*
G01X-11596Y7370D01*
G01X-11217Y7445D01*
G01X-6261Y7445D01*
G01X-5882Y7369D01*
G01X-5561Y7154D01*
G01X-5346Y6833D01*
G01X-5271Y6454D01*
G01X-5271Y-6308D01*
G01X-5345Y-6683D01*
G01X-5558Y-7001D01*
G01X-5876Y-7213D01*
G01X-6251Y-7288D01*
G01X-11151Y-7288D01*
G01X-11526Y-7213D01*
G01X-11844Y-7001D01*
G01X-12056Y-6683D01*
G01X-12131Y-6308D01*
G01X-12131Y6399D01*
G01X-12057Y6769D01*
G01X-11846Y7084D01*
G01X-11532Y7293D01*
G01X-11161Y7367D01*
G01X-6317Y7367D01*
G01X-5947Y7293D01*
G01X-5632Y7083D01*
G01X-5423Y6769D01*
G01X-5349Y6398D01*
G01X-5349Y-6253D01*
G01X-5422Y-6619D01*
G01X-5629Y-6930D01*
G01X-5940Y-7137D01*
G01X-6306Y-7210D01*
G01X-11095Y-7210D01*
G01X-11462Y-7137D01*
G01X-11772Y-6929D01*
G01X-11980Y-6619D01*
G01X-12053Y-6252D01*
G01X-12053Y6343D01*
G01X-11980Y6705D01*
G01X-11775Y7012D01*
G01X-11468Y7217D01*
G01X-11106Y7289D01*
G01X-6373Y7289D01*
G01X-6011Y7217D01*
G01X-5704Y7012D01*
G01X-5499Y6704D01*
G01X-5427Y6342D01*
G01X-5427Y-6197D01*
G01X-5498Y-6555D01*
G01X-5701Y-6858D01*
G01X-6004Y-7061D01*
G01X-6362Y-7132D01*
G01X-11040Y-7132D01*
G01X-11397Y-7061D01*
G01X-11701Y-6858D01*
G01X-11903Y-6555D01*
G01X-11975Y-6197D01*
G01X-11975Y6287D01*
G01X-11904Y6641D01*
G01X-11703Y6941D01*
G01X-11404Y7141D01*
G01X-11050Y7211D01*
G01X-6429Y7211D01*
G01X-6075Y7141D01*
G01X-5775Y6940D01*
G01X-5575Y6640D01*
G01X-5505Y6286D01*
G01X-5505Y-6141D01*
G01X-5574Y-6491D01*
G01X-5772Y-6787D01*
G01X-6069Y-6985D01*
G01X-6418Y-7054D01*
G01X-10984Y-7054D01*
G01X-11333Y-6985D01*
G01X-11629Y-6787D01*
G01X-11827Y-6490D01*
G01X-11897Y-6141D01*
G01X-11897Y6232D01*
G01X-11828Y6577D01*
G01X-11632Y6869D01*
G01X-11339Y7064D01*
G01X-10994Y7133D01*
G01X-6484Y7133D01*
G01X-6139Y7064D01*
G01X-5847Y6869D01*
G01X-5651Y6576D01*
G01X-5583Y6231D01*
G01X-5583Y-6086D01*
G01X-5651Y-6426D01*
G01X-5844Y-6715D01*
G01X-6133Y-6908D01*
G01X-6474Y-6976D01*
G01X-10928Y-6976D01*
G01X-11269Y-6908D01*
G01X-11558Y-6715D01*
G01X-11751Y-6426D01*
G01X-11819Y-6085D01*
G01X-11819Y6176D01*
G01X-11751Y6512D01*
G01X-11561Y6798D01*
G01X-11275Y6988D01*
G01X-10938Y7055D01*
G01X-6540Y7055D01*
G01X-6204Y6988D01*
G01X-5918Y6797D01*
G01X-5728Y6512D01*
G01X-5661Y6175D01*
G01X-5661Y-6030D01*
G01X-5727Y-6362D01*
G01X-5915Y-6644D01*
G01X-6197Y-6832D01*
G01X-6529Y-6898D01*
G01X-10872Y-6898D01*
G01X-11205Y-6832D01*
G01X-11486Y-6644D01*
G01X-11675Y-6362D01*
G01X-11741Y-6029D01*
G01X-11741Y6120D01*
G01X-11675Y6448D01*
G01X-11489Y6726D01*
G01X-11211Y6912D01*
G01X-10883Y6977D01*
G01X-6596Y6977D01*
G01X-6268Y6912D01*
G01X-5990Y6726D01*
G01X-5804Y6447D01*
G01X-5739Y6119D01*
G01X-5739Y-5974D01*
G01X-5803Y-6298D01*
G01X-5987Y-6572D01*
G01X-6261Y-6756D01*
G01X-6585Y-6820D01*
G01X-10817Y-6820D01*
G01X-11140Y-6756D01*
G01X-11415Y-6572D01*
G01X-11598Y-6298D01*
G01X-11663Y-5974D01*
G01X-11663Y6064D01*
G01X-11599Y6384D01*
G01X-11418Y6655D01*
G01X-11147Y6835D01*
G01X-10827Y6899D01*
G01X-6652Y6899D01*
G01X-6332Y6835D01*
G01X-6061Y6654D01*
G01X-5880Y6383D01*
G01X-5817Y6064D01*
G01X-5817Y-5918D01*
G01X-5879Y-6234D01*
G01X-6058Y-6501D01*
G01X-6325Y-6679D01*
G01X-6641Y-6742D01*
G01X-10761Y-6742D01*
G01X-11076Y-6679D01*
G01X-11343Y-6501D01*
G01X-11522Y-6233D01*
G01X-11585Y-5918D01*
G01X-11585Y6009D01*
G01X-11522Y6320D01*
G01X-11346Y6583D01*
G01X-11082Y6759D01*
G01X-10771Y6821D01*
G01X-6707Y6821D01*
G01X-6396Y6759D01*
G01X-6133Y6583D01*
G01X-5957Y6319D01*
G01X-5895Y6008D01*
G01X-5895Y-5863D01*
G01X-5956Y-6169D01*
G01X-6130Y-6429D01*
G01X-6390Y-6603D01*
G01X-6696Y-6664D01*
G01X-10705Y-6664D01*
G01X-11012Y-6603D01*
G01X-11272Y-6429D01*
G01X-11446Y-6169D01*
G01X-11507Y-5862D01*
G01X-11507Y5953D01*
G01X-11446Y6255D01*
G01X-11275Y6512D01*
G01X-11018Y6683D01*
G01X-10716Y6743D01*
G01X-6763Y6743D01*
G01X-6461Y6683D01*
G01X-6204Y6511D01*
G01X-6033Y6255D01*
G01X-5973Y5952D01*
G01X-5973Y-5807D01*
G01X-6032Y-6105D01*
G01X-6201Y-6358D01*
G01X-6454Y-6527D01*
G01X-6752Y-6586D01*
G01X-10649Y-6586D01*
G01X-10948Y-6527D01*
G01X-11200Y-6358D01*
G01X-11369Y-6105D01*
G01X-11429Y-5807D01*
G01X-11429Y5897D01*
G01X-11370Y6191D01*
G01X-11203Y6440D01*
G01X-10954Y6607D01*
G01X-10660Y6665D01*
G01X-6819Y6665D01*
G01X-6525Y6606D01*
G01X-6276Y6440D01*
G01X-6109Y6190D01*
G01X-6051Y5896D01*
G01X-6051Y-5751D01*
G01X-6108Y-6041D01*
G01X-6273Y-6286D01*
G01X-6518Y-6450D01*
G01X-6808Y-6508D01*
G01X-10594Y-6508D01*
G01X-10883Y-6450D01*
G01X-11129Y-6286D01*
G01X-11293Y-6041D01*
G01X-11351Y-5751D01*
G01X-11351Y5841D01*
G01X-11294Y6127D01*
G01X-11132Y6369D01*
G01X-10890Y6530D01*
G01X-10604Y6587D01*
G01X-6874Y6587D01*
G01X-6589Y6530D01*
G01X-6347Y6368D01*
G01X-6186Y6126D01*
G01X-6129Y5841D01*
G01X-6129Y-5696D01*
G01X-6185Y-5977D01*
G01X-6344Y-6215D01*
G01X-6582Y-6374D01*
G01X-6864Y-6430D01*
G01X-10538Y-6430D01*
G01X-10819Y-6374D01*
G01X-11058Y-6215D01*
G01X-11217Y-5976D01*
G01X-11273Y-5695D01*
G01X-11273Y5786D01*
G01X-11217Y6063D01*
G01X-11060Y6297D01*
G01X-10825Y6454D01*
G01X-10549Y6509D01*
G01X-6930Y6509D01*
G01X-6653Y6454D01*
G01X-6419Y6297D01*
G01X-6262Y6062D01*
G01X-6207Y5785D01*
G01X-6207Y-5640D01*
G01X-6261Y-5912D01*
G01X-6415Y-6143D01*
G01X-6647Y-6298D01*
G01X-6919Y-6352D01*
G01X-10482Y-6352D01*
G01X-10755Y-6298D01*
G01X-10986Y-6143D01*
G01X-11140Y-5912D01*
G01X-11195Y-5639D01*
G01X-11195Y5730D01*
G01X-11141Y5998D01*
G01X-10989Y6226D01*
G01X-10761Y6378D01*
G01X-10493Y6431D01*
G01X-6986Y6431D01*
G01X-6717Y6377D01*
G01X-6490Y6225D01*
G01X-6338Y5998D01*
G01X-6285Y5729D01*
G01X-6285Y-6266D01*
G01X-6285Y-6268D01*
G01X-6287Y-6269D01*
G01X-6289Y-6269D01*
G01X-6290Y-6269D01*
G01X-6318Y-6241D01*
G01X-6320Y-6238D01*
G01X-6322Y-6235D01*
G01X-6323Y-6231D01*
G01X-6324Y-6227D01*
G01X-6324Y5702D01*
G01X-6376Y5966D01*
G01X-6526Y6190D01*
G01X-6750Y6339D01*
G01X-7014Y6392D01*
G01X-10465Y6392D01*
G01X-10729Y6339D01*
G01X-10953Y6190D01*
G01X-11103Y5966D01*
G01X-11156Y5702D01*
G01X-11156Y-5612D01*
G01X-11102Y-5880D01*
G01X-10950Y-6108D01*
G01X-10723Y-6260D01*
G01X-10454Y-6313D01*
G01X-6947Y-6313D01*
G01X-6679Y-6260D01*
G01X-6451Y-6108D01*
G01X-6299Y-5880D01*
G01X-6246Y-5612D01*
G01X-6246Y5757D01*
G01X-6300Y6030D01*
G01X-6454Y6261D01*
G01X-6685Y6416D01*
G01X-6958Y6470D01*
G01X-10521Y6470D01*
G01X-10794Y6415D01*
G01X-11025Y6261D01*
G01X-11179Y6030D01*
G01X-11234Y5758D01*
G01X-11234Y-5667D01*
G01X-11179Y-5944D01*
G01X-11022Y-6179D01*
G01X-10787Y-6336D01*
G01X-10510Y-6391D01*
G01X-6891Y-6391D01*
G01X-6615Y-6336D01*
G01X-6380Y-6179D01*
G01X-6223Y-5945D01*
G01X-6168Y-5668D01*
G01X-6168Y5813D01*
G01X-6224Y6094D01*
G01X-6383Y6333D01*
G01X-6621Y6492D01*
G01X-6902Y6548D01*
G01X-10577Y6548D01*
G01X-10858Y6492D01*
G01X-11096Y6333D01*
G01X-11256Y6094D01*
G01X-11312Y5813D01*
G01X-11312Y-5723D01*
G01X-11255Y-6008D01*
G01X-11093Y-6251D01*
G01X-10851Y-6412D01*
G01X-10566Y-6469D01*
G01X-6836Y-6469D01*
G01X-6550Y-6412D01*
G01X-6308Y-6251D01*
G01X-6146Y-6009D01*
G01X-6090Y-5723D01*
G01X-6090Y5869D01*
G01X-6147Y6158D01*
G01X-6311Y6404D01*
G01X-6557Y6568D01*
G01X-6847Y6626D01*
G01X-10632Y6626D01*
G01X-10922Y6568D01*
G01X-11168Y6404D01*
G01X-11332Y6159D01*
G01X-11390Y5869D01*
G01X-11390Y-5779D01*
G01X-11331Y-6073D01*
G01X-11165Y-6322D01*
G01X-10916Y-6489D01*
G01X-10622Y-6547D01*
G01X-6780Y-6547D01*
G01X-6486Y-6489D01*
G01X-6237Y-6322D01*
G01X-6070Y-6073D01*
G01X-6012Y-5779D01*
G01X-6012Y5924D01*
G01X-6071Y6223D01*
G01X-6240Y6476D01*
G01X-6493Y6645D01*
G01X-6791Y6704D01*
G01X-10688Y6704D01*
G01X-10986Y6644D01*
G01X-11239Y6476D01*
G01X-11408Y6223D01*
G01X-11468Y5925D01*
G01X-11468Y-5834D01*
G01X-11407Y-6137D01*
G01X-11236Y-6393D01*
G01X-10980Y-6565D01*
G01X-10677Y-6625D01*
G01X-6724Y-6625D01*
G01X-6422Y-6565D01*
G01X-6165Y-6394D01*
G01X-5994Y-6137D01*
G01X-5934Y-5835D01*
G01X-5934Y5980D01*
G01X-5995Y6287D01*
G01X-6168Y6547D01*
G01X-6428Y6721D01*
G01X-6735Y6782D01*
G01X-10744Y6781D01*
G01X-11051Y6721D01*
G01X-11311Y6547D01*
G01X-11485Y6287D01*
G01X-11546Y5980D01*
G01X-11546Y-5890D01*
G01X-11484Y-6201D01*
G01X-11308Y-6465D01*
G01X-11044Y-6641D01*
G01X-10733Y-6703D01*
G01X-6669Y-6703D01*
G01X-6358Y-6641D01*
G01X-6094Y-6465D01*
G01X-5918Y-6202D01*
G01X-5856Y-5891D01*
G01X-5856Y6036D01*
G01X-5919Y6351D01*
G01X-6097Y6618D01*
G01X-6364Y6797D01*
G01X-6679Y6860D01*
G01X-10800Y6859D01*
G01X-11115Y6797D01*
G01X-11382Y6619D01*
G01X-11561Y6351D01*
G01X-11624Y6036D01*
G01X-11624Y-5946D01*
G01X-11560Y-6265D01*
G01X-11379Y-6536D01*
G01X-11108Y-6717D01*
G01X-10789Y-6781D01*
G01X-6613Y-6781D01*
G01X-6293Y-6717D01*
G01X-6022Y-6537D01*
G01X-5841Y-6266D01*
G01X-5778Y-5946D01*
G01X-5778Y6091D01*
G01X-5842Y6415D01*
G01X-6025Y6690D01*
G01X-6300Y6873D01*
G01X-6624Y6938D01*
G01X-10855Y6937D01*
G01X-11179Y6873D01*
G01X-11454Y6690D01*
G01X-11637Y6416D01*
G01X-11702Y6092D01*
G01X-11702Y-6002D01*
G01X-11636Y-6330D01*
G01X-11451Y-6608D01*
G01X-11173Y-6794D01*
G01X-10845Y-6859D01*
G01X-6557Y-6859D01*
G01X-6229Y-6794D01*
G01X-5951Y-6608D01*
G01X-5765Y-6330D01*
G01X-5700Y-6002D01*
G01X-5700Y6147D01*
G01X-5766Y6480D01*
G01X-5954Y6761D01*
G01X-6236Y6950D01*
G01X-6568Y7016D01*
G01X-10911Y7015D01*
G01X-11243Y6950D01*
G01X-11525Y6761D01*
G01X-11714Y6480D01*
G01X-11780Y6148D01*
G01X-11780Y-6057D01*
G01X-11713Y-6394D01*
G01X-11522Y-6679D01*
G01X-11237Y-6870D01*
G01X-10900Y-6937D01*
G01X-6501Y-6937D01*
G01X-6165Y-6870D01*
G01X-5879Y-6680D01*
G01X-5689Y-6394D01*
G01X-5622Y-6058D01*
G01X-5622Y6203D01*
G01X-5690Y6544D01*
G01X-5883Y6833D01*
G01X-6171Y7026D01*
G01X-6512Y7094D01*
G01X-10967Y7093D01*
G01X-11308Y7026D01*
G01X-11597Y6833D01*
G01X-11790Y6544D01*
G01X-11858Y6203D01*
G01X-11858Y-6113D01*
G01X-11789Y-6458D01*
G01X-11594Y-6751D01*
G01X-11301Y-6946D01*
G01X-10956Y-7015D01*
G01X-6446Y-7015D01*
G01X-6101Y-6946D01*
G01X-5808Y-6751D01*
G01X-5612Y-6459D01*
G01X-5544Y-6113D01*
G01X-5544Y6259D01*
G01X-5613Y6608D01*
G01X-5811Y6904D01*
G01X-6107Y7102D01*
G01X-6456Y7172D01*
G01X-11022Y7171D01*
G01X-11372Y7102D01*
G01X-11668Y6904D01*
G01X-11866Y6608D01*
G01X-11936Y6259D01*
G01X-11936Y-6169D01*
G01X-11865Y-6522D01*
G01X-11665Y-6822D01*
G01X-11365Y-7023D01*
G01X-11012Y-7093D01*
G01X-6390Y-7093D01*
G01X-6036Y-7023D01*
G01X-5737Y-6822D01*
G01X-5536Y-6523D01*
G01X-5466Y-6169D01*
G01X-5466Y6314D01*
G01X-5537Y6672D01*
G01X-5740Y6976D01*
G01X-6043Y7179D01*
G01X-6401Y7250D01*
G01X-11078Y7249D01*
G01X-11436Y7178D01*
G01X-11740Y6976D01*
G01X-11943Y6673D01*
G01X-12014Y6315D01*
G01X-12014Y-6224D01*
G01X-11942Y-6587D01*
G01X-11737Y-6894D01*
G01X-11430Y-7099D01*
G01X-11067Y-7171D01*
G01X-6334Y-7171D01*
G01X-5972Y-7099D01*
G01X-5665Y-6894D01*
G01X-5460Y-6587D01*
G01X-5388Y-6225D01*
G01X-5388Y6370D01*
G01X-5461Y6737D01*
G01X-5668Y7047D01*
G01X-5979Y7255D01*
G01X-6345Y7328D01*
G01X-11134Y7327D01*
G01X-11500Y7255D01*
G01X-11811Y7047D01*
G01X-12019Y6737D01*
G01X-12092Y6370D01*
G01X-12092Y-6280D01*
G01X-12018Y-6651D01*
G01X-11808Y-6965D01*
G01X-11494Y-7175D01*
G01X-11123Y-7249D01*
G01X-6279Y-7249D01*
G01X-5908Y-7175D01*
G01X-5594Y-6965D01*
G01X-5383Y-6651D01*
G01X-5310Y-6281D01*
G01X-5310Y6426D01*
G01X-5384Y6801D01*
G01X-5597Y7119D01*
G01X-5914Y7331D01*
G01X-6289Y7406D01*
G01X-11190Y7405D01*
G01X-11565Y7331D01*
G01X-11883Y7119D01*
G01X-12095Y6801D01*
G01X-12170Y6426D01*
G01X-12170Y-6336D01*
G01X-12094Y-6715D01*
G01X-11879Y-7037D01*
G01X-11558Y-7252D01*
G01X-11179Y-7327D01*
G01X-6223Y-7327D01*
G01X-5844Y-7252D01*
G01X-5522Y-7037D01*
G01X-5307Y-6716D01*
G01X-5232Y-6336D01*
G01X-5232Y6481D01*
G01X-5308Y6865D01*
G01X-5525Y7190D01*
G01X-5850Y7408D01*
G01X-6234Y7484D01*
G01X-11245Y7483D01*
G01X-11629Y7407D01*
G01X-11954Y7190D01*
G01X-12171Y6865D01*
G01X-12248Y6482D01*
G01X-12248Y-6392D01*
G01X-12171Y-6779D01*
G01X-11951Y-7108D01*
G01X-11622Y-7328D01*
G01X-11235Y-7405D01*
G01X-6167Y-7405D01*
G01X-5779Y-7328D01*
G01X-5451Y-7108D01*
G01X-5231Y-6780D01*
G01X-5154Y-6392D01*
G01X-5154Y6537D01*
G01X-5232Y6929D01*
G01X-5454Y7262D01*
G01X-5786Y7484D01*
G01X-6178Y7562D01*
G01X-11301Y7561D01*
G01X-11693Y7484D01*
G01X-12025Y7262D01*
G01X-12248Y6930D01*
G01X-12326Y6538D01*
G01X-12326Y-6447D01*
G01X-12247Y-6844D01*
G01X-12022Y-7180D01*
G01X-11687Y-7404D01*
G01X-11290Y-7483D01*
G01X-6111Y-7483D01*
G01X-5715Y-7404D01*
G01X-5379Y-7180D01*
G01X-5155Y-6844D01*
G01X-5076Y-6448D01*
G01X-5076Y6593D01*
G01X-5156Y6993D01*
G01X-5382Y7333D01*
G01X-5722Y7560D01*
G01X-6122Y7640D01*
G01X-11357Y7639D01*
G01X-11757Y7560D01*
G01X-12097Y7333D01*
G01X-12324Y6994D01*
G01X-12404Y6593D01*
G01X-12404Y-6503D01*
G01X-12323Y-6908D01*
G01X-12094Y-7251D01*
G01X-11751Y-7480D01*
G01X-11346Y-7561D01*
G01X-6056Y-7561D01*
G01X-5651Y-7481D01*
G01X-5308Y-7251D01*
G01X-5078Y-6908D01*
G01X-4998Y-6503D01*
G01X-4998Y6649D01*
G01X-5079Y7058D01*
G01X-5311Y7405D01*
G01X-5657Y7637D01*
G01X-6066Y7718D01*
G01X-11412Y7717D01*
G01X-11822Y7636D01*
G01X-12168Y7405D01*
G01X-12400Y7058D01*
G01X-12482Y6649D01*
G01X-12482Y-6559D01*
G01X-12399Y-6972D01*
G01X-12165Y-7323D01*
G01X-11815Y-7557D01*
G01X-11402Y-7639D01*
G01X-6000Y-7639D01*
G01X-5587Y-7557D01*
G01X-5236Y-7323D01*
G01X-5002Y-6973D01*
G01X-4920Y-6559D01*
G01X-4920Y6704D01*
G01X-5003Y7122D01*
G01X-5239Y7476D01*
G01X-5593Y7713D01*
G01X-6011Y7796D01*
G01X-11468Y7795D01*
G01X-11886Y7713D01*
G01X-12240Y7476D01*
G01X-12477Y7122D01*
G01X-12560Y6705D01*
G01X-12560Y-6614D01*
G01X-12476Y-7036D01*
G01X-12237Y-7394D01*
G01X-11879Y-7633D01*
G01X-11457Y-7717D01*
G01X-5944Y-7717D01*
G01X-5522Y-7633D01*
G01X-5165Y-7394D01*
G01X-4926Y-7037D01*
G01X-4842Y-6615D01*
G01X-4842Y6760D01*
G01X-4927Y7186D01*
G01X-5168Y7548D01*
G01X-5529Y7789D01*
G01X-5955Y7874D01*
G01X-11524Y7873D01*
G01X-11950Y7789D01*
G01X-12311Y7548D01*
G01X-12553Y7187D01*
G01X-12638Y6761D01*
G01X-12638Y-7787D01*
G01X-12638Y-7791D01*
G01X-12639Y-7795D01*
G01X-12641Y-7798D01*
G01X-12643Y-7801D01*
G01X-12671Y-7829D01*
G01X-12673Y-7829D01*
G01X-12675Y-7829D01*
G01X-12676Y-7828D01*
G01X-12677Y-7826D01*
G01X-12677Y6789D01*
G01X-12591Y7219D01*
G01X-12347Y7584D01*
G01X-11982Y7828D01*
G01X-11551Y7913D01*
G01X-5927Y7913D01*
G01X-5497Y7827D01*
G01X-5132Y7583D01*
G01X-4888Y7218D01*
G01X-4803Y6788D01*
G01X-4803Y-6643D01*
G01X-4887Y-7069D01*
G01X-5129Y-7430D01*
G01X-5490Y-7671D01*
G01X-5917Y-7756D01*
G01X-11485Y-7756D01*
G37*

G04 ----------------------- Draw copper area (positive)*
G36*
G01X-2745Y-24764D02*
G01X-3171Y-24679D01*
G01X-3532Y-24438D01*
G01X-3774Y-24076D01*
G01X-3858Y-23650D01*
G01X-3858Y-10274D01*
G01X-3774Y-9852D01*
G01X-3535Y-9494D01*
G01X-3177Y-9256D01*
G01X-2755Y-9172D01*
G01X2756Y-9172D01*
G01X3178Y-9256D01*
G01X3536Y-9495D01*
G01X3774Y-9853D01*
G01X3858Y-10275D01*
G01X3859Y-23595D01*
G01X3775Y-24013D01*
G01X3539Y-24366D01*
G01X3185Y-24603D01*
G01X2767Y-24686D01*
G01X-2689Y-24686D01*
G01X-3107Y-24603D01*
G01X-3461Y-24366D01*
G01X-3697Y-24012D01*
G01X-3780Y-23594D01*
G01X-3780Y-10329D01*
G01X-3698Y-9916D01*
G01X-3464Y-9566D01*
G01X-3113Y-9332D01*
G01X-2700Y-9250D01*
G01X2701Y-9250D01*
G01X3114Y-9332D01*
G01X3464Y-9567D01*
G01X3698Y-9917D01*
G01X3780Y-10330D01*
G01X3781Y-23539D01*
G01X3699Y-23948D01*
G01X3467Y-24295D01*
G01X3120Y-24527D01*
G01X2711Y-24608D01*
G01X-2634Y-24608D01*
G01X-3043Y-24526D01*
G01X-3389Y-24295D01*
G01X-3621Y-23948D01*
G01X-3702Y-23539D01*
G01X-3702Y-10385D01*
G01X-3622Y-9980D01*
G01X-3392Y-9637D01*
G01X-3049Y-9408D01*
G01X-2644Y-9328D01*
G01X2645Y-9328D01*
G01X3050Y-9409D01*
G01X3393Y-9638D01*
G01X3622Y-9981D01*
G01X3702Y-10386D01*
G01X3703Y-23484D01*
G01X3623Y-23884D01*
G01X3396Y-24223D01*
G01X3056Y-24450D01*
G01X2656Y-24530D01*
G01X-2578Y-24530D01*
G01X-2979Y-24450D01*
G01X-3318Y-24223D01*
G01X-3545Y-23884D01*
G01X-3624Y-23483D01*
G01X-3624Y-10441D01*
G01X-3545Y-10045D01*
G01X-3321Y-9709D01*
G01X-2985Y-9485D01*
G01X-2588Y-9406D01*
G01X2589Y-9406D01*
G01X2985Y-9485D01*
G01X3321Y-9709D01*
G01X3546Y-10046D01*
G01X3624Y-10442D01*
G01X3625Y-23428D01*
G01X3546Y-23820D01*
G01X3324Y-24152D01*
G01X2992Y-24374D01*
G01X2600Y-24452D01*
G01X-2522Y-24452D01*
G01X-2914Y-24374D01*
G01X-3247Y-24152D01*
G01X-3469Y-23819D01*
G01X-3546Y-23427D01*
G01X-3546Y-10497D01*
G01X-3469Y-10109D01*
G01X-3249Y-9780D01*
G01X-2920Y-9561D01*
G01X-2532Y-9484D01*
G01X2533Y-9484D01*
G01X2921Y-9561D01*
G01X3250Y-9781D01*
G01X3469Y-10110D01*
G01X3546Y-10498D01*
G01X3547Y-23372D01*
G01X3470Y-23756D01*
G01X3253Y-24081D01*
G01X2928Y-24298D01*
G01X2544Y-24374D01*
G01X-2467Y-24374D01*
G01X-2850Y-24298D01*
G01X-3175Y-24080D01*
G01X-3392Y-23755D01*
G01X-3468Y-23372D01*
G01X-3468Y-10552D01*
G01X-3393Y-10173D01*
G01X-3178Y-9852D01*
G01X-2856Y-9637D01*
G01X-2477Y-9562D01*
G01X2478Y-9562D01*
G01X2857Y-9637D01*
G01X3178Y-9852D01*
G01X3393Y-10174D01*
G01X3468Y-10553D01*
G01X3469Y-23316D01*
G01X3394Y-23691D01*
G01X3181Y-24009D01*
G01X2863Y-24221D01*
G01X2488Y-24296D01*
G01X-2411Y-24296D01*
G01X-2786Y-24221D01*
G01X-3104Y-24009D01*
G01X-3316Y-23691D01*
G01X-3390Y-23316D01*
G01X-3390Y-10608D01*
G01X-3316Y-10237D01*
G01X-3106Y-9923D01*
G01X-2792Y-9714D01*
G01X-2421Y-9640D01*
G01X2422Y-9640D01*
G01X2793Y-9714D01*
G01X3107Y-9924D01*
G01X3317Y-10238D01*
G01X3390Y-10609D01*
G01X3391Y-23261D01*
G01X3318Y-23627D01*
G01X3110Y-23938D01*
G01X2799Y-24145D01*
G01X2433Y-24218D01*
G01X-2355Y-24218D01*
G01X-2722Y-24145D01*
G01X-3032Y-23937D01*
G01X-3240Y-23627D01*
G01X-3312Y-23260D01*
G01X-3312Y-10664D01*
G01X-3240Y-10302D01*
G01X-3035Y-9995D01*
G01X-2728Y-9790D01*
G01X-2365Y-9718D01*
G01X2366Y-9718D01*
G01X2728Y-9790D01*
G01X3035Y-9995D01*
G01X3240Y-10302D01*
G01X3312Y-10665D01*
G01X3313Y-23205D01*
G01X3241Y-23563D01*
G01X3038Y-23866D01*
G01X2735Y-24069D01*
G01X2377Y-24140D01*
G01X-2299Y-24140D01*
G01X-2657Y-24069D01*
G01X-2961Y-23866D01*
G01X-3163Y-23562D01*
G01X-3234Y-23204D01*
G01X-3234Y-10720D01*
G01X-3164Y-10366D01*
G01X-2963Y-10066D01*
G01X-2663Y-9866D01*
G01X-2310Y-9796D01*
G01X2311Y-9796D01*
G01X2664Y-9866D01*
G01X2964Y-10067D01*
G01X3164Y-10367D01*
G01X3234Y-10720D01*
G01X3235Y-23149D01*
G01X3165Y-23499D01*
G01X2967Y-23795D01*
G01X2671Y-23992D01*
G01X2321Y-24062D01*
G01X-2244Y-24062D01*
G01X-2593Y-23992D01*
G01X-2889Y-23794D01*
G01X-3087Y-23498D01*
G01X-3156Y-23149D01*
G01X-3156Y-10775D01*
G01X-3088Y-10430D01*
G01X-2892Y-10138D01*
G01X-2599Y-9942D01*
G01X-2254Y-9874D01*
G01X2255Y-9874D01*
G01X2600Y-9943D01*
G01X2892Y-10138D01*
G01X3088Y-10431D01*
G01X3156Y-10776D01*
G01X3157Y-23093D01*
G01X3089Y-23434D01*
G01X2895Y-23723D01*
G01X2606Y-23916D01*
G01X2266Y-23984D01*
G01X-2188Y-23984D01*
G01X-2529Y-23916D01*
G01X-2818Y-23723D01*
G01X-3011Y-23434D01*
G01X-3078Y-23093D01*
G01X-3078Y-10831D01*
G01X-3011Y-10494D01*
G01X-2820Y-10209D01*
G01X-2535Y-10019D01*
G01X-2198Y-9952D01*
G01X2199Y-9952D01*
G01X2536Y-10019D01*
G01X2821Y-10210D01*
G01X3011Y-10495D01*
G01X3078Y-10832D01*
G01X3079Y-23038D01*
G01X3012Y-23370D01*
G01X2824Y-23652D01*
G01X2542Y-23840D01*
G01X2210Y-23906D01*
G01X-2132Y-23906D01*
G01X-2465Y-23840D01*
G01X-2746Y-23651D01*
G01X-2934Y-23370D01*
G01X-3000Y-23037D01*
G01X-3000Y-10887D01*
G01X-2935Y-10559D01*
G01X-2749Y-10281D01*
G01X-2471Y-10095D01*
G01X-2143Y-10030D01*
G01X2143Y-10030D01*
G01X2471Y-10095D01*
G01X2749Y-10281D01*
G01X2935Y-10559D01*
G01X3000Y-10888D01*
G01X3001Y-22982D01*
G01X2936Y-23306D01*
G01X2753Y-23580D01*
G01X2478Y-23764D01*
G01X2154Y-23828D01*
G01X-2077Y-23828D01*
G01X-2400Y-23763D01*
G01X-2675Y-23580D01*
G01X-2858Y-23305D01*
G01X-2922Y-22982D01*
G01X-2922Y-10942D01*
G01X-2859Y-10623D01*
G01X-2677Y-10352D01*
G01X-2406Y-10171D01*
G01X-2087Y-10108D01*
G01X2088Y-10108D01*
G01X2407Y-10172D01*
G01X2678Y-10353D01*
G01X2859Y-10624D01*
G01X2922Y-10943D01*
G01X2923Y-22926D01*
G01X2860Y-23242D01*
G01X2681Y-23509D01*
G01X2414Y-23687D01*
G01X2098Y-23750D01*
G01X-2021Y-23750D01*
G01X-2336Y-23687D01*
G01X-2603Y-23509D01*
G01X-2782Y-23241D01*
G01X-2844Y-22926D01*
G01X-2844Y-10998D01*
G01X-2782Y-10687D01*
G01X-2606Y-10424D01*
G01X-2342Y-10248D01*
G01X-2031Y-10186D01*
G01X2032Y-10186D01*
G01X2343Y-10248D01*
G01X2606Y-10424D01*
G01X2783Y-10688D01*
G01X2844Y-10999D01*
G01X2845Y-22871D01*
G01X2783Y-23177D01*
G01X2610Y-23437D01*
G01X2349Y-23611D01*
G01X2043Y-23672D01*
G01X-1965Y-23672D01*
G01X-2272Y-23611D01*
G01X-2532Y-23437D01*
G01X-2705Y-23177D01*
G01X-2766Y-22870D01*
G01X-2766Y-11054D01*
G01X-2706Y-10751D01*
G01X-2535Y-10495D01*
G01X-2278Y-10324D01*
G01X-1975Y-10264D01*
G01X1976Y-10264D01*
G01X2279Y-10324D01*
G01X2535Y-10496D01*
G01X2706Y-10752D01*
G01X2766Y-11055D01*
G01X2767Y-22815D01*
G01X2707Y-23113D01*
G01X2538Y-23366D01*
G01X2285Y-23535D01*
G01X1987Y-23594D01*
G01X-1909Y-23594D01*
G01X-2208Y-23535D01*
G01X-2460Y-23366D01*
G01X-2629Y-23113D01*
G01X-2688Y-22814D01*
G01X-2688Y-11110D01*
G01X-2630Y-10816D01*
G01X-2463Y-10567D01*
G01X-2214Y-10400D01*
G01X-1920Y-10342D01*
G01X1920Y-10342D01*
G01X2214Y-10400D01*
G01X2464Y-10567D01*
G01X2630Y-10816D01*
G01X2688Y-11110D01*
G01X2689Y-22759D01*
G01X2631Y-23049D01*
G01X2467Y-23294D01*
G01X2221Y-23458D01*
G01X1931Y-23516D01*
G01X-1854Y-23516D01*
G01X-2143Y-23458D01*
G01X-2389Y-23294D01*
G01X-2553Y-23048D01*
G01X-2610Y-22759D01*
G01X-2610Y-11165D01*
G01X-2553Y-10880D01*
G01X-2392Y-10638D01*
G01X-2150Y-10477D01*
G01X-1864Y-10420D01*
G01X1865Y-10420D01*
G01X2150Y-10477D01*
G01X2392Y-10639D01*
G01X2554Y-10881D01*
G01X2610Y-11166D01*
G01X2611Y-22703D01*
G01X2555Y-22985D01*
G01X2395Y-23223D01*
G01X2157Y-23382D01*
G01X1876Y-23438D01*
G01X-1798Y-23438D01*
G01X-2079Y-23382D01*
G01X-2317Y-23223D01*
G01X-2477Y-22984D01*
G01X-2532Y-22703D01*
G01X-2532Y-11221D01*
G01X-2477Y-10944D01*
G01X-2320Y-10710D01*
G01X-2085Y-10553D01*
G01X-1808Y-10498D01*
G01X1809Y-10498D01*
G01X2086Y-10553D01*
G01X2321Y-10710D01*
G01X2477Y-10945D01*
G01X2532Y-11222D01*
G01X2533Y-22648D01*
G01X2478Y-22920D01*
G01X2324Y-23151D01*
G01X2093Y-23306D01*
G01X1820Y-23360D01*
G01X-1742Y-23360D01*
G01X-2015Y-23306D01*
G01X-2246Y-23151D01*
G01X-2400Y-22920D01*
G01X-2454Y-22647D01*
G01X-2454Y-11277D01*
G01X-2401Y-11009D01*
G01X-2249Y-10781D01*
G01X-2021Y-10629D01*
G01X-1753Y-10576D01*
G01X1753Y-10576D01*
G01X2022Y-10629D01*
G01X2249Y-10782D01*
G01X2401Y-11009D01*
G01X2454Y-11278D01*
G01X2455Y-23274D01*
G01X2454Y-23276D01*
G01X2452Y-23277D01*
G01X2451Y-23277D01*
G01X2449Y-23276D01*
G01X2421Y-23249D01*
G01X2419Y-23246D01*
G01X2417Y-23242D01*
G01X2416Y-23239D01*
G01X2416Y-23235D01*
G01X2415Y-11305D01*
G01X2363Y-11041D01*
G01X2213Y-10817D01*
G01X1990Y-10668D01*
G01X1725Y-10615D01*
G01X-1725Y-10615D01*
G01X-1989Y-10668D01*
G01X-2213Y-10817D01*
G01X-2363Y-11041D01*
G01X-2416Y-11305D01*
G01X-2415Y-22619D01*
G01X-2362Y-22888D01*
G01X-2210Y-23115D01*
G01X-1983Y-23268D01*
G01X-1714Y-23321D01*
G01X1792Y-23321D01*
G01X2060Y-23268D01*
G01X2288Y-23116D01*
G01X2440Y-22888D01*
G01X2494Y-22620D01*
G01X2493Y-11250D01*
G01X2439Y-10977D01*
G01X2285Y-10746D01*
G01X2054Y-10591D01*
G01X1781Y-10537D01*
G01X-1781Y-10537D01*
G01X-2054Y-10591D01*
G01X-2285Y-10746D01*
G01X-2439Y-10977D01*
G01X-2494Y-11249D01*
G01X-2493Y-22675D01*
G01X-2438Y-22952D01*
G01X-2282Y-23187D01*
G01X-2047Y-23344D01*
G01X-1770Y-23399D01*
G01X1848Y-23399D01*
G01X2125Y-23344D01*
G01X2359Y-23187D01*
G01X2516Y-22952D01*
G01X2572Y-22676D01*
G01X2571Y-11194D01*
G01X2515Y-10913D01*
G01X2356Y-10674D01*
G01X2118Y-10515D01*
G01X1837Y-10459D01*
G01X-1837Y-10459D01*
G01X-2118Y-10515D01*
G01X-2356Y-10674D01*
G01X-2516Y-10912D01*
G01X-2572Y-11194D01*
G01X-2571Y-22731D01*
G01X-2515Y-23016D01*
G01X-2353Y-23258D01*
G01X-2111Y-23420D01*
G01X-1826Y-23477D01*
G01X1903Y-23477D01*
G01X2189Y-23420D01*
G01X2431Y-23259D01*
G01X2593Y-23017D01*
G01X2650Y-22731D01*
G01X2649Y-11138D01*
G01X2592Y-10849D01*
G01X2428Y-10603D01*
G01X2182Y-10439D01*
G01X1893Y-10381D01*
G01X-1892Y-10381D01*
G01X-2182Y-10439D01*
G01X-2428Y-10603D01*
G01X-2592Y-10848D01*
G01X-2650Y-11138D01*
G01X-2649Y-22787D01*
G01X-2591Y-23081D01*
G01X-2425Y-23330D01*
G01X-2175Y-23496D01*
G01X-1881Y-23555D01*
G01X1959Y-23555D01*
G01X2253Y-23496D01*
G01X2502Y-23330D01*
G01X2669Y-23081D01*
G01X2728Y-22787D01*
G01X2727Y-11083D01*
G01X2668Y-10784D01*
G01X2499Y-10531D01*
G01X2247Y-10362D01*
G01X1948Y-10303D01*
G01X-1948Y-10303D01*
G01X-2246Y-10363D01*
G01X-2499Y-10531D01*
G01X-2668Y-10784D01*
G01X-2728Y-11082D01*
G01X-2727Y-22842D01*
G01X-2667Y-23145D01*
G01X-2496Y-23401D01*
G01X-2240Y-23573D01*
G01X-1937Y-23633D01*
G01X2015Y-23633D01*
G01X2317Y-23573D01*
G01X2574Y-23402D01*
G01X2745Y-23145D01*
G01X2806Y-22843D01*
G01X2805Y-11027D01*
G01X2744Y-10720D01*
G01X2571Y-10460D01*
G01X2311Y-10286D01*
G01X2004Y-10225D01*
G01X-2004Y-10225D01*
G01X-2310Y-10286D01*
G01X-2571Y-10460D01*
G01X-2745Y-10720D01*
G01X-2806Y-11026D01*
G01X-2805Y-22898D01*
G01X-2744Y-23209D01*
G01X-2568Y-23473D01*
G01X-2304Y-23649D01*
G01X-1993Y-23711D01*
G01X2071Y-23711D01*
G01X2382Y-23649D01*
G01X2645Y-23473D01*
G01X2822Y-23209D01*
G01X2884Y-22898D01*
G01X2883Y-10971D01*
G01X2821Y-10656D01*
G01X2642Y-10388D01*
G01X2375Y-10210D01*
G01X2060Y-10147D01*
G01X-2059Y-10147D01*
G01X-2375Y-10210D01*
G01X-2642Y-10388D01*
G01X-2821Y-10655D01*
G01X-2884Y-10971D01*
G01X-2883Y-22954D01*
G01X-2820Y-23273D01*
G01X-2639Y-23544D01*
G01X-2368Y-23725D01*
G01X-2049Y-23789D01*
G01X2126Y-23789D01*
G01X2446Y-23725D01*
G01X2717Y-23544D01*
G01X2898Y-23274D01*
G01X2962Y-22954D01*
G01X2961Y-10915D01*
G01X2897Y-10592D01*
G01X2714Y-10317D01*
G01X2439Y-10133D01*
G01X2116Y-10069D01*
G01X-2115Y-10069D01*
G01X-2439Y-10134D01*
G01X-2714Y-10317D01*
G01X-2897Y-10591D01*
G01X-2962Y-10915D01*
G01X-2961Y-23009D01*
G01X-2896Y-23338D01*
G01X-2710Y-23616D01*
G01X-2432Y-23802D01*
G01X-2104Y-23867D01*
G01X2182Y-23867D01*
G01X2510Y-23802D01*
G01X2788Y-23616D01*
G01X2974Y-23338D01*
G01X3040Y-23010D01*
G01X3039Y-10860D01*
G01X2973Y-10527D01*
G01X2785Y-10245D01*
G01X2504Y-10057D01*
G01X2171Y-9991D01*
G01X-2171Y-9991D01*
G01X-2503Y-10057D01*
G01X-2785Y-10245D01*
G01X-2973Y-10527D01*
G01X-3040Y-10859D01*
G01X-3039Y-23065D01*
G01X-2973Y-23402D01*
G01X-2782Y-23687D01*
G01X-2497Y-23878D01*
G01X-2160Y-23945D01*
G01X2238Y-23945D01*
G01X2574Y-23878D01*
G01X2860Y-23687D01*
G01X3050Y-23402D01*
G01X3118Y-23066D01*
G01X3117Y-10804D01*
G01X3050Y-10463D01*
G01X2857Y-10174D01*
G01X2568Y-9981D01*
G01X2227Y-9913D01*
G01X-2227Y-9913D01*
G01X-2567Y-9981D01*
G01X-2857Y-10174D01*
G01X-3050Y-10463D01*
G01X-3118Y-10804D01*
G01X-3117Y-23121D01*
G01X-3049Y-23466D01*
G01X-2853Y-23759D01*
G01X-2561Y-23954D01*
G01X-2216Y-24023D01*
G01X2293Y-24023D01*
G01X2639Y-23954D01*
G01X2931Y-23759D01*
G01X3127Y-23466D01*
G01X3196Y-23121D01*
G01X3195Y-10748D01*
G01X3126Y-10399D01*
G01X2928Y-10103D01*
G01X2632Y-9904D01*
G01X2283Y-9835D01*
G01X-2282Y-9835D01*
G01X-2632Y-9905D01*
G01X-2928Y-10102D01*
G01X-3126Y-10398D01*
G01X-3196Y-10748D01*
G01X-3195Y-23177D01*
G01X-3125Y-23530D01*
G01X-2925Y-23830D01*
G01X-2625Y-24031D01*
G01X-2272Y-24101D01*
G01X2349Y-24101D01*
G01X2703Y-24031D01*
G01X3003Y-23830D01*
G01X3203Y-23531D01*
G01X3274Y-23177D01*
G01X3273Y-10693D01*
G01X3202Y-10335D01*
G01X3000Y-10031D01*
G01X2696Y-9828D01*
G01X2338Y-9757D01*
G01X-2338Y-9757D01*
G01X-2696Y-9828D01*
G01X-2999Y-10031D01*
G01X-3202Y-10334D01*
G01X-3274Y-10692D01*
G01X-3273Y-23232D01*
G01X-3201Y-23595D01*
G01X-2996Y-23902D01*
G01X-2689Y-24107D01*
G01X-2327Y-24179D01*
G01X2405Y-24179D01*
G01X2767Y-24107D01*
G01X3074Y-23902D01*
G01X3279Y-23595D01*
G01X3352Y-23233D01*
G01X3351Y-10637D01*
G01X3278Y-10270D01*
G01X3071Y-9960D01*
G01X2761Y-9752D01*
G01X2394Y-9679D01*
G01X-2394Y-9679D01*
G01X-2760Y-9752D01*
G01X-3071Y-9959D01*
G01X-3279Y-10270D01*
G01X-3352Y-10636D01*
G01X-3351Y-23288D01*
G01X-3278Y-23659D01*
G01X-3068Y-23973D01*
G01X-2754Y-24183D01*
G01X-2383Y-24257D01*
G01X2461Y-24257D01*
G01X2831Y-24183D01*
G01X3146Y-23973D01*
G01X3356Y-23659D01*
G01X3430Y-23288D01*
G01X3429Y-10581D01*
G01X3355Y-10206D01*
G01X3143Y-9888D01*
G01X2825Y-9676D01*
G01X2450Y-9601D01*
G01X-2449Y-9601D01*
G01X-2824Y-9676D01*
G01X-3142Y-9888D01*
G01X-3355Y-10206D01*
G01X-3430Y-10581D01*
G01X-3429Y-23344D01*
G01X-3354Y-23723D01*
G01X-3139Y-24045D01*
G01X-2818Y-24259D01*
G01X-2439Y-24335D01*
G01X2516Y-24335D01*
G01X2895Y-24259D01*
G01X3217Y-24045D01*
G01X3432Y-23723D01*
G01X3508Y-23344D01*
G01X3507Y-10525D01*
G01X3431Y-10142D01*
G01X3214Y-9817D01*
G01X2889Y-9599D01*
G01X2506Y-9523D01*
G01X-2505Y-9523D01*
G01X-2889Y-9600D01*
G01X-3214Y-9817D01*
G01X-3431Y-10142D01*
G01X-3508Y-10525D01*
G01X-3507Y-23399D01*
G01X-3430Y-23787D01*
G01X-3211Y-24116D01*
G01X-2882Y-24336D01*
G01X-2494Y-24413D01*
G01X2572Y-24413D01*
G01X2960Y-24336D01*
G01X3289Y-24116D01*
G01X3508Y-23788D01*
G01X3586Y-23400D01*
G01X3585Y-10470D01*
G01X3507Y-10078D01*
G01X3285Y-9745D01*
G01X2953Y-9523D01*
G01X2561Y-9445D01*
G01X-2561Y-9445D01*
G01X-2953Y-9523D01*
G01X-3285Y-9745D01*
G01X-3508Y-10077D01*
G01X-3586Y-10469D01*
G01X-3585Y-23455D01*
G01X-3507Y-23851D01*
G01X-3282Y-24187D01*
G01X-2946Y-24412D01*
G01X-2550Y-24491D01*
G01X2628Y-24491D01*
G01X3024Y-24412D01*
G01X3360Y-24188D01*
G01X3585Y-23852D01*
G01X3664Y-23456D01*
G01X3663Y-10414D01*
G01X3584Y-10013D01*
G01X3357Y-9674D01*
G01X3018Y-9447D01*
G01X2617Y-9367D01*
G01X-2617Y-9367D01*
G01X-3017Y-9447D01*
G01X-3357Y-9674D01*
G01X-3584Y-10013D01*
G01X-3664Y-10413D01*
G01X-3663Y-23511D01*
G01X-3583Y-23916D01*
G01X-3354Y-24259D01*
G01X-3011Y-24488D01*
G01X-2606Y-24569D01*
G01X2683Y-24569D01*
G01X3088Y-24488D01*
G01X3431Y-24259D01*
G01X3661Y-23916D01*
G01X3742Y-23511D01*
G01X3741Y-10358D01*
G01X3660Y-9949D01*
G01X3428Y-9602D01*
G01X3082Y-9370D01*
G01X2673Y-9289D01*
G01X-2672Y-9289D01*
G01X-3081Y-9371D01*
G01X-3428Y-9602D01*
G01X-3660Y-9949D01*
G01X-3742Y-10358D01*
G01X-3741Y-23567D01*
G01X-3659Y-23980D01*
G01X-3425Y-24330D01*
G01X-3075Y-24565D01*
G01X-2662Y-24647D01*
G01X2739Y-24647D01*
G01X3152Y-24565D01*
G01X3503Y-24331D01*
G01X3737Y-23980D01*
G01X3820Y-23567D01*
G01X3819Y-10303D01*
G01X3736Y-9885D01*
G01X3500Y-9531D01*
G01X3146Y-9294D01*
G01X2728Y-9211D01*
G01X-2728Y-9212D01*
G01X-3146Y-9294D01*
G01X-3500Y-9531D01*
G01X-3737Y-9885D01*
G01X-3820Y-10302D01*
G01X-3819Y-23622D01*
G01X-3736Y-24044D01*
G01X-3497Y-24402D01*
G01X-3139Y-24641D01*
G01X-2717Y-24725D01*
G01X2795Y-24725D01*
G01X3217Y-24641D01*
G01X3574Y-24402D01*
G01X3814Y-24045D01*
G01X3898Y-23623D01*
G01X3897Y-10247D01*
G01X3813Y-9821D01*
G01X3571Y-9459D01*
G01X3210Y-9218D01*
G01X2784Y-9133D01*
G01X-2784Y-9134D01*
G01X-3210Y-9218D01*
G01X-3571Y-9459D01*
G01X-3813Y-9820D01*
G01X-3898Y-10246D01*
G01X-3897Y-24795D01*
G01X-3898Y-24799D01*
G01X-3899Y-24802D01*
G01X-3901Y-24806D01*
G01X-3903Y-24809D01*
G01X-3931Y-24836D01*
G01X-3933Y-24837D01*
G01X-3934Y-24837D01*
G01X-3936Y-24836D01*
G01X-3936Y-24834D01*
G01X-3936Y-10218D01*
G01X-3850Y-9788D01*
G01X-3606Y-9423D01*
G01X-3241Y-9179D01*
G01X-2811Y-9094D01*
G01X2812Y-9094D01*
G01X3242Y-9180D01*
G01X3607Y-9424D01*
G01X3851Y-9789D01*
G01X3936Y-10219D01*
G01X3937Y-23651D01*
G01X3852Y-24077D01*
G01X3610Y-24438D01*
G01X3249Y-24679D01*
G01X2823Y-24764D01*
G01X-2745Y-24764D01*
G37*

G04 ----------------------- Draw copper area (positive)*
G36*
G01X-11485Y-24725D02*
G01X-11911Y-24640D01*
G01X-12273Y-24398D01*
G01X-12514Y-24037D01*
G01X-12599Y-23611D01*
G01X-12599Y-10234D01*
G01X-12514Y-9813D01*
G01X-12275Y-9455D01*
G01X-11917Y-9216D01*
G01X-11495Y-9133D01*
G01X-5983Y-9132D01*
G01X-5561Y-9217D01*
G01X-5204Y-9456D01*
G01X-4965Y-9813D01*
G01X-4881Y-10235D01*
G01X-4881Y-23556D01*
G01X-4964Y-23973D01*
G01X-5200Y-24327D01*
G01X-5555Y-24563D01*
G01X-5972Y-24646D01*
G01X-11430Y-24647D01*
G01X-11847Y-24563D01*
G01X-12201Y-24327D01*
G01X-12438Y-23973D01*
G01X-12521Y-23555D01*
G01X-12521Y-10290D01*
G01X-12438Y-9877D01*
G01X-12204Y-9527D01*
G01X-11853Y-9293D01*
G01X-11440Y-9211D01*
G01X-6039Y-9210D01*
G01X-5625Y-9293D01*
G01X-5275Y-9527D01*
G01X-5041Y-9878D01*
G01X-4959Y-10291D01*
G01X-4959Y-23500D01*
G01X-5040Y-23909D01*
G01X-5272Y-24256D01*
G01X-5619Y-24487D01*
G01X-6028Y-24568D01*
G01X-11374Y-24569D01*
G01X-11783Y-24487D01*
G01X-12130Y-24255D01*
G01X-12361Y-23908D01*
G01X-12443Y-23499D01*
G01X-12443Y-10346D01*
G01X-12362Y-9941D01*
G01X-12132Y-9598D01*
G01X-11789Y-9369D01*
G01X-11384Y-9289D01*
G01X-6094Y-9288D01*
G01X-5690Y-9369D01*
G01X-5346Y-9599D01*
G01X-5117Y-9942D01*
G01X-5037Y-10347D01*
G01X-5037Y-23444D01*
G01X-5116Y-23845D01*
G01X-5343Y-24184D01*
G01X-5683Y-24411D01*
G01X-6084Y-24490D01*
G01X-11318Y-24491D01*
G01X-11719Y-24411D01*
G01X-12058Y-24184D01*
G01X-12285Y-23844D01*
G01X-12365Y-23444D01*
G01X-12365Y-10402D01*
G01X-12285Y-10005D01*
G01X-12061Y-9669D01*
G01X-11725Y-9445D01*
G01X-11328Y-9367D01*
G01X-6150Y-9366D01*
G01X-5754Y-9445D01*
G01X-5418Y-9670D01*
G01X-5194Y-10006D01*
G01X-5115Y-10402D01*
G01X-5115Y-23388D01*
G01X-5193Y-23780D01*
G01X-5415Y-24113D01*
G01X-5747Y-24335D01*
G01X-6139Y-24412D01*
G01X-11262Y-24413D01*
G01X-11654Y-24335D01*
G01X-11987Y-24112D01*
G01X-12209Y-23780D01*
G01X-12287Y-23388D01*
G01X-12287Y-10457D01*
G01X-12209Y-10070D01*
G01X-11989Y-9741D01*
G01X-11660Y-9522D01*
G01X-11273Y-9445D01*
G01X-6206Y-9444D01*
G01X-5818Y-9522D01*
G01X-5489Y-9742D01*
G01X-5270Y-10070D01*
G01X-5193Y-10458D01*
G01X-5193Y-23333D01*
G01X-5269Y-23716D01*
G01X-5486Y-24041D01*
G01X-5812Y-24258D01*
G01X-6195Y-24334D01*
G01X-11207Y-24335D01*
G01X-11590Y-24258D01*
G01X-11915Y-24041D01*
G01X-12132Y-23716D01*
G01X-12209Y-23332D01*
G01X-12209Y-10513D01*
G01X-12133Y-10134D01*
G01X-11918Y-9812D01*
G01X-11596Y-9598D01*
G01X-11217Y-9523D01*
G01X-6261Y-9522D01*
G01X-5882Y-9598D01*
G01X-5561Y-9813D01*
G01X-5346Y-10135D01*
G01X-5271Y-10514D01*
G01X-5271Y-23277D01*
G01X-5345Y-23652D01*
G01X-5558Y-23970D01*
G01X-5876Y-24182D01*
G01X-6251Y-24256D01*
G01X-11151Y-24257D01*
G01X-11526Y-24182D01*
G01X-11844Y-23969D01*
G01X-12056Y-23651D01*
G01X-12131Y-23277D01*
G01X-12131Y-10569D01*
G01X-12057Y-10198D01*
G01X-11846Y-9884D01*
G01X-11532Y-9674D01*
G01X-11161Y-9601D01*
G01X-6317Y-9600D01*
G01X-5947Y-9674D01*
G01X-5632Y-9885D01*
G01X-5423Y-10199D01*
G01X-5349Y-10570D01*
G01X-5349Y-23221D01*
G01X-5422Y-23588D01*
G01X-5629Y-23898D01*
G01X-5940Y-24106D01*
G01X-6306Y-24178D01*
G01X-11095Y-24179D01*
G01X-11462Y-24106D01*
G01X-11772Y-23898D01*
G01X-11980Y-23587D01*
G01X-12053Y-23221D01*
G01X-12053Y-10624D01*
G01X-11980Y-10262D01*
G01X-11775Y-9955D01*
G01X-11468Y-9750D01*
G01X-11106Y-9679D01*
G01X-6373Y-9678D01*
G01X-6011Y-9751D01*
G01X-5704Y-9956D01*
G01X-5499Y-10263D01*
G01X-5427Y-10625D01*
G01X-5427Y-23166D01*
G01X-5498Y-23523D01*
G01X-5701Y-23827D01*
G01X-6004Y-24029D01*
G01X-6362Y-24100D01*
G01X-11040Y-24101D01*
G01X-11397Y-24029D01*
G01X-11701Y-23826D01*
G01X-11903Y-23523D01*
G01X-11975Y-23165D01*
G01X-11975Y-10680D01*
G01X-11904Y-10327D01*
G01X-11703Y-10027D01*
G01X-11404Y-9827D01*
G01X-11050Y-9757D01*
G01X-6429Y-9756D01*
G01X-6075Y-9827D01*
G01X-5775Y-10027D01*
G01X-5575Y-10327D01*
G01X-5505Y-10681D01*
G01X-5505Y-23110D01*
G01X-5574Y-23459D01*
G01X-5772Y-23755D01*
G01X-6069Y-23953D01*
G01X-6418Y-24022D01*
G01X-10984Y-24023D01*
G01X-11333Y-23953D01*
G01X-11629Y-23755D01*
G01X-11827Y-23459D01*
G01X-11897Y-23109D01*
G01X-11897Y-10736D01*
G01X-11828Y-10391D01*
G01X-11632Y-10098D01*
G01X-11339Y-9903D01*
G01X-10994Y-9835D01*
G01X-6484Y-9834D01*
G01X-6139Y-9903D01*
G01X-5847Y-10099D01*
G01X-5651Y-10392D01*
G01X-5583Y-10737D01*
G01X-5583Y-23054D01*
G01X-5651Y-23395D01*
G01X-5844Y-23684D01*
G01X-6133Y-23877D01*
G01X-6474Y-23944D01*
G01X-10928Y-23945D01*
G01X-11269Y-23877D01*
G01X-11558Y-23684D01*
G01X-11751Y-23395D01*
G01X-11819Y-23054D01*
G01X-11819Y-10792D01*
G01X-11751Y-10455D01*
G01X-11561Y-10170D01*
G01X-11275Y-9979D01*
G01X-10938Y-9913D01*
G01X-6540Y-9912D01*
G01X-6204Y-9980D01*
G01X-5918Y-10170D01*
G01X-5728Y-10456D01*
G01X-5661Y-10792D01*
G01X-5661Y-22998D01*
G01X-5727Y-23331D01*
G01X-5915Y-23612D01*
G01X-6197Y-23800D01*
G01X-6529Y-23866D01*
G01X-10872Y-23867D01*
G01X-11205Y-23800D01*
G01X-11486Y-23612D01*
G01X-11675Y-23330D01*
G01X-11741Y-22998D01*
G01X-11741Y-10847D01*
G01X-11675Y-10519D01*
G01X-11489Y-10241D01*
G01X-11211Y-10056D01*
G01X-10883Y-9991D01*
G01X-6596Y-9990D01*
G01X-6268Y-10056D01*
G01X-5990Y-10242D01*
G01X-5804Y-10520D01*
G01X-5739Y-10848D01*
G01X-5739Y-22943D01*
G01X-5803Y-23266D01*
G01X-5987Y-23541D01*
G01X-6261Y-23724D01*
G01X-6585Y-23788D01*
G01X-10817Y-23789D01*
G01X-11140Y-23724D01*
G01X-11415Y-23541D01*
G01X-11598Y-23266D01*
G01X-11663Y-22942D01*
G01X-11663Y-10903D01*
G01X-11599Y-10584D01*
G01X-11418Y-10313D01*
G01X-11147Y-10132D01*
G01X-10827Y-10069D01*
G01X-6652Y-10068D01*
G01X-6332Y-10132D01*
G01X-6061Y-10313D01*
G01X-5880Y-10584D01*
G01X-5817Y-10904D01*
G01X-5817Y-22887D01*
G01X-5879Y-23202D01*
G01X-6058Y-23469D01*
G01X-6325Y-23648D01*
G01X-6641Y-23710D01*
G01X-10761Y-23711D01*
G01X-11076Y-23648D01*
G01X-11343Y-23469D01*
G01X-11522Y-23202D01*
G01X-11585Y-22887D01*
G01X-11585Y-10959D01*
G01X-11522Y-10648D01*
G01X-11346Y-10384D01*
G01X-11082Y-10208D01*
G01X-10771Y-10147D01*
G01X-6707Y-10146D01*
G01X-6396Y-10208D01*
G01X-6133Y-10385D01*
G01X-5957Y-10649D01*
G01X-5895Y-10960D01*
G01X-5895Y-22831D01*
G01X-5956Y-23138D01*
G01X-6130Y-23398D01*
G01X-6390Y-23572D01*
G01X-6696Y-23632D01*
G01X-10705Y-23633D01*
G01X-11012Y-23572D01*
G01X-11272Y-23398D01*
G01X-11446Y-23138D01*
G01X-11507Y-22831D01*
G01X-11507Y-11015D01*
G01X-11446Y-10712D01*
G01X-11275Y-10456D01*
G01X-11018Y-10285D01*
G01X-10716Y-10225D01*
G01X-6763Y-10224D01*
G01X-6461Y-10285D01*
G01X-6204Y-10456D01*
G01X-6033Y-10713D01*
G01X-5973Y-11015D01*
G01X-5973Y-22775D01*
G01X-6032Y-23074D01*
G01X-6201Y-23326D01*
G01X-6454Y-23495D01*
G01X-6752Y-23554D01*
G01X-10649Y-23555D01*
G01X-10948Y-23495D01*
G01X-11200Y-23326D01*
G01X-11369Y-23073D01*
G01X-11429Y-22775D01*
G01X-11429Y-11070D01*
G01X-11370Y-10776D01*
G01X-11203Y-10527D01*
G01X-10954Y-10361D01*
G01X-10660Y-10303D01*
G01X-6819Y-10302D01*
G01X-6525Y-10361D01*
G01X-6276Y-10528D01*
G01X-6109Y-10777D01*
G01X-6051Y-11071D01*
G01X-6051Y-22720D01*
G01X-6108Y-23009D01*
G01X-6273Y-23255D01*
G01X-6518Y-23419D01*
G01X-6808Y-23476D01*
G01X-10594Y-23477D01*
G01X-10883Y-23419D01*
G01X-11129Y-23255D01*
G01X-11293Y-23009D01*
G01X-11351Y-22719D01*
G01X-11351Y-11126D01*
G01X-11294Y-10841D01*
G01X-11132Y-10599D01*
G01X-10890Y-10437D01*
G01X-10604Y-10381D01*
G01X-6874Y-10380D01*
G01X-6589Y-10437D01*
G01X-6347Y-10599D01*
G01X-6186Y-10841D01*
G01X-6129Y-11127D01*
G01X-6129Y-22664D01*
G01X-6185Y-22945D01*
G01X-6344Y-23183D01*
G01X-6582Y-23343D01*
G01X-6864Y-23398D01*
G01X-10538Y-23399D01*
G01X-10819Y-23343D01*
G01X-11058Y-23183D01*
G01X-11217Y-22945D01*
G01X-11273Y-22664D01*
G01X-11273Y-11182D01*
G01X-11217Y-10905D01*
G01X-11060Y-10670D01*
G01X-10825Y-10514D01*
G01X-10549Y-10459D01*
G01X-6930Y-10458D01*
G01X-6653Y-10514D01*
G01X-6419Y-10671D01*
G01X-6262Y-10906D01*
G01X-6207Y-11182D01*
G01X-6207Y-22608D01*
G01X-6261Y-22881D01*
G01X-6415Y-23112D01*
G01X-6647Y-23266D01*
G01X-6919Y-23320D01*
G01X-10482Y-23321D01*
G01X-10755Y-23266D01*
G01X-10986Y-23112D01*
G01X-11140Y-22881D01*
G01X-11195Y-22608D01*
G01X-11195Y-11237D01*
G01X-11141Y-10969D01*
G01X-10989Y-10742D01*
G01X-10761Y-10590D01*
G01X-10493Y-10537D01*
G01X-6986Y-10536D01*
G01X-6717Y-10590D01*
G01X-6490Y-10742D01*
G01X-6338Y-10970D01*
G01X-6285Y-11238D01*
G01X-6285Y-23235D01*
G01X-6285Y-23237D01*
G01X-6287Y-23238D01*
G01X-6289Y-23238D01*
G01X-6290Y-23237D01*
G01X-6318Y-23209D01*
G01X-6320Y-23206D01*
G01X-6322Y-23203D01*
G01X-6323Y-23199D01*
G01X-6324Y-23196D01*
G01X-6324Y-11266D01*
G01X-6376Y-11002D01*
G01X-6526Y-10778D01*
G01X-6750Y-10628D01*
G01X-7014Y-10575D01*
G01X-10465Y-10576D01*
G01X-10729Y-10628D01*
G01X-10953Y-10778D01*
G01X-11103Y-11002D01*
G01X-11156Y-11266D01*
G01X-11156Y-22580D01*
G01X-11102Y-22849D01*
G01X-10950Y-23076D01*
G01X-10723Y-23228D01*
G01X-10454Y-23282D01*
G01X-6947Y-23281D01*
G01X-6679Y-23228D01*
G01X-6451Y-23076D01*
G01X-6299Y-22849D01*
G01X-6246Y-22580D01*
G01X-6246Y-11210D01*
G01X-6300Y-10938D01*
G01X-6454Y-10706D01*
G01X-6685Y-10552D01*
G01X-6958Y-10497D01*
G01X-10521Y-10498D01*
G01X-10794Y-10552D01*
G01X-11025Y-10706D01*
G01X-11179Y-10937D01*
G01X-11234Y-11210D01*
G01X-11234Y-22636D01*
G01X-11179Y-22913D01*
G01X-11022Y-23148D01*
G01X-10787Y-23304D01*
G01X-10510Y-23360D01*
G01X-6891Y-23359D01*
G01X-6615Y-23304D01*
G01X-6380Y-23148D01*
G01X-6223Y-22913D01*
G01X-6168Y-22636D01*
G01X-6168Y-11155D01*
G01X-6224Y-10873D01*
G01X-6383Y-10635D01*
G01X-6621Y-10476D01*
G01X-6902Y-10419D01*
G01X-10577Y-10420D01*
G01X-10858Y-10476D01*
G01X-11096Y-10635D01*
G01X-11256Y-10873D01*
G01X-11312Y-11154D01*
G01X-11312Y-22692D01*
G01X-11255Y-22977D01*
G01X-11093Y-23219D01*
G01X-10851Y-23381D01*
G01X-10566Y-23438D01*
G01X-6836Y-23437D01*
G01X-6550Y-23381D01*
G01X-6308Y-23219D01*
G01X-6146Y-22977D01*
G01X-6090Y-22692D01*
G01X-6090Y-11099D01*
G01X-6147Y-10809D01*
G01X-6311Y-10563D01*
G01X-6557Y-10399D01*
G01X-6847Y-10341D01*
G01X-10632Y-10342D01*
G01X-10922Y-10399D01*
G01X-11168Y-10563D01*
G01X-11332Y-10809D01*
G01X-11390Y-11099D01*
G01X-11390Y-22747D01*
G01X-11331Y-23041D01*
G01X-11165Y-23290D01*
G01X-10916Y-23457D01*
G01X-10622Y-23516D01*
G01X-6780Y-23515D01*
G01X-6486Y-23457D01*
G01X-6237Y-23291D01*
G01X-6070Y-23042D01*
G01X-6012Y-22748D01*
G01X-6012Y-11043D01*
G01X-6071Y-10745D01*
G01X-6240Y-10492D01*
G01X-6493Y-10323D01*
G01X-6791Y-10263D01*
G01X-10688Y-10264D01*
G01X-10986Y-10323D01*
G01X-11239Y-10492D01*
G01X-11408Y-10745D01*
G01X-11468Y-11043D01*
G01X-11468Y-22803D01*
G01X-11407Y-23105D01*
G01X-11236Y-23362D01*
G01X-10980Y-23533D01*
G01X-10677Y-23594D01*
G01X-6724Y-23593D01*
G01X-6422Y-23533D01*
G01X-6165Y-23362D01*
G01X-5994Y-23106D01*
G01X-5934Y-22803D01*
G01X-5934Y-10987D01*
G01X-5995Y-10681D01*
G01X-6168Y-10421D01*
G01X-6428Y-10247D01*
G01X-6735Y-10185D01*
G01X-10744Y-10186D01*
G01X-11051Y-10247D01*
G01X-11311Y-10420D01*
G01X-11485Y-10680D01*
G01X-11546Y-10987D01*
G01X-11546Y-22859D01*
G01X-11484Y-23170D01*
G01X-11308Y-23433D01*
G01X-11044Y-23610D01*
G01X-10733Y-23672D01*
G01X-6669Y-23671D01*
G01X-6358Y-23610D01*
G01X-6094Y-23434D01*
G01X-5918Y-23170D01*
G01X-5856Y-22859D01*
G01X-5856Y-10932D01*
G01X-5919Y-10616D01*
G01X-6097Y-10349D01*
G01X-6364Y-10170D01*
G01X-6679Y-10107D01*
G01X-10800Y-10108D01*
G01X-11115Y-10171D01*
G01X-11382Y-10349D01*
G01X-11561Y-10616D01*
G01X-11624Y-10931D01*
G01X-11624Y-22914D01*
G01X-11560Y-23234D01*
G01X-11379Y-23505D01*
G01X-11108Y-23686D01*
G01X-10789Y-23750D01*
G01X-6613Y-23749D01*
G01X-6293Y-23686D01*
G01X-6022Y-23505D01*
G01X-5841Y-23234D01*
G01X-5778Y-22915D01*
G01X-5778Y-10876D01*
G01X-5842Y-10552D01*
G01X-6025Y-10278D01*
G01X-6300Y-10094D01*
G01X-6624Y-10029D01*
G01X-10855Y-10030D01*
G01X-11179Y-10094D01*
G01X-11454Y-10277D01*
G01X-11637Y-10552D01*
G01X-11702Y-10876D01*
G01X-11702Y-22970D01*
G01X-11636Y-23298D01*
G01X-11451Y-23576D01*
G01X-11173Y-23762D01*
G01X-10845Y-23828D01*
G01X-6557Y-23827D01*
G01X-6229Y-23762D01*
G01X-5951Y-23577D01*
G01X-5765Y-23299D01*
G01X-5700Y-22971D01*
G01X-5700Y-10820D01*
G01X-5766Y-10488D01*
G01X-5954Y-10206D01*
G01X-6236Y-10018D01*
G01X-6568Y-9951D01*
G01X-10911Y-9952D01*
G01X-11243Y-10018D01*
G01X-11525Y-10206D01*
G01X-11714Y-10488D01*
G01X-11780Y-10820D01*
G01X-11780Y-23026D01*
G01X-11713Y-23362D01*
G01X-11522Y-23648D01*
G01X-11237Y-23839D01*
G01X-10900Y-23906D01*
G01X-6501Y-23905D01*
G01X-6165Y-23839D01*
G01X-5879Y-23648D01*
G01X-5689Y-23363D01*
G01X-5622Y-23026D01*
G01X-5622Y-10765D01*
G01X-5690Y-10424D01*
G01X-5883Y-10135D01*
G01X-6171Y-9941D01*
G01X-6512Y-9873D01*
G01X-10967Y-9874D01*
G01X-11308Y-9942D01*
G01X-11597Y-10135D01*
G01X-11790Y-10423D01*
G01X-11858Y-10764D01*
G01X-11858Y-23082D01*
G01X-11789Y-23427D01*
G01X-11594Y-23719D01*
G01X-11301Y-23915D01*
G01X-10956Y-23984D01*
G01X-6446Y-23983D01*
G01X-6101Y-23915D01*
G01X-5808Y-23720D01*
G01X-5612Y-23427D01*
G01X-5544Y-23082D01*
G01X-5544Y-10709D01*
G01X-5613Y-10359D01*
G01X-5811Y-10063D01*
G01X-6107Y-9865D01*
G01X-6456Y-9795D01*
G01X-11022Y-9796D01*
G01X-11372Y-9865D01*
G01X-11668Y-10063D01*
G01X-11866Y-10359D01*
G01X-11936Y-10708D01*
G01X-11936Y-23137D01*
G01X-11865Y-23491D01*
G01X-11665Y-23791D01*
G01X-11365Y-23991D01*
G01X-11012Y-24062D01*
G01X-6390Y-24061D01*
G01X-6036Y-23991D01*
G01X-5737Y-23791D01*
G01X-5536Y-23491D01*
G01X-5466Y-23138D01*
G01X-5466Y-10653D01*
G01X-5537Y-10295D01*
G01X-5740Y-9992D01*
G01X-6043Y-9789D01*
G01X-6401Y-9717D01*
G01X-11078Y-9718D01*
G01X-11436Y-9789D01*
G01X-11740Y-9992D01*
G01X-11943Y-10295D01*
G01X-12014Y-10653D01*
G01X-12014Y-23193D01*
G01X-11942Y-23555D01*
G01X-11737Y-23862D01*
G01X-11430Y-24067D01*
G01X-11067Y-24140D01*
G01X-6334Y-24139D01*
G01X-5972Y-24068D01*
G01X-5665Y-23862D01*
G01X-5460Y-23556D01*
G01X-5388Y-23193D01*
G01X-5388Y-10597D01*
G01X-5461Y-10231D01*
G01X-5668Y-9920D01*
G01X-5979Y-9713D01*
G01X-6345Y-9639D01*
G01X-11134Y-9640D01*
G01X-11500Y-9713D01*
G01X-11811Y-9920D01*
G01X-12019Y-10231D01*
G01X-12092Y-10597D01*
G01X-12092Y-23249D01*
G01X-12018Y-23619D01*
G01X-11808Y-23934D01*
G01X-11494Y-24144D01*
G01X-11123Y-24218D01*
G01X-6279Y-24217D01*
G01X-5908Y-24144D01*
G01X-5594Y-23934D01*
G01X-5383Y-23620D01*
G01X-5310Y-23249D01*
G01X-5310Y-10542D01*
G01X-5384Y-10167D01*
G01X-5597Y-9849D01*
G01X-5914Y-9636D01*
G01X-6289Y-9561D01*
G01X-11190Y-9562D01*
G01X-11565Y-9636D01*
G01X-11883Y-9849D01*
G01X-12095Y-10166D01*
G01X-12170Y-10541D01*
G01X-12170Y-23304D01*
G01X-12094Y-23684D01*
G01X-11879Y-24005D01*
G01X-11558Y-24220D01*
G01X-11179Y-24296D01*
G01X-6223Y-24295D01*
G01X-5844Y-24220D01*
G01X-5522Y-24005D01*
G01X-5307Y-23684D01*
G01X-5232Y-23305D01*
G01X-5232Y-10486D01*
G01X-5308Y-10103D01*
G01X-5525Y-9777D01*
G01X-5850Y-9560D01*
G01X-6234Y-9483D01*
G01X-11245Y-9484D01*
G01X-11629Y-9560D01*
G01X-11954Y-9777D01*
G01X-12171Y-10102D01*
G01X-12248Y-10486D01*
G01X-12248Y-23360D01*
G01X-12171Y-23748D01*
G01X-11951Y-24077D01*
G01X-11622Y-24296D01*
G01X-11235Y-24374D01*
G01X-6167Y-24373D01*
G01X-5779Y-24296D01*
G01X-5451Y-24077D01*
G01X-5231Y-23748D01*
G01X-5154Y-23361D01*
G01X-5154Y-10430D01*
G01X-5232Y-10038D01*
G01X-5454Y-9706D01*
G01X-5786Y-9484D01*
G01X-6178Y-9405D01*
G01X-11301Y-9406D01*
G01X-11693Y-9484D01*
G01X-12025Y-9706D01*
G01X-12248Y-10038D01*
G01X-12326Y-10430D01*
G01X-12326Y-23416D01*
G01X-12247Y-23812D01*
G01X-12022Y-24148D01*
G01X-11687Y-24373D01*
G01X-11290Y-24452D01*
G01X-6111Y-24451D01*
G01X-5715Y-24373D01*
G01X-5379Y-24148D01*
G01X-5155Y-23813D01*
G01X-5076Y-23416D01*
G01X-5076Y-10375D01*
G01X-5156Y-9974D01*
G01X-5382Y-9634D01*
G01X-5722Y-9407D01*
G01X-6122Y-9327D01*
G01X-11357Y-9328D01*
G01X-11757Y-9408D01*
G01X-12097Y-9634D01*
G01X-12324Y-9974D01*
G01X-12404Y-10374D01*
G01X-12404Y-23472D01*
G01X-12323Y-23876D01*
G01X-12094Y-24220D01*
G01X-11751Y-24449D01*
G01X-11346Y-24530D01*
G01X-6056Y-24529D01*
G01X-5651Y-24449D01*
G01X-5308Y-24220D01*
G01X-5078Y-23877D01*
G01X-4998Y-23472D01*
G01X-4998Y-10319D01*
G01X-5079Y-9910D01*
G01X-5311Y-9563D01*
G01X-5657Y-9331D01*
G01X-6066Y-9249D01*
G01X-11412Y-9250D01*
G01X-11822Y-9331D01*
G01X-12168Y-9563D01*
G01X-12400Y-9909D01*
G01X-12482Y-10318D01*
G01X-12482Y-23527D01*
G01X-12399Y-23941D01*
G01X-12165Y-24291D01*
G01X-11815Y-24525D01*
G01X-11402Y-24608D01*
G01X-6000Y-24607D01*
G01X-5587Y-24525D01*
G01X-5236Y-24291D01*
G01X-5002Y-23941D01*
G01X-4920Y-23528D01*
G01X-4920Y-10263D01*
G01X-5003Y-9846D01*
G01X-5239Y-9491D01*
G01X-5593Y-9255D01*
G01X-6011Y-9171D01*
G01X-11468Y-9172D01*
G01X-11886Y-9255D01*
G01X-12240Y-9491D01*
G01X-12477Y-9845D01*
G01X-12560Y-10263D01*
G01X-12560Y-23583D01*
G01X-12476Y-24005D01*
G01X-12237Y-24363D01*
G01X-11879Y-24602D01*
G01X-11457Y-24686D01*
G01X-5944Y-24685D01*
G01X-5522Y-24602D01*
G01X-5165Y-24363D01*
G01X-4926Y-24005D01*
G01X-4842Y-23583D01*
G01X-4842Y-10207D01*
G01X-4927Y-9781D01*
G01X-5168Y-9420D01*
G01X-5529Y-9178D01*
G01X-5955Y-9093D01*
G01X-11524Y-9094D01*
G01X-11950Y-9179D01*
G01X-12311Y-9420D01*
G01X-12553Y-9781D01*
G01X-12638Y-10207D01*
G01X-12638Y-24756D01*
G01X-12638Y-24759D01*
G01X-12639Y-24763D01*
G01X-12641Y-24766D01*
G01X-12643Y-24769D01*
G01X-12671Y-24797D01*
G01X-12673Y-24798D01*
G01X-12675Y-24798D01*
G01X-12676Y-24797D01*
G01X-12677Y-24795D01*
G01X-12677Y-10179D01*
G01X-12591Y-9748D01*
G01X-12347Y-9384D01*
G01X-11982Y-9140D01*
G01X-11551Y-9055D01*
G01X-5927Y-9054D01*
G01X-5497Y-9140D01*
G01X-5132Y-9384D01*
G01X-4888Y-9749D01*
G01X-4803Y-10180D01*
G01X-4803Y-23611D01*
G01X-4887Y-24037D01*
G01X-5129Y-24399D01*
G01X-5490Y-24640D01*
G01X-5917Y-24724D01*
G01X-11485Y-24725D01*
G37*

G04 -------------------- Draw copper area clearances (negative)*
%LPC*%

G04 Draw clearances for pads*

G04 Draw clearances for traces*

G04 Draw clearances for text*

G04 -------------- Draw Parts, Pads, Traces, Vias and Text (positive)*
%LPD*%

G04 Draw traces*

G04 Draw Text*
M00*
M02*
