0
SECTION
2
BLOCKS
0
BLOCK
2
CC0805_top
10
0
20
0
30
0
0
3DFACE
8
3d_top
62
27
10
1.200
20
-0.650
30
1.500
11
0.500
21
-0.650
31
1.500
12
0.500
22
0.650
32
1.500
13
1.200
23
0.650
33
1.500
0
3DFACE
8
3d_top
62
27
10
1.200
20
-0.650
30
2.800
11
0.500
21
-0.650
31
2.800
12
0.500
22
0.650
32
2.800
13
1.200
23
0.650
33
2.800
0
3DFACE
8
3d_top
62
27
10
1.200
20
-0.650
30
1.500
11
0.500
21
-0.650
31
1.500
12
0.500
22
-0.650
32
2.800
13
1.200
23
-0.650
33
2.800
0
3DFACE
8
3d_top
62
27
10
1.200
20
0.650
30
1.500
11
0.500
21
0.650
31
1.500
12
0.500
22
0.650
32
2.800
13
1.200
23
0.650
33
2.800
0
3DFACE
8
3d_top
62
27
10
0.500
20
-0.650
30
1.500
11
0.500
21
0.650
31
1.500
12
0.500
22
0.650
32
2.800
13
0.500
23
-0.650
33
2.800
0
3DFACE
8
3d_top
62
27
10
1.200
20
-0.650
30
1.500
11
1.200
21
0.650
31
1.500
12
1.200
22
0.650
32
2.800
13
1.200
23
-0.650
33
2.800
0
3DFACE
8
3d_top
62
27
10
-0.500
20
-0.650
30
1.500
11
-1.200
21
-0.650
31
1.500
12
-1.200
22
0.650
32
1.500
13
-0.500
23
0.650
33
1.500
0
3DFACE
8
3d_top
62
27
10
-0.500
20
-0.650
30
2.800
11
-1.200
21
-0.650
31
2.800
12
-1.200
22
0.650
32
2.800
13
-0.500
23
0.650
33
2.800
0
3DFACE
8
3d_top
62
27
10
-0.500
20
-0.650
30
1.500
11
-1.200
21
-0.650
31
1.500
12
-1.200
22
-0.650
32
2.800
13
-0.500
23
-0.650
33
2.800
0
3DFACE
8
3d_top
62
27
10
-0.500
20
0.650
30
1.500
11
-1.200
21
0.650
31
1.500
12
-1.200
22
0.650
32
2.800
13
-0.500
23
0.650
33
2.800
0
3DFACE
8
3d_top
62
27
10
-1.200
20
-0.650
30
1.500
11
-1.200
21
0.650
31
1.500
12
-1.200
22
0.650
32
2.800
13
-1.200
23
-0.650
33
2.800
0
3DFACE
8
3d_top
62
27
10
-0.500
20
-0.650
30
1.500
11
-0.500
21
0.650
31
1.500
12
-0.500
22
0.650
32
2.800
13
-0.500
23
-0.650
33
2.800
0
3DFACE
8
3d_top
62
27
10
0.500
20
-0.625
30
1.550
11
-0.500
21
-0.625
31
1.550
12
-0.500
22
0.625
32
1.550
13
0.500
23
0.625
33
1.550
0
3DFACE
8
3d_top
62
27
10
0.500
20
-0.625
30
2.750
11
-0.500
21
-0.625
31
2.750
12
-0.500
22
0.625
32
2.750
13
0.500
23
0.625
33
2.750
0
3DFACE
8
3d_top
62
27
10
0.500
20
-0.625
30
1.550
11
-0.500
21
-0.625
31
1.550
12
-0.500
22
-0.625
32
2.750
13
0.500
23
-0.625
33
2.750
0
3DFACE
8
3d_top
62
27
10
0.500
20
0.625
30
1.550
11
-0.500
21
0.625
31
1.550
12
-0.500
22
0.625
32
2.750
13
0.500
23
0.625
33
2.750
0
3DFACE
8
3d_top
62
27
10
-0.500
20
-0.625
30
1.550
11
-0.500
21
0.625
31
1.550
12
-0.500
22
0.625
32
2.750
13
-0.500
23
-0.625
33
2.750
0
3DFACE
8
3d_top
62
27
10
0.500
20
-0.625
30
1.550
11
0.500
21
0.625
31
1.550
12
0.500
22
0.625
32
2.750
13
0.500
23
-0.625
33
2.750
0
ENDBLK
0
BLOCK
2
SOT235_top
10
0
20
0
30
0
0
3DFACE
8
3d_top
62
28
10
2.270
20
0.145
30
1.623
11
1.650
21
0.145
31
1.623
12
1.650
22
0.219
32
1.713
13
2.270
23
0.219
33
1.713
0
3DFACE
8
3d_top
62
28
10
2.270
20
0.219
30
1.713
11
1.650
21
0.219
31
1.713
12
1.650
22
0.249
32
1.931
13
2.270
23
0.249
33
1.931
0
3DFACE
8
3d_top
62
28
10
2.270
20
0.249
30
1.931
11
1.650
21
0.249
31
1.931
12
1.650
22
0.249
32
2.238
13
2.270
23
0.249
33
2.238
0
3DFACE
8
3d_top
62
28
10
2.270
20
0.354
30
2.546
11
1.650
21
0.354
31
2.546
12
1.650
22
0.280
32
2.456
13
2.270
23
0.280
33
2.456
0
3DFACE
8
3d_top
62
28
10
2.270
20
0.280
30
2.456
11
1.650
21
0.280
31
2.456
12
1.650
22
0.249
32
2.238
13
2.270
23
0.249
33
2.238
0
3DFACE
8
3d_top
62
28
10
1.650
20
2.445
30
1.623
11
2.270
21
2.445
31
1.623
12
2.270
22
2.371
32
1.713
13
1.650
23
2.371
33
1.713
0
3DFACE
8
3d_top
62
28
10
1.650
20
2.371
30
1.713
11
2.270
21
2.371
31
1.713
12
2.270
22
2.340
32
1.931
13
1.650
23
2.340
33
1.931
0
3DFACE
8
3d_top
62
28
10
1.650
20
2.340
30
1.931
11
2.270
21
2.340
31
1.931
12
2.270
22
2.340
32
2.238
13
1.650
23
2.340
33
2.238
0
3DFACE
8
3d_top
62
28
10
1.650
20
2.236
30
2.546
11
2.270
21
2.236
31
2.546
12
2.270
22
2.310
32
2.456
13
1.650
23
2.310
33
2.456
0
3DFACE
8
3d_top
62
28
10
1.650
20
2.310
30
2.456
11
2.270
21
2.310
31
2.456
12
2.270
22
2.340
32
2.238
13
1.650
23
2.340
33
2.238
0
3DFACE
8
3d_top
62
28
10
0.255
20
0.145
30
1.623
11
-0.365
21
0.145
31
1.623
12
-0.365
22
0.219
32
1.713
13
0.255
23
0.219
33
1.713
0
3DFACE
8
3d_top
62
28
10
0.255
20
0.219
30
1.713
11
-0.365
21
0.219
31
1.713
12
-0.365
22
0.249
32
1.931
13
0.255
23
0.249
33
1.931
0
3DFACE
8
3d_top
62
28
10
0.255
20
0.249
30
1.931
11
-0.365
21
0.249
31
1.931
12
-0.365
22
0.249
32
2.238
13
0.255
23
0.249
33
2.238
0
3DFACE
8
3d_top
62
28
10
0.255
20
0.354
30
2.546
11
-0.365
21
0.354
31
2.546
12
-0.365
22
0.280
32
2.456
13
0.255
23
0.280
33
2.456
0
3DFACE
8
3d_top
62
28
10
0.255
20
0.280
30
2.456
11
-0.365
21
0.280
31
2.456
12
-0.365
22
0.249
32
2.238
13
0.255
23
0.249
33
2.238
0
3DFACE
8
3d_top
62
28
10
-0.365
20
2.445
30
1.623
11
0.255
21
2.445
31
1.623
12
0.255
22
2.371
32
1.713
13
-0.365
23
2.371
33
1.713
0
3DFACE
8
3d_top
62
28
10
-0.365
20
2.371
30
1.713
11
0.255
21
2.371
31
1.713
12
0.255
22
2.340
32
1.931
13
-0.365
23
2.340
33
1.931
0
3DFACE
8
3d_top
62
28
10
-0.365
20
2.340
30
1.931
11
0.255
21
2.340
31
1.931
12
0.255
22
2.340
32
2.238
13
-0.365
23
2.340
33
2.238
0
3DFACE
8
3d_top
62
28
10
-0.365
20
2.236
30
2.546
11
0.255
21
2.236
31
2.546
12
0.255
22
2.310
32
2.456
13
-0.365
23
2.310
33
2.456
0
3DFACE
8
3d_top
62
28
10
-0.365
20
2.310
30
2.456
11
0.255
21
2.310
31
2.456
12
0.255
22
2.340
32
2.238
13
-0.365
23
2.340
33
2.238
0
3DFACE
8
3d_top
62
28
10
1.263
20
0.145
30
1.632
11
0.642
21
0.145
31
1.632
12
0.643
22
0.224
32
1.661
13
1.263
23
0.224
33
1.661
0
3DFACE
8
3d_top
62
28
10
1.263
20
0.224
30
1.661
11
0.643
21
0.224
31
1.661
12
0.643
22
0.257
32
1.731
13
1.263
23
0.257
33
1.731
0
3DFACE
8
3d_top
62
28
10
1.263
20
0.257
30
1.731
11
0.643
21
0.257
31
1.731
12
0.642
22
0.257
32
2.456
13
1.263
23
0.257
33
2.456
0
3DFACE
8
3d_top
62
28
10
1.263
20
0.368
30
2.555
11
0.642
21
0.368
31
2.555
12
0.643
22
0.289
32
2.526
13
1.262
23
0.289
33
2.526
0
3DFACE
8
3d_top
62
28
10
1.262
20
0.289
30
2.526
11
0.643
21
0.289
31
2.526
12
0.642
22
0.257
32
2.456
13
1.263
23
0.257
33
2.456
0
3DFACE
8
3d_top
62
28
10
2.503
20
0.368
30
1.500
11
-0.597
21
0.368
31
1.500
12
-0.597
22
2.223
32
1.500
13
2.503
23
2.223
33
1.500
0
3DFACE
8
3d_top
62
28
10
2.503
20
0.368
30
2.950
11
-0.597
21
0.368
31
2.950
12
-0.597
22
2.223
32
2.950
13
2.503
23
2.223
33
2.950
0
3DFACE
8
3d_top
62
28
10
2.503
20
0.368
30
1.500
11
-0.597
21
0.368
31
1.500
12
-0.597
22
0.368
32
2.950
13
2.503
23
0.368
33
2.950
0
3DFACE
8
3d_top
62
28
10
2.503
20
2.223
30
1.500
11
-0.597
21
2.223
31
1.500
12
-0.597
22
2.223
32
2.950
13
2.503
23
2.223
33
2.950
0
3DFACE
8
3d_top
62
28
10
-0.597
20
0.368
30
1.500
11
-0.597
21
2.223
31
1.500
12
-0.597
22
2.223
32
2.950
13
-0.597
23
0.368
33
2.950
0
3DFACE
8
3d_top
62
28
10
2.503
20
0.368
30
1.500
11
2.503
21
2.223
31
1.500
12
2.503
22
2.223
32
2.950
13
2.503
23
0.368
33
2.950
0
ENDBLK
0
BLOCK
2
SC705_top
10
0
20
0
30
0
0
3DFACE
8
3d_top
62
30
10
1.500
20
0.225
30
1.593
11
1.100
21
0.225
31
1.593
12
1.100
22
0.274
32
1.662
13
1.500
23
0.274
33
1.662
0
3DFACE
8
3d_top
62
30
10
1.500
20
0.274
30
1.662
11
1.100
21
0.274
31
1.662
12
1.100
22
0.295
32
1.827
13
1.500
23
0.295
33
1.827
0
3DFACE
8
3d_top
62
30
10
1.500
20
0.295
30
1.827
11
1.100
21
0.295
31
1.827
12
1.100
22
0.295
32
2.060
13
1.500
23
0.295
33
2.060
0
3DFACE
8
3d_top
62
30
10
1.500
20
0.365
30
2.293
11
1.100
21
0.365
31
2.293
12
1.100
22
0.316
32
2.225
13
1.500
23
0.316
33
2.225
0
3DFACE
8
3d_top
62
30
10
1.500
20
0.316
30
2.225
11
1.100
21
0.316
31
2.225
12
1.100
22
0.295
32
2.060
13
1.500
23
0.295
33
2.060
0
3DFACE
8
3d_top
62
30
10
1.100
20
1.775
30
1.593
11
1.500
21
1.775
31
1.593
12
1.500
22
1.725
32
1.662
13
1.100
23
1.725
33
1.662
0
3DFACE
8
3d_top
62
30
10
1.100
20
1.725
30
1.662
11
1.500
21
1.725
31
1.662
12
1.500
22
1.704
32
1.827
13
1.100
23
1.704
33
1.827
0
3DFACE
8
3d_top
62
30
10
1.100
20
1.704
30
1.827
11
1.500
21
1.704
31
1.827
12
1.500
22
1.704
32
2.060
13
1.100
23
1.704
33
2.060
0
3DFACE
8
3d_top
62
30
10
1.100
20
1.634
30
2.293
11
1.500
21
1.634
31
2.293
12
1.500
22
1.683
32
2.225
13
1.100
23
1.683
33
2.225
0
3DFACE
8
3d_top
62
30
10
1.100
20
1.683
30
2.225
11
1.500
21
1.683
31
2.225
12
1.500
22
1.704
32
2.060
13
1.100
23
1.704
33
2.060
0
3DFACE
8
3d_top
62
31
10
0.200
20
0.225
30
1.593
11
-0.200
21
0.225
31
1.593
12
-0.200
22
0.274
32
1.662
13
0.200
23
0.274
33
1.662
0
3DFACE
8
3d_top
62
31
10
0.200
20
0.274
30
1.662
11
-0.200
21
0.274
31
1.662
12
-0.200
22
0.295
32
1.827
13
0.200
23
0.295
33
1.827
0
3DFACE
8
3d_top
62
31
10
0.200
20
0.295
30
1.827
11
-0.200
21
0.295
31
1.827
12
-0.200
22
0.295
32
2.060
13
0.200
23
0.295
33
2.060
0
3DFACE
8
3d_top
62
31
10
0.200
20
0.365
30
2.293
11
-0.200
21
0.365
31
2.293
12
-0.200
22
0.316
32
2.225
13
0.200
23
0.316
33
2.225
0
3DFACE
8
3d_top
62
31
10
0.200
20
0.316
30
2.225
11
-0.200
21
0.316
31
2.225
12
-0.200
22
0.295
32
2.060
13
0.200
23
0.295
33
2.060
0
3DFACE
8
3d_top
62
31
10
-0.200
20
1.775
30
1.593
11
0.200
21
1.775
31
1.593
12
0.200
22
1.725
32
1.662
13
-0.200
23
1.725
33
1.662
0
3DFACE
8
3d_top
62
31
10
-0.200
20
1.725
30
1.662
11
0.200
21
1.725
31
1.662
12
0.200
22
1.704
32
1.827
13
-0.200
23
1.704
33
1.827
0
3DFACE
8
3d_top
62
31
10
-0.200
20
1.704
30
1.827
11
0.200
21
1.704
31
1.827
12
0.200
22
1.704
32
2.060
13
-0.200
23
1.704
33
2.060
0
3DFACE
8
3d_top
62
31
10
-0.200
20
1.634
30
2.293
11
0.200
21
1.634
31
2.293
12
0.200
22
1.683
32
2.225
13
-0.200
23
1.683
33
2.225
0
3DFACE
8
3d_top
62
31
10
-0.200
20
1.683
30
2.225
11
0.200
21
1.683
31
2.225
12
0.200
22
1.704
32
2.060
13
-0.200
23
1.704
33
2.060
0
3DFACE
8
3d_top
62
32
10
0.850
20
0.225
30
1.600
11
0.450
21
0.225
31
1.600
12
0.450
22
0.278
32
1.622
13
0.850
23
0.278
33
1.622
0
3DFACE
8
3d_top
62
32
10
0.850
20
0.278
30
1.622
11
0.450
21
0.278
31
1.622
12
0.450
22
0.300
32
1.675
13
0.850
23
0.300
33
1.675
0
3DFACE
8
3d_top
62
32
10
0.850
20
0.300
30
1.675
11
0.450
21
0.300
31
1.675
12
0.450
22
0.300
32
2.225
13
0.850
23
0.300
33
2.225
0
3DFACE
8
3d_top
62
32
10
0.850
20
0.375
30
2.300
11
0.450
21
0.375
31
2.300
12
0.450
22
0.322
32
2.278
13
0.850
23
0.322
33
2.278
0
3DFACE
8
3d_top
62
32
10
0.850
20
0.322
30
2.278
11
0.450
21
0.322
31
2.278
12
0.450
22
0.300
32
2.225
13
0.850
23
0.300
33
2.225
0
3DFACE
8
3d_top
62
32
10
1.650
20
0.375
30
1.500
11
-0.350
21
0.375
31
1.500
12
-0.350
22
1.625
32
1.500
13
1.650
23
1.625
33
1.500
0
3DFACE
8
3d_top
62
32
10
1.650
20
0.375
30
2.600
11
-0.350
21
0.375
31
2.600
12
-0.350
22
1.625
32
2.600
13
1.650
23
1.625
33
2.600
0
3DFACE
8
3d_top
62
32
10
1.650
20
0.375
30
1.500
11
-0.350
21
0.375
31
1.500
12
-0.350
22
0.375
32
2.600
13
1.650
23
0.375
33
2.600
0
3DFACE
8
3d_top
62
32
10
1.650
20
1.625
30
1.500
11
-0.350
21
1.625
31
1.500
12
-0.350
22
1.625
32
2.600
13
1.650
23
1.625
33
2.600
0
3DFACE
8
3d_top
62
32
10
-0.350
20
0.375
30
1.500
11
-0.350
21
1.625
31
1.500
12
-0.350
22
1.625
32
2.600
13
-0.350
23
0.375
33
2.600
0
3DFACE
8
3d_top
62
32
10
1.650
20
0.375
30
1.500
11
1.650
21
1.625
31
1.500
12
1.650
22
1.625
32
2.600
13
1.650
23
0.375
33
2.600
0
ENDBLK
0
BLOCK
2
MSOP8_top
10
0
20
0
30
0
0
3DFACE
8
3d_top
62
20
10
2.115
20
0.125
30
1.633
11
-0.165
21
0.125
31
1.633
12
-0.164
22
0.259
32
1.731
13
2.115
23
0.259
33
1.731
0
3DFACE
8
3d_top
62
20
10
2.115
20
0.259
30
1.731
11
-0.164
21
0.259
31
1.731
12
-0.164
22
0.314
32
1.967
13
2.115
23
0.314
33
1.967
0
3DFACE
8
3d_top
62
20
10
2.115
20
0.314
30
1.967
11
-0.164
21
0.314
31
1.967
12
-0.164
22
0.314
32
2.300
13
2.115
23
0.314
33
2.300
0
3DFACE
8
3d_top
62
20
10
2.115
20
0.503
30
2.633
11
-0.165
21
0.503
31
2.633
12
-0.164
22
0.369
32
2.536
13
2.115
23
0.369
33
2.536
0
3DFACE
8
3d_top
62
20
10
2.115
20
0.369
30
2.536
11
-0.164
21
0.369
31
2.536
12
-0.164
22
0.314
32
2.300
13
2.115
23
0.314
33
2.300
0
3DFACE
8
3d_top
62
20
10
-0.165
20
4.275
30
1.633
11
2.114
21
4.275
31
1.633
12
2.114
22
4.142
32
1.731
13
-0.165
23
4.142
33
1.731
0
3DFACE
8
3d_top
62
20
10
-0.165
20
4.142
30
1.731
11
2.114
21
4.142
31
1.731
12
2.114
22
4.087
32
1.967
13
-0.165
23
4.087
33
1.967
0
3DFACE
8
3d_top
62
20
10
-0.165
20
4.087
30
1.967
11
2.114
21
4.087
31
1.967
12
2.114
22
4.087
32
2.300
13
-0.165
23
4.087
33
2.300
0
3DFACE
8
3d_top
62
20
10
-0.165
20
3.898
30
2.633
11
2.115
21
3.898
31
2.633
12
2.114
22
4.032
32
2.536
13
-0.165
23
4.032
33
2.536
0
3DFACE
8
3d_top
62
20
10
-0.165
20
4.032
30
2.536
11
2.114
21
4.032
31
2.536
12
2.114
22
4.087
32
2.300
13
-0.165
23
4.087
33
2.300
0
3DFACE
8
3d_top
62
20
10
-0.350
20
0.505
30
1.500
11
-0.350
21
3.895
31
1.500
12
2.300
22
3.895
32
1.500
13
2.300
23
0.505
33
1.500
0
3DFACE
8
3d_top
62
20
10
-0.350
20
0.505
30
3.100
11
-0.350
21
3.895
31
3.100
12
2.300
22
3.895
32
3.100
13
2.300
23
0.505
33
3.100
0
3DFACE
8
3d_top
62
20
10
-0.350
20
0.505
30
1.500
11
-0.350
21
3.895
31
1.500
12
-0.350
22
3.895
32
3.100
13
-0.350
23
0.505
33
3.100
0
3DFACE
8
3d_top
62
20
10
2.300
20
0.505
30
1.500
11
2.300
21
3.895
31
1.500
12
2.300
22
3.895
32
3.100
13
2.300
23
0.505
33
3.100
0
3DFACE
8
3d_top
62
20
10
-0.350
20
3.895
30
1.500
11
2.300
21
3.895
31
1.500
12
2.300
22
3.895
32
3.100
13
-0.350
23
3.895
33
3.100
0
3DFACE
8
3d_top
62
20
10
-0.350
20
0.505
30
1.500
11
2.300
21
0.505
31
1.500
12
2.300
22
0.505
32
3.100
13
-0.350
23
0.505
33
3.100
0
ENDBLK
0
BLOCK
2
SOT236_top
10
0
20
0
30
0
0
3DFACE
8
3d_top
62
22
10
1.263
20
0.145
30
1.623
11
0.642
21
0.145
31
1.623
12
0.643
22
0.219
32
1.713
13
1.263
23
0.219
33
1.713
0
3DFACE
8
3d_top
62
22
10
1.263
20
0.219
30
1.713
11
0.643
21
0.219
31
1.713
12
0.642
22
0.249
32
1.931
13
1.263
23
0.249
33
1.931
0
3DFACE
8
3d_top
62
22
10
1.263
20
0.249
30
1.931
11
0.642
21
0.249
31
1.931
12
0.642
22
0.249
32
2.238
13
1.263
23
0.249
33
2.238
0
3DFACE
8
3d_top
62
22
10
1.263
20
0.354
30
2.546
11
0.642
21
0.354
31
2.546
12
0.643
22
0.280
32
2.456
13
1.263
23
0.280
33
2.456
0
3DFACE
8
3d_top
62
22
10
1.263
20
0.280
30
2.456
11
0.643
21
0.280
31
2.456
12
0.642
22
0.249
32
2.238
13
1.263
23
0.249
33
2.238
0
3DFACE
8
3d_top
62
22
10
0.642
20
2.445
30
1.623
11
1.262
21
2.445
31
1.623
12
1.262
22
2.371
32
1.713
13
0.642
23
2.371
33
1.713
0
3DFACE
8
3d_top
62
22
10
0.642
20
2.371
30
1.713
11
1.262
21
2.371
31
1.713
12
1.262
22
2.340
32
1.931
13
0.642
23
2.340
33
1.931
0
3DFACE
8
3d_top
62
22
10
0.642
20
2.340
30
1.931
11
1.262
21
2.340
31
1.931
12
1.262
22
2.340
32
2.238
13
0.642
23
2.340
33
2.238
0
3DFACE
8
3d_top
62
22
10
0.642
20
2.236
30
2.546
11
1.262
21
2.236
31
2.546
12
1.262
22
2.310
32
2.456
13
0.642
23
2.310
33
2.456
0
3DFACE
8
3d_top
62
22
10
0.642
20
2.310
30
2.456
11
1.262
21
2.310
31
2.456
12
1.262
22
2.340
32
2.238
13
0.642
23
2.340
33
2.238
0
3DFACE
8
3d_top
62
22
10
2.347
20
0.145
30
1.623
11
1.728
21
0.145
31
1.623
12
1.727
22
0.219
32
1.713
13
2.347
23
0.219
33
1.713
0
3DFACE
8
3d_top
62
22
10
2.347
20
0.219
30
1.713
11
1.727
21
0.219
31
1.713
12
1.728
22
0.249
32
1.931
13
2.348
23
0.249
33
1.931
0
3DFACE
8
3d_top
62
22
10
2.348
20
0.249
30
1.931
11
1.728
21
0.249
31
1.931
12
1.728
22
0.249
32
2.238
13
2.348
23
0.249
33
2.238
0
3DFACE
8
3d_top
62
22
10
2.348
20
0.354
30
2.546
11
1.728
21
0.354
31
2.546
12
1.727
22
0.280
32
2.456
13
2.347
23
0.280
33
2.456
0
3DFACE
8
3d_top
62
22
10
2.347
20
0.280
30
2.456
11
1.727
21
0.280
31
2.456
12
1.728
22
0.249
32
2.238
13
2.348
23
0.249
33
2.238
0
3DFACE
8
3d_top
62
22
10
1.727
20
2.445
30
1.623
11
2.347
21
2.445
31
1.623
12
2.347
22
2.371
32
1.713
13
1.727
23
2.371
33
1.713
0
3DFACE
8
3d_top
62
22
10
1.727
20
2.371
30
1.713
11
2.347
21
2.371
31
1.713
12
2.347
22
2.340
32
1.931
13
1.727
23
2.340
33
1.931
0
3DFACE
8
3d_top
62
22
10
1.727
20
2.340
30
1.931
11
2.347
21
2.340
31
1.931
12
2.347
22
2.340
32
2.238
13
1.727
23
2.340
33
2.238
0
3DFACE
8
3d_top
62
22
10
1.727
20
2.236
30
2.546
11
2.347
21
2.236
31
2.546
12
2.347
22
2.310
32
2.456
13
1.727
23
2.310
33
2.456
0
3DFACE
8
3d_top
62
22
10
1.727
20
2.310
30
2.456
11
2.347
21
2.310
31
2.456
12
2.347
22
2.340
32
2.238
13
1.727
23
2.340
33
2.238
0
3DFACE
8
3d_top
62
22
10
0.178
20
0.145
30
1.623
11
-0.442
21
0.145
31
1.623
12
-0.442
22
0.219
32
1.713
13
0.178
23
0.219
33
1.713
0
3DFACE
8
3d_top
62
22
10
0.178
20
0.219
30
1.713
11
-0.442
21
0.219
31
1.713
12
-0.442
22
0.249
32
1.931
13
0.178
23
0.249
33
1.931
0
3DFACE
8
3d_top
62
22
10
0.178
20
0.249
30
1.931
11
-0.442
21
0.249
31
1.931
12
-0.442
22
0.249
32
2.238
13
0.178
23
0.249
33
2.238
0
3DFACE
8
3d_top
62
22
10
0.178
20
0.354
30
2.546
11
-0.442
21
0.354
31
2.546
12
-0.442
22
0.280
32
2.456
13
0.178
23
0.280
33
2.456
0
3DFACE
8
3d_top
62
22
10
0.178
20
0.280
30
2.456
11
-0.442
21
0.280
31
2.456
12
-0.442
22
0.249
32
2.238
13
0.178
23
0.249
33
2.238
0
3DFACE
8
3d_top
62
22
10
-0.442
20
2.445
30
1.623
11
0.177
21
2.445
31
1.623
12
0.177
22
2.371
32
1.713
13
-0.443
23
2.371
33
1.713
0
3DFACE
8
3d_top
62
22
10
-0.443
20
2.371
30
1.713
11
0.177
21
2.371
31
1.713
12
0.177
22
2.340
32
1.931
13
-0.443
23
2.340
33
1.931
0
3DFACE
8
3d_top
62
22
10
-0.443
20
2.340
30
1.931
11
0.177
21
2.340
31
1.931
12
0.177
22
2.340
32
2.238
13
-0.442
23
2.340
33
2.238
0
3DFACE
8
3d_top
62
22
10
-0.443
20
2.236
30
2.546
11
0.177
21
2.236
31
2.546
12
0.177
22
2.310
32
2.456
13
-0.443
23
2.310
33
2.456
0
3DFACE
8
3d_top
62
22
10
-0.443
20
2.310
30
2.456
11
0.177
21
2.310
31
2.456
12
0.177
22
2.340
32
2.238
13
-0.442
23
2.340
33
2.238
0
3DFACE
8
3d_top
62
22
10
2.503
20
0.368
30
1.500
11
-0.597
21
0.368
31
1.500
12
-0.597
22
2.223
32
1.500
13
2.503
23
2.223
33
1.500
0
3DFACE
8
3d_top
62
22
10
2.503
20
0.368
30
2.950
11
-0.597
21
0.368
31
2.950
12
-0.597
22
2.223
32
2.950
13
2.503
23
2.223
33
2.950
0
3DFACE
8
3d_top
62
22
10
2.503
20
0.368
30
1.500
11
-0.597
21
0.368
31
1.500
12
-0.597
22
0.368
32
2.950
13
2.503
23
0.368
33
2.950
0
3DFACE
8
3d_top
62
22
10
2.503
20
2.223
30
1.500
11
-0.597
21
2.223
31
1.500
12
-0.597
22
2.223
32
2.950
13
2.503
23
2.223
33
2.950
0
3DFACE
8
3d_top
62
22
10
-0.597
20
0.368
30
1.500
11
-0.597
21
2.223
31
1.500
12
-0.597
22
2.223
32
2.950
13
-0.597
23
0.368
33
2.950
0
3DFACE
8
3d_top
62
22
10
2.503
20
0.368
30
1.500
11
2.503
21
2.223
31
1.500
12
2.503
22
2.223
32
2.950
13
2.503
23
0.368
33
2.950
0
ENDBLK
0
BLOCK
2
RN4871_top
10
0
20
0
30
0
0
3DFACE
8
3d_top
62
24
10
-1.450
20
-1.150
30
3.000
11
-3.450
21
-1.150
31
3.000
12
-3.450
22
1.750
32
3.000
13
-1.450
23
1.750
33
3.000
0
3DFACE
8
3d_top
62
24
10
-1.450
20
-1.150
30
4.500
11
-3.450
21
-1.150
31
4.500
12
-3.450
22
1.750
32
4.500
13
-1.450
23
1.750
33
4.500
0
3DFACE
8
3d_top
62
24
10
-1.450
20
-1.150
30
3.000
11
-3.450
21
-1.150
31
3.000
12
-3.450
22
-1.150
32
4.500
13
-1.450
23
-1.150
33
4.500
0
3DFACE
8
3d_top
62
24
10
-1.450
20
1.750
30
3.000
11
-3.450
21
1.750
31
3.000
12
-3.450
22
1.750
32
4.500
13
-1.450
23
1.750
33
4.500
0
3DFACE
8
3d_top
62
24
10
-3.450
20
-1.150
30
3.000
11
-3.450
21
1.750
31
3.000
12
-3.450
22
1.750
32
4.500
13
-3.450
23
-1.150
33
4.500
0
3DFACE
8
3d_top
62
24
10
-1.450
20
-1.150
30
3.000
11
-1.450
21
1.750
31
3.000
12
-1.450
22
1.750
32
4.500
13
-1.450
23
-1.150
33
4.500
0
3DFACE
8
3d_top
62
24
10
3.400
20
-4.200
30
3.000
11
-0.300
21
-4.200
31
3.000
12
-0.300
22
1.300
32
3.000
13
3.400
23
1.300
33
3.000
0
3DFACE
8
3d_top
62
24
10
3.400
20
-4.200
30
4.500
11
-0.300
21
-4.200
31
4.500
12
-0.300
22
1.300
32
4.500
13
3.400
23
1.300
33
4.500
0
3DFACE
8
3d_top
62
24
10
3.400
20
-4.200
30
3.000
11
-0.300
21
-4.200
31
3.000
12
-0.300
22
-4.200
32
4.500
13
3.400
23
-4.200
33
4.500
0
3DFACE
8
3d_top
62
24
10
3.400
20
1.300
30
3.000
11
-0.300
21
1.300
31
3.000
12
-0.300
22
1.300
32
4.500
13
3.400
23
1.300
33
4.500
0
3DFACE
8
3d_top
62
24
10
-0.300
20
-4.200
30
3.000
11
-0.300
21
1.300
31
3.000
12
-0.300
22
1.300
32
4.500
13
-0.300
23
-4.200
33
4.500
0
3DFACE
8
3d_top
62
24
10
3.400
20
-4.200
30
3.000
11
3.400
21
1.300
31
3.000
12
3.400
22
1.300
32
4.500
13
3.400
23
-4.200
33
4.500
0
3DFACE
8
3d_top
62
13
10
-4.500
20
-4.400
30
1.500
11
-4.500
21
-5.750
31
1.500
12
-4.500
22
-5.750
32
3.000
13
-4.500
23
-4.400
33
3.000
0
3DFACE
8
3d_top
62
13
10
-3.450
20
-5.750
30
1.500
11
-4.500
21
-5.750
31
1.500
12
-4.500
22
-5.750
32
3.000
13
-3.450
23
-5.750
33
3.000
0
3DFACE
8
3d_top
62
13
10
-5.623
20
0.846
30
1.500
11
-5.591
21
0.850
31
1.500
12
-5.591
22
0.850
32
3.000
13
-5.623
23
0.846
33
3.000
0
3DFACE
8
3d_top
62
13
10
-5.591
20
0.850
30
1.500
11
-5.562
21
0.859
31
1.500
12
-5.562
22
0.859
32
3.000
13
-5.591
23
0.850
33
3.000
0
3DFACE
8
3d_top
62
13
10
-5.562
20
0.859
30
1.500
11
-5.535
21
0.875
31
1.500
12
-5.535
22
0.875
32
3.000
13
-5.562
23
0.859
33
3.000
0
3DFACE
8
3d_top
62
13
10
-5.535
20
0.875
30
1.500
11
-5.511
21
0.896
31
1.500
12
-5.511
22
0.896
32
3.000
13
-5.535
23
0.875
33
3.000
0
3DFACE
8
3d_top
62
13
10
-5.511
20
0.896
30
1.500
11
-5.493
21
0.921
31
1.500
12
-5.493
22
0.921
32
3.000
13
-5.511
23
0.896
33
3.000
0
3DFACE
8
3d_top
62
13
10
-5.493
20
0.921
30
1.500
11
-5.480
21
0.949
31
1.500
12
-5.480
22
0.949
32
3.000
13
-5.493
23
0.921
33
3.000
0
3DFACE
8
3d_top
62
13
10
-5.480
20
0.949
30
1.500
11
-5.473
21
0.980
31
1.500
12
-5.473
22
0.980
32
3.000
13
-5.480
23
0.949
33
3.000
0
3DFACE
8
3d_top
62
13
10
-5.473
20
0.980
30
1.500
11
-5.473
21
1.011
31
1.500
12
-5.473
22
1.011
32
3.000
13
-5.473
23
0.980
33
3.000
0
3DFACE
8
3d_top
62
13
10
-5.473
20
1.011
30
1.500
11
-5.480
21
1.042
31
1.500
12
-5.480
22
1.042
32
3.000
13
-5.473
23
1.011
33
3.000
0
3DFACE
8
3d_top
62
13
10
-5.480
20
1.042
30
1.500
11
-5.492
21
1.071
31
1.500
12
-5.492
22
1.071
32
3.000
13
-5.480
23
1.042
33
3.000
0
3DFACE
8
3d_top
62
13
10
-5.492
20
1.071
30
1.500
11
-5.511
21
1.096
31
1.500
12
-5.511
22
1.096
32
3.000
13
-5.492
23
1.071
33
3.000
0
3DFACE
8
3d_top
62
13
10
-5.511
20
1.096
30
1.500
11
-5.534
21
1.117
31
1.500
12
-5.534
22
1.117
32
3.000
13
-5.511
23
1.096
33
3.000
0
3DFACE
8
3d_top
62
13
10
-5.534
20
1.117
30
1.500
11
-5.561
21
1.133
31
1.500
12
-5.561
22
1.133
32
3.000
13
-5.534
23
1.117
33
3.000
0
3DFACE
8
3d_top
62
13
10
-5.561
20
1.133
30
1.500
11
-5.591
21
1.143
31
1.500
12
-5.591
22
1.143
32
3.000
13
-5.561
23
1.133
33
3.000
0
3DFACE
8
3d_top
62
13
10
-5.591
20
1.143
30
1.500
11
-5.622
21
1.146
31
1.500
12
-5.622
22
1.146
32
3.000
13
-5.591
23
1.143
33
3.000
0
3DFACE
8
3d_top
62
13
10
-5.622
20
1.146
30
1.500
11
-5.653
21
1.143
31
1.500
12
-5.653
22
1.143
32
3.000
13
-5.622
23
1.146
33
3.000
0
3DFACE
8
3d_top
62
13
10
-5.653
20
1.143
30
1.500
11
-5.683
21
1.134
31
1.500
12
-5.683
22
1.134
32
3.000
13
-5.653
23
1.143
33
3.000
0
3DFACE
8
3d_top
62
13
10
-5.683
20
1.134
30
1.500
11
-5.710
21
1.118
31
1.500
12
-5.710
22
1.118
32
3.000
13
-5.683
23
1.134
33
3.000
0
3DFACE
8
3d_top
62
13
10
-5.710
20
1.118
30
1.500
11
-5.733
21
1.097
31
1.500
12
-5.733
22
1.097
32
3.000
13
-5.710
23
1.118
33
3.000
0
3DFACE
8
3d_top
62
13
10
-5.733
20
1.097
30
1.500
11
-5.752
21
1.072
31
1.500
12
-5.752
22
1.072
32
3.000
13
-5.733
23
1.097
33
3.000
0
3DFACE
8
3d_top
62
13
10
-5.752
20
1.072
30
1.500
11
-5.765
21
1.043
31
1.500
12
-5.765
22
1.043
32
3.000
13
-5.752
23
1.072
33
3.000
0
3DFACE
8
3d_top
62
13
10
-5.765
20
1.043
30
1.500
11
-5.772
21
1.013
31
1.500
12
-5.772
22
1.013
32
3.000
13
-5.765
23
1.043
33
3.000
0
3DFACE
8
3d_top
62
13
10
-5.772
20
1.013
30
1.500
11
-5.772
21
0.981
31
1.500
12
-5.772
22
0.981
32
3.000
13
-5.772
23
1.013
33
3.000
0
3DFACE
8
3d_top
62
13
10
-5.772
20
0.981
30
1.500
11
-5.765
21
0.951
31
1.500
12
-5.765
22
0.951
32
3.000
13
-5.772
23
0.981
33
3.000
0
3DFACE
8
3d_top
62
13
10
-5.765
20
0.951
30
1.500
11
-5.753
21
0.922
31
1.500
12
-5.753
22
0.922
32
3.000
13
-5.765
23
0.951
33
3.000
0
3DFACE
8
3d_top
62
13
10
-5.753
20
0.922
30
1.500
11
-5.735
21
0.897
31
1.500
12
-5.735
22
0.897
32
3.000
13
-5.753
23
0.922
33
3.000
0
3DFACE
8
3d_top
62
13
10
-5.735
20
0.897
30
1.500
11
-5.711
21
0.876
31
1.500
12
-5.711
22
0.876
32
3.000
13
-5.735
23
0.897
33
3.000
0
3DFACE
8
3d_top
62
13
10
-5.711
20
0.876
30
1.500
11
-5.684
21
0.860
31
1.500
12
-5.684
22
0.860
32
3.000
13
-5.711
23
0.876
33
3.000
0
3DFACE
8
3d_top
62
13
10
-5.684
20
0.860
30
1.500
11
-5.655
21
0.850
31
1.500
12
-5.655
22
0.850
32
3.000
13
-5.684
23
0.860
33
3.000
0
3DFACE
8
3d_top
62
13
10
-5.655
20
0.850
30
1.500
11
-5.623
21
0.846
31
1.500
12
-5.623
22
0.846
32
3.000
13
-5.655
23
0.850
33
3.000
0
3DFACE
8
3d_top
62
13
10
-1.450
20
-1.150
30
1.500
11
-3.450
21
-1.150
31
1.500
12
-3.450
22
-1.150
32
3.000
13
-1.450
23
-1.150
33
3.000
0
3DFACE
8
3d_top
62
13
10
-0.300
20
1.300
30
1.500
11
-0.300
21
-4.200
31
1.500
12
-0.300
22
-4.200
32
3.000
13
-0.300
23
1.300
33
3.000
0
3DFACE
8
3d_top
62
13
10
4.500
20
-5.750
30
1.500
11
3.450
21
-5.750
31
1.500
12
3.450
22
-5.750
32
3.000
13
4.500
23
-5.750
33
3.000
0
3DFACE
8
3d_top
62
13
10
4.500
20
-4.400
30
1.500
11
4.500
21
-5.750
31
1.500
12
4.500
22
-5.750
32
3.000
13
4.500
23
-4.400
33
3.000
0
3DFACE
8
3d_top
62
13
10
3.400
20
1.300
30
1.500
11
3.400
21
-4.200
31
1.500
12
3.400
22
-4.200
32
3.000
13
3.400
23
1.300
33
3.000
0
3DFACE
8
3d_top
62
13
10
1.700
20
5.750
30
1.500
11
1.711
21
5.646
31
1.500
12
1.711
22
5.646
32
3.000
13
1.700
23
5.750
33
3.000
0
3DFACE
8
3d_top
62
13
10
1.711
20
5.646
30
1.500
11
1.743
21
5.547
31
1.500
12
1.743
22
5.547
32
3.000
13
1.711
23
5.646
33
3.000
0
3DFACE
8
3d_top
62
13
10
1.743
20
5.547
30
1.500
11
1.795
21
5.457
31
1.500
12
1.795
22
5.457
32
3.000
13
1.743
23
5.547
33
3.000
0
3DFACE
8
3d_top
62
13
10
1.795
20
5.457
30
1.500
11
1.865
21
5.379
31
1.500
12
1.865
22
5.379
32
3.000
13
1.795
23
5.457
33
3.000
0
3DFACE
8
3d_top
62
13
10
1.865
20
5.379
30
1.500
11
1.949
21
5.317
31
1.500
12
1.949
22
5.317
32
3.000
13
1.865
23
5.379
33
3.000
0
3DFACE
8
3d_top
62
13
10
1.949
20
5.317
30
1.500
11
2.045
21
5.275
31
1.500
12
2.045
22
5.275
32
3.000
13
1.949
23
5.317
33
3.000
0
3DFACE
8
3d_top
62
13
10
2.045
20
5.275
30
1.500
11
2.147
21
5.253
31
1.500
12
2.147
22
5.253
32
3.000
13
2.045
23
5.275
33
3.000
0
3DFACE
8
3d_top
62
13
10
2.147
20
5.253
30
1.500
11
2.251
21
5.253
31
1.500
12
2.251
22
5.253
32
3.000
13
2.147
23
5.253
33
3.000
0
3DFACE
8
3d_top
62
13
10
2.251
20
5.253
30
1.500
11
2.353
21
5.274
31
1.500
12
2.353
22
5.274
32
3.000
13
2.251
23
5.253
33
3.000
0
3DFACE
8
3d_top
62
13
10
2.353
20
5.274
30
1.500
11
2.449
21
5.316
31
1.500
12
2.449
22
5.316
32
3.000
13
2.353
23
5.274
33
3.000
0
3DFACE
8
3d_top
62
13
10
2.449
20
5.316
30
1.500
11
2.533
21
5.377
31
1.500
12
2.533
22
5.377
32
3.000
13
2.449
23
5.316
33
3.000
0
3DFACE
8
3d_top
62
13
10
2.533
20
5.377
30
1.500
11
2.603
21
5.454
31
1.500
12
2.603
22
5.454
32
3.000
13
2.533
23
5.377
33
3.000
0
3DFACE
8
3d_top
62
13
10
2.603
20
5.454
30
1.500
11
2.656
21
5.545
31
1.500
12
2.656
22
5.545
32
3.000
13
2.603
23
5.454
33
3.000
0
3DFACE
8
3d_top
62
13
10
2.656
20
5.545
30
1.500
11
2.689
21
5.644
31
1.500
12
2.689
22
5.644
32
3.000
13
2.656
23
5.545
33
3.000
0
3DFACE
8
3d_top
62
13
10
2.689
20
5.644
30
1.500
11
2.700
21
5.750
31
1.500
12
2.700
22
5.750
32
3.000
13
2.689
23
5.644
33
3.000
0
3DFACE
8
3d_top
62
13
10
4.500
20
5.750
30
1.500
11
2.700
21
5.750
31
1.500
12
2.700
22
5.750
32
3.000
13
4.500
23
5.750
33
3.000
0
3DFACE
8
3d_top
62
13
10
-4.500
20
5.750
30
1.500
11
-4.500
21
1.400
31
1.500
12
-4.500
22
1.400
32
3.000
13
-4.500
23
5.750
33
3.000
0
3DFACE
8
3d_top
62
13
10
-3.450
20
1.750
30
1.500
11
-3.450
21
-1.150
31
1.500
12
-3.450
22
-1.150
32
3.000
13
-3.450
23
1.750
33
3.000
0
3DFACE
8
3d_top
62
13
10
-1.450
20
1.750
30
1.500
11
-1.450
21
-1.150
31
1.500
12
-1.450
22
-1.150
32
3.000
13
-1.450
23
1.750
33
3.000
0
3DFACE
8
3d_top
62
13
10
4.500
20
5.750
30
1.500
11
4.500
21
1.400
31
1.500
12
4.500
22
1.400
32
3.000
13
4.500
23
5.750
33
3.000
0
3DFACE
8
3d_top
62
13
10
3.400
20
1.300
30
1.500
11
-0.300
21
1.300
31
1.500
12
-0.300
22
1.300
32
3.000
13
3.400
23
1.300
33
3.000
0
3DFACE
8
3d_top
62
13
10
3.400
20
-4.200
30
1.500
11
-0.300
21
-4.200
31
1.500
12
-0.300
22
-4.200
32
3.000
13
3.400
23
-4.200
33
3.000
0
3DFACE
8
3d_top
62
13
10
4.500
20
1.750
30
1.500
11
-4.500
21
1.750
31
1.500
12
-4.500
22
1.750
32
3.000
13
4.500
23
1.750
33
3.000
0
3DFACE
8
3d_top
62
13
10
1.700
20
5.750
30
1.500
11
-4.500
21
5.750
31
1.500
12
-4.500
22
5.750
32
3.000
13
1.700
23
5.750
33
3.000
0
3DFACE
8
3d_top
62
13
10
-4.500
20
1.400
30
1.500
11
-4.371
21
1.383
31
1.500
12
-4.371
22
1.383
32
3.000
13
-4.500
23
1.400
33
3.000
0
3DFACE
8
3d_top
62
13
10
-4.371
20
1.383
30
1.500
11
-4.250
21
1.333
31
1.500
12
-4.250
22
1.333
32
3.000
13
-4.371
23
1.383
33
3.000
0
3DFACE
8
3d_top
62
13
10
-4.250
20
1.333
30
1.500
11
-4.146
21
1.254
31
1.500
12
-4.146
22
1.254
32
3.000
13
-4.250
23
1.333
33
3.000
0
3DFACE
8
3d_top
62
13
10
-4.146
20
1.254
30
1.500
11
-4.067
21
1.150
31
1.500
12
-4.067
22
1.150
32
3.000
13
-4.146
23
1.254
33
3.000
0
3DFACE
8
3d_top
62
13
10
-4.067
20
1.150
30
1.500
11
-4.017
21
1.029
31
1.500
12
-4.017
22
1.029
32
3.000
13
-4.067
23
1.150
33
3.000
0
3DFACE
8
3d_top
62
13
10
-4.017
20
1.029
30
1.500
11
-4.000
21
0.900
31
1.500
12
-4.000
22
0.900
32
3.000
13
-4.017
23
1.029
33
3.000
0
3DFACE
8
3d_top
62
13
10
-4.000
20
0.900
30
1.500
11
-4.000
21
0.900
31
1.500
12
-4.000
22
0.900
32
3.000
13
-4.000
23
0.900
33
3.000
0
3DFACE
8
3d_top
62
13
10
-4.000
20
0.900
30
1.500
11
-4.017
21
0.771
31
1.500
12
-4.017
22
0.771
32
3.000
13
-4.000
23
0.900
33
3.000
0
3DFACE
8
3d_top
62
13
10
-4.017
20
0.771
30
1.500
11
-4.067
21
0.650
31
1.500
12
-4.067
22
0.650
32
3.000
13
-4.017
23
0.771
33
3.000
0
3DFACE
8
3d_top
62
13
10
-4.067
20
0.650
30
1.500
11
-4.146
21
0.546
31
1.500
12
-4.146
22
0.546
32
3.000
13
-4.067
23
0.650
33
3.000
0
3DFACE
8
3d_top
62
13
10
-4.146
20
0.546
30
1.500
11
-4.250
21
0.467
31
1.500
12
-4.250
22
0.467
32
3.000
13
-4.146
23
0.546
33
3.000
0
3DFACE
8
3d_top
62
13
10
-4.250
20
0.467
30
1.500
11
-4.371
21
0.417
31
1.500
12
-4.371
22
0.417
32
3.000
13
-4.250
23
0.467
33
3.000
0
3DFACE
8
3d_top
62
13
10
-4.371
20
0.417
30
1.500
11
-4.500
21
0.400
31
1.500
12
-4.500
22
0.400
32
3.000
13
-4.371
23
0.417
33
3.000
0
3DFACE
8
3d_top
62
13
10
-4.500
20
0.400
30
1.500
11
-4.500
21
0.400
31
1.500
12
-4.500
22
0.400
32
3.000
13
-4.500
23
0.400
33
3.000
0
3DFACE
8
3d_top
62
13
10
-4.500
20
0.400
30
1.500
11
-4.500
21
0.200
31
1.500
12
-4.500
22
0.200
32
3.000
13
-4.500
23
0.400
33
3.000
0
3DFACE
8
3d_top
62
13
10
-4.500
20
0.200
30
1.500
11
-4.371
21
0.183
31
1.500
12
-4.371
22
0.183
32
3.000
13
-4.500
23
0.200
33
3.000
0
3DFACE
8
3d_top
62
13
10
-4.371
20
0.183
30
1.500
11
-4.250
21
0.133
31
1.500
12
-4.250
22
0.133
32
3.000
13
-4.371
23
0.183
33
3.000
0
3DFACE
8
3d_top
62
13
10
-4.250
20
0.133
30
1.500
11
-4.146
21
0.054
31
1.500
12
-4.146
22
0.054
32
3.000
13
-4.250
23
0.133
33
3.000
0
3DFACE
8
3d_top
62
13
10
-4.146
20
0.054
30
1.500
11
-4.067
21
-0.050
31
1.500
12
-4.067
22
-0.050
32
3.000
13
-4.146
23
0.054
33
3.000
0
3DFACE
8
3d_top
62
13
10
-4.067
20
-0.050
30
1.500
11
-4.017
21
-0.171
31
1.500
12
-4.017
22
-0.171
32
3.000
13
-4.067
23
-0.050
33
3.000
0
3DFACE
8
3d_top
62
13
10
-4.017
20
-0.171
30
1.500
11
-4.000
21
-0.300
31
1.500
12
-4.000
22
-0.300
32
3.000
13
-4.017
23
-0.171
33
3.000
0
3DFACE
8
3d_top
62
13
10
-4.000
20
-0.300
30
1.500
11
-4.000
21
-0.300
31
1.500
12
-4.000
22
-0.300
32
3.000
13
-4.000
23
-0.300
33
3.000
0
3DFACE
8
3d_top
62
13
10
-4.000
20
-0.300
30
1.500
11
-4.017
21
-0.429
31
1.500
12
-4.017
22
-0.429
32
3.000
13
-4.000
23
-0.300
33
3.000
0
3DFACE
8
3d_top
62
13
10
-4.017
20
-0.429
30
1.500
11
-4.067
21
-0.550
31
1.500
12
-4.067
22
-0.550
32
3.000
13
-4.017
23
-0.429
33
3.000
0
3DFACE
8
3d_top
62
13
10
-4.067
20
-0.550
30
1.500
11
-4.146
21
-0.654
31
1.500
12
-4.146
22
-0.654
32
3.000
13
-4.067
23
-0.550
33
3.000
0
3DFACE
8
3d_top
62
13
10
-4.146
20
-0.654
30
1.500
11
-4.250
21
-0.733
31
1.500
12
-4.250
22
-0.733
32
3.000
13
-4.146
23
-0.654
33
3.000
0
3DFACE
8
3d_top
62
13
10
-4.250
20
-0.733
30
1.500
11
-4.371
21
-0.783
31
1.500
12
-4.371
22
-0.783
32
3.000
13
-4.250
23
-0.733
33
3.000
0
3DFACE
8
3d_top
62
13
10
-4.371
20
-0.783
30
1.500
11
-4.500
21
-0.800
31
1.500
12
-4.500
22
-0.800
32
3.000
13
-4.371
23
-0.783
33
3.000
0
3DFACE
8
3d_top
62
13
10
-4.500
20
-0.800
30
1.500
11
-4.500
21
-0.800
31
1.500
12
-4.500
22
-0.800
32
3.000
13
-4.500
23
-0.800
33
3.000
0
3DFACE
8
3d_top
62
13
10
-4.500
20
-0.800
30
1.500
11
-4.500
21
-1.000
31
1.500
12
-4.500
22
-1.000
32
3.000
13
-4.500
23
-0.800
33
3.000
0
3DFACE
8
3d_top
62
13
10
-4.500
20
-1.000
30
1.500
11
-4.371
21
-1.017
31
1.500
12
-4.371
22
-1.017
32
3.000
13
-4.500
23
-1.000
33
3.000
0
3DFACE
8
3d_top
62
13
10
-4.371
20
-1.017
30
1.500
11
-4.250
21
-1.067
31
1.500
12
-4.250
22
-1.067
32
3.000
13
-4.371
23
-1.017
33
3.000
0
3DFACE
8
3d_top
62
13
10
-4.250
20
-1.067
30
1.500
11
-4.146
21
-1.146
31
1.500
12
-4.146
22
-1.146
32
3.000
13
-4.250
23
-1.067
33
3.000
0
3DFACE
8
3d_top
62
13
10
-4.146
20
-1.146
30
1.500
11
-4.067
21
-1.250
31
1.500
12
-4.067
22
-1.250
32
3.000
13
-4.146
23
-1.146
33
3.000
0
3DFACE
8
3d_top
62
13
10
-4.067
20
-1.250
30
1.500
11
-4.017
21
-1.371
31
1.500
12
-4.017
22
-1.371
32
3.000
13
-4.067
23
-1.250
33
3.000
0
3DFACE
8
3d_top
62
13
10
-4.017
20
-1.371
30
1.500
11
-4.000
21
-1.500
31
1.500
12
-4.000
22
-1.500
32
3.000
13
-4.017
23
-1.371
33
3.000
0
3DFACE
8
3d_top
62
13
10
-4.000
20
-1.500
30
1.500
11
-4.000
21
-1.500
31
1.500
12
-4.000
22
-1.500
32
3.000
13
-4.000
23
-1.500
33
3.000
0
3DFACE
8
3d_top
62
13
10
-4.000
20
-1.500
30
1.500
11
-4.017
21
-1.629
31
1.500
12
-4.017
22
-1.629
32
3.000
13
-4.000
23
-1.500
33
3.000
0
3DFACE
8
3d_top
62
13
10
-4.017
20
-1.629
30
1.500
11
-4.067
21
-1.750
31
1.500
12
-4.067
22
-1.750
32
3.000
13
-4.017
23
-1.629
33
3.000
0
3DFACE
8
3d_top
62
13
10
-4.067
20
-1.750
30
1.500
11
-4.146
21
-1.854
31
1.500
12
-4.146
22
-1.854
32
3.000
13
-4.067
23
-1.750
33
3.000
0
3DFACE
8
3d_top
62
13
10
-4.146
20
-1.854
30
1.500
11
-4.250
21
-1.933
31
1.500
12
-4.250
22
-1.933
32
3.000
13
-4.146
23
-1.854
33
3.000
0
3DFACE
8
3d_top
62
13
10
-4.250
20
-1.933
30
1.500
11
-4.371
21
-1.983
31
1.500
12
-4.371
22
-1.983
32
3.000
13
-4.250
23
-1.933
33
3.000
0
3DFACE
8
3d_top
62
13
10
-4.371
20
-1.983
30
1.500
11
-4.500
21
-2.000
31
1.500
12
-4.500
22
-2.000
32
3.000
13
-4.371
23
-1.983
33
3.000
0
3DFACE
8
3d_top
62
13
10
-4.500
20
-2.000
30
1.500
11
-4.500
21
-2.000
31
1.500
12
-4.500
22
-2.000
32
3.000
13
-4.500
23
-2.000
33
3.000
0
3DFACE
8
3d_top
62
13
10
-4.500
20
-2.000
30
1.500
11
-4.500
21
-2.200
31
1.500
12
-4.500
22
-2.200
32
3.000
13
-4.500
23
-2.000
33
3.000
0
3DFACE
8
3d_top
62
13
10
-4.500
20
-2.200
30
1.500
11
-4.371
21
-2.217
31
1.500
12
-4.371
22
-2.217
32
3.000
13
-4.500
23
-2.200
33
3.000
0
3DFACE
8
3d_top
62
13
10
-4.371
20
-2.217
30
1.500
11
-4.250
21
-2.267
31
1.500
12
-4.250
22
-2.267
32
3.000
13
-4.371
23
-2.217
33
3.000
0
3DFACE
8
3d_top
62
13
10
-4.250
20
-2.267
30
1.500
11
-4.146
21
-2.346
31
1.500
12
-4.146
22
-2.346
32
3.000
13
-4.250
23
-2.267
33
3.000
0
3DFACE
8
3d_top
62
13
10
-4.146
20
-2.346
30
1.500
11
-4.067
21
-2.450
31
1.500
12
-4.067
22
-2.450
32
3.000
13
-4.146
23
-2.346
33
3.000
0
3DFACE
8
3d_top
62
13
10
-4.067
20
-2.450
30
1.500
11
-4.017
21
-2.571
31
1.500
12
-4.017
22
-2.571
32
3.000
13
-4.067
23
-2.450
33
3.000
0
3DFACE
8
3d_top
62
13
10
-4.017
20
-2.571
30
1.500
11
-4.000
21
-2.700
31
1.500
12
-4.000
22
-2.700
32
3.000
13
-4.017
23
-2.571
33
3.000
0
3DFACE
8
3d_top
62
13
10
-4.000
20
-2.700
30
1.500
11
-4.000
21
-2.700
31
1.500
12
-4.000
22
-2.700
32
3.000
13
-4.000
23
-2.700
33
3.000
0
3DFACE
8
3d_top
62
13
10
-4.000
20
-2.700
30
1.500
11
-4.017
21
-2.829
31
1.500
12
-4.017
22
-2.829
32
3.000
13
-4.000
23
-2.700
33
3.000
0
3DFACE
8
3d_top
62
13
10
-4.017
20
-2.829
30
1.500
11
-4.067
21
-2.950
31
1.500
12
-4.067
22
-2.950
32
3.000
13
-4.017
23
-2.829
33
3.000
0
3DFACE
8
3d_top
62
13
10
-4.067
20
-2.950
30
1.500
11
-4.146
21
-3.054
31
1.500
12
-4.146
22
-3.054
32
3.000
13
-4.067
23
-2.950
33
3.000
0
3DFACE
8
3d_top
62
13
10
-4.146
20
-3.054
30
1.500
11
-4.250
21
-3.133
31
1.500
12
-4.250
22
-3.133
32
3.000
13
-4.146
23
-3.054
33
3.000
0
3DFACE
8
3d_top
62
13
10
-4.250
20
-3.133
30
1.500
11
-4.371
21
-3.183
31
1.500
12
-4.371
22
-3.183
32
3.000
13
-4.250
23
-3.133
33
3.000
0
3DFACE
8
3d_top
62
13
10
-4.371
20
-3.183
30
1.500
11
-4.500
21
-3.200
31
1.500
12
-4.500
22
-3.200
32
3.000
13
-4.371
23
-3.183
33
3.000
0
3DFACE
8
3d_top
62
13
10
-4.500
20
-3.200
30
1.500
11
-4.500
21
-3.200
31
1.500
12
-4.500
22
-3.200
32
3.000
13
-4.500
23
-3.200
33
3.000
0
3DFACE
8
3d_top
62
13
10
-4.500
20
-3.200
30
1.500
11
-4.500
21
-3.400
31
1.500
12
-4.500
22
-3.400
32
3.000
13
-4.500
23
-3.200
33
3.000
0
3DFACE
8
3d_top
62
13
10
-4.500
20
-3.400
30
1.500
11
-4.371
21
-3.417
31
1.500
12
-4.371
22
-3.417
32
3.000
13
-4.500
23
-3.400
33
3.000
0
3DFACE
8
3d_top
62
13
10
-4.371
20
-3.417
30
1.500
11
-4.250
21
-3.467
31
1.500
12
-4.250
22
-3.467
32
3.000
13
-4.371
23
-3.417
33
3.000
0
3DFACE
8
3d_top
62
13
10
-4.250
20
-3.467
30
1.500
11
-4.146
21
-3.546
31
1.500
12
-4.146
22
-3.546
32
3.000
13
-4.250
23
-3.467
33
3.000
0
3DFACE
8
3d_top
62
13
10
-4.146
20
-3.546
30
1.500
11
-4.067
21
-3.650
31
1.500
12
-4.067
22
-3.650
32
3.000
13
-4.146
23
-3.546
33
3.000
0
3DFACE
8
3d_top
62
13
10
-4.067
20
-3.650
30
1.500
11
-4.017
21
-3.771
31
1.500
12
-4.017
22
-3.771
32
3.000
13
-4.067
23
-3.650
33
3.000
0
3DFACE
8
3d_top
62
13
10
-4.017
20
-3.771
30
1.500
11
-4.000
21
-3.900
31
1.500
12
-4.000
22
-3.900
32
3.000
13
-4.017
23
-3.771
33
3.000
0
3DFACE
8
3d_top
62
13
10
-4.000
20
-3.900
30
1.500
11
-4.000
21
-3.900
31
1.500
12
-4.000
22
-3.900
32
3.000
13
-4.000
23
-3.900
33
3.000
0
3DFACE
8
3d_top
62
13
10
-4.000
20
-3.900
30
1.500
11
-4.017
21
-4.029
31
1.500
12
-4.017
22
-4.029
32
3.000
13
-4.000
23
-3.900
33
3.000
0
3DFACE
8
3d_top
62
13
10
-4.017
20
-4.029
30
1.500
11
-4.067
21
-4.150
31
1.500
12
-4.067
22
-4.150
32
3.000
13
-4.017
23
-4.029
33
3.000
0
3DFACE
8
3d_top
62
13
10
-4.067
20
-4.150
30
1.500
11
-4.146
21
-4.254
31
1.500
12
-4.146
22
-4.254
32
3.000
13
-4.067
23
-4.150
33
3.000
0
3DFACE
8
3d_top
62
13
10
-4.146
20
-4.254
30
1.500
11
-4.250
21
-4.333
31
1.500
12
-4.250
22
-4.333
32
3.000
13
-4.146
23
-4.254
33
3.000
0
3DFACE
8
3d_top
62
13
10
-4.250
20
-4.333
30
1.500
11
-4.371
21
-4.383
31
1.500
12
-4.371
22
-4.383
32
3.000
13
-4.250
23
-4.333
33
3.000
0
3DFACE
8
3d_top
62
13
10
-4.371
20
-4.383
30
1.500
11
-4.500
21
-4.400
31
1.500
12
-4.500
22
-4.400
32
3.000
13
-4.371
23
-4.383
33
3.000
0
3DFACE
8
3d_top
62
13
10
-4.500
20
-4.400
30
1.500
11
-4.500
21
-4.400
31
1.500
12
-4.500
22
-4.400
32
3.000
13
-4.500
23
-4.400
33
3.000
0
3DFACE
8
3d_top
62
13
10
4.500
20
1.400
30
1.500
11
4.371
21
1.383
31
1.500
12
4.371
22
1.383
32
3.000
13
4.500
23
1.400
33
3.000
0
3DFACE
8
3d_top
62
13
10
4.371
20
1.383
30
1.500
11
4.250
21
1.333
31
1.500
12
4.250
22
1.333
32
3.000
13
4.371
23
1.383
33
3.000
0
3DFACE
8
3d_top
62
13
10
4.250
20
1.333
30
1.500
11
4.146
21
1.254
31
1.500
12
4.146
22
1.254
32
3.000
13
4.250
23
1.333
33
3.000
0
3DFACE
8
3d_top
62
13
10
4.146
20
1.254
30
1.500
11
4.067
21
1.150
31
1.500
12
4.067
22
1.150
32
3.000
13
4.146
23
1.254
33
3.000
0
3DFACE
8
3d_top
62
13
10
4.067
20
1.150
30
1.500
11
4.017
21
1.029
31
1.500
12
4.017
22
1.029
32
3.000
13
4.067
23
1.150
33
3.000
0
3DFACE
8
3d_top
62
13
10
4.017
20
1.029
30
1.500
11
4.000
21
0.900
31
1.500
12
4.000
22
0.900
32
3.000
13
4.017
23
1.029
33
3.000
0
3DFACE
8
3d_top
62
13
10
4.000
20
0.900
30
1.500
11
4.000
21
0.900
31
1.500
12
4.000
22
0.900
32
3.000
13
4.000
23
0.900
33
3.000
0
3DFACE
8
3d_top
62
13
10
4.000
20
0.900
30
1.500
11
4.017
21
0.771
31
1.500
12
4.017
22
0.771
32
3.000
13
4.000
23
0.900
33
3.000
0
3DFACE
8
3d_top
62
13
10
4.017
20
0.771
30
1.500
11
4.067
21
0.650
31
1.500
12
4.067
22
0.650
32
3.000
13
4.017
23
0.771
33
3.000
0
3DFACE
8
3d_top
62
13
10
4.067
20
0.650
30
1.500
11
4.146
21
0.546
31
1.500
12
4.146
22
0.546
32
3.000
13
4.067
23
0.650
33
3.000
0
3DFACE
8
3d_top
62
13
10
4.146
20
0.546
30
1.500
11
4.250
21
0.467
31
1.500
12
4.250
22
0.467
32
3.000
13
4.146
23
0.546
33
3.000
0
3DFACE
8
3d_top
62
13
10
4.250
20
0.467
30
1.500
11
4.371
21
0.417
31
1.500
12
4.371
22
0.417
32
3.000
13
4.250
23
0.467
33
3.000
0
3DFACE
8
3d_top
62
13
10
4.371
20
0.417
30
1.500
11
4.500
21
0.400
31
1.500
12
4.500
22
0.400
32
3.000
13
4.371
23
0.417
33
3.000
0
3DFACE
8
3d_top
62
13
10
4.500
20
0.400
30
1.500
11
4.500
21
0.400
31
1.500
12
4.500
22
0.400
32
3.000
13
4.500
23
0.400
33
3.000
0
3DFACE
8
3d_top
62
13
10
4.500
20
0.400
30
1.500
11
4.500
21
0.200
31
1.500
12
4.500
22
0.200
32
3.000
13
4.500
23
0.400
33
3.000
0
3DFACE
8
3d_top
62
13
10
4.500
20
0.200
30
1.500
11
4.371
21
0.183
31
1.500
12
4.371
22
0.183
32
3.000
13
4.500
23
0.200
33
3.000
0
3DFACE
8
3d_top
62
13
10
4.371
20
0.183
30
1.500
11
4.250
21
0.133
31
1.500
12
4.250
22
0.133
32
3.000
13
4.371
23
0.183
33
3.000
0
3DFACE
8
3d_top
62
13
10
4.250
20
0.133
30
1.500
11
4.146
21
0.054
31
1.500
12
4.146
22
0.054
32
3.000
13
4.250
23
0.133
33
3.000
0
3DFACE
8
3d_top
62
13
10
4.146
20
0.054
30
1.500
11
4.067
21
-0.050
31
1.500
12
4.067
22
-0.050
32
3.000
13
4.146
23
0.054
33
3.000
0
3DFACE
8
3d_top
62
13
10
4.067
20
-0.050
30
1.500
11
4.017
21
-0.171
31
1.500
12
4.017
22
-0.171
32
3.000
13
4.067
23
-0.050
33
3.000
0
3DFACE
8
3d_top
62
13
10
4.017
20
-0.171
30
1.500
11
4.000
21
-0.300
31
1.500
12
4.000
22
-0.300
32
3.000
13
4.017
23
-0.171
33
3.000
0
3DFACE
8
3d_top
62
13
10
4.000
20
-0.300
30
1.500
11
4.000
21
-0.300
31
1.500
12
4.000
22
-0.300
32
3.000
13
4.000
23
-0.300
33
3.000
0
3DFACE
8
3d_top
62
13
10
4.000
20
-0.300
30
1.500
11
4.017
21
-0.429
31
1.500
12
4.017
22
-0.429
32
3.000
13
4.000
23
-0.300
33
3.000
0
3DFACE
8
3d_top
62
13
10
4.017
20
-0.429
30
1.500
11
4.067
21
-0.550
31
1.500
12
4.067
22
-0.550
32
3.000
13
4.017
23
-0.429
33
3.000
0
3DFACE
8
3d_top
62
13
10
4.067
20
-0.550
30
1.500
11
4.146
21
-0.654
31
1.500
12
4.146
22
-0.654
32
3.000
13
4.067
23
-0.550
33
3.000
0
3DFACE
8
3d_top
62
13
10
4.146
20
-0.654
30
1.500
11
4.250
21
-0.733
31
1.500
12
4.250
22
-0.733
32
3.000
13
4.146
23
-0.654
33
3.000
0
3DFACE
8
3d_top
62
13
10
4.250
20
-0.733
30
1.500
11
4.371
21
-0.783
31
1.500
12
4.371
22
-0.783
32
3.000
13
4.250
23
-0.733
33
3.000
0
3DFACE
8
3d_top
62
13
10
4.371
20
-0.783
30
1.500
11
4.500
21
-0.800
31
1.500
12
4.500
22
-0.800
32
3.000
13
4.371
23
-0.783
33
3.000
0
3DFACE
8
3d_top
62
13
10
4.500
20
-0.800
30
1.500
11
4.500
21
-0.800
31
1.500
12
4.500
22
-0.800
32
3.000
13
4.500
23
-0.800
33
3.000
0
3DFACE
8
3d_top
62
13
10
4.500
20
-0.800
30
1.500
11
4.500
21
-1.000
31
1.500
12
4.500
22
-1.000
32
3.000
13
4.500
23
-0.800
33
3.000
0
3DFACE
8
3d_top
62
13
10
4.500
20
-1.000
30
1.500
11
4.371
21
-1.017
31
1.500
12
4.371
22
-1.017
32
3.000
13
4.500
23
-1.000
33
3.000
0
3DFACE
8
3d_top
62
13
10
4.371
20
-1.017
30
1.500
11
4.250
21
-1.067
31
1.500
12
4.250
22
-1.067
32
3.000
13
4.371
23
-1.017
33
3.000
0
3DFACE
8
3d_top
62
13
10
4.250
20
-1.067
30
1.500
11
4.146
21
-1.146
31
1.500
12
4.146
22
-1.146
32
3.000
13
4.250
23
-1.067
33
3.000
0
3DFACE
8
3d_top
62
13
10
4.146
20
-1.146
30
1.500
11
4.067
21
-1.250
31
1.500
12
4.067
22
-1.250
32
3.000
13
4.146
23
-1.146
33
3.000
0
3DFACE
8
3d_top
62
13
10
4.067
20
-1.250
30
1.500
11
4.017
21
-1.371
31
1.500
12
4.017
22
-1.371
32
3.000
13
4.067
23
-1.250
33
3.000
0
3DFACE
8
3d_top
62
13
10
4.017
20
-1.371
30
1.500
11
4.000
21
-1.500
31
1.500
12
4.000
22
-1.500
32
3.000
13
4.017
23
-1.371
33
3.000
0
3DFACE
8
3d_top
62
13
10
4.000
20
-1.500
30
1.500
11
4.000
21
-1.500
31
1.500
12
4.000
22
-1.500
32
3.000
13
4.000
23
-1.500
33
3.000
0
3DFACE
8
3d_top
62
13
10
4.000
20
-1.500
30
1.500
11
4.017
21
-1.629
31
1.500
12
4.017
22
-1.629
32
3.000
13
4.000
23
-1.500
33
3.000
0
3DFACE
8
3d_top
62
13
10
4.017
20
-1.629
30
1.500
11
4.067
21
-1.750
31
1.500
12
4.067
22
-1.750
32
3.000
13
4.017
23
-1.629
33
3.000
0
3DFACE
8
3d_top
62
13
10
4.067
20
-1.750
30
1.500
11
4.146
21
-1.854
31
1.500
12
4.146
22
-1.854
32
3.000
13
4.067
23
-1.750
33
3.000
0
3DFACE
8
3d_top
62
13
10
4.146
20
-1.854
30
1.500
11
4.250
21
-1.933
31
1.500
12
4.250
22
-1.933
32
3.000
13
4.146
23
-1.854
33
3.000
0
3DFACE
8
3d_top
62
13
10
4.250
20
-1.933
30
1.500
11
4.371
21
-1.983
31
1.500
12
4.371
22
-1.983
32
3.000
13
4.250
23
-1.933
33
3.000
0
3DFACE
8
3d_top
62
13
10
4.371
20
-1.983
30
1.500
11
4.500
21
-2.000
31
1.500
12
4.500
22
-2.000
32
3.000
13
4.371
23
-1.983
33
3.000
0
3DFACE
8
3d_top
62
13
10
4.500
20
-2.000
30
1.500
11
4.500
21
-2.000
31
1.500
12
4.500
22
-2.000
32
3.000
13
4.500
23
-2.000
33
3.000
0
3DFACE
8
3d_top
62
13
10
4.500
20
-2.000
30
1.500
11
4.500
21
-2.200
31
1.500
12
4.500
22
-2.200
32
3.000
13
4.500
23
-2.000
33
3.000
0
3DFACE
8
3d_top
62
13
10
4.500
20
-2.200
30
1.500
11
4.371
21
-2.217
31
1.500
12
4.371
22
-2.217
32
3.000
13
4.500
23
-2.200
33
3.000
0
3DFACE
8
3d_top
62
13
10
4.371
20
-2.217
30
1.500
11
4.250
21
-2.267
31
1.500
12
4.250
22
-2.267
32
3.000
13
4.371
23
-2.217
33
3.000
0
3DFACE
8
3d_top
62
13
10
4.250
20
-2.267
30
1.500
11
4.146
21
-2.346
31
1.500
12
4.146
22
-2.346
32
3.000
13
4.250
23
-2.267
33
3.000
0
3DFACE
8
3d_top
62
13
10
4.146
20
-2.346
30
1.500
11
4.067
21
-2.450
31
1.500
12
4.067
22
-2.450
32
3.000
13
4.146
23
-2.346
33
3.000
0
3DFACE
8
3d_top
62
13
10
4.067
20
-2.450
30
1.500
11
4.017
21
-2.571
31
1.500
12
4.017
22
-2.571
32
3.000
13
4.067
23
-2.450
33
3.000
0
3DFACE
8
3d_top
62
13
10
4.017
20
-2.571
30
1.500
11
4.000
21
-2.700
31
1.500
12
4.000
22
-2.700
32
3.000
13
4.017
23
-2.571
33
3.000
0
3DFACE
8
3d_top
62
13
10
4.000
20
-2.700
30
1.500
11
4.000
21
-2.700
31
1.500
12
4.000
22
-2.700
32
3.000
13
4.000
23
-2.700
33
3.000
0
3DFACE
8
3d_top
62
13
10
4.000
20
-2.700
30
1.500
11
4.017
21
-2.829
31
1.500
12
4.017
22
-2.829
32
3.000
13
4.000
23
-2.700
33
3.000
0
3DFACE
8
3d_top
62
13
10
4.017
20
-2.829
30
1.500
11
4.067
21
-2.950
31
1.500
12
4.067
22
-2.950
32
3.000
13
4.017
23
-2.829
33
3.000
0
3DFACE
8
3d_top
62
13
10
4.067
20
-2.950
30
1.500
11
4.146
21
-3.054
31
1.500
12
4.146
22
-3.054
32
3.000
13
4.067
23
-2.950
33
3.000
0
3DFACE
8
3d_top
62
13
10
4.146
20
-3.054
30
1.500
11
4.250
21
-3.133
31
1.500
12
4.250
22
-3.133
32
3.000
13
4.146
23
-3.054
33
3.000
0
3DFACE
8
3d_top
62
13
10
4.250
20
-3.133
30
1.500
11
4.371
21
-3.183
31
1.500
12
4.371
22
-3.183
32
3.000
13
4.250
23
-3.133
33
3.000
0
3DFACE
8
3d_top
62
13
10
4.371
20
-3.183
30
1.500
11
4.500
21
-3.200
31
1.500
12
4.500
22
-3.200
32
3.000
13
4.371
23
-3.183
33
3.000
0
3DFACE
8
3d_top
62
13
10
4.500
20
-3.200
30
1.500
11
4.500
21
-3.200
31
1.500
12
4.500
22
-3.200
32
3.000
13
4.500
23
-3.200
33
3.000
0
3DFACE
8
3d_top
62
13
10
4.500
20
-3.200
30
1.500
11
4.500
21
-3.400
31
1.500
12
4.500
22
-3.400
32
3.000
13
4.500
23
-3.200
33
3.000
0
3DFACE
8
3d_top
62
13
10
4.500
20
-3.400
30
1.500
11
4.371
21
-3.417
31
1.500
12
4.371
22
-3.417
32
3.000
13
4.500
23
-3.400
33
3.000
0
3DFACE
8
3d_top
62
13
10
4.371
20
-3.417
30
1.500
11
4.250
21
-3.467
31
1.500
12
4.250
22
-3.467
32
3.000
13
4.371
23
-3.417
33
3.000
0
3DFACE
8
3d_top
62
13
10
4.250
20
-3.467
30
1.500
11
4.146
21
-3.546
31
1.500
12
4.146
22
-3.546
32
3.000
13
4.250
23
-3.467
33
3.000
0
3DFACE
8
3d_top
62
13
10
4.146
20
-3.546
30
1.500
11
4.067
21
-3.650
31
1.500
12
4.067
22
-3.650
32
3.000
13
4.146
23
-3.546
33
3.000
0
3DFACE
8
3d_top
62
13
10
4.067
20
-3.650
30
1.500
11
4.017
21
-3.771
31
1.500
12
4.017
22
-3.771
32
3.000
13
4.067
23
-3.650
33
3.000
0
3DFACE
8
3d_top
62
13
10
4.017
20
-3.771
30
1.500
11
4.000
21
-3.900
31
1.500
12
4.000
22
-3.900
32
3.000
13
4.017
23
-3.771
33
3.000
0
3DFACE
8
3d_top
62
13
10
4.000
20
-3.900
30
1.500
11
4.000
21
-3.900
31
1.500
12
4.000
22
-3.900
32
3.000
13
4.000
23
-3.900
33
3.000
0
3DFACE
8
3d_top
62
13
10
4.000
20
-3.900
30
1.500
11
4.017
21
-4.029
31
1.500
12
4.017
22
-4.029
32
3.000
13
4.000
23
-3.900
33
3.000
0
3DFACE
8
3d_top
62
13
10
4.017
20
-4.029
30
1.500
11
4.067
21
-4.150
31
1.500
12
4.067
22
-4.150
32
3.000
13
4.017
23
-4.029
33
3.000
0
3DFACE
8
3d_top
62
13
10
4.067
20
-4.150
30
1.500
11
4.146
21
-4.254
31
1.500
12
4.146
22
-4.254
32
3.000
13
4.067
23
-4.150
33
3.000
0
3DFACE
8
3d_top
62
13
10
4.146
20
-4.254
30
1.500
11
4.250
21
-4.333
31
1.500
12
4.250
22
-4.333
32
3.000
13
4.146
23
-4.254
33
3.000
0
3DFACE
8
3d_top
62
13
10
4.250
20
-4.333
30
1.500
11
4.371
21
-4.383
31
1.500
12
4.371
22
-4.383
32
3.000
13
4.250
23
-4.333
33
3.000
0
3DFACE
8
3d_top
62
13
10
4.371
20
-4.383
30
1.500
11
4.500
21
-4.400
31
1.500
12
4.500
22
-4.400
32
3.000
13
4.371
23
-4.383
33
3.000
0
3DFACE
8
3d_top
62
13
10
4.500
20
-4.400
30
1.500
11
4.500
21
-4.400
31
1.500
12
4.500
22
-4.400
32
3.000
13
4.500
23
-4.400
33
3.000
0
ENDBLK
0
BLOCK
2
QFPN32_top
10
0
20
0
30
0
0
3DFACE
8
3d_top
62
26
10
2.500
20
-2.500
30
1.500
11
-2.500
21
-2.500
31
1.500
12
-2.500
22
2.500
32
1.500
13
2.500
23
2.500
33
1.500
0
3DFACE
8
3d_top
62
26
10
2.500
20
-2.500
30
2.500
11
-2.500
21
-2.500
31
2.500
12
-2.500
22
2.500
32
2.500
13
2.500
23
2.500
33
2.500
0
3DFACE
8
3d_top
62
26
10
2.500
20
-2.500
30
1.500
11
-2.500
21
-2.500
31
1.500
12
-2.500
22
-2.500
32
2.500
13
2.500
23
-2.500
33
2.500
0
3DFACE
8
3d_top
62
26
10
2.500
20
2.500
30
1.500
11
-2.500
21
2.500
31
1.500
12
-2.500
22
2.500
32
2.500
13
2.500
23
2.500
33
2.500
0
3DFACE
8
3d_top
62
26
10
-2.500
20
-2.500
30
1.500
11
-2.500
21
2.500
31
1.500
12
-2.500
22
2.500
32
2.500
13
-2.500
23
-2.500
33
2.500
0
3DFACE
8
3d_top
62
26
10
2.500
20
-2.500
30
1.500
11
2.500
21
2.500
31
1.500
12
2.500
22
2.500
32
2.500
13
2.500
23
-2.500
33
2.500
0
ENDBLK
0
BLOCK
2
LIS202_top
10
0
20
0
30
0
0
3DFACE
8
3d_top
62
27
10
2.500
20
-1.350
30
1.500
11
-2.500
21
-1.350
31
1.500
12
-2.500
22
1.650
32
1.500
13
2.500
23
1.650
33
1.500
0
3DFACE
8
3d_top
62
27
10
2.500
20
-1.350
30
3.100
11
-2.500
21
-1.350
31
3.100
12
-2.500
22
1.650
32
3.100
13
2.500
23
1.650
33
3.100
0
3DFACE
8
3d_top
62
27
10
2.500
20
-1.350
30
1.500
11
-2.500
21
-1.350
31
1.500
12
-2.500
22
-1.350
32
3.100
13
2.500
23
-1.350
33
3.100
0
3DFACE
8
3d_top
62
27
10
2.500
20
1.650
30
1.500
11
-2.500
21
1.650
31
1.500
12
-2.500
22
1.650
32
3.100
13
2.500
23
1.650
33
3.100
0
3DFACE
8
3d_top
62
27
10
-2.500
20
-1.350
30
1.500
11
-2.500
21
1.650
31
1.500
12
-2.500
22
1.650
32
3.100
13
-2.500
23
-1.350
33
3.100
0
3DFACE
8
3d_top
62
27
10
2.500
20
-1.350
30
1.500
11
2.500
21
1.650
31
1.500
12
2.500
22
1.650
32
3.100
13
2.500
23
-1.350
33
3.100
0
ENDBLK
0
BLOCK
2
L1154RY_bot
10
0
20
0
30
0
0
3DFACE
8
3d_bottom
62
28
10
-1.392
20
0.571
30
-11.000
11
-1.504
21
-0.008
31
-11.000
12
-1.310
22
-0.046
32
-12.000
13
-1.198
23
0.533
33
-12.000
0
3DFACE
8
3d_bottom
62
28
10
-1.198
20
0.533
30
-12.000
11
-1.310
21
-0.046
31
-12.000
12
-0.780
22
-0.149
32
-12.732
13
-0.668
23
0.430
33
-12.732
0
3DFACE
8
3d_bottom
62
28
10
-0.668
20
0.430
30
-12.732
11
-0.780
21
-0.149
31
-12.732
12
-0.056
22
-0.290
32
-13.000
13
0.056
23
0.290
33
-13.000
0
3DFACE
8
3d_bottom
62
28
10
1.392
20
-0.571
30
-11.000
11
1.504
21
0.008
31
-11.000
12
1.310
22
0.046
32
-12.000
13
1.198
23
-0.533
33
-12.000
0
3DFACE
8
3d_bottom
62
28
10
1.198
20
-0.533
30
-12.000
11
1.310
21
0.046
31
-12.000
12
0.780
22
0.149
32
-12.732
13
0.668
23
-0.430
33
-12.732
0
3DFACE
8
3d_bottom
62
28
10
0.668
20
-0.430
30
-12.732
11
0.780
21
0.149
31
-12.732
12
0.056
22
0.290
32
-13.000
13
-0.056
23
-0.290
33
-13.000
0
3DFACE
8
3d_bottom
62
28
10
1.190
20
0.920
30
-11.000
11
0.745
21
1.307
31
-11.000
12
0.615
22
1.158
32
-12.000
13
1.061
23
0.771
33
-12.000
0
3DFACE
8
3d_bottom
62
28
10
1.061
20
0.771
30
-12.000
11
0.615
21
1.158
31
-12.000
12
0.261
22
0.750
32
-12.732
13
0.706
23
0.363
33
-12.732
0
3DFACE
8
3d_bottom
62
28
10
0.706
20
0.363
30
-12.732
11
0.261
21
0.750
31
-12.732
12
-0.223
22
0.194
32
-13.000
13
0.223
23
-0.194
33
-13.000
0
3DFACE
8
3d_bottom
62
28
10
-1.190
20
-0.920
30
-11.000
11
-0.745
21
-1.307
31
-11.000
12
-0.615
22
-1.158
32
-12.000
13
-1.061
23
-0.771
33
-12.000
0
3DFACE
8
3d_bottom
62
28
10
-1.061
20
-0.771
30
-12.000
11
-0.615
21
-1.158
31
-12.000
12
-0.261
22
-0.750
32
-12.732
13
-0.706
23
-0.363
33
-12.732
0
3DFACE
8
3d_bottom
62
28
10
-0.706
20
-0.363
30
-12.732
11
-0.261
21
-0.750
31
-12.732
12
0.223
22
-0.194
32
-13.000
13
-0.223
23
0.194
33
-13.000
0
3DFACE
8
3d_bottom
62
28
10
1.491
20
0.201
30
-11.000
11
1.299
21
0.759
31
-11.000
12
1.112
22
0.695
32
-12.000
13
1.304
23
0.137
33
-12.000
0
3DFACE
8
3d_bottom
62
28
10
1.304
20
0.137
30
-12.000
11
1.112
21
0.695
31
-12.000
12
0.601
22
0.519
32
-12.732
13
0.793
23
-0.039
33
-12.732
0
3DFACE
8
3d_bottom
62
28
10
0.793
20
-0.039
30
-12.732
11
0.601
21
0.519
31
-12.732
12
-0.096
22
0.279
32
-13.000
13
0.096
23
-0.279
33
-13.000
0
3DFACE
8
3d_bottom
62
28
10
-1.491
20
-0.201
30
-11.000
11
-1.299
21
-0.759
31
-11.000
12
-1.112
22
-0.695
32
-12.000
13
-1.304
23
-0.137
33
-12.000
0
3DFACE
8
3d_bottom
62
28
10
-1.304
20
-0.137
30
-12.000
11
-1.112
21
-0.695
31
-12.000
12
-0.601
22
-0.519
32
-12.732
13
-0.793
23
0.039
33
-12.732
0
3DFACE
8
3d_bottom
62
28
10
-0.793
20
0.039
30
-12.732
11
-0.601
21
-0.519
31
-12.732
12
0.096
22
-0.279
32
-13.000
13
-0.096
23
0.279
33
-13.000
0
3DFACE
8
3d_bottom
62
28
10
-0.920
20
1.190
30
-11.000
11
-1.307
21
0.745
31
-11.000
12
-1.158
22
0.615
32
-12.000
13
-0.771
23
1.061
33
-12.000
0
3DFACE
8
3d_bottom
62
28
10
-0.771
20
1.061
30
-12.000
11
-1.158
21
0.615
31
-12.000
12
-0.750
22
0.261
32
-12.732
13
-0.363
23
0.706
33
-12.732
0
3DFACE
8
3d_bottom
62
28
10
-0.363
20
0.706
30
-12.732
11
-0.750
21
0.261
31
-12.732
12
-0.194
22
-0.223
32
-13.000
13
0.194
23
0.223
33
-13.000
0
3DFACE
8
3d_bottom
62
28
10
0.920
20
-1.190
30
-11.000
11
1.307
21
-0.745
31
-11.000
12
1.158
22
-0.615
32
-12.000
13
0.771
23
-1.061
33
-12.000
0
3DFACE
8
3d_bottom
62
28
10
0.771
20
-1.061
30
-12.000
11
1.158
21
-0.615
31
-12.000
12
0.750
22
-0.261
32
-12.732
13
0.363
23
-0.706
33
-12.732
0
3DFACE
8
3d_bottom
62
28
10
0.363
20
-0.706
30
-12.732
11
0.750
21
-0.261
31
-12.732
12
0.194
22
0.223
32
-13.000
13
-0.194
23
-0.223
33
-13.000
0
3DFACE
8
3d_bottom
62
28
10
-0.201
20
1.491
30
-11.000
11
-0.759
21
1.299
31
-11.000
12
-0.695
22
1.112
32
-12.000
13
-0.137
23
1.304
33
-12.000
0
3DFACE
8
3d_bottom
62
28
10
-0.137
20
1.304
30
-12.000
11
-0.695
21
1.112
31
-12.000
12
-0.519
22
0.601
32
-12.732
13
0.039
23
0.793
33
-12.732
0
3DFACE
8
3d_bottom
62
28
10
0.039
20
0.793
30
-12.732
11
-0.519
21
0.601
31
-12.732
12
-0.279
22
-0.096
32
-13.000
13
0.279
23
0.096
33
-13.000
0
3DFACE
8
3d_bottom
62
28
10
0.201
20
-1.491
30
-11.000
11
0.759
21
-1.299
31
-11.000
12
0.695
22
-1.112
32
-12.000
13
0.137
23
-1.304
33
-12.000
0
3DFACE
8
3d_bottom
62
28
10
0.137
20
-1.304
30
-12.000
11
0.695
21
-1.112
31
-12.000
12
0.519
22
-0.601
32
-12.732
13
-0.039
23
-0.793
33
-12.732
0
3DFACE
8
3d_bottom
62
28
10
-0.039
20
-0.793
30
-12.732
11
0.519
21
-0.601
31
-12.732
12
0.279
22
0.096
32
-13.000
13
-0.279
23
-0.096
33
-13.000
0
3DFACE
8
3d_bottom
62
28
10
0.571
20
1.392
30
-11.000
11
-0.008
21
1.504
31
-11.000
12
-0.046
22
1.310
32
-12.000
13
0.533
23
1.198
33
-12.000
0
3DFACE
8
3d_bottom
62
28
10
0.533
20
1.198
30
-12.000
11
-0.046
21
1.310
31
-12.000
12
-0.149
22
0.780
32
-12.732
13
0.430
23
0.668
33
-12.732
0
3DFACE
8
3d_bottom
62
28
10
0.430
20
0.668
30
-12.732
11
-0.149
21
0.780
31
-12.732
12
-0.290
22
0.056
32
-13.000
13
0.290
23
-0.056
33
-13.000
0
3DFACE
8
3d_bottom
62
28
10
-0.571
20
-1.392
30
-11.000
11
0.008
21
-1.504
31
-11.000
12
0.046
22
-1.310
32
-12.000
13
-0.533
23
-1.198
33
-12.000
0
3DFACE
8
3d_bottom
62
28
10
-0.533
20
-1.198
30
-12.000
11
0.046
21
-1.310
31
-12.000
12
0.149
22
-0.780
32
-12.732
13
-0.430
23
-0.668
33
-12.732
0
3DFACE
8
3d_bottom
62
28
10
-0.430
20
-0.668
30
-12.732
11
0.149
21
-0.780
31
-12.732
12
0.290
22
-0.056
32
-13.000
13
-0.290
23
0.056
33
-13.000
0
3DFACE
8
3d_bottom
62
29
10
-1.500
20
0.000
30
-7.950
11
-1.386
21
0.574
31
-7.950
12
-1.386
22
0.574
32
-11.000
13
-1.500
23
0.000
33
-11.000
0
3DFACE
8
3d_bottom
62
29
10
-1.386
20
0.574
30
-7.950
11
-1.061
21
1.061
31
-7.950
12
-1.061
22
1.061
32
-11.000
13
-1.386
23
0.574
33
-11.000
0
3DFACE
8
3d_bottom
62
29
10
-1.500
20
0.000
30
-7.950
11
0.000
21
0.000
31
-7.950
12
-1.061
22
1.061
32
-7.950
13
-1.386
23
0.574
33
-7.950
0
3DFACE
8
3d_bottom
62
29
10
-1.500
20
0.000
30
-11.000
11
0.000
21
0.000
31
-11.000
12
-1.061
22
1.061
32
-11.000
13
-1.386
23
0.574
33
-11.000
0
3DFACE
8
3d_bottom
62
29
10
-1.061
20
1.061
30
-7.950
11
-0.574
21
1.386
31
-7.950
12
-0.574
22
1.386
32
-11.000
13
-1.061
23
1.061
33
-11.000
0
3DFACE
8
3d_bottom
62
29
10
-0.574
20
1.386
30
-7.950
11
0.000
21
1.500
31
-7.950
12
0.000
22
1.500
32
-11.000
13
-0.574
23
1.386
33
-11.000
0
3DFACE
8
3d_bottom
62
29
10
-1.061
20
1.061
30
-7.950
11
0.000
21
0.000
31
-7.950
12
0.000
22
1.500
32
-7.950
13
-0.574
23
1.386
33
-7.950
0
3DFACE
8
3d_bottom
62
29
10
-1.061
20
1.061
30
-11.000
11
0.000
21
0.000
31
-11.000
12
0.000
22
1.500
32
-11.000
13
-0.574
23
1.386
33
-11.000
0
3DFACE
8
3d_bottom
62
29
10
0.000
20
1.500
30
-7.950
11
0.574
21
1.386
31
-7.950
12
0.574
22
1.386
32
-11.000
13
0.000
23
1.500
33
-11.000
0
3DFACE
8
3d_bottom
62
29
10
0.574
20
1.386
30
-7.950
11
1.061
21
1.061
31
-7.950
12
1.061
22
1.061
32
-11.000
13
0.574
23
1.386
33
-11.000
0
3DFACE
8
3d_bottom
62
29
10
0.000
20
1.500
30
-7.950
11
0.000
21
0.000
31
-7.950
12
1.061
22
1.061
32
-7.950
13
0.574
23
1.386
33
-7.950
0
3DFACE
8
3d_bottom
62
29
10
0.000
20
1.500
30
-11.000
11
0.000
21
0.000
31
-11.000
12
1.061
22
1.061
32
-11.000
13
0.574
23
1.386
33
-11.000
0
3DFACE
8
3d_bottom
62
29
10
1.061
20
1.061
30
-7.950
11
1.386
21
0.574
31
-7.950
12
1.386
22
0.574
32
-11.000
13
1.061
23
1.061
33
-11.000
0
3DFACE
8
3d_bottom
62
29
10
1.386
20
0.574
30
-7.950
11
1.500
21
0.000
31
-7.950
12
1.500
22
0.000
32
-11.000
13
1.386
23
0.574
33
-11.000
0
3DFACE
8
3d_bottom
62
29
10
1.061
20
1.061
30
-7.950
11
0.000
21
0.000
31
-7.950
12
1.500
22
0.000
32
-7.950
13
1.386
23
0.574
33
-7.950
0
3DFACE
8
3d_bottom
62
29
10
1.061
20
1.061
30
-11.000
11
0.000
21
0.000
31
-11.000
12
1.500
22
0.000
32
-11.000
13
1.386
23
0.574
33
-11.000
0
3DFACE
8
3d_bottom
62
29
10
1.500
20
0.000
30
-7.950
11
1.386
21
-0.574
31
-7.950
12
1.386
22
-0.574
32
-11.000
13
1.500
23
0.000
33
-11.000
0
3DFACE
8
3d_bottom
62
29
10
1.386
20
-0.574
30
-7.950
11
1.061
21
-1.061
31
-7.950
12
1.061
22
-1.061
32
-11.000
13
1.386
23
-0.574
33
-11.000
0
3DFACE
8
3d_bottom
62
29
10
1.500
20
0.000
30
-7.950
11
0.000
21
0.000
31
-7.950
12
1.061
22
-1.061
32
-7.950
13
1.386
23
-0.574
33
-7.950
0
3DFACE
8
3d_bottom
62
29
10
1.500
20
0.000
30
-11.000
11
0.000
21
0.000
31
-11.000
12
1.061
22
-1.061
32
-11.000
13
1.386
23
-0.574
33
-11.000
0
3DFACE
8
3d_bottom
62
29
10
1.061
20
-1.061
30
-7.950
11
0.574
21
-1.386
31
-7.950
12
0.574
22
-1.386
32
-11.000
13
1.061
23
-1.061
33
-11.000
0
3DFACE
8
3d_bottom
62
29
10
0.574
20
-1.386
30
-7.950
11
0.000
21
-1.500
31
-7.950
12
0.000
22
-1.500
32
-11.000
13
0.574
23
-1.386
33
-11.000
0
3DFACE
8
3d_bottom
62
29
10
1.061
20
-1.061
30
-7.950
11
0.000
21
0.000
31
-7.950
12
0.000
22
-1.500
32
-7.950
13
0.574
23
-1.386
33
-7.950
0
3DFACE
8
3d_bottom
62
29
10
1.061
20
-1.061
30
-11.000
11
0.000
21
0.000
31
-11.000
12
0.000
22
-1.500
32
-11.000
13
0.574
23
-1.386
33
-11.000
0
3DFACE
8
3d_bottom
62
29
10
0.000
20
-1.500
30
-7.950
11
-0.574
21
-1.386
31
-7.950
12
-0.574
22
-1.386
32
-11.000
13
0.000
23
-1.500
33
-11.000
0
3DFACE
8
3d_bottom
62
29
10
-0.574
20
-1.386
30
-7.950
11
-1.061
21
-1.061
31
-7.950
12
-1.061
22
-1.061
32
-11.000
13
-0.574
23
-1.386
33
-11.000
0
3DFACE
8
3d_bottom
62
29
10
0.000
20
-1.500
30
-7.950
11
0.000
21
0.000
31
-7.950
12
-1.061
22
-1.061
32
-7.950
13
-0.574
23
-1.386
33
-7.950
0
3DFACE
8
3d_bottom
62
29
10
0.000
20
-1.500
30
-11.000
11
0.000
21
0.000
31
-11.000
12
-1.061
22
-1.061
32
-11.000
13
-0.574
23
-1.386
33
-11.000
0
3DFACE
8
3d_bottom
62
29
10
-1.061
20
-1.061
30
-7.950
11
-1.386
21
-0.574
31
-7.950
12
-1.386
22
-0.574
32
-11.000
13
-1.061
23
-1.061
33
-11.000
0
3DFACE
8
3d_bottom
62
29
10
-1.386
20
-0.574
30
-7.950
11
-1.500
21
0.000
31
-7.950
12
-1.500
22
0.000
32
-11.000
13
-1.386
23
-0.574
33
-11.000
0
3DFACE
8
3d_bottom
62
29
10
-1.061
20
-1.061
30
-7.950
11
0.000
21
0.000
31
-7.950
12
-1.500
22
0.000
32
-7.950
13
-1.386
23
-0.574
33
-7.950
0
3DFACE
8
3d_bottom
62
29
10
-1.061
20
-1.061
30
-11.000
11
0.000
21
0.000
31
-11.000
12
-1.500
22
0.000
32
-11.000
13
-1.386
23
-0.574
33
-11.000
0
3DFACE
8
3d_bottom
62
29
10
2.278
20
-0.175
30
2.030
11
2.622
21
-0.175
31
1.970
12
2.622
22
0.175
32
1.970
13
2.278
23
0.175
33
2.030
0
3DFACE
8
3d_bottom
62
29
10
0.515
20
-0.175
30
-7.965
11
0.860
21
-0.175
31
-8.026
12
0.860
22
0.175
32
-8.026
13
0.515
23
0.175
33
-7.965
0
3DFACE
8
3d_bottom
62
29
10
2.278
20
-0.175
30
2.030
11
2.622
21
-0.175
31
1.970
12
0.860
22
-0.175
32
-8.026
13
0.515
23
-0.175
33
-7.965
0
3DFACE
8
3d_bottom
62
29
10
2.278
20
0.175
30
2.030
11
2.622
21
0.175
31
1.970
12
0.860
22
0.175
32
-8.026
13
0.515
23
0.175
33
-7.965
0
3DFACE
8
3d_bottom
62
29
10
2.622
20
-0.175
30
1.970
11
2.622
21
0.175
31
1.970
12
0.860
22
0.175
32
-8.026
13
0.860
23
-0.175
33
-8.026
0
3DFACE
8
3d_bottom
62
29
10
2.278
20
-0.175
30
2.030
11
2.278
21
0.175
31
2.030
12
0.515
22
0.175
32
-7.965
13
0.515
23
-0.175
33
-7.965
0
3DFACE
8
3d_bottom
62
29
10
-2.672
20
-0.175
30
1.970
11
-2.328
21
-0.175
31
2.030
12
-2.328
22
0.175
32
2.030
13
-2.672
23
0.175
33
1.970
0
3DFACE
8
3d_bottom
62
29
10
-0.910
20
-0.175
30
-8.026
11
-0.565
21
-0.175
31
-7.965
12
-0.565
22
0.175
32
-7.965
13
-0.910
23
0.175
33
-8.026
0
3DFACE
8
3d_bottom
62
29
10
-2.672
20
-0.175
30
1.970
11
-2.328
21
-0.175
31
2.030
12
-0.565
22
-0.175
32
-7.965
13
-0.910
23
-0.175
33
-8.026
0
3DFACE
8
3d_bottom
62
29
10
-2.672
20
0.175
30
1.970
11
-2.328
21
0.175
31
2.030
12
-0.565
22
0.175
32
-7.965
13
-0.910
23
0.175
33
-8.026
0
3DFACE
8
3d_bottom
62
29
10
-2.328
20
-0.175
30
2.030
11
-2.328
21
0.175
31
2.030
12
-0.565
22
0.175
32
-7.965
13
-0.565
23
-0.175
33
-7.965
0
3DFACE
8
3d_bottom
62
29
10
-2.672
20
-0.175
30
1.970
11
-2.672
21
0.175
31
1.970
12
-0.910
22
0.175
32
-8.026
13
-0.910
23
-0.175
33
-8.026
0
3DFACE
8
3d_bottom
62
29
10
-0.175
20
-0.175
30
2.000
11
0.175
21
-0.175
31
2.000
12
0.175
22
0.175
32
2.000
13
-0.175
23
0.175
33
2.000
0
3DFACE
8
3d_bottom
62
29
10
-0.175
20
-0.175
30
-8.000
11
0.175
21
-0.175
31
-8.000
12
0.175
22
0.175
32
-8.000
13
-0.175
23
0.175
33
-8.000
0
3DFACE
8
3d_bottom
62
29
10
-0.175
20
-0.175
30
2.000
11
0.175
21
-0.175
31
2.000
12
0.175
22
-0.175
32
-8.000
13
-0.175
23
-0.175
33
-8.000
0
3DFACE
8
3d_bottom
62
29
10
-0.175
20
0.175
30
2.000
11
0.175
21
0.175
31
2.000
12
0.175
22
0.175
32
-8.000
13
-0.175
23
0.175
33
-8.000
0
3DFACE
8
3d_bottom
62
29
10
0.175
20
-0.175
30
2.000
11
0.175
21
0.175
31
2.000
12
0.175
22
0.175
32
-8.000
13
0.175
23
-0.175
33
-8.000
0
3DFACE
8
3d_bottom
62
29
10
-0.175
20
-0.175
30
2.000
11
-0.175
21
0.175
31
2.000
12
-0.175
22
0.175
32
-8.000
13
-0.175
23
-0.175
33
-8.000
0
ENDBLK
0
BLOCK
2
P1_top
10
0
20
0
30
0
0
ENDBLK
0
BLOCK
2
RC0805_top
10
0
20
0
30
0
0
3DFACE
8
3d_top
62
31
10
1.100
20
-0.600
30
1.500
11
-1.100
21
-0.600
31
1.500
12
-1.100
22
0.600
32
1.500
13
1.100
23
0.600
33
1.500
0
3DFACE
8
3d_top
62
31
10
1.100
20
-0.600
30
2.000
11
-1.100
21
-0.600
31
2.000
12
-1.100
22
0.600
32
2.000
13
1.100
23
0.600
33
2.000
0
3DFACE
8
3d_top
62
31
10
1.100
20
-0.600
30
1.500
11
-1.100
21
-0.600
31
1.500
12
-1.100
22
-0.600
32
2.000
13
1.100
23
-0.600
33
2.000
0
3DFACE
8
3d_top
62
31
10
1.100
20
0.600
30
1.500
11
-1.100
21
0.600
31
1.500
12
-1.100
22
0.600
32
2.000
13
1.100
23
0.600
33
2.000
0
3DFACE
8
3d_top
62
31
10
-1.100
20
-0.600
30
1.500
11
-1.100
21
0.600
31
1.500
12
-1.100
22
0.600
32
2.000
13
-1.100
23
-0.600
33
2.000
0
3DFACE
8
3d_top
62
31
10
1.100
20
-0.600
30
1.500
11
1.100
21
0.600
31
1.500
12
1.100
22
0.600
32
2.000
13
1.100
23
-0.600
33
2.000
0
ENDBLK
0
BLOCK
2
SIP4_top
10
0
20
0
30
0
0
3DFACE
8
3d_top
62
32
10
2.000
20
-0.500
30
5.000
11
2.000
21
0.500
31
5.000
12
3.000
22
0.500
32
4.598
13
3.000
23
-0.500
33
4.598
0
3DFACE
8
3d_top
62
32
10
3.000
20
-0.500
30
4.598
11
3.000
21
0.500
31
4.598
12
3.732
22
0.500
32
3.500
13
3.732
23
-0.500
33
3.500
0
3DFACE
8
3d_top
62
32
10
3.732
20
-0.500
30
3.500
11
3.732
21
0.500
31
3.500
12
4.000
22
0.500
32
2.000
13
4.000
23
-0.500
33
2.000
0
3DFACE
8
3d_top
62
32
10
4.000
20
-0.500
30
2.000
11
4.000
21
-0.500
31
-1.000
12
4.000
22
0.500
32
-1.000
13
4.000
23
0.500
33
2.000
0
3DFACE
8
3d_top
62
32
10
2.000
20
0.500
30
5.000
11
2.000
21
-0.500
31
5.000
12
1.000
22
-0.500
32
4.598
13
1.000
23
0.500
33
4.598
0
3DFACE
8
3d_top
62
32
10
1.000
20
0.500
30
4.598
11
1.000
21
-0.500
31
4.598
12
0.268
22
-0.500
32
3.500
13
0.268
23
0.500
33
3.500
0
3DFACE
8
3d_top
62
32
10
0.268
20
0.500
30
3.500
11
0.268
21
-0.500
31
3.500
12
0.000
22
-0.500
32
2.000
13
0.000
23
0.500
33
2.000
0
3DFACE
8
3d_top
62
32
10
0.000
20
0.500
30
2.000
11
0.000
21
0.500
31
-1.000
12
0.000
22
-0.500
32
-1.000
13
0.000
23
-0.500
33
2.000
0
ENDBLK
0
BLOCK
2
HOLE2.0_top
10
0
20
0
30
0
0
BLOCK
2
SOT23_top
10
0
20
0
30
0
0
3DFACE
8
3d_top
62
21
10
-0.375
20
0.403
30
1.543
11
0.375
21
0.403
31
1.543
12
0.375
22
0.216
32
1.585
13
-0.375
23
0.216
33
1.585
0
3DFACE
8
3d_top
62
21
10
-0.375
20
0.216
30
1.585
11
0.375
21
0.216
31
1.585
12
0.375
22
0.114
32
1.746
13
-0.375
23
0.114
33
1.746
0
3DFACE
8
3d_top
62
21
10
-0.375
20
0.114
30
1.746
11
0.375
21
0.114
31
1.746
12
0.375
22
0.027
32
2.239
13
-0.375
23
0.027
33
2.239
0
3DFACE
8
3d_top
62
21
10
-0.375
20
-0.263
30
2.441
11
0.375
21
-0.263
31
2.441
12
0.375
22
-0.076
32
2.400
13
-0.375
23
-0.076
33
2.400
0
3DFACE
8
3d_top
62
21
10
-0.375
20
-0.076
30
2.400
11
0.375
21
-0.076
31
2.400
12
0.375
22
0.027
32
2.239
13
-0.375
23
0.027
33
2.239
0
3DFACE
8
3d_top
62
21
10
1.375
20
-2.739
30
1.543
11
0.625
21
-2.739
31
1.543
12
0.625
22
-2.552
32
1.585
13
1.375
23
-2.552
33
1.585
0
3DFACE
8
3d_top
62
21
10
1.375
20
-2.552
30
1.585
11
0.625
21
-2.552
31
1.585
12
0.625
22
-2.450
32
1.746
13
1.375
23
-2.450
33
1.746
0
3DFACE
8
3d_top
62
21
10
1.375
20
-2.450
30
1.746
11
0.625
21
-2.450
31
1.746
12
0.625
22
-2.363
32
2.239
13
1.375
23
-2.363
33
2.239
0
3DFACE
8
3d_top
62
21
10
1.375
20
-2.073
30
2.441
11
0.625
21
-2.073
31
2.441
12
0.625
22
-2.260
32
2.400
13
1.375
23
-2.260
33
2.400
0
3DFACE
8
3d_top
62
21
10
1.375
20
-2.260
30
2.400
11
0.625
21
-2.260
31
2.400
12
0.625
22
-2.363
32
2.239
13
1.375
23
-2.363
33
2.239
0
3DFACE
8
3d_top
62
21
10
-0.625
20
-2.739
30
1.543
11
-1.375
21
-2.739
31
1.543
12
-1.375
22
-2.552
32
1.585
13
-0.625
23
-2.552
33
1.585
0
3DFACE
8
3d_top
62
21
10
-0.625
20
-2.552
30
1.585
11
-1.375
21
-2.552
31
1.585
12
-1.375
22
-2.450
32
1.746
13
-0.625
23
-2.450
33
1.746
0
3DFACE
8
3d_top
62
21
10
-0.625
20
-2.450
30
1.746
11
-1.375
21
-2.450
31
1.746
12
-1.375
22
-2.363
32
2.239
13
-0.625
23
-2.363
33
2.239
0
3DFACE
8
3d_top
62
21
10
-0.625
20
-2.073
30
2.441
11
-1.375
21
-2.073
31
2.441
12
-1.375
22
-2.260
32
2.400
13
-0.625
23
-2.260
33
2.400
0
3DFACE
8
3d_top
62
21
10
-0.625
20
-2.260
30
2.400
11
-1.375
21
-2.260
31
2.400
12
-1.375
22
-2.363
32
2.239
13
-0.625
23
-2.363
33
2.239
0
3DFACE
8
3d_top
62
21
10
1.550
20
-2.073
30
1.500
11
-1.550
21
-2.073
31
1.500
12
-1.550
22
-0.273
32
1.500
13
1.550
23
-0.273
33
1.500
0
3DFACE
8
3d_top
62
21
10
1.550
20
-2.073
30
2.950
11
-1.550
21
-2.073
31
2.950
12
-1.550
22
-0.273
32
2.950
13
1.550
23
-0.273
33
2.950
0
3DFACE
8
3d_top
62
21
10
1.550
20
-2.073
30
1.500
11
-1.550
21
-2.073
31
1.500
12
-1.550
22
-2.073
32
2.950
13
1.550
23
-2.073
33
2.950
0
3DFACE
8
3d_top
62
21
10
1.550
20
-0.273
30
1.500
11
-1.550
21
-0.273
31
1.500
12
-1.550
22
-0.273
32
2.950
13
1.550
23
-0.273
33
2.950
0
3DFACE
8
3d_top
62
21
10
-1.550
20
-2.073
30
1.500
11
-1.550
21
-0.273
31
1.500
12
-1.550
22
-0.273
32
2.950
13
-1.550
23
-2.073
33
2.950
0
3DFACE
8
3d_top
62
21
10
1.550
20
-2.073
30
1.500
11
1.550
21
-0.273
31
1.500
12
1.550
22
-0.273
32
2.950
13
1.550
23
-2.073
33
2.950
0
ENDBLK
0
BLOCK
2
4DIP79_top
10
0
20
0
30
0
0
3DFACE
8
3d_top
62
22
10
3.500
20
-1.000
30
7.500
11
-1.500
21
-1.000
31
7.500
12
-1.500
22
3.000
32
7.500
13
3.500
23
3.000
33
7.500
0
3DFACE
8
3d_top
62
22
10
3.500
20
-1.000
30
8.500
11
-1.500
21
-1.000
31
8.500
12
-1.500
22
3.000
32
8.500
13
3.500
23
3.000
33
8.500
0
3DFACE
8
3d_top
62
22
10
3.500
20
-1.000
30
7.500
11
-1.500
21
-1.000
31
7.500
12
-1.500
22
-1.000
32
8.500
13
3.500
23
-1.000
33
8.500
0
3DFACE
8
3d_top
62
22
10
3.500
20
3.000
30
7.500
11
-1.500
21
3.000
31
7.500
12
-1.500
22
3.000
32
8.500
13
3.500
23
3.000
33
8.500
0
3DFACE
8
3d_top
62
22
10
-1.500
20
-1.000
30
7.500
11
-1.500
21
3.000
31
7.500
12
-1.500
22
3.000
32
8.500
13
-1.500
23
-1.000
33
8.500
0
3DFACE
8
3d_top
62
22
10
3.500
20
-1.000
30
7.500
11
3.500
21
3.000
31
7.500
12
3.500
22
3.000
32
8.500
13
3.500
23
-1.000
33
8.500
0
3DFACE
8
3d_top
62
22
10
4.000
20
-1.250
30
1.500
11
-2.000
21
-1.250
31
1.500
12
-2.000
22
3.250
32
1.500
13
4.000
23
3.250
33
1.500
0
3DFACE
8
3d_top
62
22
10
4.000
20
-1.250
30
7.500
11
-2.000
21
-1.250
31
7.500
12
-2.000
22
3.250
32
7.500
13
4.000
23
3.250
33
7.500
0
3DFACE
8
3d_top
62
22
10
4.000
20
-1.250
30
1.500
11
-2.000
21
-1.250
31
1.500
12
-2.000
22
-1.250
32
7.500
13
4.000
23
-1.250
33
7.500
0
3DFACE
8
3d_top
62
22
10
4.000
20
3.250
30
1.500
11
-2.000
21
3.250
31
1.500
12
-2.000
22
3.250
32
7.500
13
4.000
23
3.250
33
7.500
0
3DFACE
8
3d_top
62
22
10
-2.000
20
-1.250
30
1.500
11
-2.000
21
3.250
31
1.500
12
-2.000
22
3.250
32
7.500
13
-2.000
23
-1.250
33
7.500
0
3DFACE
8
3d_top
62
22
10
4.000
20
-1.250
30
1.500
11
4.000
21
3.250
31
1.500
12
4.000
22
3.250
32
7.500
13
4.000
23
-1.250
33
7.500
0
ENDBLK
0
BLOCK
2
7SIP50PROG_bot
10
0
20
0
30
0
0
ENDBLK
0
BLOCK
2
6DIP79B_top
10
0
20
0
30
0
0
3DFACE
8
3d_top
62
24
10
5.333
20
-2.000
30
7.500
11
-1.333
21
-2.000
31
7.500
12
-1.333
22
2.000
32
7.500
13
5.333
23
2.000
33
7.500
0
3DFACE
8
3d_top
62
24
10
5.333
20
-2.000
30
8.500
11
-1.333
21
-2.000
31
8.500
12
-1.333
22
2.000
32
8.500
13
5.333
23
2.000
33
8.500
0
3DFACE
8
3d_top
62
24
10
5.333
20
-2.000
30
7.500
11
-1.333
21
-2.000
31
7.500
12
-1.333
22
-2.000
32
8.500
13
5.333
23
-2.000
33
8.500
0
3DFACE
8
3d_top
62
24
10
5.333
20
2.000
30
7.500
11
-1.333
21
2.000
31
7.500
12
-1.333
22
2.000
32
8.500
13
5.333
23
2.000
33
8.500
0
3DFACE
8
3d_top
62
24
10
-1.333
20
-2.000
30
7.500
11
-1.333
21
2.000
31
7.500
12
-1.333
22
2.000
32
8.500
13
-1.333
23
-2.000
33
8.500
0
3DFACE
8
3d_top
62
24
10
5.333
20
-2.000
30
7.500
11
5.333
21
2.000
31
7.500
12
5.333
22
2.000
32
8.500
13
5.333
23
-2.000
33
8.500
0
3DFACE
8
3d_top
62
24
10
6.000
20
-2.250
30
1.500
11
-2.000
21
-2.250
31
1.500
12
-2.000
22
2.250
32
1.500
13
6.000
23
2.250
33
1.500
0
3DFACE
8
3d_top
62
24
10
6.000
20
-2.250
30
7.500
11
-2.000
21
-2.250
31
7.500
12
-2.000
22
2.250
32
7.500
13
6.000
23
2.250
33
7.500
0
3DFACE
8
3d_top
62
24
10
6.000
20
-2.250
30
1.500
11
-2.000
21
-2.250
31
1.500
12
-2.000
22
-2.250
32
7.500
13
6.000
23
-2.250
33
7.500
0
3DFACE
8
3d_top
62
24
10
6.000
20
2.250
30
1.500
11
-2.000
21
2.250
31
1.500
12
-2.000
22
2.250
32
7.500
13
6.000
23
2.250
33
7.500
0
3DFACE
8
3d_top
62
24
10
-2.000
20
-2.250
30
1.500
11
-2.000
21
2.250
31
1.500
12
-2.000
22
2.250
32
7.500
13
-2.000
23
-2.250
33
7.500
0
3DFACE
8
3d_top
62
24
10
6.000
20
-2.250
30
1.500
11
6.000
21
2.250
31
1.500
12
6.000
22
2.250
32
7.500
13
6.000
23
-2.250
33
7.500
0
ENDBLK
0
BLOCK
2
MINI USB 54819_top
10
0
20
0
30
0
0
3DFACE
8
3d_top
62
26
10
4.000
20
-4.500
30
1.500
11
-4.000
21
-4.500
31
1.500
12
-4.000
22
4.500
32
1.500
13
4.000
23
4.500
33
1.500
0
3DFACE
8
3d_top
62
26
10
4.000
20
-4.500
30
5.500
11
-4.000
21
-4.500
31
5.500
12
-4.000
22
4.500
32
5.500
13
4.000
23
4.500
33
5.500
0
3DFACE
8
3d_top
62
26
10
4.000
20
-4.500
30
1.500
11
-4.000
21
-4.500
31
1.500
12
-4.000
22
-4.500
32
5.500
13
4.000
23
-4.500
33
5.500
0
3DFACE
8
3d_top
62
26
10
4.000
20
4.500
30
1.500
11
-4.000
21
4.500
31
1.500
12
-4.000
22
4.500
32
5.500
13
4.000
23
4.500
33
5.500
0
3DFACE
8
3d_top
62
26
10
-4.000
20
-4.500
30
1.500
11
-4.000
21
4.500
31
1.500
12
-4.000
22
4.500
32
5.500
13
-4.000
23
-4.500
33
5.500
0
3DFACE
8
3d_top
62
26
10
4.000
20
-4.500
30
1.500
11
4.000
21
4.500
31
1.500
12
4.000
22
4.500
32
5.500
13
4.000
23
-4.500
33
5.500
0
ENDBLK
0
ENDSEC
0
SECTION
2
ENTITIES
0
LINE
8
board_outline
62
0
10
-18.600
20
-25.000
30
0.000
11
32.700
21
-25.000
31
0.000
0
LINE
8
board_outline
62
0
10
-18.600
20
-25.000
30
1.500
11
32.700
21
-25.000
31
1.500
0
LINE
8
board_outline
62
0
10
32.700
20
-25.000
30
0.000
11
32.700
21
-25.000
31
1.500
0
3DFACE
8
board_outline
62
0
10
-18.600
20
-25.000
30
0.000
11
32.700
21
-25.000
31
0.000
12
32.700
22
-25.000
32
1.500
13
-18.600
23
-25.000
33
1.500
0
LINE
8
board_outline
62
0
10
32.700
20
-25.000
30
0.000
11
32.700
21
2.000
31
0.000
0
LINE
8
board_outline
62
0
10
32.700
20
-25.000
30
1.500
11
32.700
21
2.000
31
1.500
0
LINE
8
board_outline
62
0
10
32.700
20
2.000
30
0.000
11
32.700
21
2.000
31
1.500
0
3DFACE
8
board_outline
62
0
10
32.700
20
-25.000
30
0.000
11
32.700
21
2.000
31
0.000
12
32.700
22
2.000
32
1.500
13
32.700
23
-25.000
33
1.500
0
LINE
8
board_outline
62
0
10
32.700
20
2.000
30
0.000
11
-18.600
21
2.000
31
0.000
0
LINE
8
board_outline
62
0
10
32.700
20
2.000
30
1.500
11
-18.600
21
2.000
31
1.500
0
LINE
8
board_outline
62
0
10
-18.600
20
2.000
30
0.000
11
-18.600
21
2.000
31
1.500
0
3DFACE
8
board_outline
62
0
10
32.700
20
2.000
30
0.000
11
-18.600
21
2.000
31
0.000
12
-18.600
22
2.000
32
1.500
13
32.700
23
2.000
33
1.500
0
LINE
8
board_outline
62
0
10
-18.600
20
2.000
30
0.000
11
-18.600
21
-25.000
31
0.000
0
LINE
8
board_outline
62
0
10
-18.600
20
2.000
30
1.500
11
-18.600
21
-25.000
31
1.500
0
LINE
8
board_outline
62
0
10
-18.600
20
-25.000
30
0.000
11
-18.600
21
-25.000
31
1.500
0
3DFACE
8
board_outline
62
0
10
-18.600
20
2.000
30
0.000
11
-18.600
21
-25.000
31
0.000
12
-18.600
22
-25.000
32
1.500
13
-18.600
23
2.000
33
1.500
0
LINE
8
board_outline
62
0
10
22.500
20
-20.200
30
0.000
11
22.500
21
-25.000
31
0.000
0
LINE
8
board_outline
62
0
10
22.500
20
-20.200
30
1.500
11
22.500
21
-25.000
31
1.500
0
LINE
8
board_outline
62
0
10
22.500
20
-25.000
30
0.000
11
22.500
21
-25.000
31
1.500
0
3DFACE
8
board_outline
62
0
10
22.500
20
-20.200
30
0.000
11
22.500
21
-25.000
31
0.000
12
22.500
22
-25.000
32
1.500
13
22.500
23
-20.200
33
1.500
0
LINE
8
board_outline
62
0
10
22.500
20
-25.000
30
0.000
11
32.700
21
-25.000
31
0.000
0
LINE
8
board_outline
62
0
10
22.500
20
-25.000
30
1.500
11
32.700
21
-25.000
31
1.500
0
LINE
8
board_outline
62
0
10
32.700
20
-25.000
30
0.000
11
32.700
21
-25.000
31
1.500
0
3DFACE
8
board_outline
62
0
10
22.500
20
-25.000
30
0.000
11
32.700
21
-25.000
31
0.000
12
32.700
22
-25.000
32
1.500
13
22.500
23
-25.000
33
1.500
0
LINE
8
board_outline
62
0
10
32.700
20
-25.000
30
0.000
11
32.700
21
-20.200
31
0.000
0
LINE
8
board_outline
62
0
10
32.700
20
-25.000
30
1.500
11
32.700
21
-20.200
31
1.500
0
LINE
8
board_outline
62
0
10
32.700
20
-20.200
30
0.000
11
32.700
21
-20.200
31
1.500
0
3DFACE
8
board_outline
62
0
10
32.700
20
-25.000
30
0.000
11
32.700
21
-20.200
31
0.000
12
32.700
22
-20.200
32
1.500
13
32.700
23
-25.000
33
1.500
0
LINE
8
board_outline
62
0
10
32.700
20
-20.200
30
0.000
11
22.500
21
-20.200
31
0.000
0
LINE
8
board_outline
62
0
10
32.700
20
-20.200
30
1.500
11
22.500
21
-20.200
31
1.500
0
LINE
8
board_outline
62
0
10
22.500
20
-20.200
30
0.000
11
22.500
21
-20.200
31
1.500
0
3DFACE
8
board_outline
62
0
10
32.700
20
-20.200
30
0.000
11
22.500
21
-20.200
31
0.000
12
22.500
22
-20.200
32
1.500
13
32.700
23
-20.200
33
1.500
0
INSERT
2
CC0805_top
8
3d_top
62
28
10
-7.600
20
-3.523
50
360.000
0
INSERT
2
CC0805_top
8
3d_top
62
27
10
-13.920
20
-6.800
50
180.000
0
INSERT
2
CC0805_top
8
3d_top
62
27
10
-10.200
20
-2.606
50
270.000
0
INSERT
2
CC0805_top
8
3d_top
62
27
10
1.800
20
-21.300
50
315.000
0
INSERT
2
CC0805_top
8
3d_top
62
27
10
4.500
20
-13.400
50
360.000
0
INSERT
2
CC0805_top
8
3d_top
62
27
10
2.930
20
-20.170
50
315.000
0
INSERT
2
CC0805_top
8
3d_top
62
27
10
5.000
20
-15.780
50
45.000
0
INSERT
2
CC0805_top
8
3d_top
62
27
10
20.575
20
-17.450
50
270.000
0
INSERT
2
CC0805_top
8
3d_top
62
27
10
14.600
20
-4.109
50
180.000
0
INSERT
2
CC0805_top
8
3d_top
62
27
10
-10.246
20
-16.009
50
90.000
0
INSERT
2
CC0805_top
8
3d_top
62
27
10
20.575
20
-14.157
50
270.000
0
INSERT
2
CC0805_top
8
3d_top
62
27
10
12.014
20
-10.220
50
270.000
0
INSERT
2
CC0805_top
8
3d_top
62
27
10
-5.100
20
-18.500
50
360.000
0
INSERT
2
CC0805_top
8
3d_top
62
27
10
12.014
20
-7.020
50
90.000
0
INSERT
2
CC0805_top
8
3d_top
62
27
10
-6.200
20
-20.200
50
180.000
0
INSERT
2
CC0805_top
8
3d_top
62
27
10
4.300
20
-22.200
50
45.000
0
INSERT
2
CC0805_top
8
3d_top
62
27
10
-6.700
20
-13.414
50
360.000
0
INSERT
2
CC0805_top
8
3d_top
62
27
10
-2.560
20
-20.200
50
360.000
0
INSERT
2
CC0805_top
8
3d_top
62
27
10
10.000
20
-23.400
50
360.000
0
INSERT
2
CC0805_top
8
3d_top
62
27
10
15.922
20
-0.185
50
270.000
0
INSERT
2
CC0805_top
8
3d_top
62
27
10
1.850
20
-15.675
50
90.000
0
INSERT
2
CC0805_top
8
3d_top
62
27
10
22.700
20
-6.000
50
270.000
0
INSERT
2
CC0805_top
8
3d_top
62
27
10
15.470
20
-14.700
50
135.000
0
INSERT
2
CC0805_top
8
3d_top
62
27
10
13.570
20
-15.300
50
135.000
0
INSERT
2
CC0805_top
8
3d_top
62
27
10
0.474
20
-5.196
50
180.000
0
INSERT
2
CC0805_top
8
3d_top
62
27
10
2.524
20
-7.556
50
270.000
0
INSERT
2
CC0805_top
8
3d_top
62
27
10
2.524
20
-10.592
50
90.000
0
INSERT
2
CC0805_top
8
3d_top
62
27
10
-3.500
20
-13.900
50
360.000
0
INSERT
2
CC0805_top
8
3d_top
62
27
10
15.000
20
-10.280
50
90.000
0
INSERT
2
CC0805_top
8
3d_top
62
27
10
19.290
20
-8.220
50
270.000
0
INSERT
2
CC0805_top
8
3d_top
62
27
10
16.840
20
-7.300
50
180.000
0
INSERT
2
CC0805_top
8
3d_top
62
27
10
-4.600
20
-6.006
50
270.000
0
INSERT
2
CC0805_top
8
3d_top
62
27
10
-10.900
20
-5.898
50
270.000
0
INSERT
2
SOT235_top
8
3d_top
62
30
10
12.500
20
-2.400
50
360.000
0
INSERT
2
SC705_top
8
3d_top
62
20
10
17.760
20
-9.300
50
180.000
0
INSERT
2
MSOP8_top
8
3d_top
62
22
10
-6.500
20
-15.300
50
270.000
0
INSERT
2
SC705_top
8
3d_top
62
30
10
0.500
20
-7.700
50
180.000
0
INSERT
2
SOT236_top
8
3d_top
62
24
10
-8.900
20
-4.978
50
270.000
0
INSERT
2
RN4871_top
8
3d_top
62
26
10
27.100
20
-18.500
50
180.000
0
INSERT
2
QFPN32_top
8
3d_top
62
27
10
8.900
20
-18.800
50
360.000
0
INSERT
2
LIS202_top
8
3d_top
62
28
10
8.650
20
-8.100
50
90.000
0
INSERT
2
SC705_top
8
3d_top
62
30
10
23.600
20
-8.800
50
180.000
0
INSERT
2
L1154RY_bot
8
3d_bottom
62
30
10
17.500
20
-21.300
50
90.000
0
INSERT
2
P1_top
8
3d_top
62
31
10
4.240
20
-17.770
50
345.000
0
INSERT
2
RC0805_top
8
3d_top
62
32
10
11.054
20
-3.400
50
90.000
0
INSERT
2
RC0805_top
8
3d_top
62
31
10
20.591
20
-24.000
50
360.000
0
INSERT
2
RC0805_top
8
3d_top
62
31
10
18.894
20
-15.850
50
90.000
0
INSERT
2
RC0805_top
8
3d_top
62
31
10
10.450
20
-13.000
50
90.000
0
INSERT
2
RC0805_top
8
3d_top
62
31
10
-8.604
20
-15.929
50
90.000
0
INSERT
2
RC0805_top
8
3d_top
62
31
10
14.280
20
-23.000
50
360.000
0
INSERT
2
RC0805_top
8
3d_top
62
31
10
14.280
20
-21.200
50
360.000
0
INSERT
2
RC0805_top
8
3d_top
62
31
10
-8.604
20
-19.200
50
90.000
0
INSERT
2
RC0805_top
8
3d_top
62
31
10
-10.000
20
-13.414
50
180.000
0
INSERT
2
RC0805_top
8
3d_top
62
31
10
-10.000
20
-11.714
50
360.000
0
INSERT
2
RC0805_top
8
3d_top
62
31
10
-6.620
20
-11.714
50
360.000
0
INSERT
2
RC0805_top
8
3d_top
62
31
10
-3.000
20
-2.786
50
270.000
0
INSERT
2
RC0805_top
8
3d_top
62
31
10
0.900
20
-13.214
50
180.000
0
INSERT
2
RC0805_top
8
3d_top
62
31
10
-16.350
20
-14.000
50
90.000
0
INSERT
2
RC0805_top
8
3d_top
62
31
10
0.700
20
-19.000
50
45.000
0
INSERT
2
RC0805_top
8
3d_top
62
31
10
-15.350
20
-11.200
50
360.000
0
INSERT
2
RC0805_top
8
3d_top
62
31
10
0.100
20
-15.875
50
90.000
0
INSERT
2
RC0805_top
8
3d_top
62
31
10
14.280
20
-19.350
50
360.000
0
INSERT
2
RC0805_top
8
3d_top
62
31
10
21.100
20
0.000
50
180.000
0
INSERT
2
RC0805_top
8
3d_top
62
31
10
18.300
20
-2.690
50
270.000
0
INSERT
2
RC0805_top
8
3d_top
62
31
10
19.900
20
-11.400
50
180.000
0
INSERT
2
RC0805_top
8
3d_top
62
31
10
7.550
20
-13.000
50
90.000
0
INSERT
2
RC0805_top
8
3d_top
62
31
10
-10.700
20
-8.400
50
180.000
0
INSERT
2
RC0805_top
8
3d_top
62
31
10
5.300
20
-10.100
50
270.000
0
INSERT
2
RC0805_top
8
3d_top
62
31
10
-12.300
20
-16.000
50
270.000
0
INSERT
2
RC0805_top
8
3d_top
62
31
10
11.054
20
-0.105
50
270.000
0
INSERT
2
RC0805_top
8
3d_top
62
31
10
-3.000
20
-6.086
50
270.000
0
INSERT
2
RC0805_top
8
3d_top
62
31
10
-7.309
20
-8.400
50
360.000
0
INSERT
2
RC0805_top
8
3d_top
62
31
10
-14.000
20
-8.400
50
180.000
0
INSERT
2
RC0805_top
8
3d_top
62
31
10
-7.520
20
-1.786
50
360.000
0
INSERT
2
SIP4_top
8
3d_top
62
21
10
-17.000
20
-5.800
50
90.000
0
INSERT
2
SOT23_top
8
3d_top
62
22
10
-13.100
20
-4.400
50
180.000
0
INSERT
2
SC705_top
8
3d_top
62
30
10
-15.000
20
-15.000
50
360.000
0
INSERT
2
SOT236_top
8
3d_top
62
22
10
20.100
20
-1.690
50
270.000
0
INSERT
2
SOT23_top
8
3d_top
62
21
10
20.575
20
-20.100
50
360.000
0
INSERT
2
4DIP79_top
8
3d_top
62
23
10
8.000
20
-0.200
50
270.000
0
INSERT
2
7SIP50PROG_bot
8
3d_bottom
62
24
10
-3.100
20
-23.130
50
360.000
0
INSERT
2
6DIP79B_top
8
3d_top
62
26
10
-15.000
20
-18.600
50
270.000
0
INSERT
2
MINI USB 54819_top
8
3d_top
62
27
10
30.100
20
-4.700
50
270.000
0
ENDSEC
0
EOF
