0
SECTION
2
BLOCKS
0
BLOCK
2
CC0805_bot
10
0
20
0
30
0
0
3DFACE
8
3d_bottom
62
21
10
-1.200
20
-0.650
30
0.000
11
-0.500
21
-0.650
31
0.000
12
-0.500
22
0.650
32
0.000
13
-1.200
23
0.650
33
0.000
0
3DFACE
8
3d_bottom
62
21
10
-1.200
20
-0.650
30
-1.300
11
-0.500
21
-0.650
31
-1.300
12
-0.500
22
0.650
32
-1.300
13
-1.200
23
0.650
33
-1.300
0
3DFACE
8
3d_bottom
62
21
10
-1.200
20
-0.650
30
0.000
11
-0.500
21
-0.650
31
0.000
12
-0.500
22
-0.650
32
-1.300
13
-1.200
23
-0.650
33
-1.300
0
3DFACE
8
3d_bottom
62
21
10
-1.200
20
0.650
30
0.000
11
-0.500
21
0.650
31
0.000
12
-0.500
22
0.650
32
-1.300
13
-1.200
23
0.650
33
-1.300
0
3DFACE
8
3d_bottom
62
21
10
-0.500
20
-0.650
30
0.000
11
-0.500
21
0.650
31
0.000
12
-0.500
22
0.650
32
-1.300
13
-0.500
23
-0.650
33
-1.300
0
3DFACE
8
3d_bottom
62
21
10
-1.200
20
-0.650
30
0.000
11
-1.200
21
0.650
31
0.000
12
-1.200
22
0.650
32
-1.300
13
-1.200
23
-0.650
33
-1.300
0
3DFACE
8
3d_bottom
62
21
10
0.500
20
-0.650
30
0.000
11
1.200
21
-0.650
31
0.000
12
1.200
22
0.650
32
0.000
13
0.500
23
0.650
33
0.000
0
3DFACE
8
3d_bottom
62
21
10
0.500
20
-0.650
30
-1.300
11
1.200
21
-0.650
31
-1.300
12
1.200
22
0.650
32
-1.300
13
0.500
23
0.650
33
-1.300
0
3DFACE
8
3d_bottom
62
21
10
0.500
20
-0.650
30
0.000
11
1.200
21
-0.650
31
0.000
12
1.200
22
-0.650
32
-1.300
13
0.500
23
-0.650
33
-1.300
0
3DFACE
8
3d_bottom
62
21
10
0.500
20
0.650
30
0.000
11
1.200
21
0.650
31
0.000
12
1.200
22
0.650
32
-1.300
13
0.500
23
0.650
33
-1.300
0
3DFACE
8
3d_bottom
62
21
10
1.200
20
-0.650
30
0.000
11
1.200
21
0.650
31
0.000
12
1.200
22
0.650
32
-1.300
13
1.200
23
-0.650
33
-1.300
0
3DFACE
8
3d_bottom
62
21
10
0.500
20
-0.650
30
0.000
11
0.500
21
0.650
31
0.000
12
0.500
22
0.650
32
-1.300
13
0.500
23
-0.650
33
-1.300
0
3DFACE
8
3d_bottom
62
21
10
-0.500
20
-0.625
30
-0.050
11
0.500
21
-0.625
31
-0.050
12
0.500
22
0.625
32
-0.050
13
-0.500
23
0.625
33
-0.050
0
3DFACE
8
3d_bottom
62
21
10
-0.500
20
-0.625
30
-1.250
11
0.500
21
-0.625
31
-1.250
12
0.500
22
0.625
32
-1.250
13
-0.500
23
0.625
33
-1.250
0
3DFACE
8
3d_bottom
62
21
10
-0.500
20
-0.625
30
-0.050
11
0.500
21
-0.625
31
-0.050
12
0.500
22
-0.625
32
-1.250
13
-0.500
23
-0.625
33
-1.250
0
3DFACE
8
3d_bottom
62
21
10
-0.500
20
0.625
30
-0.050
11
0.500
21
0.625
31
-0.050
12
0.500
22
0.625
32
-1.250
13
-0.500
23
0.625
33
-1.250
0
3DFACE
8
3d_bottom
62
21
10
0.500
20
-0.625
30
-0.050
11
0.500
21
0.625
31
-0.050
12
0.500
22
0.625
32
-1.250
13
0.500
23
-0.625
33
-1.250
0
3DFACE
8
3d_bottom
62
21
10
-0.500
20
-0.625
30
-0.050
11
-0.500
21
0.625
31
-0.050
12
-0.500
22
0.625
32
-1.250
13
-0.500
23
-0.625
33
-1.250
0
ENDBLK
0
BLOCK
2
CC0805_top
10
0
20
0
30
0
0
3DFACE
8
3d_top
62
22
10
1.200
20
-0.650
30
1.500
11
0.500
21
-0.650
31
1.500
12
0.500
22
0.650
32
1.500
13
1.200
23
0.650
33
1.500
0
3DFACE
8
3d_top
62
22
10
1.200
20
-0.650
30
2.800
11
0.500
21
-0.650
31
2.800
12
0.500
22
0.650
32
2.800
13
1.200
23
0.650
33
2.800
0
3DFACE
8
3d_top
62
22
10
1.200
20
-0.650
30
1.500
11
0.500
21
-0.650
31
1.500
12
0.500
22
-0.650
32
2.800
13
1.200
23
-0.650
33
2.800
0
3DFACE
8
3d_top
62
22
10
1.200
20
0.650
30
1.500
11
0.500
21
0.650
31
1.500
12
0.500
22
0.650
32
2.800
13
1.200
23
0.650
33
2.800
0
3DFACE
8
3d_top
62
22
10
0.500
20
-0.650
30
1.500
11
0.500
21
0.650
31
1.500
12
0.500
22
0.650
32
2.800
13
0.500
23
-0.650
33
2.800
0
3DFACE
8
3d_top
62
22
10
1.200
20
-0.650
30
1.500
11
1.200
21
0.650
31
1.500
12
1.200
22
0.650
32
2.800
13
1.200
23
-0.650
33
2.800
0
3DFACE
8
3d_top
62
22
10
-0.500
20
-0.650
30
1.500
11
-1.200
21
-0.650
31
1.500
12
-1.200
22
0.650
32
1.500
13
-0.500
23
0.650
33
1.500
0
3DFACE
8
3d_top
62
22
10
-0.500
20
-0.650
30
2.800
11
-1.200
21
-0.650
31
2.800
12
-1.200
22
0.650
32
2.800
13
-0.500
23
0.650
33
2.800
0
3DFACE
8
3d_top
62
22
10
-0.500
20
-0.650
30
1.500
11
-1.200
21
-0.650
31
1.500
12
-1.200
22
-0.650
32
2.800
13
-0.500
23
-0.650
33
2.800
0
3DFACE
8
3d_top
62
22
10
-0.500
20
0.650
30
1.500
11
-1.200
21
0.650
31
1.500
12
-1.200
22
0.650
32
2.800
13
-0.500
23
0.650
33
2.800
0
3DFACE
8
3d_top
62
22
10
-1.200
20
-0.650
30
1.500
11
-1.200
21
0.650
31
1.500
12
-1.200
22
0.650
32
2.800
13
-1.200
23
-0.650
33
2.800
0
3DFACE
8
3d_top
62
22
10
-0.500
20
-0.650
30
1.500
11
-0.500
21
0.650
31
1.500
12
-0.500
22
0.650
32
2.800
13
-0.500
23
-0.650
33
2.800
0
3DFACE
8
3d_top
62
22
10
0.500
20
-0.625
30
1.550
11
-0.500
21
-0.625
31
1.550
12
-0.500
22
0.625
32
1.550
13
0.500
23
0.625
33
1.550
0
3DFACE
8
3d_top
62
22
10
0.500
20
-0.625
30
2.750
11
-0.500
21
-0.625
31
2.750
12
-0.500
22
0.625
32
2.750
13
0.500
23
0.625
33
2.750
0
3DFACE
8
3d_top
62
22
10
0.500
20
-0.625
30
1.550
11
-0.500
21
-0.625
31
1.550
12
-0.500
22
-0.625
32
2.750
13
0.500
23
-0.625
33
2.750
0
3DFACE
8
3d_top
62
22
10
0.500
20
0.625
30
1.550
11
-0.500
21
0.625
31
1.550
12
-0.500
22
0.625
32
2.750
13
0.500
23
0.625
33
2.750
0
3DFACE
8
3d_top
62
22
10
-0.500
20
-0.625
30
1.550
11
-0.500
21
0.625
31
1.550
12
-0.500
22
0.625
32
2.750
13
-0.500
23
-0.625
33
2.750
0
3DFACE
8
3d_top
62
22
10
0.500
20
-0.625
30
1.550
11
0.500
21
0.625
31
1.550
12
0.500
22
0.625
32
2.750
13
0.500
23
-0.625
33
2.750
0
ENDBLK
0
BLOCK
2
DTYPE2_bot
10
0
20
0
30
0
0
3DFACE
8
3d_bottom
62
23
10
-3.650
20
-2.250
30
0.000
11
3.650
21
-2.250
31
0.000
12
3.650
22
2.250
32
0.000
13
-3.650
23
2.250
33
0.000
0
3DFACE
8
3d_bottom
62
23
10
-3.650
20
-2.250
30
-3.500
11
3.650
21
-2.250
31
-3.500
12
3.650
22
2.250
32
-3.500
13
-3.650
23
2.250
33
-3.500
0
3DFACE
8
3d_bottom
62
23
10
-3.650
20
-2.250
30
0.000
11
3.650
21
-2.250
31
0.000
12
3.650
22
-2.250
32
-3.500
13
-3.650
23
-2.250
33
-3.500
0
3DFACE
8
3d_bottom
62
23
10
-3.650
20
2.250
30
0.000
11
3.650
21
2.250
31
0.000
12
3.650
22
2.250
32
-3.500
13
-3.650
23
2.250
33
-3.500
0
3DFACE
8
3d_bottom
62
23
10
3.650
20
-2.250
30
0.000
11
3.650
21
2.250
31
0.000
12
3.650
22
2.250
32
-3.500
13
3.650
23
-2.250
33
-3.500
0
3DFACE
8
3d_bottom
62
23
10
-3.650
20
-2.250
30
0.000
11
-3.650
21
2.250
31
0.000
12
-3.650
22
2.250
32
-3.500
13
-3.650
23
-2.250
33
-3.500
0
ENDBLK
0
BLOCK
2
DTYPE2_top
10
0
20
0
30
0
0
3DFACE
8
3d_top
62
24
10
3.650
20
-2.250
30
1.500
11
-3.650
21
-2.250
31
1.500
12
-3.650
22
2.250
32
1.500
13
3.650
23
2.250
33
1.500
0
3DFACE
8
3d_top
62
24
10
3.650
20
-2.250
30
5.000
11
-3.650
21
-2.250
31
5.000
12
-3.650
22
2.250
32
5.000
13
3.650
23
2.250
33
5.000
0
3DFACE
8
3d_top
62
24
10
3.650
20
-2.250
30
1.500
11
-3.650
21
-2.250
31
1.500
12
-3.650
22
-2.250
32
5.000
13
3.650
23
-2.250
33
5.000
0
3DFACE
8
3d_top
62
24
10
3.650
20
2.250
30
1.500
11
-3.650
21
2.250
31
1.500
12
-3.650
22
2.250
32
5.000
13
3.650
23
2.250
33
5.000
0
3DFACE
8
3d_top
62
24
10
-3.650
20
-2.250
30
1.500
11
-3.650
21
2.250
31
1.500
12
-3.650
22
2.250
32
5.000
13
-3.650
23
-2.250
33
5.000
0
3DFACE
8
3d_top
62
24
10
3.650
20
-2.250
30
1.500
11
3.650
21
2.250
31
1.500
12
3.650
22
2.250
32
5.000
13
3.650
23
-2.250
33
5.000
0
ENDBLK
0
BLOCK
2
SMW5.7_bot
10
0
20
0
30
0
0
3DFACE
8
3d_bottom
62
25
10
-3.000
20
-2.600
30
0.000
11
3.000
21
-2.600
31
0.000
12
3.000
22
2.600
32
0.000
13
-3.000
23
2.600
33
0.000
0
3DFACE
8
3d_bottom
62
25
10
-3.000
20
-2.600
30
-1.800
11
3.000
21
-2.600
31
-1.800
12
3.000
22
2.600
32
-1.800
13
-3.000
23
2.600
33
-1.800
0
3DFACE
8
3d_bottom
62
25
10
-3.000
20
-2.600
30
0.000
11
3.000
21
-2.600
31
0.000
12
3.000
22
-2.600
32
-1.800
13
-3.000
23
-2.600
33
-1.800
0
3DFACE
8
3d_bottom
62
25
10
-3.000
20
2.600
30
0.000
11
3.000
21
2.600
31
0.000
12
3.000
22
2.600
32
-1.800
13
-3.000
23
2.600
33
-1.800
0
3DFACE
8
3d_bottom
62
25
10
3.000
20
-2.600
30
0.000
11
3.000
21
2.600
31
0.000
12
3.000
22
2.600
32
-1.800
13
3.000
23
-2.600
33
-1.800
0
3DFACE
8
3d_bottom
62
25
10
-3.000
20
-2.600
30
0.000
11
-3.000
21
2.600
31
0.000
12
-3.000
22
2.600
32
-1.800
13
-3.000
23
-2.600
33
-1.800
0
ENDBLK
0
BLOCK
2
SMW5.7_top
10
0
20
0
30
0
0
3DFACE
8
3d_top
62
26
10
3.000
20
-2.600
30
1.500
11
-3.000
21
-2.600
31
1.500
12
-3.000
22
2.600
32
1.500
13
3.000
23
2.600
33
1.500
0
3DFACE
8
3d_top
62
26
10
3.000
20
-2.600
30
3.300
11
-3.000
21
-2.600
31
3.300
12
-3.000
22
2.600
32
3.300
13
3.000
23
2.600
33
3.300
0
3DFACE
8
3d_top
62
26
10
3.000
20
-2.600
30
1.500
11
-3.000
21
-2.600
31
1.500
12
-3.000
22
-2.600
32
3.300
13
3.000
23
-2.600
33
3.300
0
3DFACE
8
3d_top
62
26
10
3.000
20
2.600
30
1.500
11
-3.000
21
2.600
31
1.500
12
-3.000
22
2.600
32
3.300
13
3.000
23
2.600
33
3.300
0
3DFACE
8
3d_top
62
26
10
-3.000
20
-2.600
30
1.500
11
-3.000
21
2.600
31
1.500
12
-3.000
22
2.600
32
3.300
13
-3.000
23
-2.600
33
3.300
0
3DFACE
8
3d_top
62
26
10
3.000
20
-2.600
30
1.500
11
3.000
21
2.600
31
1.500
12
3.000
22
2.600
32
3.300
13
3.000
23
-2.600
33
3.300
0
ENDBLK
0
BLOCK
2
WIMA4.8x3.3_top
10
0
20
0
30
0
0
ENDBLK
0
BLOCK
2
SOT235_bot
10
0
20
0
30
0
0
3DFACE
8
3d_bottom
62
28
10
-1.395
20
-1.151
30
-0.123
11
-0.775
21
-1.151
31
-0.123
12
-0.775
22
-1.077
32
-0.213
13
-1.395
23
-1.077
33
-0.213
0
3DFACE
8
3d_bottom
62
28
10
-1.395
20
-1.077
30
-0.213
11
-0.775
21
-1.077
31
-0.213
12
-0.775
22
-1.046
32
-0.431
13
-1.395
23
-1.046
33
-0.431
0
3DFACE
8
3d_bottom
62
28
10
-1.395
20
-1.046
30
-0.431
11
-0.775
21
-1.046
31
-0.431
12
-0.775
22
-1.046
32
-0.738
13
-1.395
23
-1.046
33
-0.738
0
3DFACE
8
3d_bottom
62
28
10
-1.395
20
-0.942
30
-1.046
11
-0.775
21
-0.942
31
-1.046
12
-0.775
22
-1.016
32
-0.956
13
-1.395
23
-1.016
33
-0.956
0
3DFACE
8
3d_bottom
62
28
10
-1.395
20
-1.016
30
-0.956
11
-0.775
21
-1.016
31
-0.956
12
-0.775
22
-1.046
32
-0.738
13
-1.395
23
-1.046
33
-0.738
0
3DFACE
8
3d_bottom
62
28
10
-0.775
20
1.149
30
-0.123
11
-1.395
21
1.149
31
-0.123
12
-1.395
22
1.075
32
-0.213
13
-0.775
23
1.075
33
-0.213
0
3DFACE
8
3d_bottom
62
28
10
-0.775
20
1.075
30
-0.213
11
-1.395
21
1.075
31
-0.213
12
-1.395
22
1.045
32
-0.431
13
-0.775
23
1.045
33
-0.431
0
3DFACE
8
3d_bottom
62
28
10
-0.775
20
1.045
30
-0.431
11
-1.395
21
1.045
31
-0.431
12
-1.395
22
1.045
32
-0.738
13
-0.775
23
1.045
33
-0.738
0
3DFACE
8
3d_bottom
62
28
10
-0.775
20
0.940
30
-1.046
11
-1.395
21
0.940
31
-1.046
12
-1.395
22
1.014
32
-0.956
13
-0.775
23
1.014
33
-0.956
0
3DFACE
8
3d_bottom
62
28
10
-0.775
20
1.014
30
-0.956
11
-1.395
21
1.014
31
-0.956
12
-1.395
22
1.045
32
-0.738
13
-0.775
23
1.045
33
-0.738
0
3DFACE
8
3d_bottom
62
28
10
0.775
20
-1.151
30
-0.123
11
1.395
21
-1.151
31
-0.123
12
1.395
22
-1.077
32
-0.213
13
0.775
23
-1.077
33
-0.213
0
3DFACE
8
3d_bottom
62
28
10
0.775
20
-1.077
30
-0.213
11
1.395
21
-1.077
31
-0.213
12
1.395
22
-1.046
32
-0.431
13
0.775
23
-1.046
33
-0.431
0
3DFACE
8
3d_bottom
62
28
10
0.775
20
-1.046
30
-0.431
11
1.395
21
-1.046
31
-0.431
12
1.395
22
-1.046
32
-0.738
13
0.775
23
-1.046
33
-0.738
0
3DFACE
8
3d_bottom
62
28
10
0.775
20
-0.942
30
-1.046
11
1.395
21
-0.942
31
-1.046
12
1.395
22
-1.016
32
-0.956
13
0.775
23
-1.016
33
-0.956
0
3DFACE
8
3d_bottom
62
28
10
0.775
20
-1.016
30
-0.956
11
1.395
21
-1.016
31
-0.956
12
1.395
22
-1.046
32
-0.738
13
0.775
23
-1.046
33
-0.738
0
3DFACE
8
3d_bottom
62
28
10
1.395
20
1.149
30
-0.123
11
0.775
21
1.149
31
-0.123
12
0.775
22
1.075
32
-0.213
13
1.395
23
1.075
33
-0.213
0
3DFACE
8
3d_bottom
62
28
10
1.395
20
1.075
30
-0.213
11
0.775
21
1.075
31
-0.213
12
0.775
22
1.045
32
-0.431
13
1.395
23
1.045
33
-0.431
0
3DFACE
8
3d_bottom
62
28
10
1.395
20
1.045
30
-0.431
11
0.775
21
1.045
31
-0.431
12
0.775
22
1.045
32
-0.738
13
1.395
23
1.045
33
-0.738
0
3DFACE
8
3d_bottom
62
28
10
1.395
20
0.940
30
-1.046
11
0.775
21
0.940
31
-1.046
12
0.775
22
1.014
32
-0.956
13
1.395
23
1.014
33
-0.956
0
3DFACE
8
3d_bottom
62
28
10
1.395
20
1.014
30
-0.956
11
0.775
21
1.014
31
-0.956
12
0.775
22
1.045
32
-0.738
13
1.395
23
1.045
33
-0.738
0
3DFACE
8
3d_bottom
62
28
10
-0.310
20
-1.150
30
-0.132
11
0.310
21
-1.150
31
-0.132
12
0.310
22
-1.071
32
-0.161
13
-0.310
23
-1.071
33
-0.161
0
3DFACE
8
3d_bottom
62
28
10
-0.310
20
-1.071
30
-0.161
11
0.310
21
-1.071
31
-0.161
12
0.310
22
-1.039
32
-0.231
13
-0.310
23
-1.039
33
-0.231
0
3DFACE
8
3d_bottom
62
28
10
-0.310
20
-1.039
30
-0.231
11
0.310
21
-1.039
31
-0.231
12
0.310
22
-1.039
32
-0.956
13
-0.310
23
-1.039
33
-0.956
0
3DFACE
8
3d_bottom
62
28
10
-0.310
20
-0.927
30
-1.055
11
0.310
21
-0.927
31
-1.055
12
0.310
22
-1.006
32
-1.026
13
-0.310
23
-1.006
33
-1.026
0
3DFACE
8
3d_bottom
62
28
10
-0.310
20
-1.006
30
-1.026
11
0.310
21
-1.006
31
-1.026
12
0.310
22
-1.039
32
-0.956
13
-0.310
23
-1.039
33
-0.956
0
3DFACE
8
3d_bottom
62
28
10
-1.550
20
-0.927
30
0.000
11
1.550
21
-0.927
31
0.000
12
1.550
22
0.927
32
0.000
13
-1.550
23
0.927
33
0.000
0
3DFACE
8
3d_bottom
62
28
10
-1.550
20
-0.927
30
-1.450
11
1.550
21
-0.927
31
-1.450
12
1.550
22
0.927
32
-1.450
13
-1.550
23
0.927
33
-1.450
0
3DFACE
8
3d_bottom
62
28
10
-1.550
20
-0.927
30
0.000
11
1.550
21
-0.927
31
0.000
12
1.550
22
-0.927
32
-1.450
13
-1.550
23
-0.927
33
-1.450
0
3DFACE
8
3d_bottom
62
28
10
-1.550
20
0.927
30
0.000
11
1.550
21
0.927
31
0.000
12
1.550
22
0.927
32
-1.450
13
-1.550
23
0.927
33
-1.450
0
3DFACE
8
3d_bottom
62
28
10
1.550
20
-0.927
30
0.000
11
1.550
21
0.927
31
0.000
12
1.550
22
0.927
32
-1.450
13
1.550
23
-0.927
33
-1.450
0
3DFACE
8
3d_bottom
62
28
10
-1.550
20
-0.927
30
0.000
11
-1.550
21
0.927
31
0.000
12
-1.550
22
0.927
32
-1.450
13
-1.550
23
-0.927
33
-1.450
0
ENDBLK
0
BLOCK
2
CP1641_top
10
0
20
0
30
0
0
3DFACE
8
3d_top
62
30
10
2.050
20
-2.050
30
1.500
11
-2.050
21
-2.050
31
1.500
12
-2.050
22
2.050
32
1.500
13
2.050
23
2.050
33
1.500
0
3DFACE
8
3d_top
62
30
10
2.050
20
-2.050
30
2.300
11
-2.050
21
-2.050
31
2.300
12
-2.050
22
2.050
32
2.300
13
2.050
23
2.050
33
2.300
0
3DFACE
8
3d_top
62
30
10
2.050
20
-2.050
30
1.500
11
-2.050
21
-2.050
31
1.500
12
-2.050
22
-2.050
32
2.300
13
2.050
23
-2.050
33
2.300
0
3DFACE
8
3d_top
62
30
10
2.050
20
2.050
30
1.500
11
-2.050
21
2.050
31
1.500
12
-2.050
22
2.050
32
2.300
13
2.050
23
2.050
33
2.300
0
3DFACE
8
3d_top
62
30
10
-2.050
20
-2.050
30
1.500
11
-2.050
21
2.050
31
1.500
12
-2.050
22
2.050
32
2.300
13
-2.050
23
-2.050
33
2.300
0
3DFACE
8
3d_top
62
30
10
2.050
20
-2.050
30
1.500
11
2.050
21
2.050
31
1.500
12
2.050
22
2.050
32
2.300
13
2.050
23
-2.050
33
2.300
0
ENDBLK
0
BLOCK
2
CP1641_bot
10
0
20
0
30
0
0
3DFACE
8
3d_bottom
62
32
10
-2.050
20
-2.050
30
0.000
11
2.050
21
-2.050
31
0.000
12
2.050
22
2.050
32
0.000
13
-2.050
23
2.050
33
0.000
0
3DFACE
8
3d_bottom
62
32
10
-2.050
20
-2.050
30
-0.800
11
2.050
21
-2.050
31
-0.800
12
2.050
22
2.050
32
-0.800
13
-2.050
23
2.050
33
-0.800
0
3DFACE
8
3d_bottom
62
32
10
-2.050
20
-2.050
30
0.000
11
2.050
21
-2.050
31
0.000
12
2.050
22
-2.050
32
-0.800
13
-2.050
23
-2.050
33
-0.800
0
3DFACE
8
3d_bottom
62
32
10
-2.050
20
2.050
30
0.000
11
2.050
21
2.050
31
0.000
12
2.050
22
2.050
32
-0.800
13
-2.050
23
2.050
33
-0.800
0
3DFACE
8
3d_bottom
62
32
10
2.050
20
-2.050
30
0.000
11
2.050
21
2.050
31
0.000
12
2.050
22
2.050
32
-0.800
13
2.050
23
-2.050
33
-0.800
0
3DFACE
8
3d_bottom
62
32
10
-2.050
20
-2.050
30
0.000
11
-2.050
21
2.050
31
0.000
12
-2.050
22
2.050
32
-0.800
13
-2.050
23
-2.050
33
-0.800
0
ENDBLK
0
BLOCK
2
TSSOP16_bot
10
0
20
0
30
0
0
3DFACE
8
3d_bottom
62
21
10
-2.500
20
-2.950
30
0.000
11
2.500
21
-2.950
31
0.000
12
2.500
22
2.950
32
0.000
13
-2.500
23
2.950
33
0.000
0
3DFACE
8
3d_bottom
62
21
10
-2.500
20
-2.950
30
-1.100
11
2.500
21
-2.950
31
-1.100
12
2.500
22
2.950
32
-1.100
13
-2.500
23
2.950
33
-1.100
0
3DFACE
8
3d_bottom
62
21
10
-2.500
20
-2.950
30
0.000
11
2.500
21
-2.950
31
0.000
12
2.500
22
-2.950
32
-1.100
13
-2.500
23
-2.950
33
-1.100
0
3DFACE
8
3d_bottom
62
21
10
-2.500
20
2.950
30
0.000
11
2.500
21
2.950
31
0.000
12
2.500
22
2.950
32
-1.100
13
-2.500
23
2.950
33
-1.100
0
3DFACE
8
3d_bottom
62
21
10
2.500
20
-2.950
30
0.000
11
2.500
21
2.950
31
0.000
12
2.500
22
2.950
32
-1.100
13
2.500
23
-2.950
33
-1.100
0
3DFACE
8
3d_bottom
62
21
10
-2.500
20
-2.950
30
0.000
11
-2.500
21
2.950
31
0.000
12
-2.500
22
2.950
32
-1.100
13
-2.500
23
-2.950
33
-1.100
0
ENDBLK
0
BLOCK
2
TSSOP16_top
10
0
20
0
30
0
0
3DFACE
8
3d_top
62
22
10
2.500
20
-2.950
30
1.500
11
-2.500
21
-2.950
31
1.500
12
-2.500
22
2.950
32
1.500
13
2.500
23
2.950
33
1.500
0
3DFACE
8
3d_top
62
22
10
2.500
20
-2.950
30
2.600
11
-2.500
21
-2.950
31
2.600
12
-2.500
22
2.950
32
2.600
13
2.500
23
2.950
33
2.600
0
3DFACE
8
3d_top
62
22
10
2.500
20
-2.950
30
1.500
11
-2.500
21
-2.950
31
1.500
12
-2.500
22
-2.950
32
2.600
13
2.500
23
-2.950
33
2.600
0
3DFACE
8
3d_top
62
22
10
2.500
20
2.950
30
1.500
11
-2.500
21
2.950
31
1.500
12
-2.500
22
2.950
32
2.600
13
2.500
23
2.950
33
2.600
0
3DFACE
8
3d_top
62
22
10
-2.500
20
-2.950
30
1.500
11
-2.500
21
2.950
31
1.500
12
-2.500
22
2.950
32
2.600
13
-2.500
23
-2.950
33
2.600
0
3DFACE
8
3d_top
62
22
10
2.500
20
-2.950
30
1.500
11
2.500
21
2.950
31
1.500
12
2.500
22
2.950
32
2.600
13
2.500
23
-2.950
33
2.600
0
ENDBLK
0
BLOCK
2
SOT235_top
10
0
20
0
30
0
0
3DFACE
8
3d_top
62
23
10
1.395
20
-1.151
30
1.623
11
0.775
21
-1.151
31
1.623
12
0.775
22
-1.077
32
1.713
13
1.395
23
-1.077
33
1.713
0
3DFACE
8
3d_top
62
23
10
1.395
20
-1.077
30
1.713
11
0.775
21
-1.077
31
1.713
12
0.775
22
-1.046
32
1.931
13
1.395
23
-1.046
33
1.931
0
3DFACE
8
3d_top
62
23
10
1.395
20
-1.046
30
1.931
11
0.775
21
-1.046
31
1.931
12
0.775
22
-1.046
32
2.238
13
1.395
23
-1.046
33
2.238
0
3DFACE
8
3d_top
62
23
10
1.395
20
-0.942
30
2.546
11
0.775
21
-0.942
31
2.546
12
0.775
22
-1.016
32
2.456
13
1.395
23
-1.016
33
2.456
0
3DFACE
8
3d_top
62
23
10
1.395
20
-1.016
30
2.456
11
0.775
21
-1.016
31
2.456
12
0.775
22
-1.046
32
2.238
13
1.395
23
-1.046
33
2.238
0
3DFACE
8
3d_top
62
23
10
0.775
20
1.149
30
1.623
11
1.395
21
1.149
31
1.623
12
1.395
22
1.075
32
1.713
13
0.775
23
1.075
33
1.713
0
3DFACE
8
3d_top
62
23
10
0.775
20
1.075
30
1.713
11
1.395
21
1.075
31
1.713
12
1.395
22
1.045
32
1.931
13
0.775
23
1.045
33
1.931
0
3DFACE
8
3d_top
62
23
10
0.775
20
1.045
30
1.931
11
1.395
21
1.045
31
1.931
12
1.395
22
1.045
32
2.238
13
0.775
23
1.045
33
2.238
0
3DFACE
8
3d_top
62
23
10
0.775
20
0.940
30
2.546
11
1.395
21
0.940
31
2.546
12
1.395
22
1.014
32
2.456
13
0.775
23
1.014
33
2.456
0
3DFACE
8
3d_top
62
23
10
0.775
20
1.014
30
2.456
11
1.395
21
1.014
31
2.456
12
1.395
22
1.045
32
2.238
13
0.775
23
1.045
33
2.238
0
3DFACE
8
3d_top
62
23
10
-0.775
20
-1.151
30
1.623
11
-1.395
21
-1.151
31
1.623
12
-1.395
22
-1.077
32
1.713
13
-0.775
23
-1.077
33
1.713
0
3DFACE
8
3d_top
62
23
10
-0.775
20
-1.077
30
1.713
11
-1.395
21
-1.077
31
1.713
12
-1.395
22
-1.046
32
1.931
13
-0.775
23
-1.046
33
1.931
0
3DFACE
8
3d_top
62
23
10
-0.775
20
-1.046
30
1.931
11
-1.395
21
-1.046
31
1.931
12
-1.395
22
-1.046
32
2.238
13
-0.775
23
-1.046
33
2.238
0
3DFACE
8
3d_top
62
23
10
-0.775
20
-0.942
30
2.546
11
-1.395
21
-0.942
31
2.546
12
-1.395
22
-1.016
32
2.456
13
-0.775
23
-1.016
33
2.456
0
3DFACE
8
3d_top
62
23
10
-0.775
20
-1.016
30
2.456
11
-1.395
21
-1.016
31
2.456
12
-1.395
22
-1.046
32
2.238
13
-0.775
23
-1.046
33
2.238
0
3DFACE
8
3d_top
62
23
10
-1.395
20
1.149
30
1.623
11
-0.775
21
1.149
31
1.623
12
-0.775
22
1.075
32
1.713
13
-1.395
23
1.075
33
1.713
0
3DFACE
8
3d_top
62
23
10
-1.395
20
1.075
30
1.713
11
-0.775
21
1.075
31
1.713
12
-0.775
22
1.045
32
1.931
13
-1.395
23
1.045
33
1.931
0
3DFACE
8
3d_top
62
23
10
-1.395
20
1.045
30
1.931
11
-0.775
21
1.045
31
1.931
12
-0.775
22
1.045
32
2.238
13
-1.395
23
1.045
33
2.238
0
3DFACE
8
3d_top
62
23
10
-1.395
20
0.940
30
2.546
11
-0.775
21
0.940
31
2.546
12
-0.775
22
1.014
32
2.456
13
-1.395
23
1.014
33
2.456
0
3DFACE
8
3d_top
62
23
10
-1.395
20
1.014
30
2.456
11
-0.775
21
1.014
31
2.456
12
-0.775
22
1.045
32
2.238
13
-1.395
23
1.045
33
2.238
0
3DFACE
8
3d_top
62
23
10
0.310
20
-1.150
30
1.632
11
-0.310
21
-1.150
31
1.632
12
-0.310
22
-1.071
32
1.661
13
0.310
23
-1.071
33
1.661
0
3DFACE
8
3d_top
62
23
10
0.310
20
-1.071
30
1.661
11
-0.310
21
-1.071
31
1.661
12
-0.310
22
-1.039
32
1.731
13
0.310
23
-1.039
33
1.731
0
3DFACE
8
3d_top
62
23
10
0.310
20
-1.039
30
1.731
11
-0.310
21
-1.039
31
1.731
12
-0.310
22
-1.039
32
2.456
13
0.310
23
-1.039
33
2.456
0
3DFACE
8
3d_top
62
23
10
0.310
20
-0.927
30
2.555
11
-0.310
21
-0.927
31
2.555
12
-0.310
22
-1.006
32
2.526
13
0.310
23
-1.006
33
2.526
0
3DFACE
8
3d_top
62
23
10
0.310
20
-1.006
30
2.526
11
-0.310
21
-1.006
31
2.526
12
-0.310
22
-1.039
32
2.456
13
0.310
23
-1.039
33
2.456
0
3DFACE
8
3d_top
62
23
10
1.550
20
-0.927
30
1.500
11
-1.550
21
-0.927
31
1.500
12
-1.550
22
0.927
32
1.500
13
1.550
23
0.927
33
1.500
0
3DFACE
8
3d_top
62
23
10
1.550
20
-0.927
30
2.950
11
-1.550
21
-0.927
31
2.950
12
-1.550
22
0.927
32
2.950
13
1.550
23
0.927
33
2.950
0
3DFACE
8
3d_top
62
23
10
1.550
20
-0.927
30
1.500
11
-1.550
21
-0.927
31
1.500
12
-1.550
22
-0.927
32
2.950
13
1.550
23
-0.927
33
2.950
0
3DFACE
8
3d_top
62
23
10
1.550
20
0.927
30
1.500
11
-1.550
21
0.927
31
1.500
12
-1.550
22
0.927
32
2.950
13
1.550
23
0.927
33
2.950
0
3DFACE
8
3d_top
62
23
10
-1.550
20
-0.927
30
1.500
11
-1.550
21
0.927
31
1.500
12
-1.550
22
0.927
32
2.950
13
-1.550
23
-0.927
33
2.950
0
3DFACE
8
3d_top
62
23
10
1.550
20
-0.927
30
1.500
11
1.550
21
0.927
31
1.500
12
1.550
22
0.927
32
2.950
13
1.550
23
-0.927
33
2.950
0
ENDBLK
0
BLOCK
2
SC705_top
10
0
20
0
30
0
0
3DFACE
8
3d_top
62
25
10
0.900
20
-0.775
30
1.593
11
0.500
21
-0.775
31
1.593
12
0.500
22
-0.726
32
1.662
13
0.900
23
-0.726
33
1.662
0
3DFACE
8
3d_top
62
25
10
0.900
20
-0.726
30
1.662
11
0.500
21
-0.726
31
1.662
12
0.500
22
-0.705
32
1.827
13
0.900
23
-0.705
33
1.827
0
3DFACE
8
3d_top
62
25
10
0.900
20
-0.705
30
1.827
11
0.500
21
-0.705
31
1.827
12
0.500
22
-0.705
32
2.060
13
0.900
23
-0.705
33
2.060
0
3DFACE
8
3d_top
62
25
10
0.900
20
-0.635
30
2.293
11
0.500
21
-0.635
31
2.293
12
0.500
22
-0.684
32
2.225
13
0.900
23
-0.684
33
2.225
0
3DFACE
8
3d_top
62
25
10
0.900
20
-0.684
30
2.225
11
0.500
21
-0.684
31
2.225
12
0.500
22
-0.705
32
2.060
13
0.900
23
-0.705
33
2.060
0
3DFACE
8
3d_top
62
25
10
0.500
20
0.775
30
1.593
11
0.900
21
0.775
31
1.593
12
0.900
22
0.725
32
1.662
13
0.500
23
0.725
33
1.662
0
3DFACE
8
3d_top
62
25
10
0.500
20
0.725
30
1.662
11
0.900
21
0.725
31
1.662
12
0.900
22
0.704
32
1.827
13
0.500
23
0.704
33
1.827
0
3DFACE
8
3d_top
62
25
10
0.500
20
0.704
30
1.827
11
0.900
21
0.704
31
1.827
12
0.900
22
0.704
32
2.060
13
0.500
23
0.704
33
2.060
0
3DFACE
8
3d_top
62
25
10
0.500
20
0.634
30
2.293
11
0.900
21
0.634
31
2.293
12
0.900
22
0.683
32
2.225
13
0.500
23
0.683
33
2.225
0
3DFACE
8
3d_top
62
25
10
0.500
20
0.683
30
2.225
11
0.900
21
0.683
31
2.225
12
0.900
22
0.704
32
2.060
13
0.500
23
0.704
33
2.060
0
3DFACE
8
3d_top
62
26
10
-0.500
20
-0.775
30
1.593
11
-0.900
21
-0.775
31
1.593
12
-0.900
22
-0.726
32
1.662
13
-0.500
23
-0.726
33
1.662
0
3DFACE
8
3d_top
62
26
10
-0.500
20
-0.726
30
1.662
11
-0.900
21
-0.726
31
1.662
12
-0.900
22
-0.705
32
1.827
13
-0.500
23
-0.705
33
1.827
0
3DFACE
8
3d_top
62
26
10
-0.500
20
-0.705
30
1.827
11
-0.900
21
-0.705
31
1.827
12
-0.900
22
-0.705
32
2.060
13
-0.500
23
-0.705
33
2.060
0
3DFACE
8
3d_top
62
26
10
-0.500
20
-0.635
30
2.293
11
-0.900
21
-0.635
31
2.293
12
-0.900
22
-0.684
32
2.225
13
-0.500
23
-0.684
33
2.225
0
3DFACE
8
3d_top
62
26
10
-0.500
20
-0.684
30
2.225
11
-0.900
21
-0.684
31
2.225
12
-0.900
22
-0.705
32
2.060
13
-0.500
23
-0.705
33
2.060
0
3DFACE
8
3d_top
62
26
10
-0.900
20
0.775
30
1.593
11
-0.500
21
0.775
31
1.593
12
-0.500
22
0.725
32
1.662
13
-0.900
23
0.725
33
1.662
0
3DFACE
8
3d_top
62
26
10
-0.900
20
0.725
30
1.662
11
-0.500
21
0.725
31
1.662
12
-0.500
22
0.704
32
1.827
13
-0.900
23
0.704
33
1.827
0
3DFACE
8
3d_top
62
26
10
-0.900
20
0.704
30
1.827
11
-0.500
21
0.704
31
1.827
12
-0.500
22
0.704
32
2.060
13
-0.900
23
0.704
33
2.060
0
3DFACE
8
3d_top
62
26
10
-0.900
20
0.634
30
2.293
11
-0.500
21
0.634
31
2.293
12
-0.500
22
0.683
32
2.225
13
-0.900
23
0.683
33
2.225
0
3DFACE
8
3d_top
62
26
10
-0.900
20
0.683
30
2.225
11
-0.500
21
0.683
31
2.225
12
-0.500
22
0.704
32
2.060
13
-0.900
23
0.704
33
2.060
0
3DFACE
8
3d_top
62
27
10
0.200
20
-0.775
30
1.600
11
-0.200
21
-0.775
31
1.600
12
-0.200
22
-0.722
32
1.622
13
0.200
23
-0.722
33
1.622
0
3DFACE
8
3d_top
62
27
10
0.200
20
-0.722
30
1.622
11
-0.200
21
-0.722
31
1.622
12
-0.200
22
-0.700
32
1.675
13
0.200
23
-0.700
33
1.675
0
3DFACE
8
3d_top
62
27
10
0.200
20
-0.700
30
1.675
11
-0.200
21
-0.700
31
1.675
12
-0.200
22
-0.700
32
2.225
13
0.200
23
-0.700
33
2.225
0
3DFACE
8
3d_top
62
27
10
0.200
20
-0.625
30
2.300
11
-0.200
21
-0.625
31
2.300
12
-0.200
22
-0.678
32
2.278
13
0.200
23
-0.678
33
2.278
0
3DFACE
8
3d_top
62
27
10
0.200
20
-0.678
30
2.278
11
-0.200
21
-0.678
31
2.278
12
-0.200
22
-0.700
32
2.225
13
0.200
23
-0.700
33
2.225
0
3DFACE
8
3d_top
62
27
10
1.000
20
-0.625
30
1.500
11
-1.000
21
-0.625
31
1.500
12
-1.000
22
0.625
32
1.500
13
1.000
23
0.625
33
1.500
0
3DFACE
8
3d_top
62
27
10
1.000
20
-0.625
30
2.600
11
-1.000
21
-0.625
31
2.600
12
-1.000
22
0.625
32
2.600
13
1.000
23
0.625
33
2.600
0
3DFACE
8
3d_top
62
27
10
1.000
20
-0.625
30
1.500
11
-1.000
21
-0.625
31
1.500
12
-1.000
22
-0.625
32
2.600
13
1.000
23
-0.625
33
2.600
0
3DFACE
8
3d_top
62
27
10
1.000
20
0.625
30
1.500
11
-1.000
21
0.625
31
1.500
12
-1.000
22
0.625
32
2.600
13
1.000
23
0.625
33
2.600
0
3DFACE
8
3d_top
62
27
10
-1.000
20
-0.625
30
1.500
11
-1.000
21
0.625
31
1.500
12
-1.000
22
0.625
32
2.600
13
-1.000
23
-0.625
33
2.600
0
3DFACE
8
3d_top
62
27
10
1.000
20
-0.625
30
1.500
11
1.000
21
0.625
31
1.500
12
1.000
22
0.625
32
2.600
13
1.000
23
-0.625
33
2.600
0
ENDBLK
0
BLOCK
2
MINISO8_top
10
0
20
0
30
0
0
3DFACE
8
3d_top
62
28
10
1.600
20
-2.050
30
1.500
11
-1.600
21
-2.050
31
1.500
12
-1.600
22
2.050
32
1.500
13
1.600
23
2.050
33
1.500
0
3DFACE
8
3d_top
62
28
10
1.600
20
-2.050
30
2.500
11
-1.600
21
-2.050
31
2.500
12
-1.600
22
2.050
32
2.500
13
1.600
23
2.050
33
2.500
0
3DFACE
8
3d_top
62
28
10
1.600
20
-2.050
30
1.500
11
-1.600
21
-2.050
31
1.500
12
-1.600
22
-2.050
32
2.500
13
1.600
23
-2.050
33
2.500
0
3DFACE
8
3d_top
62
28
10
1.600
20
2.050
30
1.500
11
-1.600
21
2.050
31
1.500
12
-1.600
22
2.050
32
2.500
13
1.600
23
2.050
33
2.500
0
3DFACE
8
3d_top
62
28
10
-1.600
20
-2.050
30
1.500
11
-1.600
21
2.050
31
1.500
12
-1.600
22
2.050
32
2.500
13
-1.600
23
-2.050
33
2.500
0
3DFACE
8
3d_top
62
28
10
1.600
20
-2.050
30
1.500
11
1.600
21
2.050
31
1.500
12
1.600
22
2.050
32
2.500
13
1.600
23
-2.050
33
2.500
0
ENDBLK
0
BLOCK
2
MINISO8_bot
10
0
20
0
30
0
0
3DFACE
8
3d_bottom
62
29
10
-1.600
20
-2.050
30
0.000
11
1.600
21
-2.050
31
0.000
12
1.600
22
2.050
32
0.000
13
-1.600
23
2.050
33
0.000
0
3DFACE
8
3d_bottom
62
29
10
-1.600
20
-2.050
30
-1.000
11
1.600
21
-2.050
31
-1.000
12
1.600
22
2.050
32
-1.000
13
-1.600
23
2.050
33
-1.000
0
3DFACE
8
3d_bottom
62
29
10
-1.600
20
-2.050
30
0.000
11
1.600
21
-2.050
31
0.000
12
1.600
22
-2.050
32
-1.000
13
-1.600
23
-2.050
33
-1.000
0
3DFACE
8
3d_bottom
62
29
10
-1.600
20
2.050
30
0.000
11
1.600
21
2.050
31
0.000
12
1.600
22
2.050
32
-1.000
13
-1.600
23
2.050
33
-1.000
0
3DFACE
8
3d_bottom
62
29
10
1.600
20
-2.050
30
0.000
11
1.600
21
2.050
31
0.000
12
1.600
22
2.050
32
-1.000
13
1.600
23
-2.050
33
-1.000
0
3DFACE
8
3d_bottom
62
29
10
-1.600
20
-2.050
30
0.000
11
-1.600
21
2.050
31
0.000
12
-1.600
22
2.050
32
-1.000
13
-1.600
23
-2.050
33
-1.000
0
ENDBLK
0
BLOCK
2
SOT236_top
10
0
20
0
30
0
0
3DFACE
8
3d_top
62
30
10
0.310
20
-1.151
30
1.623
11
-0.310
21
-1.151
31
1.623
12
-0.310
22
-1.077
32
1.713
13
0.310
23
-1.077
33
1.713
0
3DFACE
8
3d_top
62
30
10
0.310
20
-1.077
30
1.713
11
-0.310
21
-1.077
31
1.713
12
-0.310
22
-1.046
32
1.931
13
0.310
23
-1.046
33
1.931
0
3DFACE
8
3d_top
62
30
10
0.310
20
-1.046
30
1.931
11
-0.310
21
-1.046
31
1.931
12
-0.310
22
-1.046
32
2.238
13
0.310
23
-1.046
33
2.238
0
3DFACE
8
3d_top
62
30
10
0.310
20
-0.942
30
2.546
11
-0.310
21
-0.942
31
2.546
12
-0.310
22
-1.016
32
2.456
13
0.310
23
-1.016
33
2.456
0
3DFACE
8
3d_top
62
30
10
0.310
20
-1.016
30
2.456
11
-0.310
21
-1.016
31
2.456
12
-0.310
22
-1.046
32
2.238
13
0.310
23
-1.046
33
2.238
0
3DFACE
8
3d_top
62
30
10
-0.310
20
1.149
30
1.623
11
0.310
21
1.149
31
1.623
12
0.310
22
1.075
32
1.713
13
-0.310
23
1.075
33
1.713
0
3DFACE
8
3d_top
62
30
10
-0.310
20
1.075
30
1.713
11
0.310
21
1.075
31
1.713
12
0.310
22
1.045
32
1.931
13
-0.310
23
1.045
33
1.931
0
3DFACE
8
3d_top
62
30
10
-0.310
20
1.045
30
1.931
11
0.310
21
1.045
31
1.931
12
0.310
22
1.045
32
2.238
13
-0.310
23
1.045
33
2.238
0
3DFACE
8
3d_top
62
30
10
-0.310
20
0.940
30
2.546
11
0.310
21
0.940
31
2.546
12
0.310
22
1.014
32
2.456
13
-0.310
23
1.014
33
2.456
0
3DFACE
8
3d_top
62
30
10
-0.310
20
1.014
30
2.456
11
0.310
21
1.014
31
2.456
12
0.310
22
1.045
32
2.238
13
-0.310
23
1.045
33
2.238
0
3DFACE
8
3d_top
62
30
10
1.395
20
-1.151
30
1.623
11
0.775
21
-1.151
31
1.623
12
0.775
22
-1.077
32
1.713
13
1.395
23
-1.077
33
1.713
0
3DFACE
8
3d_top
62
30
10
1.395
20
-1.077
30
1.713
11
0.775
21
-1.077
31
1.713
12
0.775
22
-1.046
32
1.931
13
1.395
23
-1.046
33
1.931
0
3DFACE
8
3d_top
62
30
10
1.395
20
-1.046
30
1.931
11
0.775
21
-1.046
31
1.931
12
0.775
22
-1.046
32
2.238
13
1.395
23
-1.046
33
2.238
0
3DFACE
8
3d_top
62
30
10
1.395
20
-0.942
30
2.546
11
0.775
21
-0.942
31
2.546
12
0.775
22
-1.016
32
2.456
13
1.395
23
-1.016
33
2.456
0
3DFACE
8
3d_top
62
30
10
1.395
20
-1.016
30
2.456
11
0.775
21
-1.016
31
2.456
12
0.775
22
-1.046
32
2.238
13
1.395
23
-1.046
33
2.238
0
3DFACE
8
3d_top
62
30
10
0.775
20
1.149
30
1.623
11
1.395
21
1.149
31
1.623
12
1.395
22
1.075
32
1.713
13
0.775
23
1.075
33
1.713
0
3DFACE
8
3d_top
62
30
10
0.775
20
1.075
30
1.713
11
1.395
21
1.075
31
1.713
12
1.395
22
1.045
32
1.931
13
0.775
23
1.045
33
1.931
0
3DFACE
8
3d_top
62
30
10
0.775
20
1.045
30
1.931
11
1.395
21
1.045
31
1.931
12
1.395
22
1.045
32
2.238
13
0.775
23
1.045
33
2.238
0
3DFACE
8
3d_top
62
30
10
0.775
20
0.940
30
2.546
11
1.395
21
0.940
31
2.546
12
1.395
22
1.014
32
2.456
13
0.775
23
1.014
33
2.456
0
3DFACE
8
3d_top
62
30
10
0.775
20
1.014
30
2.456
11
1.395
21
1.014
31
2.456
12
1.395
22
1.045
32
2.238
13
0.775
23
1.045
33
2.238
0
3DFACE
8
3d_top
62
30
10
-0.775
20
-1.151
30
1.623
11
-1.395
21
-1.151
31
1.623
12
-1.395
22
-1.077
32
1.713
13
-0.775
23
-1.077
33
1.713
0
3DFACE
8
3d_top
62
30
10
-0.775
20
-1.077
30
1.713
11
-1.395
21
-1.077
31
1.713
12
-1.395
22
-1.046
32
1.931
13
-0.775
23
-1.046
33
1.931
0
3DFACE
8
3d_top
62
30
10
-0.775
20
-1.046
30
1.931
11
-1.395
21
-1.046
31
1.931
12
-1.395
22
-1.046
32
2.238
13
-0.775
23
-1.046
33
2.238
0
3DFACE
8
3d_top
62
30
10
-0.775
20
-0.942
30
2.546
11
-1.395
21
-0.942
31
2.546
12
-1.395
22
-1.016
32
2.456
13
-0.775
23
-1.016
33
2.456
0
3DFACE
8
3d_top
62
30
10
-0.775
20
-1.016
30
2.456
11
-1.395
21
-1.016
31
2.456
12
-1.395
22
-1.046
32
2.238
13
-0.775
23
-1.046
33
2.238
0
3DFACE
8
3d_top
62
30
10
-1.395
20
1.149
30
1.623
11
-0.775
21
1.149
31
1.623
12
-0.775
22
1.075
32
1.713
13
-1.395
23
1.075
33
1.713
0
3DFACE
8
3d_top
62
30
10
-1.395
20
1.075
30
1.713
11
-0.775
21
1.075
31
1.713
12
-0.775
22
1.045
32
1.931
13
-1.395
23
1.045
33
1.931
0
3DFACE
8
3d_top
62
30
10
-1.395
20
1.045
30
1.931
11
-0.775
21
1.045
31
1.931
12
-0.775
22
1.045
32
2.238
13
-1.395
23
1.045
33
2.238
0
3DFACE
8
3d_top
62
30
10
-1.395
20
0.940
30
2.546
11
-0.775
21
0.940
31
2.546
12
-0.775
22
1.014
32
2.456
13
-1.395
23
1.014
33
2.456
0
3DFACE
8
3d_top
62
30
10
-1.395
20
1.014
30
2.456
11
-0.775
21
1.014
31
2.456
12
-0.775
22
1.045
32
2.238
13
-1.395
23
1.045
33
2.238
0
3DFACE
8
3d_top
62
30
10
1.550
20
-0.927
30
1.500
11
-1.550
21
-0.927
31
1.500
12
-1.550
22
0.927
32
1.500
13
1.550
23
0.927
33
1.500
0
3DFACE
8
3d_top
62
30
10
1.550
20
-0.927
30
2.950
11
-1.550
21
-0.927
31
2.950
12
-1.550
22
0.927
32
2.950
13
1.550
23
0.927
33
2.950
0
3DFACE
8
3d_top
62
30
10
1.550
20
-0.927
30
1.500
11
-1.550
21
-0.927
31
1.500
12
-1.550
22
-0.927
32
2.950
13
1.550
23
-0.927
33
2.950
0
3DFACE
8
3d_top
62
30
10
1.550
20
0.927
30
1.500
11
-1.550
21
0.927
31
1.500
12
-1.550
22
0.927
32
2.950
13
1.550
23
0.927
33
2.950
0
3DFACE
8
3d_top
62
30
10
-1.550
20
-0.927
30
1.500
11
-1.550
21
0.927
31
1.500
12
-1.550
22
0.927
32
2.950
13
-1.550
23
-0.927
33
2.950
0
3DFACE
8
3d_top
62
30
10
1.550
20
-0.927
30
1.500
11
1.550
21
0.927
31
1.500
12
1.550
22
0.927
32
2.950
13
1.550
23
-0.927
33
2.950
0
ENDBLK
0
BLOCK
2
UFQFPN48WIDE1_top
10
0
20
0
30
0
0
3DFACE
8
3d_top
62
32
10
-3.750
20
-2.727
30
1.620
11
-3.750
21
2.727
31
1.620
12
-3.509
22
2.727
32
1.708
13
-3.509
23
-2.727
33
1.708
0
3DFACE
8
3d_top
62
32
10
-3.509
20
-2.727
30
1.708
11
-3.509
21
2.727
31
1.708
12
-3.409
22
2.727
32
1.920
13
-3.409
23
-2.727
33
1.920
0
3DFACE
8
3d_top
62
32
10
-3.409
20
-2.727
30
1.920
11
-3.409
21
2.727
31
1.920
12
-3.409
22
2.727
32
2.220
13
-3.409
23
-2.727
33
2.220
0
3DFACE
8
3d_top
62
32
10
-3.068
20
-2.727
30
2.520
11
-3.068
21
2.727
31
2.520
12
-3.309
22
2.727
32
2.432
13
-3.309
23
-2.727
33
2.432
0
3DFACE
8
3d_top
62
32
10
-3.309
20
-2.727
30
2.432
11
-3.309
21
2.727
31
2.432
12
-3.409
22
2.727
32
2.220
13
-3.409
23
-2.727
33
2.220
0
3DFACE
8
3d_top
62
32
10
3.750
20
2.727
30
1.620
11
3.750
21
-2.727
31
1.620
12
3.509
22
-2.727
32
1.708
13
3.509
23
2.727
33
1.708
0
3DFACE
8
3d_top
62
32
10
3.509
20
2.727
30
1.708
11
3.509
21
-2.727
31
1.708
12
3.409
22
-2.727
32
1.920
13
3.409
23
2.727
33
1.920
0
3DFACE
8
3d_top
62
32
10
3.409
20
2.727
30
1.920
11
3.409
21
-2.727
31
1.920
12
3.409
22
-2.727
32
2.220
13
3.409
23
2.727
33
2.220
0
3DFACE
8
3d_top
62
32
10
3.068
20
2.727
30
2.520
11
3.068
21
-2.727
31
2.520
12
3.309
22
-2.727
32
2.432
13
3.309
23
2.727
33
2.432
0
3DFACE
8
3d_top
62
32
10
3.309
20
2.727
30
2.432
11
3.309
21
-2.727
31
2.432
12
3.409
22
-2.727
32
2.220
13
3.409
23
2.727
33
2.220
0
3DFACE
8
3d_top
62
20
10
2.727
20
-3.750
30
1.620
11
-2.727
21
-3.750
31
1.620
12
-2.727
22
-3.509
32
1.708
13
2.727
23
-3.509
33
1.708
0
3DFACE
8
3d_top
62
20
10
2.727
20
-3.509
30
1.708
11
-2.727
21
-3.509
31
1.708
12
-2.727
22
-3.409
32
1.920
13
2.727
23
-3.409
33
1.920
0
3DFACE
8
3d_top
62
20
10
2.727
20
-3.409
30
1.920
11
-2.727
21
-3.409
31
1.920
12
-2.727
22
-3.409
32
2.220
13
2.727
23
-3.409
33
2.220
0
3DFACE
8
3d_top
62
20
10
2.727
20
-3.068
30
2.520
11
-2.727
21
-3.068
31
2.520
12
-2.727
22
-3.309
32
2.432
13
2.727
23
-3.309
33
2.432
0
3DFACE
8
3d_top
62
20
10
2.727
20
-3.309
30
2.432
11
-2.727
21
-3.309
31
2.432
12
-2.727
22
-3.409
32
2.220
13
2.727
23
-3.409
33
2.220
0
3DFACE
8
3d_top
62
20
10
-2.727
20
3.750
30
1.620
11
2.727
21
3.750
31
1.620
12
2.727
22
3.509
32
1.708
13
-2.727
23
3.509
33
1.708
0
3DFACE
8
3d_top
62
20
10
-2.727
20
3.509
30
1.708
11
2.727
21
3.509
31
1.708
12
2.727
22
3.409
32
1.920
13
-2.727
23
3.409
33
1.920
0
3DFACE
8
3d_top
62
20
10
-2.727
20
3.409
30
1.920
11
2.727
21
3.409
31
1.920
12
2.727
22
3.409
32
2.220
13
-2.727
23
3.409
33
2.220
0
3DFACE
8
3d_top
62
20
10
-2.727
20
3.068
30
2.520
11
2.727
21
3.068
31
2.520
12
2.727
22
3.309
32
2.432
13
-2.727
23
3.309
33
2.432
0
3DFACE
8
3d_top
62
20
10
-2.727
20
3.309
30
2.432
11
2.727
21
3.309
31
2.432
12
2.727
22
3.409
32
2.220
13
-2.727
23
3.409
33
2.220
0
3DFACE
8
3d_top
62
20
10
3.059
20
-3.059
30
1.500
11
-3.059
21
-3.059
31
1.500
12
-3.059
22
3.059
32
1.500
13
3.059
23
3.059
33
1.500
0
3DFACE
8
3d_top
62
20
10
3.059
20
-3.059
30
3.000
11
-3.059
21
-3.059
31
3.000
12
-3.059
22
3.059
32
3.000
13
3.059
23
3.059
33
3.000
0
3DFACE
8
3d_top
62
20
10
3.059
20
-3.059
30
1.500
11
-3.059
21
-3.059
31
1.500
12
-3.059
22
-3.059
32
3.000
13
3.059
23
-3.059
33
3.000
0
3DFACE
8
3d_top
62
20
10
3.059
20
3.059
30
1.500
11
-3.059
21
3.059
31
1.500
12
-3.059
22
3.059
32
3.000
13
3.059
23
3.059
33
3.000
0
3DFACE
8
3d_top
62
20
10
-3.059
20
-3.059
30
1.500
11
-3.059
21
3.059
31
1.500
12
-3.059
22
3.059
32
3.000
13
-3.059
23
-3.059
33
3.000
0
3DFACE
8
3d_top
62
20
10
3.059
20
-3.059
30
1.500
11
3.059
21
3.059
31
1.500
12
3.059
22
3.059
32
3.000
13
3.059
23
-3.059
33
3.000
0
ENDBLK
0
BLOCK
2
SPBT2632_bot
10
0
20
0
30
0
0
3DFACE
8
3d_bottom
62
22
10
0.000
20
-6.200
30
0.000
11
11.600
21
-6.200
31
0.000
12
11.600
22
6.200
32
0.000
13
0.000
23
6.200
33
0.000
0
3DFACE
8
3d_bottom
62
22
10
0.000
20
-6.200
30
-1.500
11
11.600
21
-6.200
31
-1.500
12
11.600
22
6.200
32
-1.500
13
0.000
23
6.200
33
-1.500
0
3DFACE
8
3d_bottom
62
22
10
0.000
20
-6.200
30
0.000
11
11.600
21
-6.200
31
0.000
12
11.600
22
-6.200
32
-1.500
13
0.000
23
-6.200
33
-1.500
0
3DFACE
8
3d_bottom
62
22
10
0.000
20
6.200
30
0.000
11
11.600
21
6.200
31
0.000
12
11.600
22
6.200
32
-1.500
13
0.000
23
6.200
33
-1.500
0
3DFACE
8
3d_bottom
62
22
10
11.600
20
-6.200
30
0.000
11
11.600
21
6.200
31
0.000
12
11.600
22
6.200
32
-1.500
13
11.600
23
-6.200
33
-1.500
0
3DFACE
8
3d_bottom
62
22
10
0.000
20
-6.200
30
0.000
11
0.000
21
6.200
31
0.000
12
0.000
22
6.200
32
-1.500
13
0.000
23
-6.200
33
-1.500
0
3DFACE
8
3d_bottom
62
22
10
3.000
20
-6.000
30
-1.500
11
11.000
21
-6.000
31
-1.500
12
11.000
22
6.000
32
-1.500
13
3.000
23
6.000
33
-1.500
0
3DFACE
8
3d_bottom
62
22
10
3.000
20
-6.000
30
-2.800
11
11.000
21
-6.000
31
-2.800
12
11.000
22
6.000
32
-2.800
13
3.000
23
6.000
33
-2.800
0
3DFACE
8
3d_bottom
62
22
10
3.000
20
-6.000
30
-1.500
11
11.000
21
-6.000
31
-1.500
12
11.000
22
-6.000
32
-2.800
13
3.000
23
-6.000
33
-2.800
0
3DFACE
8
3d_bottom
62
22
10
3.000
20
6.000
30
-1.500
11
11.000
21
6.000
31
-1.500
12
11.000
22
6.000
32
-2.800
13
3.000
23
6.000
33
-2.800
0
3DFACE
8
3d_bottom
62
22
10
11.000
20
-6.000
30
-1.500
11
11.000
21
6.000
31
-1.500
12
11.000
22
6.000
32
-2.800
13
11.000
23
-6.000
33
-2.800
0
3DFACE
8
3d_bottom
62
22
10
3.000
20
-6.000
30
-1.500
11
3.000
21
6.000
31
-1.500
12
3.000
22
6.000
32
-2.800
13
3.000
23
-6.000
33
-2.800
0
3DFACE
8
3d_bottom
62
14
10
11.600
20
-6.800
30
0.000
11
10.900
21
-6.800
31
0.000
12
10.900
22
-6.800
32
-1.500
13
11.600
23
-6.800
33
-1.500
0
3DFACE
8
3d_bottom
62
14
10
10.900
20
-6.800
30
0.000
11
10.880
21
-6.645
31
0.000
12
10.880
22
-6.645
32
-1.500
13
10.900
23
-6.800
33
-1.500
0
3DFACE
8
3d_bottom
62
14
10
10.880
20
-6.645
30
0.000
11
10.820
21
-6.500
31
0.000
12
10.820
22
-6.500
32
-1.500
13
10.880
23
-6.645
33
-1.500
0
3DFACE
8
3d_bottom
62
14
10
10.820
20
-6.500
30
0.000
11
10.724
21
-6.376
31
0.000
12
10.724
22
-6.376
32
-1.500
13
10.820
23
-6.500
33
-1.500
0
3DFACE
8
3d_bottom
62
14
10
10.724
20
-6.376
30
0.000
11
10.600
21
-6.280
31
0.000
12
10.600
22
-6.280
32
-1.500
13
10.724
23
-6.376
33
-1.500
0
3DFACE
8
3d_bottom
62
14
10
10.600
20
-6.280
30
0.000
11
10.455
21
-6.220
31
0.000
12
10.455
22
-6.220
32
-1.500
13
10.600
23
-6.280
33
-1.500
0
3DFACE
8
3d_bottom
62
14
10
10.455
20
-6.220
30
0.000
11
10.300
21
-6.200
31
0.000
12
10.300
22
-6.200
32
-1.500
13
10.455
23
-6.220
33
-1.500
0
3DFACE
8
3d_bottom
62
14
10
10.300
20
-6.200
30
0.000
11
10.300
21
-6.200
31
0.000
12
10.300
22
-6.200
32
-1.500
13
10.300
23
-6.200
33
-1.500
0
3DFACE
8
3d_bottom
62
14
10
10.300
20
-6.200
30
0.000
11
10.145
21
-6.220
31
0.000
12
10.145
22
-6.220
32
-1.500
13
10.300
23
-6.200
33
-1.500
0
3DFACE
8
3d_bottom
62
14
10
10.145
20
-6.220
30
0.000
11
10.000
21
-6.280
31
0.000
12
10.000
22
-6.280
32
-1.500
13
10.145
23
-6.220
33
-1.500
0
3DFACE
8
3d_bottom
62
14
10
10.000
20
-6.280
30
0.000
11
9.876
21
-6.376
31
0.000
12
9.876
22
-6.376
32
-1.500
13
10.000
23
-6.280
33
-1.500
0
3DFACE
8
3d_bottom
62
14
10
9.876
20
-6.376
30
0.000
11
9.780
21
-6.500
31
0.000
12
9.780
22
-6.500
32
-1.500
13
9.876
23
-6.376
33
-1.500
0
3DFACE
8
3d_bottom
62
14
10
9.780
20
-6.500
30
0.000
11
9.720
21
-6.645
31
0.000
12
9.720
22
-6.645
32
-1.500
13
9.780
23
-6.500
33
-1.500
0
3DFACE
8
3d_bottom
62
14
10
9.720
20
-6.645
30
0.000
11
9.700
21
-6.800
31
0.000
12
9.700
22
-6.800
32
-1.500
13
9.720
23
-6.645
33
-1.500
0
3DFACE
8
3d_bottom
62
14
10
9.700
20
-6.800
30
0.000
11
9.700
21
-6.800
31
0.000
12
9.700
22
-6.800
32
-1.500
13
9.700
23
-6.800
33
-1.500
0
3DFACE
8
3d_bottom
62
14
10
9.700
20
-6.800
30
0.000
11
9.400
21
-6.800
31
0.000
12
9.400
22
-6.800
32
-1.500
13
9.700
23
-6.800
33
-1.500
0
3DFACE
8
3d_bottom
62
14
10
9.400
20
-6.800
30
0.000
11
9.380
21
-6.645
31
0.000
12
9.380
22
-6.645
32
-1.500
13
9.400
23
-6.800
33
-1.500
0
3DFACE
8
3d_bottom
62
14
10
9.380
20
-6.645
30
0.000
11
9.320
21
-6.500
31
0.000
12
9.320
22
-6.500
32
-1.500
13
9.380
23
-6.645
33
-1.500
0
3DFACE
8
3d_bottom
62
14
10
9.320
20
-6.500
30
0.000
11
9.224
21
-6.376
31
0.000
12
9.224
22
-6.376
32
-1.500
13
9.320
23
-6.500
33
-1.500
0
3DFACE
8
3d_bottom
62
14
10
9.224
20
-6.376
30
0.000
11
9.100
21
-6.280
31
0.000
12
9.100
22
-6.280
32
-1.500
13
9.224
23
-6.376
33
-1.500
0
3DFACE
8
3d_bottom
62
14
10
9.100
20
-6.280
30
0.000
11
8.955
21
-6.220
31
0.000
12
8.955
22
-6.220
32
-1.500
13
9.100
23
-6.280
33
-1.500
0
3DFACE
8
3d_bottom
62
14
10
8.955
20
-6.220
30
0.000
11
8.800
21
-6.200
31
0.000
12
8.800
22
-6.200
32
-1.500
13
8.955
23
-6.220
33
-1.500
0
3DFACE
8
3d_bottom
62
14
10
8.800
20
-6.200
30
0.000
11
8.800
21
-6.200
31
0.000
12
8.800
22
-6.200
32
-1.500
13
8.800
23
-6.200
33
-1.500
0
3DFACE
8
3d_bottom
62
14
10
8.800
20
-6.200
30
0.000
11
8.645
21
-6.220
31
0.000
12
8.645
22
-6.220
32
-1.500
13
8.800
23
-6.200
33
-1.500
0
3DFACE
8
3d_bottom
62
14
10
8.645
20
-6.220
30
0.000
11
8.500
21
-6.280
31
0.000
12
8.500
22
-6.280
32
-1.500
13
8.645
23
-6.220
33
-1.500
0
3DFACE
8
3d_bottom
62
14
10
8.500
20
-6.280
30
0.000
11
8.376
21
-6.376
31
0.000
12
8.376
22
-6.376
32
-1.500
13
8.500
23
-6.280
33
-1.500
0
3DFACE
8
3d_bottom
62
14
10
8.376
20
-6.376
30
0.000
11
8.280
21
-6.500
31
0.000
12
8.280
22
-6.500
32
-1.500
13
8.376
23
-6.376
33
-1.500
0
3DFACE
8
3d_bottom
62
14
10
8.280
20
-6.500
30
0.000
11
8.220
21
-6.645
31
0.000
12
8.220
22
-6.645
32
-1.500
13
8.280
23
-6.500
33
-1.500
0
3DFACE
8
3d_bottom
62
14
10
8.220
20
-6.645
30
0.000
11
8.200
21
-6.800
31
0.000
12
8.200
22
-6.800
32
-1.500
13
8.220
23
-6.645
33
-1.500
0
3DFACE
8
3d_bottom
62
14
10
8.200
20
-6.800
30
0.000
11
8.200
21
-6.800
31
0.000
12
8.200
22
-6.800
32
-1.500
13
8.200
23
-6.800
33
-1.500
0
3DFACE
8
3d_bottom
62
14
10
8.200
20
-6.800
30
0.000
11
7.900
21
-6.800
31
0.000
12
7.900
22
-6.800
32
-1.500
13
8.200
23
-6.800
33
-1.500
0
3DFACE
8
3d_bottom
62
14
10
7.900
20
-6.800
30
0.000
11
7.880
21
-6.645
31
0.000
12
7.880
22
-6.645
32
-1.500
13
7.900
23
-6.800
33
-1.500
0
3DFACE
8
3d_bottom
62
14
10
7.880
20
-6.645
30
0.000
11
7.820
21
-6.500
31
0.000
12
7.820
22
-6.500
32
-1.500
13
7.880
23
-6.645
33
-1.500
0
3DFACE
8
3d_bottom
62
14
10
7.820
20
-6.500
30
0.000
11
7.724
21
-6.376
31
0.000
12
7.724
22
-6.376
32
-1.500
13
7.820
23
-6.500
33
-1.500
0
3DFACE
8
3d_bottom
62
14
10
7.724
20
-6.376
30
0.000
11
7.600
21
-6.280
31
0.000
12
7.600
22
-6.280
32
-1.500
13
7.724
23
-6.376
33
-1.500
0
3DFACE
8
3d_bottom
62
14
10
7.600
20
-6.280
30
0.000
11
7.455
21
-6.220
31
0.000
12
7.455
22
-6.220
32
-1.500
13
7.600
23
-6.280
33
-1.500
0
3DFACE
8
3d_bottom
62
14
10
7.455
20
-6.220
30
0.000
11
7.300
21
-6.200
31
0.000
12
7.300
22
-6.200
32
-1.500
13
7.455
23
-6.220
33
-1.500
0
3DFACE
8
3d_bottom
62
14
10
7.300
20
-6.200
30
0.000
11
7.300
21
-6.200
31
0.000
12
7.300
22
-6.200
32
-1.500
13
7.300
23
-6.200
33
-1.500
0
3DFACE
8
3d_bottom
62
14
10
7.300
20
-6.200
30
0.000
11
7.145
21
-6.220
31
0.000
12
7.145
22
-6.220
32
-1.500
13
7.300
23
-6.200
33
-1.500
0
3DFACE
8
3d_bottom
62
14
10
7.145
20
-6.220
30
0.000
11
7.000
21
-6.280
31
0.000
12
7.000
22
-6.280
32
-1.500
13
7.145
23
-6.220
33
-1.500
0
3DFACE
8
3d_bottom
62
14
10
7.000
20
-6.280
30
0.000
11
6.876
21
-6.376
31
0.000
12
6.876
22
-6.376
32
-1.500
13
7.000
23
-6.280
33
-1.500
0
3DFACE
8
3d_bottom
62
14
10
6.876
20
-6.376
30
0.000
11
6.780
21
-6.500
31
0.000
12
6.780
22
-6.500
32
-1.500
13
6.876
23
-6.376
33
-1.500
0
3DFACE
8
3d_bottom
62
14
10
6.780
20
-6.500
30
0.000
11
6.720
21
-6.645
31
0.000
12
6.720
22
-6.645
32
-1.500
13
6.780
23
-6.500
33
-1.500
0
3DFACE
8
3d_bottom
62
14
10
6.720
20
-6.645
30
0.000
11
6.700
21
-6.800
31
0.000
12
6.700
22
-6.800
32
-1.500
13
6.720
23
-6.645
33
-1.500
0
3DFACE
8
3d_bottom
62
14
10
6.700
20
-6.800
30
0.000
11
6.700
21
-6.800
31
0.000
12
6.700
22
-6.800
32
-1.500
13
6.700
23
-6.800
33
-1.500
0
3DFACE
8
3d_bottom
62
14
10
6.700
20
-6.800
30
0.000
11
6.400
21
-6.800
31
0.000
12
6.400
22
-6.800
32
-1.500
13
6.700
23
-6.800
33
-1.500
0
3DFACE
8
3d_bottom
62
14
10
6.400
20
-6.800
30
0.000
11
6.380
21
-6.645
31
0.000
12
6.380
22
-6.645
32
-1.500
13
6.400
23
-6.800
33
-1.500
0
3DFACE
8
3d_bottom
62
14
10
6.380
20
-6.645
30
0.000
11
6.320
21
-6.500
31
0.000
12
6.320
22
-6.500
32
-1.500
13
6.380
23
-6.645
33
-1.500
0
3DFACE
8
3d_bottom
62
14
10
6.320
20
-6.500
30
0.000
11
6.224
21
-6.376
31
0.000
12
6.224
22
-6.376
32
-1.500
13
6.320
23
-6.500
33
-1.500
0
3DFACE
8
3d_bottom
62
14
10
6.224
20
-6.376
30
0.000
11
6.100
21
-6.280
31
0.000
12
6.100
22
-6.280
32
-1.500
13
6.224
23
-6.376
33
-1.500
0
3DFACE
8
3d_bottom
62
14
10
6.100
20
-6.280
30
0.000
11
5.955
21
-6.220
31
0.000
12
5.955
22
-6.220
32
-1.500
13
6.100
23
-6.280
33
-1.500
0
3DFACE
8
3d_bottom
62
14
10
5.955
20
-6.220
30
0.000
11
5.800
21
-6.200
31
0.000
12
5.800
22
-6.200
32
-1.500
13
5.955
23
-6.220
33
-1.500
0
3DFACE
8
3d_bottom
62
14
10
5.800
20
-6.200
30
0.000
11
5.800
21
-6.200
31
0.000
12
5.800
22
-6.200
32
-1.500
13
5.800
23
-6.200
33
-1.500
0
3DFACE
8
3d_bottom
62
14
10
5.800
20
-6.200
30
0.000
11
5.645
21
-6.220
31
0.000
12
5.645
22
-6.220
32
-1.500
13
5.800
23
-6.200
33
-1.500
0
3DFACE
8
3d_bottom
62
14
10
5.645
20
-6.220
30
0.000
11
5.500
21
-6.280
31
0.000
12
5.500
22
-6.280
32
-1.500
13
5.645
23
-6.220
33
-1.500
0
3DFACE
8
3d_bottom
62
14
10
5.500
20
-6.280
30
0.000
11
5.376
21
-6.376
31
0.000
12
5.376
22
-6.376
32
-1.500
13
5.500
23
-6.280
33
-1.500
0
3DFACE
8
3d_bottom
62
14
10
5.376
20
-6.376
30
0.000
11
5.280
21
-6.500
31
0.000
12
5.280
22
-6.500
32
-1.500
13
5.376
23
-6.376
33
-1.500
0
3DFACE
8
3d_bottom
62
14
10
5.280
20
-6.500
30
0.000
11
5.220
21
-6.645
31
0.000
12
5.220
22
-6.645
32
-1.500
13
5.280
23
-6.500
33
-1.500
0
3DFACE
8
3d_bottom
62
14
10
5.220
20
-6.645
30
0.000
11
5.200
21
-6.800
31
0.000
12
5.200
22
-6.800
32
-1.500
13
5.220
23
-6.645
33
-1.500
0
3DFACE
8
3d_bottom
62
14
10
5.200
20
-6.800
30
0.000
11
5.200
21
-6.800
31
0.000
12
5.200
22
-6.800
32
-1.500
13
5.200
23
-6.800
33
-1.500
0
3DFACE
8
3d_bottom
62
14
10
5.200
20
-6.800
30
0.000
11
4.900
21
-6.800
31
0.000
12
4.900
22
-6.800
32
-1.500
13
5.200
23
-6.800
33
-1.500
0
3DFACE
8
3d_bottom
62
14
10
4.900
20
-6.800
30
0.000
11
4.880
21
-6.645
31
0.000
12
4.880
22
-6.645
32
-1.500
13
4.900
23
-6.800
33
-1.500
0
3DFACE
8
3d_bottom
62
14
10
4.880
20
-6.645
30
0.000
11
4.820
21
-6.500
31
0.000
12
4.820
22
-6.500
32
-1.500
13
4.880
23
-6.645
33
-1.500
0
3DFACE
8
3d_bottom
62
14
10
4.820
20
-6.500
30
0.000
11
4.724
21
-6.376
31
0.000
12
4.724
22
-6.376
32
-1.500
13
4.820
23
-6.500
33
-1.500
0
3DFACE
8
3d_bottom
62
14
10
4.724
20
-6.376
30
0.000
11
4.600
21
-6.280
31
0.000
12
4.600
22
-6.280
32
-1.500
13
4.724
23
-6.376
33
-1.500
0
3DFACE
8
3d_bottom
62
14
10
4.600
20
-6.280
30
0.000
11
4.455
21
-6.220
31
0.000
12
4.455
22
-6.220
32
-1.500
13
4.600
23
-6.280
33
-1.500
0
3DFACE
8
3d_bottom
62
14
10
4.455
20
-6.220
30
0.000
11
4.300
21
-6.200
31
0.000
12
4.300
22
-6.200
32
-1.500
13
4.455
23
-6.220
33
-1.500
0
3DFACE
8
3d_bottom
62
14
10
4.300
20
-6.200
30
0.000
11
4.300
21
-6.200
31
0.000
12
4.300
22
-6.200
32
-1.500
13
4.300
23
-6.200
33
-1.500
0
3DFACE
8
3d_bottom
62
14
10
4.300
20
-6.200
30
0.000
11
4.145
21
-6.220
31
0.000
12
4.145
22
-6.220
32
-1.500
13
4.300
23
-6.200
33
-1.500
0
3DFACE
8
3d_bottom
62
14
10
4.145
20
-6.220
30
0.000
11
4.000
21
-6.280
31
0.000
12
4.000
22
-6.280
32
-1.500
13
4.145
23
-6.220
33
-1.500
0
3DFACE
8
3d_bottom
62
14
10
4.000
20
-6.280
30
0.000
11
3.876
21
-6.376
31
0.000
12
3.876
22
-6.376
32
-1.500
13
4.000
23
-6.280
33
-1.500
0
3DFACE
8
3d_bottom
62
14
10
3.876
20
-6.376
30
0.000
11
3.780
21
-6.500
31
0.000
12
3.780
22
-6.500
32
-1.500
13
3.876
23
-6.376
33
-1.500
0
3DFACE
8
3d_bottom
62
14
10
3.780
20
-6.500
30
0.000
11
3.720
21
-6.645
31
0.000
12
3.720
22
-6.645
32
-1.500
13
3.780
23
-6.500
33
-1.500
0
3DFACE
8
3d_bottom
62
14
10
3.720
20
-6.645
30
0.000
11
3.700
21
-6.800
31
0.000
12
3.700
22
-6.800
32
-1.500
13
3.720
23
-6.645
33
-1.500
0
3DFACE
8
3d_bottom
62
14
10
3.700
20
-6.800
30
0.000
11
3.700
21
-6.800
31
0.000
12
3.700
22
-6.800
32
-1.500
13
3.700
23
-6.800
33
-1.500
0
3DFACE
8
3d_bottom
62
14
10
3.700
20
-6.800
30
0.000
11
3.400
21
-6.800
31
0.000
12
3.400
22
-6.800
32
-1.500
13
3.700
23
-6.800
33
-1.500
0
3DFACE
8
3d_bottom
62
14
10
3.400
20
-6.800
30
0.000
11
3.380
21
-6.645
31
0.000
12
3.380
22
-6.645
32
-1.500
13
3.400
23
-6.800
33
-1.500
0
3DFACE
8
3d_bottom
62
14
10
3.380
20
-6.645
30
0.000
11
3.320
21
-6.500
31
0.000
12
3.320
22
-6.500
32
-1.500
13
3.380
23
-6.645
33
-1.500
0
3DFACE
8
3d_bottom
62
14
10
3.320
20
-6.500
30
0.000
11
3.224
21
-6.376
31
0.000
12
3.224
22
-6.376
32
-1.500
13
3.320
23
-6.500
33
-1.500
0
3DFACE
8
3d_bottom
62
14
10
3.224
20
-6.376
30
0.000
11
3.100
21
-6.280
31
0.000
12
3.100
22
-6.280
32
-1.500
13
3.224
23
-6.376
33
-1.500
0
3DFACE
8
3d_bottom
62
14
10
3.100
20
-6.280
30
0.000
11
2.955
21
-6.220
31
0.000
12
2.955
22
-6.220
32
-1.500
13
3.100
23
-6.280
33
-1.500
0
3DFACE
8
3d_bottom
62
14
10
2.955
20
-6.220
30
0.000
11
2.800
21
-6.200
31
0.000
12
2.800
22
-6.200
32
-1.500
13
2.955
23
-6.220
33
-1.500
0
3DFACE
8
3d_bottom
62
14
10
2.800
20
-6.200
30
0.000
11
2.800
21
-6.200
31
0.000
12
2.800
22
-6.200
32
-1.500
13
2.800
23
-6.200
33
-1.500
0
3DFACE
8
3d_bottom
62
14
10
2.800
20
-6.200
30
0.000
11
2.645
21
-6.220
31
0.000
12
2.645
22
-6.220
32
-1.500
13
2.800
23
-6.200
33
-1.500
0
3DFACE
8
3d_bottom
62
14
10
2.645
20
-6.220
30
0.000
11
2.500
21
-6.280
31
0.000
12
2.500
22
-6.280
32
-1.500
13
2.645
23
-6.220
33
-1.500
0
3DFACE
8
3d_bottom
62
14
10
2.500
20
-6.280
30
0.000
11
2.376
21
-6.376
31
0.000
12
2.376
22
-6.376
32
-1.500
13
2.500
23
-6.280
33
-1.500
0
3DFACE
8
3d_bottom
62
14
10
2.376
20
-6.376
30
0.000
11
2.280
21
-6.500
31
0.000
12
2.280
22
-6.500
32
-1.500
13
2.376
23
-6.376
33
-1.500
0
3DFACE
8
3d_bottom
62
14
10
2.280
20
-6.500
30
0.000
11
2.220
21
-6.645
31
0.000
12
2.220
22
-6.645
32
-1.500
13
2.280
23
-6.500
33
-1.500
0
3DFACE
8
3d_bottom
62
14
10
2.220
20
-6.645
30
0.000
11
2.200
21
-6.800
31
0.000
12
2.200
22
-6.800
32
-1.500
13
2.220
23
-6.645
33
-1.500
0
3DFACE
8
3d_bottom
62
14
10
2.200
20
-6.800
30
0.000
11
2.200
21
-6.800
31
0.000
12
2.200
22
-6.800
32
-1.500
13
2.200
23
-6.800
33
-1.500
0
3DFACE
8
3d_bottom
62
14
10
2.200
20
-6.800
30
0.000
11
1.900
21
-6.800
31
0.000
12
1.900
22
-6.800
32
-1.500
13
2.200
23
-6.800
33
-1.500
0
3DFACE
8
3d_bottom
62
14
10
1.900
20
-6.800
30
0.000
11
1.880
21
-6.645
31
0.000
12
1.880
22
-6.645
32
-1.500
13
1.900
23
-6.800
33
-1.500
0
3DFACE
8
3d_bottom
62
14
10
1.880
20
-6.645
30
0.000
11
1.820
21
-6.500
31
0.000
12
1.820
22
-6.500
32
-1.500
13
1.880
23
-6.645
33
-1.500
0
3DFACE
8
3d_bottom
62
14
10
1.820
20
-6.500
30
0.000
11
1.724
21
-6.376
31
0.000
12
1.724
22
-6.376
32
-1.500
13
1.820
23
-6.500
33
-1.500
0
3DFACE
8
3d_bottom
62
14
10
1.724
20
-6.376
30
0.000
11
1.600
21
-6.280
31
0.000
12
1.600
22
-6.280
32
-1.500
13
1.724
23
-6.376
33
-1.500
0
3DFACE
8
3d_bottom
62
14
10
1.600
20
-6.280
30
0.000
11
1.455
21
-6.220
31
0.000
12
1.455
22
-6.220
32
-1.500
13
1.600
23
-6.280
33
-1.500
0
3DFACE
8
3d_bottom
62
14
10
1.455
20
-6.220
30
0.000
11
1.300
21
-6.200
31
0.000
12
1.300
22
-6.200
32
-1.500
13
1.455
23
-6.220
33
-1.500
0
3DFACE
8
3d_bottom
62
14
10
1.300
20
-6.200
30
0.000
11
1.300
21
-6.200
31
0.000
12
1.300
22
-6.200
32
-1.500
13
1.300
23
-6.200
33
-1.500
0
3DFACE
8
3d_bottom
62
14
10
1.300
20
-6.200
30
0.000
11
1.145
21
-6.220
31
0.000
12
1.145
22
-6.220
32
-1.500
13
1.300
23
-6.200
33
-1.500
0
3DFACE
8
3d_bottom
62
14
10
1.145
20
-6.220
30
0.000
11
1.000
21
-6.280
31
0.000
12
1.000
22
-6.280
32
-1.500
13
1.145
23
-6.220
33
-1.500
0
3DFACE
8
3d_bottom
62
14
10
1.000
20
-6.280
30
0.000
11
0.876
21
-6.376
31
0.000
12
0.876
22
-6.376
32
-1.500
13
1.000
23
-6.280
33
-1.500
0
3DFACE
8
3d_bottom
62
14
10
0.876
20
-6.376
30
0.000
11
0.780
21
-6.500
31
0.000
12
0.780
22
-6.500
32
-1.500
13
0.876
23
-6.376
33
-1.500
0
3DFACE
8
3d_bottom
62
14
10
0.780
20
-6.500
30
0.000
11
0.720
21
-6.645
31
0.000
12
0.720
22
-6.645
32
-1.500
13
0.780
23
-6.500
33
-1.500
0
3DFACE
8
3d_bottom
62
14
10
0.720
20
-6.645
30
0.000
11
0.700
21
-6.800
31
0.000
12
0.700
22
-6.800
32
-1.500
13
0.720
23
-6.645
33
-1.500
0
3DFACE
8
3d_bottom
62
14
10
0.700
20
-6.800
30
0.000
11
0.700
21
-6.800
31
0.000
12
0.700
22
-6.800
32
-1.500
13
0.700
23
-6.800
33
-1.500
0
3DFACE
8
3d_bottom
62
14
10
0.700
20
-6.800
30
0.000
11
0.000
21
-6.800
31
0.000
12
0.000
22
-6.800
32
-1.500
13
0.700
23
-6.800
33
-1.500
0
3DFACE
8
3d_bottom
62
14
10
0.000
20
-6.800
30
0.000
11
0.000
21
6.800
31
0.000
12
0.000
22
6.800
32
-1.500
13
0.000
23
-6.800
33
-1.500
0
3DFACE
8
3d_bottom
62
14
10
0.000
20
6.800
30
0.000
11
0.700
21
6.800
31
0.000
12
0.700
22
6.800
32
-1.500
13
0.000
23
6.800
33
-1.500
0
3DFACE
8
3d_bottom
62
14
10
0.700
20
6.800
30
0.000
11
0.720
21
6.645
31
0.000
12
0.720
22
6.645
32
-1.500
13
0.700
23
6.800
33
-1.500
0
3DFACE
8
3d_bottom
62
14
10
0.720
20
6.645
30
0.000
11
0.780
21
6.500
31
0.000
12
0.780
22
6.500
32
-1.500
13
0.720
23
6.645
33
-1.500
0
3DFACE
8
3d_bottom
62
14
10
0.780
20
6.500
30
0.000
11
0.876
21
6.376
31
0.000
12
0.876
22
6.376
32
-1.500
13
0.780
23
6.500
33
-1.500
0
3DFACE
8
3d_bottom
62
14
10
0.876
20
6.376
30
0.000
11
1.000
21
6.280
31
0.000
12
1.000
22
6.280
32
-1.500
13
0.876
23
6.376
33
-1.500
0
3DFACE
8
3d_bottom
62
14
10
1.000
20
6.280
30
0.000
11
1.145
21
6.220
31
0.000
12
1.145
22
6.220
32
-1.500
13
1.000
23
6.280
33
-1.500
0
3DFACE
8
3d_bottom
62
14
10
1.145
20
6.220
30
0.000
11
1.300
21
6.200
31
0.000
12
1.300
22
6.200
32
-1.500
13
1.145
23
6.220
33
-1.500
0
3DFACE
8
3d_bottom
62
14
10
1.300
20
6.200
30
0.000
11
1.300
21
6.200
31
0.000
12
1.300
22
6.200
32
-1.500
13
1.300
23
6.200
33
-1.500
0
3DFACE
8
3d_bottom
62
14
10
1.300
20
6.200
30
0.000
11
1.455
21
6.220
31
0.000
12
1.455
22
6.220
32
-1.500
13
1.300
23
6.200
33
-1.500
0
3DFACE
8
3d_bottom
62
14
10
1.455
20
6.220
30
0.000
11
1.600
21
6.280
31
0.000
12
1.600
22
6.280
32
-1.500
13
1.455
23
6.220
33
-1.500
0
3DFACE
8
3d_bottom
62
14
10
1.600
20
6.280
30
0.000
11
1.724
21
6.376
31
0.000
12
1.724
22
6.376
32
-1.500
13
1.600
23
6.280
33
-1.500
0
3DFACE
8
3d_bottom
62
14
10
1.724
20
6.376
30
0.000
11
1.820
21
6.500
31
0.000
12
1.820
22
6.500
32
-1.500
13
1.724
23
6.376
33
-1.500
0
3DFACE
8
3d_bottom
62
14
10
1.820
20
6.500
30
0.000
11
1.880
21
6.645
31
0.000
12
1.880
22
6.645
32
-1.500
13
1.820
23
6.500
33
-1.500
0
3DFACE
8
3d_bottom
62
14
10
1.880
20
6.645
30
0.000
11
1.900
21
6.800
31
0.000
12
1.900
22
6.800
32
-1.500
13
1.880
23
6.645
33
-1.500
0
3DFACE
8
3d_bottom
62
14
10
1.900
20
6.800
30
0.000
11
1.900
21
6.800
31
0.000
12
1.900
22
6.800
32
-1.500
13
1.900
23
6.800
33
-1.500
0
3DFACE
8
3d_bottom
62
14
10
1.900
20
6.800
30
0.000
11
2.200
21
6.800
31
0.000
12
2.200
22
6.800
32
-1.500
13
1.900
23
6.800
33
-1.500
0
3DFACE
8
3d_bottom
62
14
10
2.200
20
6.800
30
0.000
11
2.220
21
6.645
31
0.000
12
2.220
22
6.645
32
-1.500
13
2.200
23
6.800
33
-1.500
0
3DFACE
8
3d_bottom
62
14
10
2.220
20
6.645
30
0.000
11
2.280
21
6.500
31
0.000
12
2.280
22
6.500
32
-1.500
13
2.220
23
6.645
33
-1.500
0
3DFACE
8
3d_bottom
62
14
10
2.280
20
6.500
30
0.000
11
2.376
21
6.376
31
0.000
12
2.376
22
6.376
32
-1.500
13
2.280
23
6.500
33
-1.500
0
3DFACE
8
3d_bottom
62
14
10
2.376
20
6.376
30
0.000
11
2.500
21
6.280
31
0.000
12
2.500
22
6.280
32
-1.500
13
2.376
23
6.376
33
-1.500
0
3DFACE
8
3d_bottom
62
14
10
2.500
20
6.280
30
0.000
11
2.645
21
6.220
31
0.000
12
2.645
22
6.220
32
-1.500
13
2.500
23
6.280
33
-1.500
0
3DFACE
8
3d_bottom
62
14
10
2.645
20
6.220
30
0.000
11
2.800
21
6.200
31
0.000
12
2.800
22
6.200
32
-1.500
13
2.645
23
6.220
33
-1.500
0
3DFACE
8
3d_bottom
62
14
10
2.800
20
6.200
30
0.000
11
2.800
21
6.200
31
0.000
12
2.800
22
6.200
32
-1.500
13
2.800
23
6.200
33
-1.500
0
3DFACE
8
3d_bottom
62
14
10
2.800
20
6.200
30
0.000
11
2.955
21
6.220
31
0.000
12
2.955
22
6.220
32
-1.500
13
2.800
23
6.200
33
-1.500
0
3DFACE
8
3d_bottom
62
14
10
2.955
20
6.220
30
0.000
11
3.100
21
6.280
31
0.000
12
3.100
22
6.280
32
-1.500
13
2.955
23
6.220
33
-1.500
0
3DFACE
8
3d_bottom
62
14
10
3.100
20
6.280
30
0.000
11
3.224
21
6.376
31
0.000
12
3.224
22
6.376
32
-1.500
13
3.100
23
6.280
33
-1.500
0
3DFACE
8
3d_bottom
62
14
10
3.224
20
6.376
30
0.000
11
3.320
21
6.500
31
0.000
12
3.320
22
6.500
32
-1.500
13
3.224
23
6.376
33
-1.500
0
3DFACE
8
3d_bottom
62
14
10
3.320
20
6.500
30
0.000
11
3.380
21
6.645
31
0.000
12
3.380
22
6.645
32
-1.500
13
3.320
23
6.500
33
-1.500
0
3DFACE
8
3d_bottom
62
14
10
3.380
20
6.645
30
0.000
11
3.400
21
6.800
31
0.000
12
3.400
22
6.800
32
-1.500
13
3.380
23
6.645
33
-1.500
0
3DFACE
8
3d_bottom
62
14
10
3.400
20
6.800
30
0.000
11
3.400
21
6.800
31
0.000
12
3.400
22
6.800
32
-1.500
13
3.400
23
6.800
33
-1.500
0
3DFACE
8
3d_bottom
62
14
10
3.400
20
6.800
30
0.000
11
3.700
21
6.800
31
0.000
12
3.700
22
6.800
32
-1.500
13
3.400
23
6.800
33
-1.500
0
3DFACE
8
3d_bottom
62
14
10
3.700
20
6.800
30
0.000
11
3.720
21
6.645
31
0.000
12
3.720
22
6.645
32
-1.500
13
3.700
23
6.800
33
-1.500
0
3DFACE
8
3d_bottom
62
14
10
3.720
20
6.645
30
0.000
11
3.780
21
6.500
31
0.000
12
3.780
22
6.500
32
-1.500
13
3.720
23
6.645
33
-1.500
0
3DFACE
8
3d_bottom
62
14
10
3.780
20
6.500
30
0.000
11
3.876
21
6.376
31
0.000
12
3.876
22
6.376
32
-1.500
13
3.780
23
6.500
33
-1.500
0
3DFACE
8
3d_bottom
62
14
10
3.876
20
6.376
30
0.000
11
4.000
21
6.280
31
0.000
12
4.000
22
6.280
32
-1.500
13
3.876
23
6.376
33
-1.500
0
3DFACE
8
3d_bottom
62
14
10
4.000
20
6.280
30
0.000
11
4.145
21
6.220
31
0.000
12
4.145
22
6.220
32
-1.500
13
4.000
23
6.280
33
-1.500
0
3DFACE
8
3d_bottom
62
14
10
4.145
20
6.220
30
0.000
11
4.300
21
6.200
31
0.000
12
4.300
22
6.200
32
-1.500
13
4.145
23
6.220
33
-1.500
0
3DFACE
8
3d_bottom
62
14
10
4.300
20
6.200
30
0.000
11
4.300
21
6.200
31
0.000
12
4.300
22
6.200
32
-1.500
13
4.300
23
6.200
33
-1.500
0
3DFACE
8
3d_bottom
62
14
10
4.300
20
6.200
30
0.000
11
4.455
21
6.220
31
0.000
12
4.455
22
6.220
32
-1.500
13
4.300
23
6.200
33
-1.500
0
3DFACE
8
3d_bottom
62
14
10
4.455
20
6.220
30
0.000
11
4.600
21
6.280
31
0.000
12
4.600
22
6.280
32
-1.500
13
4.455
23
6.220
33
-1.500
0
3DFACE
8
3d_bottom
62
14
10
4.600
20
6.280
30
0.000
11
4.724
21
6.376
31
0.000
12
4.724
22
6.376
32
-1.500
13
4.600
23
6.280
33
-1.500
0
3DFACE
8
3d_bottom
62
14
10
4.724
20
6.376
30
0.000
11
4.820
21
6.500
31
0.000
12
4.820
22
6.500
32
-1.500
13
4.724
23
6.376
33
-1.500
0
3DFACE
8
3d_bottom
62
14
10
4.820
20
6.500
30
0.000
11
4.880
21
6.645
31
0.000
12
4.880
22
6.645
32
-1.500
13
4.820
23
6.500
33
-1.500
0
3DFACE
8
3d_bottom
62
14
10
4.880
20
6.645
30
0.000
11
4.900
21
6.800
31
0.000
12
4.900
22
6.800
32
-1.500
13
4.880
23
6.645
33
-1.500
0
3DFACE
8
3d_bottom
62
14
10
4.900
20
6.800
30
0.000
11
4.900
21
6.800
31
0.000
12
4.900
22
6.800
32
-1.500
13
4.900
23
6.800
33
-1.500
0
3DFACE
8
3d_bottom
62
14
10
4.900
20
6.800
30
0.000
11
5.200
21
6.800
31
0.000
12
5.200
22
6.800
32
-1.500
13
4.900
23
6.800
33
-1.500
0
3DFACE
8
3d_bottom
62
14
10
5.200
20
6.800
30
0.000
11
5.220
21
6.645
31
0.000
12
5.220
22
6.645
32
-1.500
13
5.200
23
6.800
33
-1.500
0
3DFACE
8
3d_bottom
62
14
10
5.220
20
6.645
30
0.000
11
5.280
21
6.500
31
0.000
12
5.280
22
6.500
32
-1.500
13
5.220
23
6.645
33
-1.500
0
3DFACE
8
3d_bottom
62
14
10
5.280
20
6.500
30
0.000
11
5.376
21
6.376
31
0.000
12
5.376
22
6.376
32
-1.500
13
5.280
23
6.500
33
-1.500
0
3DFACE
8
3d_bottom
62
14
10
5.376
20
6.376
30
0.000
11
5.500
21
6.280
31
0.000
12
5.500
22
6.280
32
-1.500
13
5.376
23
6.376
33
-1.500
0
3DFACE
8
3d_bottom
62
14
10
5.500
20
6.280
30
0.000
11
5.645
21
6.220
31
0.000
12
5.645
22
6.220
32
-1.500
13
5.500
23
6.280
33
-1.500
0
3DFACE
8
3d_bottom
62
14
10
5.645
20
6.220
30
0.000
11
5.800
21
6.200
31
0.000
12
5.800
22
6.200
32
-1.500
13
5.645
23
6.220
33
-1.500
0
3DFACE
8
3d_bottom
62
14
10
5.800
20
6.200
30
0.000
11
5.800
21
6.200
31
0.000
12
5.800
22
6.200
32
-1.500
13
5.800
23
6.200
33
-1.500
0
3DFACE
8
3d_bottom
62
14
10
5.800
20
6.200
30
0.000
11
5.955
21
6.220
31
0.000
12
5.955
22
6.220
32
-1.500
13
5.800
23
6.200
33
-1.500
0
3DFACE
8
3d_bottom
62
14
10
5.955
20
6.220
30
0.000
11
6.100
21
6.280
31
0.000
12
6.100
22
6.280
32
-1.500
13
5.955
23
6.220
33
-1.500
0
3DFACE
8
3d_bottom
62
14
10
6.100
20
6.280
30
0.000
11
6.224
21
6.376
31
0.000
12
6.224
22
6.376
32
-1.500
13
6.100
23
6.280
33
-1.500
0
3DFACE
8
3d_bottom
62
14
10
6.224
20
6.376
30
0.000
11
6.320
21
6.500
31
0.000
12
6.320
22
6.500
32
-1.500
13
6.224
23
6.376
33
-1.500
0
3DFACE
8
3d_bottom
62
14
10
6.320
20
6.500
30
0.000
11
6.380
21
6.645
31
0.000
12
6.380
22
6.645
32
-1.500
13
6.320
23
6.500
33
-1.500
0
3DFACE
8
3d_bottom
62
14
10
6.380
20
6.645
30
0.000
11
6.400
21
6.800
31
0.000
12
6.400
22
6.800
32
-1.500
13
6.380
23
6.645
33
-1.500
0
3DFACE
8
3d_bottom
62
14
10
6.400
20
6.800
30
0.000
11
6.400
21
6.800
31
0.000
12
6.400
22
6.800
32
-1.500
13
6.400
23
6.800
33
-1.500
0
3DFACE
8
3d_bottom
62
14
10
6.400
20
6.800
30
0.000
11
6.700
21
6.800
31
0.000
12
6.700
22
6.800
32
-1.500
13
6.400
23
6.800
33
-1.500
0
3DFACE
8
3d_bottom
62
14
10
6.700
20
6.800
30
0.000
11
6.720
21
6.645
31
0.000
12
6.720
22
6.645
32
-1.500
13
6.700
23
6.800
33
-1.500
0
3DFACE
8
3d_bottom
62
14
10
6.720
20
6.645
30
0.000
11
6.780
21
6.500
31
0.000
12
6.780
22
6.500
32
-1.500
13
6.720
23
6.645
33
-1.500
0
3DFACE
8
3d_bottom
62
14
10
6.780
20
6.500
30
0.000
11
6.876
21
6.376
31
0.000
12
6.876
22
6.376
32
-1.500
13
6.780
23
6.500
33
-1.500
0
3DFACE
8
3d_bottom
62
14
10
6.876
20
6.376
30
0.000
11
7.000
21
6.280
31
0.000
12
7.000
22
6.280
32
-1.500
13
6.876
23
6.376
33
-1.500
0
3DFACE
8
3d_bottom
62
14
10
7.000
20
6.280
30
0.000
11
7.145
21
6.220
31
0.000
12
7.145
22
6.220
32
-1.500
13
7.000
23
6.280
33
-1.500
0
3DFACE
8
3d_bottom
62
14
10
7.145
20
6.220
30
0.000
11
7.300
21
6.200
31
0.000
12
7.300
22
6.200
32
-1.500
13
7.145
23
6.220
33
-1.500
0
3DFACE
8
3d_bottom
62
14
10
7.300
20
6.200
30
0.000
11
7.300
21
6.200
31
0.000
12
7.300
22
6.200
32
-1.500
13
7.300
23
6.200
33
-1.500
0
3DFACE
8
3d_bottom
62
14
10
7.300
20
6.200
30
0.000
11
7.455
21
6.220
31
0.000
12
7.455
22
6.220
32
-1.500
13
7.300
23
6.200
33
-1.500
0
3DFACE
8
3d_bottom
62
14
10
7.455
20
6.220
30
0.000
11
7.600
21
6.280
31
0.000
12
7.600
22
6.280
32
-1.500
13
7.455
23
6.220
33
-1.500
0
3DFACE
8
3d_bottom
62
14
10
7.600
20
6.280
30
0.000
11
7.724
21
6.376
31
0.000
12
7.724
22
6.376
32
-1.500
13
7.600
23
6.280
33
-1.500
0
3DFACE
8
3d_bottom
62
14
10
7.724
20
6.376
30
0.000
11
7.820
21
6.500
31
0.000
12
7.820
22
6.500
32
-1.500
13
7.724
23
6.376
33
-1.500
0
3DFACE
8
3d_bottom
62
14
10
7.820
20
6.500
30
0.000
11
7.880
21
6.645
31
0.000
12
7.880
22
6.645
32
-1.500
13
7.820
23
6.500
33
-1.500
0
3DFACE
8
3d_bottom
62
14
10
7.880
20
6.645
30
0.000
11
7.900
21
6.800
31
0.000
12
7.900
22
6.800
32
-1.500
13
7.880
23
6.645
33
-1.500
0
3DFACE
8
3d_bottom
62
14
10
7.900
20
6.800
30
0.000
11
7.900
21
6.800
31
0.000
12
7.900
22
6.800
32
-1.500
13
7.900
23
6.800
33
-1.500
0
3DFACE
8
3d_bottom
62
14
10
7.900
20
6.800
30
0.000
11
8.200
21
6.800
31
0.000
12
8.200
22
6.800
32
-1.500
13
7.900
23
6.800
33
-1.500
0
3DFACE
8
3d_bottom
62
14
10
8.200
20
6.800
30
0.000
11
8.220
21
6.645
31
0.000
12
8.220
22
6.645
32
-1.500
13
8.200
23
6.800
33
-1.500
0
3DFACE
8
3d_bottom
62
14
10
8.220
20
6.645
30
0.000
11
8.280
21
6.500
31
0.000
12
8.280
22
6.500
32
-1.500
13
8.220
23
6.645
33
-1.500
0
3DFACE
8
3d_bottom
62
14
10
8.280
20
6.500
30
0.000
11
8.376
21
6.376
31
0.000
12
8.376
22
6.376
32
-1.500
13
8.280
23
6.500
33
-1.500
0
3DFACE
8
3d_bottom
62
14
10
8.376
20
6.376
30
0.000
11
8.500
21
6.280
31
0.000
12
8.500
22
6.280
32
-1.500
13
8.376
23
6.376
33
-1.500
0
3DFACE
8
3d_bottom
62
14
10
8.500
20
6.280
30
0.000
11
8.645
21
6.220
31
0.000
12
8.645
22
6.220
32
-1.500
13
8.500
23
6.280
33
-1.500
0
3DFACE
8
3d_bottom
62
14
10
8.645
20
6.220
30
0.000
11
8.800
21
6.200
31
0.000
12
8.800
22
6.200
32
-1.500
13
8.645
23
6.220
33
-1.500
0
3DFACE
8
3d_bottom
62
14
10
8.800
20
6.200
30
0.000
11
8.800
21
6.200
31
0.000
12
8.800
22
6.200
32
-1.500
13
8.800
23
6.200
33
-1.500
0
3DFACE
8
3d_bottom
62
14
10
8.800
20
6.200
30
0.000
11
8.955
21
6.220
31
0.000
12
8.955
22
6.220
32
-1.500
13
8.800
23
6.200
33
-1.500
0
3DFACE
8
3d_bottom
62
14
10
8.955
20
6.220
30
0.000
11
9.100
21
6.280
31
0.000
12
9.100
22
6.280
32
-1.500
13
8.955
23
6.220
33
-1.500
0
3DFACE
8
3d_bottom
62
14
10
9.100
20
6.280
30
0.000
11
9.224
21
6.376
31
0.000
12
9.224
22
6.376
32
-1.500
13
9.100
23
6.280
33
-1.500
0
3DFACE
8
3d_bottom
62
14
10
9.224
20
6.376
30
0.000
11
9.320
21
6.500
31
0.000
12
9.320
22
6.500
32
-1.500
13
9.224
23
6.376
33
-1.500
0
3DFACE
8
3d_bottom
62
14
10
9.320
20
6.500
30
0.000
11
9.380
21
6.645
31
0.000
12
9.380
22
6.645
32
-1.500
13
9.320
23
6.500
33
-1.500
0
3DFACE
8
3d_bottom
62
14
10
9.380
20
6.645
30
0.000
11
9.400
21
6.800
31
0.000
12
9.400
22
6.800
32
-1.500
13
9.380
23
6.645
33
-1.500
0
3DFACE
8
3d_bottom
62
14
10
9.400
20
6.800
30
0.000
11
9.400
21
6.800
31
0.000
12
9.400
22
6.800
32
-1.500
13
9.400
23
6.800
33
-1.500
0
3DFACE
8
3d_bottom
62
14
10
9.400
20
6.800
30
0.000
11
9.700
21
6.800
31
0.000
12
9.700
22
6.800
32
-1.500
13
9.400
23
6.800
33
-1.500
0
3DFACE
8
3d_bottom
62
14
10
9.700
20
6.800
30
0.000
11
9.720
21
6.645
31
0.000
12
9.720
22
6.645
32
-1.500
13
9.700
23
6.800
33
-1.500
0
3DFACE
8
3d_bottom
62
14
10
9.720
20
6.645
30
0.000
11
9.780
21
6.500
31
0.000
12
9.780
22
6.500
32
-1.500
13
9.720
23
6.645
33
-1.500
0
3DFACE
8
3d_bottom
62
14
10
9.780
20
6.500
30
0.000
11
9.876
21
6.376
31
0.000
12
9.876
22
6.376
32
-1.500
13
9.780
23
6.500
33
-1.500
0
3DFACE
8
3d_bottom
62
14
10
9.876
20
6.376
30
0.000
11
10.000
21
6.280
31
0.000
12
10.000
22
6.280
32
-1.500
13
9.876
23
6.376
33
-1.500
0
3DFACE
8
3d_bottom
62
14
10
10.000
20
6.280
30
0.000
11
10.145
21
6.220
31
0.000
12
10.145
22
6.220
32
-1.500
13
10.000
23
6.280
33
-1.500
0
3DFACE
8
3d_bottom
62
14
10
10.145
20
6.220
30
0.000
11
10.300
21
6.200
31
0.000
12
10.300
22
6.200
32
-1.500
13
10.145
23
6.220
33
-1.500
0
3DFACE
8
3d_bottom
62
14
10
10.300
20
6.200
30
0.000
11
10.300
21
6.200
31
0.000
12
10.300
22
6.200
32
-1.500
13
10.300
23
6.200
33
-1.500
0
3DFACE
8
3d_bottom
62
14
10
10.300
20
6.200
30
0.000
11
10.455
21
6.220
31
0.000
12
10.455
22
6.220
32
-1.500
13
10.300
23
6.200
33
-1.500
0
3DFACE
8
3d_bottom
62
14
10
10.455
20
6.220
30
0.000
11
10.600
21
6.280
31
0.000
12
10.600
22
6.280
32
-1.500
13
10.455
23
6.220
33
-1.500
0
3DFACE
8
3d_bottom
62
14
10
10.600
20
6.280
30
0.000
11
10.724
21
6.376
31
0.000
12
10.724
22
6.376
32
-1.500
13
10.600
23
6.280
33
-1.500
0
3DFACE
8
3d_bottom
62
14
10
10.724
20
6.376
30
0.000
11
10.820
21
6.500
31
0.000
12
10.820
22
6.500
32
-1.500
13
10.724
23
6.376
33
-1.500
0
3DFACE
8
3d_bottom
62
14
10
10.820
20
6.500
30
0.000
11
10.880
21
6.645
31
0.000
12
10.880
22
6.645
32
-1.500
13
10.820
23
6.500
33
-1.500
0
3DFACE
8
3d_bottom
62
14
10
10.880
20
6.645
30
0.000
11
10.900
21
6.800
31
0.000
12
10.900
22
6.800
32
-1.500
13
10.880
23
6.645
33
-1.500
0
3DFACE
8
3d_bottom
62
14
10
10.900
20
6.800
30
0.000
11
10.900
21
6.800
31
0.000
12
10.900
22
6.800
32
-1.500
13
10.900
23
6.800
33
-1.500
0
3DFACE
8
3d_bottom
62
14
10
10.900
20
6.800
30
0.000
11
11.600
21
6.800
31
0.000
12
11.600
22
6.800
32
-1.500
13
10.900
23
6.800
33
-1.500
0
3DFACE
8
3d_bottom
62
14
10
11.600
20
6.800
30
0.000
11
11.600
21
-1.450
31
0.000
12
11.600
22
-1.450
32
-1.500
13
11.600
23
6.800
33
-1.500
0
3DFACE
8
3d_bottom
62
14
10
11.600
20
-1.450
30
0.000
11
11.445
21
-1.470
31
0.000
12
11.445
22
-1.470
32
-1.500
13
11.600
23
-1.450
33
-1.500
0
3DFACE
8
3d_bottom
62
14
10
11.445
20
-1.470
30
0.000
11
11.300
21
-1.530
31
0.000
12
11.300
22
-1.530
32
-1.500
13
11.445
23
-1.470
33
-1.500
0
3DFACE
8
3d_bottom
62
14
10
11.300
20
-1.530
30
0.000
11
11.176
21
-1.626
31
0.000
12
11.176
22
-1.626
32
-1.500
13
11.300
23
-1.530
33
-1.500
0
3DFACE
8
3d_bottom
62
14
10
11.176
20
-1.626
30
0.000
11
11.080
21
-1.750
31
0.000
12
11.080
22
-1.750
32
-1.500
13
11.176
23
-1.626
33
-1.500
0
3DFACE
8
3d_bottom
62
14
10
11.080
20
-1.750
30
0.000
11
11.020
21
-1.895
31
0.000
12
11.020
22
-1.895
32
-1.500
13
11.080
23
-1.750
33
-1.500
0
3DFACE
8
3d_bottom
62
14
10
11.020
20
-1.895
30
0.000
11
11.000
21
-2.050
31
0.000
12
11.000
22
-2.050
32
-1.500
13
11.020
23
-1.895
33
-1.500
0
3DFACE
8
3d_bottom
62
14
10
11.000
20
-2.050
30
0.000
11
11.000
21
-2.050
31
0.000
12
11.000
22
-2.050
32
-1.500
13
11.000
23
-2.050
33
-1.500
0
3DFACE
8
3d_bottom
62
14
10
11.000
20
-2.050
30
0.000
11
11.020
21
-2.205
31
0.000
12
11.020
22
-2.205
32
-1.500
13
11.000
23
-2.050
33
-1.500
0
3DFACE
8
3d_bottom
62
14
10
11.020
20
-2.205
30
0.000
11
11.080
21
-2.350
31
0.000
12
11.080
22
-2.350
32
-1.500
13
11.020
23
-2.205
33
-1.500
0
3DFACE
8
3d_bottom
62
14
10
11.080
20
-2.350
30
0.000
11
11.176
21
-2.474
31
0.000
12
11.176
22
-2.474
32
-1.500
13
11.080
23
-2.350
33
-1.500
0
3DFACE
8
3d_bottom
62
14
10
11.176
20
-2.474
30
0.000
11
11.300
21
-2.570
31
0.000
12
11.300
22
-2.570
32
-1.500
13
11.176
23
-2.474
33
-1.500
0
3DFACE
8
3d_bottom
62
14
10
11.300
20
-2.570
30
0.000
11
11.445
21
-2.630
31
0.000
12
11.445
22
-2.630
32
-1.500
13
11.300
23
-2.570
33
-1.500
0
3DFACE
8
3d_bottom
62
14
10
11.445
20
-2.630
30
0.000
11
11.600
21
-2.650
31
0.000
12
11.600
22
-2.650
32
-1.500
13
11.445
23
-2.630
33
-1.500
0
3DFACE
8
3d_bottom
62
14
10
11.600
20
-2.650
30
0.000
11
11.600
21
-2.650
31
0.000
12
11.600
22
-2.650
32
-1.500
13
11.600
23
-2.650
33
-1.500
0
3DFACE
8
3d_bottom
62
14
10
11.600
20
-2.650
30
0.000
11
11.600
21
-3.100
31
0.000
12
11.600
22
-3.100
32
-1.500
13
11.600
23
-2.650
33
-1.500
0
3DFACE
8
3d_bottom
62
14
10
11.600
20
-3.100
30
0.000
11
11.445
21
-3.120
31
0.000
12
11.445
22
-3.120
32
-1.500
13
11.600
23
-3.100
33
-1.500
0
3DFACE
8
3d_bottom
62
14
10
11.445
20
-3.120
30
0.000
11
11.300
21
-3.180
31
0.000
12
11.300
22
-3.180
32
-1.500
13
11.445
23
-3.120
33
-1.500
0
3DFACE
8
3d_bottom
62
14
10
11.300
20
-3.180
30
0.000
11
11.176
21
-3.276
31
0.000
12
11.176
22
-3.276
32
-1.500
13
11.300
23
-3.180
33
-1.500
0
3DFACE
8
3d_bottom
62
14
10
11.176
20
-3.276
30
0.000
11
11.080
21
-3.400
31
0.000
12
11.080
22
-3.400
32
-1.500
13
11.176
23
-3.276
33
-1.500
0
3DFACE
8
3d_bottom
62
14
10
11.080
20
-3.400
30
0.000
11
11.020
21
-3.545
31
0.000
12
11.020
22
-3.545
32
-1.500
13
11.080
23
-3.400
33
-1.500
0
3DFACE
8
3d_bottom
62
14
10
11.020
20
-3.545
30
0.000
11
11.000
21
-3.700
31
0.000
12
11.000
22
-3.700
32
-1.500
13
11.020
23
-3.545
33
-1.500
0
3DFACE
8
3d_bottom
62
14
10
11.000
20
-3.700
30
0.000
11
11.000
21
-3.700
31
0.000
12
11.000
22
-3.700
32
-1.500
13
11.000
23
-3.700
33
-1.500
0
3DFACE
8
3d_bottom
62
14
10
11.000
20
-3.700
30
0.000
11
11.020
21
-3.855
31
0.000
12
11.020
22
-3.855
32
-1.500
13
11.000
23
-3.700
33
-1.500
0
3DFACE
8
3d_bottom
62
14
10
11.020
20
-3.855
30
0.000
11
11.080
21
-4.000
31
0.000
12
11.080
22
-4.000
32
-1.500
13
11.020
23
-3.855
33
-1.500
0
3DFACE
8
3d_bottom
62
14
10
11.080
20
-4.000
30
0.000
11
11.176
21
-4.124
31
0.000
12
11.176
22
-4.124
32
-1.500
13
11.080
23
-4.000
33
-1.500
0
3DFACE
8
3d_bottom
62
14
10
11.176
20
-4.124
30
0.000
11
11.300
21
-4.220
31
0.000
12
11.300
22
-4.220
32
-1.500
13
11.176
23
-4.124
33
-1.500
0
3DFACE
8
3d_bottom
62
14
10
11.300
20
-4.220
30
0.000
11
11.445
21
-4.280
31
0.000
12
11.445
22
-4.280
32
-1.500
13
11.300
23
-4.220
33
-1.500
0
3DFACE
8
3d_bottom
62
14
10
11.445
20
-4.280
30
0.000
11
11.600
21
-4.300
31
0.000
12
11.600
22
-4.300
32
-1.500
13
11.445
23
-4.280
33
-1.500
0
3DFACE
8
3d_bottom
62
14
10
11.600
20
-4.300
30
0.000
11
11.600
21
-4.300
31
0.000
12
11.600
22
-4.300
32
-1.500
13
11.600
23
-4.300
33
-1.500
0
3DFACE
8
3d_bottom
62
14
10
11.600
20
-4.300
30
0.000
11
11.600
21
-6.800
31
0.000
12
11.600
22
-6.800
32
-1.500
13
11.600
23
-4.300
33
-1.500
0
ENDBLK
0
BLOCK
2
m4.52.2_top
10
0
20
0
30
0
0
ENDBLK
0
BLOCK
2
m1.51.5_bot
10
0
20
0
30
0
0
BLOCK
2
m1.51.5_bot
10
0
20
0
30
0
0
BLOCK
2
m1.51.5_bot
10
0
20
0
30
0
0
BLOCK
2
L1154RY_bot
10
0
20
0
30
0
0
3DFACE
8
3d_bottom
62
24
10
-1.391
20
5.250
30
-2.474
11
-1.505
21
5.250
31
-3.063
12
-1.311
22
6.250
32
-3.101
13
-1.197
23
6.250
33
-2.512
0
3DFACE
8
3d_bottom
62
24
10
-1.197
20
6.250
30
-2.512
11
-1.311
21
6.250
31
-3.101
12
-0.781
22
6.982
32
-3.204
13
-0.667
23
6.982
33
-2.615
0
3DFACE
8
3d_bottom
62
24
10
-0.667
20
6.982
30
-2.615
11
-0.781
21
6.982
31
-3.204
12
-0.057
22
7.250
32
-3.344
13
0.057
23
7.250
33
-2.756
0
3DFACE
8
3d_bottom
62
24
10
1.391
20
5.250
30
-3.626
11
1.505
21
5.250
31
-3.037
12
1.311
22
6.250
32
-2.999
13
1.197
23
6.250
33
-3.588
0
3DFACE
8
3d_bottom
62
24
10
1.197
20
6.250
30
-3.588
11
1.311
21
6.250
31
-2.999
12
0.781
22
6.982
32
-2.896
13
0.667
23
6.982
33
-3.485
0
3DFACE
8
3d_bottom
62
24
10
0.667
20
6.982
30
-3.485
11
0.781
21
6.982
31
-2.896
12
0.057
22
7.250
32
-2.756
13
-0.057
23
7.250
33
-3.344
0
3DFACE
8
3d_bottom
62
24
10
1.194
20
5.250
30
-2.112
11
0.750
21
5.250
31
-1.720
12
0.619
22
6.250
32
-1.872
13
1.064
23
6.250
33
-2.264
0
3DFACE
8
3d_bottom
62
24
10
1.064
20
6.250
30
-2.264
11
0.619
21
6.250
31
-1.872
12
0.264
22
6.982
32
-2.287
13
0.708
23
6.982
33
-2.679
0
3DFACE
8
3d_bottom
62
24
10
0.708
20
6.982
30
-2.679
11
0.264
21
6.982
31
-2.287
12
-0.222
22
7.250
32
-2.854
13
0.222
23
7.250
33
-3.246
0
3DFACE
8
3d_bottom
62
24
10
-1.194
20
5.250
30
-3.988
11
-0.750
21
5.250
31
-4.380
12
-0.619
22
6.250
32
-4.228
13
-1.064
23
6.250
33
-3.836
0
3DFACE
8
3d_bottom
62
24
10
-1.064
20
6.250
30
-3.836
11
-0.619
21
6.250
31
-4.228
12
-0.264
22
6.982
32
-3.813
13
-0.708
23
6.982
33
-3.421
0
3DFACE
8
3d_bottom
62
24
10
-0.708
20
6.982
30
-3.421
11
-0.264
21
6.982
31
-3.813
12
0.222
22
7.250
32
-3.246
13
-0.222
23
7.250
33
-2.854
0
3DFACE
8
3d_bottom
62
24
10
1.492
20
5.250
30
-2.841
11
1.302
21
5.250
31
-2.274
12
1.115
22
6.250
32
-2.340
13
1.305
23
6.250
33
-2.907
0
3DFACE
8
3d_bottom
62
24
10
1.305
20
6.250
30
-2.907
11
1.115
21
6.250
31
-2.340
12
0.603
22
6.982
32
-2.521
13
0.794
23
6.982
33
-3.087
0
3DFACE
8
3d_bottom
62
24
10
0.794
20
6.982
30
-3.087
11
0.603
21
6.982
31
-2.521
12
-0.095
22
7.250
32
-2.767
13
0.095
23
7.250
33
-3.333
0
3DFACE
8
3d_bottom
62
24
10
-1.492
20
5.250
30
-3.259
11
-1.302
21
5.250
31
-3.826
12
-1.115
22
6.250
32
-3.760
13
-1.305
23
6.250
33
-3.193
0
3DFACE
8
3d_bottom
62
24
10
-1.305
20
6.250
30
-3.193
11
-1.115
21
6.250
31
-3.760
12
-0.603
22
6.982
32
-3.579
13
-0.794
23
6.982
33
-3.013
0
3DFACE
8
3d_bottom
62
24
10
-0.794
20
6.982
30
-3.013
11
-0.603
21
6.982
31
-3.579
12
0.095
22
7.250
32
-3.333
13
-0.095
23
7.250
33
-2.767
0
3DFACE
8
3d_bottom
62
24
10
-0.916
20
5.250
30
-1.843
11
-1.305
21
5.250
31
-2.297
12
-1.156
22
6.250
32
-2.428
13
-0.768
23
6.250
33
-1.974
0
3DFACE
8
3d_bottom
62
24
10
-0.768
20
6.250
30
-1.974
11
-1.156
21
6.250
31
-2.428
12
-0.750
22
6.982
32
-2.787
13
-0.361
23
6.982
33
-2.333
0
3DFACE
8
3d_bottom
62
24
10
-0.361
20
6.982
30
-2.333
11
-0.750
21
6.982
31
-2.787
12
-0.194
22
7.250
32
-3.277
13
0.194
23
7.250
33
-2.823
0
3DFACE
8
3d_bottom
62
24
10
0.916
20
5.250
30
-4.257
11
1.305
21
5.250
31
-3.803
12
1.156
22
6.250
32
-3.672
13
0.768
23
6.250
33
-4.126
0
3DFACE
8
3d_bottom
62
24
10
0.768
20
6.250
30
-4.126
11
1.156
21
6.250
31
-3.672
12
0.750
22
6.982
32
-3.313
13
0.361
23
6.982
33
-3.767
0
3DFACE
8
3d_bottom
62
24
10
0.361
20
6.982
30
-3.767
11
0.750
21
6.982
31
-3.313
12
0.194
22
7.250
32
-2.823
13
-0.194
23
7.250
33
-3.277
0
3DFACE
8
3d_bottom
62
24
10
-0.197
20
5.250
30
-1.536
11
-0.755
21
5.250
31
-1.733
12
-0.692
22
6.250
32
-1.922
13
-0.133
23
6.250
33
-1.725
0
3DFACE
8
3d_bottom
62
24
10
-0.133
20
6.250
30
-1.725
11
-0.692
21
6.250
31
-1.922
12
-0.517
22
6.982
32
-2.441
13
0.041
23
6.982
33
-2.244
0
3DFACE
8
3d_bottom
62
24
10
0.041
20
6.982
30
-2.244
11
-0.517
21
6.982
31
-2.441
12
-0.279
22
7.250
32
-3.148
13
0.279
23
7.250
33
-2.952
0
3DFACE
8
3d_bottom
62
24
10
0.197
20
5.250
30
-4.564
11
0.755
21
5.250
31
-4.367
12
0.692
22
6.250
32
-4.178
13
0.133
23
6.250
33
-4.375
0
3DFACE
8
3d_bottom
62
24
10
0.133
20
6.250
30
-4.375
11
0.692
21
6.250
31
-4.178
12
0.517
22
6.982
32
-3.659
13
-0.041
23
6.982
33
-3.856
0
3DFACE
8
3d_bottom
62
24
10
-0.041
20
6.982
30
-3.856
11
0.517
21
6.982
31
-3.659
12
0.279
22
7.250
32
-2.952
13
-0.279
23
7.250
33
-3.148
0
3DFACE
8
3d_bottom
62
24
10
0.576
20
5.250
30
-1.634
11
-0.003
21
5.250
31
-1.521
12
-0.042
22
6.250
32
-1.719
13
0.537
23
6.250
33
-1.831
0
3DFACE
8
3d_bottom
62
24
10
0.537
20
6.250
30
-1.831
11
-0.042
21
6.250
31
-1.719
12
-0.146
22
6.982
32
-2.257
13
0.433
23
6.982
33
-2.370
0
3DFACE
8
3d_bottom
62
24
10
0.433
20
6.982
30
-2.370
11
-0.146
21
6.982
31
-2.257
12
-0.290
22
7.250
32
-2.994
13
0.290
23
7.250
33
-3.106
0
3DFACE
8
3d_bottom
62
24
10
-0.576
20
5.250
30
-4.466
11
0.003
21
5.250
31
-4.579
12
0.042
22
6.250
32
-4.381
13
-0.537
23
6.250
33
-4.269
0
3DFACE
8
3d_bottom
62
24
10
-0.537
20
6.250
30
-4.269
11
0.042
21
6.250
31
-4.381
12
0.146
22
6.982
32
-3.843
13
-0.433
23
6.982
33
-3.730
0
3DFACE
8
3d_bottom
62
24
10
-0.433
20
6.982
30
-3.730
11
0.146
21
6.982
31
-3.843
12
0.290
22
7.250
32
-3.106
13
-0.290
23
7.250
33
-2.994
0
3DFACE
8
3d_bottom
62
24
10
-1.500
20
2.200
30
-3.050
11
-1.386
21
2.200
31
-2.476
12
-1.386
22
5.250
32
-2.476
13
-1.500
23
5.250
33
-3.050
0
3DFACE
8
3d_bottom
62
24
10
-1.386
20
2.200
30
-2.476
11
-1.061
21
2.200
31
-1.989
12
-1.061
22
5.250
32
-1.989
13
-1.386
23
5.250
33
-2.476
0
3DFACE
8
3d_bottom
62
24
10
-1.500
20
2.200
30
-3.050
11
0.000
21
2.200
31
-3.050
12
-1.061
22
2.200
32
-1.989
13
-1.386
23
2.200
33
-2.476
0
3DFACE
8
3d_bottom
62
24
10
-1.500
20
5.250
30
-3.050
11
0.000
21
5.250
31
-3.050
12
-1.061
22
5.250
32
-1.989
13
-1.386
23
5.250
33
-2.476
0
3DFACE
8
3d_bottom
62
24
10
-1.061
20
2.200
30
-1.989
11
-0.574
21
2.200
31
-1.664
12
-0.574
22
5.250
32
-1.664
13
-1.061
23
5.250
33
-1.989
0
3DFACE
8
3d_bottom
62
24
10
-0.574
20
2.200
30
-1.664
11
0.000
21
2.200
31
-1.550
12
0.000
22
5.250
32
-1.550
13
-0.574
23
5.250
33
-1.664
0
3DFACE
8
3d_bottom
62
24
10
-1.061
20
2.200
30
-1.989
11
0.000
21
2.200
31
-3.050
12
0.000
22
2.200
32
-1.550
13
-0.574
23
2.200
33
-1.664
0
3DFACE
8
3d_bottom
62
24
10
-1.061
20
5.250
30
-1.989
11
0.000
21
5.250
31
-3.050
12
0.000
22
5.250
32
-1.550
13
-0.574
23
5.250
33
-1.664
0
3DFACE
8
3d_bottom
62
24
10
0.000
20
2.200
30
-1.550
11
0.574
21
2.200
31
-1.664
12
0.574
22
5.250
32
-1.664
13
0.000
23
5.250
33
-1.550
0
3DFACE
8
3d_bottom
62
24
10
0.574
20
2.200
30
-1.664
11
1.061
21
2.200
31
-1.989
12
1.061
22
5.250
32
-1.989
13
0.574
23
5.250
33
-1.664
0
3DFACE
8
3d_bottom
62
24
10
0.000
20
2.200
30
-1.550
11
0.000
21
2.200
31
-3.050
12
1.061
22
2.200
32
-1.989
13
0.574
23
2.200
33
-1.664
0
3DFACE
8
3d_bottom
62
24
10
0.000
20
5.250
30
-1.550
11
0.000
21
5.250
31
-3.050
12
1.061
22
5.250
32
-1.989
13
0.574
23
5.250
33
-1.664
0
3DFACE
8
3d_bottom
62
24
10
1.061
20
2.200
30
-1.989
11
1.386
21
2.200
31
-2.476
12
1.386
22
5.250
32
-2.476
13
1.061
23
5.250
33
-1.989
0
3DFACE
8
3d_bottom
62
24
10
1.386
20
2.200
30
-2.476
11
1.500
21
2.200
31
-3.050
12
1.500
22
5.250
32
-3.050
13
1.386
23
5.250
33
-2.476
0
3DFACE
8
3d_bottom
62
24
10
1.061
20
2.200
30
-1.989
11
0.000
21
2.200
31
-3.050
12
1.500
22
2.200
32
-3.050
13
1.386
23
2.200
33
-2.476
0
3DFACE
8
3d_bottom
62
24
10
1.061
20
5.250
30
-1.989
11
0.000
21
5.250
31
-3.050
12
1.500
22
5.250
32
-3.050
13
1.386
23
5.250
33
-2.476
0
3DFACE
8
3d_bottom
62
24
10
1.500
20
2.200
30
-3.050
11
1.386
21
2.200
31
-3.624
12
1.386
22
5.250
32
-3.624
13
1.500
23
5.250
33
-3.050
0
3DFACE
8
3d_bottom
62
24
10
1.386
20
2.200
30
-3.624
11
1.061
21
2.200
31
-4.111
12
1.061
22
5.250
32
-4.111
13
1.386
23
5.250
33
-3.624
0
3DFACE
8
3d_bottom
62
24
10
1.500
20
2.200
30
-3.050
11
0.000
21
2.200
31
-3.050
12
1.061
22
2.200
32
-4.111
13
1.386
23
2.200
33
-3.624
0
3DFACE
8
3d_bottom
62
24
10
1.500
20
5.250
30
-3.050
11
0.000
21
5.250
31
-3.050
12
1.061
22
5.250
32
-4.111
13
1.386
23
5.250
33
-3.624
0
3DFACE
8
3d_bottom
62
24
10
1.061
20
2.200
30
-4.111
11
0.574
21
2.200
31
-4.436
12
0.574
22
5.250
32
-4.436
13
1.061
23
5.250
33
-4.111
0
3DFACE
8
3d_bottom
62
24
10
0.574
20
2.200
30
-4.436
11
0.000
21
2.200
31
-4.550
12
0.000
22
5.250
32
-4.550
13
0.574
23
5.250
33
-4.436
0
3DFACE
8
3d_bottom
62
24
10
1.061
20
2.200
30
-4.111
11
0.000
21
2.200
31
-3.050
12
0.000
22
2.200
32
-4.550
13
0.574
23
2.200
33
-4.436
0
3DFACE
8
3d_bottom
62
24
10
1.061
20
5.250
30
-4.111
11
0.000
21
5.250
31
-3.050
12
0.000
22
5.250
32
-4.550
13
0.574
23
5.250
33
-4.436
0
3DFACE
8
3d_bottom
62
24
10
0.000
20
2.200
30
-4.550
11
-0.574
21
2.200
31
-4.436
12
-0.574
22
5.250
32
-4.436
13
0.000
23
5.250
33
-4.550
0
3DFACE
8
3d_bottom
62
24
10
-0.574
20
2.200
30
-4.436
11
-1.061
21
2.200
31
-4.111
12
-1.061
22
5.250
32
-4.111
13
-0.574
23
5.250
33
-4.436
0
3DFACE
8
3d_bottom
62
24
10
0.000
20
2.200
30
-4.550
11
0.000
21
2.200
31
-3.050
12
-1.061
22
2.200
32
-4.111
13
-0.574
23
2.200
33
-4.436
0
3DFACE
8
3d_bottom
62
24
10
0.000
20
5.250
30
-4.550
11
0.000
21
5.250
31
-3.050
12
-1.061
22
5.250
32
-4.111
13
-0.574
23
5.250
33
-4.436
0
3DFACE
8
3d_bottom
62
24
10
-1.061
20
2.200
30
-4.111
11
-1.386
21
2.200
31
-3.624
12
-1.386
22
5.250
32
-3.624
13
-1.061
23
5.250
33
-4.111
0
3DFACE
8
3d_bottom
62
24
10
-1.386
20
2.200
30
-3.624
11
-1.500
21
2.200
31
-3.050
12
-1.500
22
5.250
32
-3.050
13
-1.386
23
5.250
33
-3.624
0
3DFACE
8
3d_bottom
62
24
10
-1.061
20
2.200
30
-4.111
11
0.000
21
2.200
31
-3.050
12
-1.500
22
2.200
32
-3.050
13
-1.386
23
2.200
33
-3.624
0
3DFACE
8
3d_bottom
62
24
10
-1.061
20
5.250
30
-4.111
11
0.000
21
5.250
31
-3.050
12
-1.500
22
5.250
32
-3.050
13
-1.386
23
5.250
33
-3.624
0
3DFACE
8
3d_bottom
62
25
10
-0.250
20
0.313
30
2.550
11
-0.250
21
-0.312
31
2.550
12
0.250
22
-0.313
32
2.550
13
0.250
23
0.312
33
2.550
0
3DFACE
8
3d_bottom
62
25
10
-0.250
20
0.312
30
-3.350
11
-0.250
21
-0.313
31
-3.350
12
0.250
22
-0.313
32
-3.350
13
0.250
23
0.312
33
-3.350
0
3DFACE
8
3d_bottom
62
25
10
-0.250
20
0.313
30
2.550
11
-0.250
21
-0.312
31
2.550
12
-0.250
22
-0.313
32
-3.350
13
-0.250
23
0.312
33
-3.350
0
3DFACE
8
3d_bottom
62
25
10
0.250
20
0.312
30
2.550
11
0.250
21
-0.313
31
2.550
12
0.250
22
-0.313
32
-3.350
13
0.250
23
0.312
33
-3.350
0
3DFACE
8
3d_bottom
62
25
10
-0.250
20
-0.312
30
2.550
11
0.250
21
-0.313
31
2.550
12
0.250
22
-0.313
32
-3.350
13
-0.250
23
-0.313
33
-3.350
0
3DFACE
8
3d_bottom
62
25
10
-0.250
20
0.313
30
2.550
11
0.250
21
0.312
31
2.550
12
0.250
22
0.312
32
-3.350
13
-0.250
23
0.312
33
-3.350
0
3DFACE
8
3d_bottom
62
25
10
-0.250
20
0.312
30
-2.760
11
-0.250
21
0.313
31
-3.350
12
0.250
22
0.313
32
-3.350
13
0.250
23
0.312
33
-2.760
0
3DFACE
8
3d_bottom
62
25
10
-0.250
20
2.188
30
-2.760
11
-0.250
21
2.188
31
-3.350
12
0.250
22
2.188
32
-3.350
13
0.250
23
2.187
33
-2.760
0
3DFACE
8
3d_bottom
62
25
10
-0.250
20
0.312
30
-2.760
11
-0.250
21
0.313
31
-3.350
12
-0.250
22
2.188
32
-3.350
13
-0.250
23
2.188
33
-2.760
0
3DFACE
8
3d_bottom
62
25
10
0.250
20
0.312
30
-2.760
11
0.250
21
0.313
31
-3.350
12
0.250
22
2.188
32
-3.350
13
0.250
23
2.187
33
-2.760
0
3DFACE
8
3d_bottom
62
25
10
-0.250
20
0.313
30
-3.350
11
0.250
21
0.313
31
-3.350
12
0.250
22
2.188
32
-3.350
13
-0.250
23
2.188
33
-3.350
0
3DFACE
8
3d_bottom
62
25
10
-0.250
20
0.312
30
-2.760
11
0.250
21
0.312
31
-2.760
12
0.250
22
2.187
32
-2.760
13
-0.250
23
2.188
33
-2.760
0
3DFACE
8
3d_bottom
62
26
10
-1.250
20
0.313
30
2.550
11
-1.250
21
-0.312
31
2.550
12
-0.750
22
-0.313
32
2.550
13
-0.750
23
0.312
33
2.550
0
3DFACE
8
3d_bottom
62
26
10
-1.250
20
0.312
30
-3.350
11
-1.250
21
-0.313
31
-3.350
12
-0.750
22
-0.313
32
-3.350
13
-0.750
23
0.312
33
-3.350
0
3DFACE
8
3d_bottom
62
26
10
-1.250
20
0.313
30
2.550
11
-1.250
21
-0.312
31
2.550
12
-1.250
22
-0.313
32
-3.350
13
-1.250
23
0.312
33
-3.350
0
3DFACE
8
3d_bottom
62
26
10
-0.750
20
0.312
30
2.550
11
-0.750
21
-0.313
31
2.550
12
-0.750
22
-0.313
32
-3.350
13
-0.750
23
0.312
33
-3.350
0
3DFACE
8
3d_bottom
62
26
10
-1.250
20
-0.312
30
2.550
11
-0.750
21
-0.313
31
2.550
12
-0.750
22
-0.313
32
-3.350
13
-1.250
23
-0.313
33
-3.350
0
3DFACE
8
3d_bottom
62
26
10
-1.250
20
0.313
30
2.550
11
-0.750
21
0.312
31
2.550
12
-0.750
22
0.312
32
-3.350
13
-1.250
23
0.312
33
-3.350
0
3DFACE
8
3d_bottom
62
26
10
-1.250
20
0.312
30
-2.760
11
-1.250
21
0.313
31
-3.350
12
-0.750
22
0.313
32
-3.350
13
-0.750
23
0.312
33
-2.760
0
3DFACE
8
3d_bottom
62
26
10
-1.250
20
2.188
30
-2.760
11
-1.250
21
2.188
31
-3.350
12
-0.750
22
2.188
32
-3.350
13
-0.750
23
2.187
33
-2.760
0
3DFACE
8
3d_bottom
62
26
10
-1.250
20
0.312
30
-2.760
11
-1.250
21
0.313
31
-3.350
12
-1.250
22
2.188
32
-3.350
13
-1.250
23
2.188
33
-2.760
0
3DFACE
8
3d_bottom
62
26
10
-0.750
20
0.312
30
-2.760
11
-0.750
21
0.313
31
-3.350
12
-0.750
22
2.188
32
-3.350
13
-0.750
23
2.187
33
-2.760
0
3DFACE
8
3d_bottom
62
26
10
-1.250
20
0.313
30
-3.350
11
-0.750
21
0.313
31
-3.350
12
-0.750
22
2.188
32
-3.350
13
-1.250
23
2.188
33
-3.350
0
3DFACE
8
3d_bottom
62
26
10
-1.250
20
0.312
30
-2.760
11
-0.750
21
0.312
31
-2.760
12
-0.750
22
2.187
32
-2.760
13
-1.250
23
2.188
33
-2.760
0
3DFACE
8
3d_bottom
62
27
10
0.750
20
0.313
30
2.550
11
0.750
21
-0.312
31
2.550
12
1.250
22
-0.313
32
2.550
13
1.250
23
0.312
33
2.550
0
3DFACE
8
3d_bottom
62
27
10
0.750
20
0.312
30
-3.350
11
0.750
21
-0.313
31
-3.350
12
1.250
22
-0.313
32
-3.350
13
1.250
23
0.312
33
-3.350
0
3DFACE
8
3d_bottom
62
27
10
0.750
20
0.313
30
2.550
11
0.750
21
-0.312
31
2.550
12
0.750
22
-0.313
32
-3.350
13
0.750
23
0.312
33
-3.350
0
3DFACE
8
3d_bottom
62
27
10
1.250
20
0.312
30
2.550
11
1.250
21
-0.313
31
2.550
12
1.250
22
-0.313
32
-3.350
13
1.250
23
0.312
33
-3.350
0
3DFACE
8
3d_bottom
62
27
10
0.750
20
-0.312
30
2.550
11
1.250
21
-0.313
31
2.550
12
1.250
22
-0.313
32
-3.350
13
0.750
23
-0.313
33
-3.350
0
3DFACE
8
3d_bottom
62
27
10
0.750
20
0.313
30
2.550
11
1.250
21
0.312
31
2.550
12
1.250
22
0.312
32
-3.350
13
0.750
23
0.312
33
-3.350
0
3DFACE
8
3d_bottom
62
27
10
0.750
20
0.312
30
-2.760
11
0.750
21
0.313
31
-3.350
12
1.250
22
0.313
32
-3.350
13
1.250
23
0.312
33
-2.760
0
3DFACE
8
3d_bottom
62
27
10
0.750
20
2.188
30
-2.760
11
0.750
21
2.188
31
-3.350
12
1.250
22
2.188
32
-3.350
13
1.250
23
2.187
33
-2.760
0
3DFACE
8
3d_bottom
62
27
10
0.750
20
0.312
30
-2.760
11
0.750
21
0.313
31
-3.350
12
0.750
22
2.188
32
-3.350
13
0.750
23
2.188
33
-2.760
0
3DFACE
8
3d_bottom
62
27
10
1.250
20
0.312
30
-2.760
11
1.250
21
0.313
31
-3.350
12
1.250
22
2.188
32
-3.350
13
1.250
23
2.187
33
-2.760
0
3DFACE
8
3d_bottom
62
27
10
0.750
20
0.313
30
-3.350
11
1.250
21
0.313
31
-3.350
12
1.250
22
2.188
32
-3.350
13
0.750
23
2.188
33
-3.350
0
3DFACE
8
3d_bottom
62
27
10
0.750
20
0.312
30
-2.760
11
1.250
21
0.312
31
-2.760
12
1.250
22
2.187
32
-2.760
13
0.750
23
2.188
33
-2.760
0
ENDBLK
0
BLOCK
2
P1_top
10
0
20
0
30
0
0
ENDBLK
0
BLOCK
2
CDRH4D28LD_bot
10
0
20
0
30
0
0
3DFACE
8
3d_bottom
62
30
10
-2.155
20
-1.448
30
-1.050
11
-1.448
21
-2.155
31
-1.050
12
-1.468
22
-2.175
32
-0.725
13
-2.175
23
-1.468
33
-0.725
0
3DFACE
8
3d_bottom
62
30
10
-2.175
20
-1.468
30
-0.725
11
-1.468
21
-2.175
31
-0.725
12
-1.522
22
-2.229
32
-0.487
13
-2.229
23
-1.522
33
-0.487
0
3DFACE
8
3d_bottom
62
30
10
-2.229
20
-1.522
30
-0.487
11
-1.522
21
-2.229
31
-0.487
12
-1.596
22
-2.304
32
-0.400
13
-2.304
23
-1.596
33
-0.400
0
3DFACE
8
3d_bottom
62
30
10
-2.304
20
-1.596
30
-0.400
11
-2.418
21
-1.710
31
-0.400
12
-1.710
22
-2.418
32
-0.400
13
-1.596
23
-2.304
33
-0.400
0
3DFACE
8
3d_bottom
62
30
10
-2.418
20
-1.710
30
0.000
11
-2.418
21
-1.710
31
0.000
12
-1.710
22
-2.418
32
0.000
13
-1.710
23
-2.418
33
0.000
0
3DFACE
8
3d_bottom
62
30
10
-2.418
20
-1.710
30
-0.400
11
-2.418
21
-1.710
31
-0.400
12
-1.710
22
-2.418
32
-0.400
13
-1.710
23
-2.418
33
-0.400
0
3DFACE
8
3d_bottom
62
30
10
-2.418
20
-1.710
30
0.000
11
-2.418
21
-1.710
31
0.000
12
-2.418
22
-1.710
32
-0.400
13
-2.418
23
-1.710
33
-0.400
0
3DFACE
8
3d_bottom
62
30
10
-1.710
20
-2.418
30
0.000
11
-1.710
21
-2.418
31
0.000
12
-1.710
22
-2.418
32
-0.400
13
-1.710
23
-2.418
33
-0.400
0
3DFACE
8
3d_bottom
62
30
10
-2.418
20
-1.710
30
0.000
11
-1.710
21
-2.418
31
0.000
12
-1.710
22
-2.418
32
-0.400
13
-2.418
23
-1.710
33
-0.400
0
3DFACE
8
3d_bottom
62
30
10
-2.418
20
-1.710
30
0.000
11
-1.710
21
-2.418
31
0.000
12
-1.710
22
-2.418
32
-0.400
13
-2.418
23
-1.710
33
-0.400
0
3DFACE
8
3d_bottom
62
30
10
-2.155
20
-1.448
30
-1.550
11
-2.155
21
-1.448
31
-1.550
12
-1.448
22
-2.155
32
-1.550
13
-1.448
23
-2.155
33
-1.550
0
3DFACE
8
3d_bottom
62
30
10
-2.064
20
-1.357
30
-1.550
11
-2.064
21
-1.357
31
-1.550
12
-1.357
22
-2.064
32
-1.550
13
-1.357
23
-2.064
33
-1.550
0
3DFACE
8
3d_bottom
62
30
10
-2.155
20
-1.448
30
-1.550
11
-2.155
21
-1.448
31
-1.550
12
-2.064
22
-1.357
32
-1.550
13
-2.064
23
-1.357
33
-1.550
0
3DFACE
8
3d_bottom
62
30
10
-1.448
20
-2.155
30
-1.550
11
-1.448
21
-2.155
31
-1.550
12
-1.357
22
-2.064
32
-1.550
13
-1.357
23
-2.064
33
-1.550
0
3DFACE
8
3d_bottom
62
30
10
-2.155
20
-1.448
30
-1.550
11
-1.448
21
-2.155
31
-1.550
12
-1.357
22
-2.064
32
-1.550
13
-2.064
23
-1.357
33
-1.550
0
3DFACE
8
3d_bottom
62
30
10
-2.155
20
-1.448
30
-1.550
11
-1.448
21
-2.155
31
-1.550
12
-1.357
22
-2.064
32
-1.550
13
-2.064
23
-1.357
33
-1.550
0
3DFACE
8
3d_bottom
62
30
10
-2.155
20
-1.448
30
-1.050
11
-2.155
21
-1.448
31
-1.050
12
-1.448
22
-2.155
32
-1.050
13
-1.448
23
-2.155
33
-1.050
0
3DFACE
8
3d_bottom
62
30
10
-2.155
20
-1.448
30
-1.550
11
-2.155
21
-1.448
31
-1.550
12
-1.448
22
-2.155
32
-1.550
13
-1.448
23
-2.155
33
-1.550
0
3DFACE
8
3d_bottom
62
30
10
-2.155
20
-1.448
30
-1.050
11
-2.155
21
-1.448
31
-1.050
12
-2.155
22
-1.448
32
-1.550
13
-2.155
23
-1.448
33
-1.550
0
3DFACE
8
3d_bottom
62
30
10
-1.448
20
-2.155
30
-1.050
11
-1.448
21
-2.155
31
-1.050
12
-1.448
22
-2.155
32
-1.550
13
-1.448
23
-2.155
33
-1.550
0
3DFACE
8
3d_bottom
62
30
10
-2.155
20
-1.448
30
-1.050
11
-1.448
21
-2.155
31
-1.050
12
-1.448
22
-2.155
32
-1.550
13
-2.155
23
-1.448
33
-1.550
0
3DFACE
8
3d_bottom
62
30
10
-2.155
20
-1.448
30
-1.050
11
-1.448
21
-2.155
31
-1.050
12
-1.448
22
-2.155
32
-1.550
13
-2.155
23
-1.448
33
-1.550
0
3DFACE
8
3d_bottom
62
31
10
2.155
20
1.448
30
-1.050
11
1.448
21
2.155
31
-1.050
12
1.468
22
2.175
32
-0.725
13
2.175
23
1.468
33
-0.725
0
3DFACE
8
3d_bottom
62
31
10
2.175
20
1.468
30
-0.725
11
1.468
21
2.175
31
-0.725
12
1.522
22
2.229
32
-0.487
13
2.229
23
1.522
33
-0.487
0
3DFACE
8
3d_bottom
62
31
10
2.229
20
1.522
30
-0.487
11
1.522
21
2.229
31
-0.487
12
1.596
22
2.304
32
-0.400
13
2.304
23
1.596
33
-0.400
0
3DFACE
8
3d_bottom
62
31
10
2.304
20
1.596
30
-0.400
11
2.418
21
1.710
31
-0.400
12
1.710
22
2.418
32
-0.400
13
1.596
23
2.304
33
-0.400
0
3DFACE
8
3d_bottom
62
31
10
2.418
20
1.710
30
0.000
11
2.418
21
1.710
31
0.000
12
1.710
22
2.418
32
0.000
13
1.710
23
2.418
33
0.000
0
3DFACE
8
3d_bottom
62
31
10
2.418
20
1.710
30
-0.400
11
2.418
21
1.710
31
-0.400
12
1.710
22
2.418
32
-0.400
13
1.710
23
2.418
33
-0.400
0
3DFACE
8
3d_bottom
62
31
10
2.418
20
1.710
30
0.000
11
2.418
21
1.710
31
0.000
12
2.418
22
1.710
32
-0.400
13
2.418
23
1.710
33
-0.400
0
3DFACE
8
3d_bottom
62
31
10
1.710
20
2.418
30
0.000
11
1.710
21
2.418
31
0.000
12
1.710
22
2.418
32
-0.400
13
1.710
23
2.418
33
-0.400
0
3DFACE
8
3d_bottom
62
31
10
2.418
20
1.710
30
0.000
11
1.710
21
2.418
31
0.000
12
1.710
22
2.418
32
-0.400
13
2.418
23
1.710
33
-0.400
0
3DFACE
8
3d_bottom
62
31
10
2.418
20
1.710
30
0.000
11
1.710
21
2.418
31
0.000
12
1.710
22
2.418
32
-0.400
13
2.418
23
1.710
33
-0.400
0
3DFACE
8
3d_bottom
62
31
10
2.155
20
1.448
30
-1.550
11
2.155
21
1.448
31
-1.550
12
1.448
22
2.155
32
-1.550
13
1.448
23
2.155
33
-1.550
0
3DFACE
8
3d_bottom
62
31
10
2.064
20
1.357
30
-1.550
11
2.064
21
1.357
31
-1.550
12
1.357
22
2.064
32
-1.550
13
1.357
23
2.064
33
-1.550
0
3DFACE
8
3d_bottom
62
31
10
2.155
20
1.448
30
-1.550
11
2.155
21
1.448
31
-1.550
12
2.064
22
1.357
32
-1.550
13
2.064
23
1.357
33
-1.550
0
3DFACE
8
3d_bottom
62
31
10
1.448
20
2.155
30
-1.550
11
1.448
21
2.155
31
-1.550
12
1.357
22
2.064
32
-1.550
13
1.357
23
2.064
33
-1.550
0
3DFACE
8
3d_bottom
62
31
10
2.155
20
1.448
30
-1.550
11
1.448
21
2.155
31
-1.550
12
1.357
22
2.064
32
-1.550
13
2.064
23
1.357
33
-1.550
0
3DFACE
8
3d_bottom
62
31
10
2.155
20
1.448
30
-1.550
11
1.448
21
2.155
31
-1.550
12
1.357
22
2.064
32
-1.550
13
2.064
23
1.357
33
-1.550
0
3DFACE
8
3d_bottom
62
31
10
2.155
20
1.448
30
-1.050
11
2.155
21
1.448
31
-1.050
12
1.448
22
2.155
32
-1.050
13
1.448
23
2.155
33
-1.050
0
3DFACE
8
3d_bottom
62
31
10
2.155
20
1.448
30
-1.550
11
2.155
21
1.448
31
-1.550
12
1.448
22
2.155
32
-1.550
13
1.448
23
2.155
33
-1.550
0
3DFACE
8
3d_bottom
62
31
10
2.155
20
1.448
30
-1.050
11
2.155
21
1.448
31
-1.050
12
2.155
22
1.448
32
-1.550
13
2.155
23
1.448
33
-1.550
0
3DFACE
8
3d_bottom
62
31
10
1.448
20
2.155
30
-1.050
11
1.448
21
2.155
31
-1.050
12
1.448
22
2.155
32
-1.550
13
1.448
23
2.155
33
-1.550
0
3DFACE
8
3d_bottom
62
31
10
2.155
20
1.448
30
-1.050
11
1.448
21
2.155
31
-1.050
12
1.448
22
2.155
32
-1.550
13
2.155
23
1.448
33
-1.550
0
3DFACE
8
3d_bottom
62
31
10
2.155
20
1.448
30
-1.050
11
1.448
21
2.155
31
-1.050
12
1.448
22
2.155
32
-1.550
13
2.155
23
1.448
33
-1.550
0
3DFACE
8
3d_bottom
62
32
10
-2.495
20
-0.905
30
-2.400
11
-0.905
21
-2.495
31
-2.400
12
-0.905
22
-2.495
32
0.000
13
-2.495
23
-0.905
33
0.000
0
3DFACE
8
3d_bottom
62
32
10
-2.495
20
-0.905
30
-2.400
11
-0.905
21
-2.495
31
-2.400
12
-0.905
22
-2.495
32
0.000
13
-2.495
23
-0.905
33
0.000
0
3DFACE
8
3d_bottom
62
32
10
-2.495
20
-0.905
30
-2.400
11
-0.905
21
-2.495
31
-2.400
12
-0.905
22
-2.495
32
-2.400
13
-2.495
23
-0.905
33
-2.400
0
3DFACE
8
3d_bottom
62
32
10
-2.495
20
-0.905
30
0.000
11
-0.905
21
-2.495
31
0.000
12
-0.905
22
-2.495
32
0.000
13
-2.495
23
-0.905
33
0.000
0
3DFACE
8
3d_bottom
62
32
10
-0.905
20
-2.495
30
-2.400
11
-0.905
21
-2.495
31
0.000
12
-0.905
22
-2.495
32
0.000
13
-0.905
23
-2.495
33
-2.400
0
3DFACE
8
3d_bottom
62
32
10
-2.495
20
-0.905
30
-2.400
11
-2.495
21
-0.905
31
0.000
12
-2.495
22
-0.905
32
0.000
13
-2.495
23
-0.905
33
-2.400
0
3DFACE
8
3d_bottom
62
32
10
0.905
20
2.495
30
-2.400
11
2.495
21
0.905
31
-2.400
12
2.495
22
0.905
32
0.000
13
0.905
23
2.495
33
0.000
0
3DFACE
8
3d_bottom
62
32
10
0.905
20
2.495
30
-2.400
11
2.495
21
0.905
31
-2.400
12
2.495
22
0.905
32
0.000
13
0.905
23
2.495
33
0.000
0
3DFACE
8
3d_bottom
62
32
10
0.905
20
2.495
30
-2.400
11
2.495
21
0.905
31
-2.400
12
2.495
22
0.905
32
-2.400
13
0.905
23
2.495
33
-2.400
0
3DFACE
8
3d_bottom
62
32
10
0.905
20
2.495
30
0.000
11
2.495
21
0.905
31
0.000
12
2.495
22
0.905
32
0.000
13
0.905
23
2.495
33
0.000
0
3DFACE
8
3d_bottom
62
32
10
2.495
20
0.905
30
-2.400
11
2.495
21
0.905
31
0.000
12
2.495
22
0.905
32
0.000
13
2.495
23
0.905
33
-2.400
0
3DFACE
8
3d_bottom
62
32
10
0.905
20
2.495
30
-2.400
11
0.905
21
2.495
31
0.000
12
0.905
22
2.495
32
0.000
13
0.905
23
2.495
33
-2.400
0
3DFACE
8
3d_bottom
62
14
10
0.619
20
-2.917
30
0.000
11
-0.619
21
-2.917
31
0.000
12
-0.619
22
-2.917
32
-2.400
13
0.619
23
-2.917
33
-2.400
0
3DFACE
8
3d_bottom
62
14
10
-0.619
20
2.917
30
0.000
11
-0.477
21
3.032
31
0.000
12
-0.477
22
3.032
32
-2.400
13
-0.619
23
2.917
33
-2.400
0
3DFACE
8
3d_bottom
62
14
10
-0.477
20
3.032
30
0.000
11
-0.314
21
3.115
31
0.000
12
-0.314
22
3.115
32
-2.400
13
-0.477
23
3.032
33
-2.400
0
3DFACE
8
3d_bottom
62
14
10
-0.314
20
3.115
30
0.000
11
-0.137
21
3.162
31
0.000
12
-0.137
22
3.162
32
-2.400
13
-0.314
23
3.115
33
-2.400
0
3DFACE
8
3d_bottom
62
14
10
-0.137
20
3.162
30
0.000
11
0.046
21
3.172
31
0.000
12
0.046
22
3.172
32
-2.400
13
-0.137
23
3.162
33
-2.400
0
3DFACE
8
3d_bottom
62
14
10
0.046
20
3.172
30
0.000
11
0.226
21
3.143
31
0.000
12
0.226
22
3.143
32
-2.400
13
0.046
23
3.172
33
-2.400
0
3DFACE
8
3d_bottom
62
14
10
0.226
20
3.143
30
0.000
11
0.397
21
3.078
31
0.000
12
0.397
22
3.078
32
-2.400
13
0.226
23
3.143
33
-2.400
0
3DFACE
8
3d_bottom
62
14
10
0.397
20
3.078
30
0.000
11
0.551
21
2.978
31
0.000
12
0.551
22
2.978
32
-2.400
13
0.397
23
3.078
33
-2.400
0
3DFACE
8
3d_bottom
62
14
10
0.551
20
2.978
30
0.000
11
0.619
21
2.917
31
0.000
12
0.619
22
2.917
32
-2.400
13
0.551
23
2.978
33
-2.400
0
3DFACE
8
3d_bottom
62
14
10
2.386
20
-1.149
30
0.000
11
0.619
21
-2.917
31
0.000
12
0.619
22
-2.917
32
-2.400
13
2.386
23
-1.149
33
-2.400
0
3DFACE
8
3d_bottom
62
14
10
-0.619
20
2.917
30
0.000
11
-2.386
21
1.149
31
0.000
12
-2.386
22
1.149
32
-2.400
13
-0.619
23
2.917
33
-2.400
0
3DFACE
8
3d_bottom
62
14
10
-0.619
20
-2.917
30
0.000
11
-2.386
21
-1.149
31
0.000
12
-2.386
22
-1.149
32
-2.400
13
-0.619
23
-2.917
33
-2.400
0
3DFACE
8
3d_bottom
62
14
10
2.386
20
1.149
30
0.000
11
0.619
21
2.917
31
0.000
12
0.619
22
2.917
32
-2.400
13
2.386
23
1.149
33
-2.400
0
ENDBLK
0
BLOCK
2
CC18121_bot
10
0
20
0
30
0
0
3DFACE
8
3d_bottom
62
20
10
-2.000
20
-1.500
30
0.000
11
2.000
21
-1.500
31
0.000
12
2.000
22
1.500
32
0.000
13
-2.000
23
1.500
33
0.000
0
3DFACE
8
3d_bottom
62
20
10
-2.000
20
-1.500
30
-2.000
11
2.000
21
-1.500
31
-2.000
12
2.000
22
1.500
32
-2.000
13
-2.000
23
1.500
33
-2.000
0
3DFACE
8
3d_bottom
62
20
10
-2.000
20
-1.500
30
0.000
11
2.000
21
-1.500
31
0.000
12
2.000
22
-1.500
32
-2.000
13
-2.000
23
-1.500
33
-2.000
0
3DFACE
8
3d_bottom
62
20
10
-2.000
20
1.500
30
0.000
11
2.000
21
1.500
31
0.000
12
2.000
22
1.500
32
-2.000
13
-2.000
23
1.500
33
-2.000
0
3DFACE
8
3d_bottom
62
20
10
2.000
20
-1.500
30
0.000
11
2.000
21
1.500
31
0.000
12
2.000
22
1.500
32
-2.000
13
2.000
23
-1.500
33
-2.000
0
3DFACE
8
3d_bottom
62
20
10
-2.000
20
-1.500
30
0.000
11
-2.000
21
1.500
31
0.000
12
-2.000
22
1.500
32
-2.000
13
-2.000
23
-1.500
33
-2.000
0
ENDBLK
0
BLOCK
2
LABEL_top
10
0
20
0
30
0
0
ENDBLK
0
BLOCK
2
LABEL_bot
10
0
20
0
30
0
0
ENDBLK
0
BLOCK
2
RC0805_top
10
0
20
0
30
0
0
3DFACE
8
3d_top
62
23
10
1.100
20
-0.600
30
1.500
11
-1.100
21
-0.600
31
1.500
12
-1.100
22
0.600
32
1.500
13
1.100
23
0.600
33
1.500
0
3DFACE
8
3d_top
62
23
10
1.100
20
-0.600
30
2.000
11
-1.100
21
-0.600
31
2.000
12
-1.100
22
0.600
32
2.000
13
1.100
23
0.600
33
2.000
0
3DFACE
8
3d_top
62
23
10
1.100
20
-0.600
30
1.500
11
-1.100
21
-0.600
31
1.500
12
-1.100
22
-0.600
32
2.000
13
1.100
23
-0.600
33
2.000
0
3DFACE
8
3d_top
62
23
10
1.100
20
0.600
30
1.500
11
-1.100
21
0.600
31
1.500
12
-1.100
22
0.600
32
2.000
13
1.100
23
0.600
33
2.000
0
3DFACE
8
3d_top
62
23
10
-1.100
20
-0.600
30
1.500
11
-1.100
21
0.600
31
1.500
12
-1.100
22
0.600
32
2.000
13
-1.100
23
-0.600
33
2.000
0
3DFACE
8
3d_top
62
23
10
1.100
20
-0.600
30
1.500
11
1.100
21
0.600
31
1.500
12
1.100
22
0.600
32
2.000
13
1.100
23
-0.600
33
2.000
0
ENDBLK
0
BLOCK
2
RC0805_bot
10
0
20
0
30
0
0
3DFACE
8
3d_bottom
62
24
10
-1.100
20
-0.600
30
0.000
11
1.100
21
-0.600
31
0.000
12
1.100
22
0.600
32
0.000
13
-1.100
23
0.600
33
0.000
0
3DFACE
8
3d_bottom
62
24
10
-1.100
20
-0.600
30
-0.500
11
1.100
21
-0.600
31
-0.500
12
1.100
22
0.600
32
-0.500
13
-1.100
23
0.600
33
-0.500
0
3DFACE
8
3d_bottom
62
24
10
-1.100
20
-0.600
30
0.000
11
1.100
21
-0.600
31
0.000
12
1.100
22
-0.600
32
-0.500
13
-1.100
23
-0.600
33
-0.500
0
3DFACE
8
3d_bottom
62
24
10
-1.100
20
0.600
30
0.000
11
1.100
21
0.600
31
0.000
12
1.100
22
0.600
32
-0.500
13
-1.100
23
0.600
33
-0.500
0
3DFACE
8
3d_bottom
62
24
10
1.100
20
-0.600
30
0.000
11
1.100
21
0.600
31
0.000
12
1.100
22
0.600
32
-0.500
13
1.100
23
-0.600
33
-0.500
0
3DFACE
8
3d_bottom
62
24
10
-1.100
20
-0.600
30
0.000
11
-1.100
21
0.600
31
0.000
12
-1.100
22
0.600
32
-0.500
13
-1.100
23
-0.600
33
-0.500
0
ENDBLK
0
BLOCK
2
TSSTD26EA1_bot
10
0
20
0
30
0
0
3DFACE
8
3d_bottom
62
25
10
2.602
20
0.450
30
-0.779
11
2.602
21
1.250
31
-0.779
12
2.655
22
1.250
32
-0.538
13
2.655
23
0.450
33
-0.538
0
3DFACE
8
3d_bottom
62
25
10
2.655
20
0.450
30
-0.538
11
2.655
21
1.250
31
-0.538
12
2.801
22
1.250
32
-0.361
13
2.801
23
0.450
33
-0.361
0
3DFACE
8
3d_bottom
62
25
10
2.801
20
0.450
30
-0.361
11
2.801
21
1.250
31
-0.361
12
3.000
22
1.250
32
-0.297
13
3.000
23
0.450
33
-0.297
0
3DFACE
8
3d_bottom
62
25
10
3.000
20
0.450
30
-0.297
11
3.306
21
0.450
31
-0.297
12
3.306
22
1.250
32
-0.297
13
3.000
23
1.250
33
-0.297
0
3DFACE
8
3d_bottom
62
25
10
3.306
20
0.450
30
0.000
11
3.306
21
0.450
31
0.000
12
3.306
22
1.250
32
0.000
13
3.306
23
1.250
33
0.000
0
3DFACE
8
3d_bottom
62
25
10
3.306
20
0.450
30
-0.297
11
3.306
21
0.450
31
-0.297
12
3.306
22
1.250
32
-0.297
13
3.306
23
1.250
33
-0.297
0
3DFACE
8
3d_bottom
62
25
10
3.306
20
0.450
30
0.000
11
3.306
21
0.450
31
0.000
12
3.306
22
0.450
32
-0.297
13
3.306
23
0.450
33
-0.297
0
3DFACE
8
3d_bottom
62
25
10
3.306
20
1.250
30
0.000
11
3.306
21
1.250
31
0.000
12
3.306
22
1.250
32
-0.297
13
3.306
23
1.250
33
-0.297
0
3DFACE
8
3d_bottom
62
25
10
3.306
20
0.450
30
0.000
11
3.306
21
1.250
31
0.000
12
3.306
22
1.250
32
-0.297
13
3.306
23
0.450
33
-0.297
0
3DFACE
8
3d_bottom
62
25
10
3.306
20
0.450
30
0.000
11
3.306
21
1.250
31
0.000
12
3.306
22
1.250
32
-0.297
13
3.306
23
0.450
33
-0.297
0
3DFACE
8
3d_bottom
62
25
10
2.602
20
0.450
30
-1.150
11
2.602
21
0.450
31
-1.150
12
2.602
22
1.250
32
-1.150
13
2.602
23
1.250
33
-1.150
0
3DFACE
8
3d_bottom
62
25
10
2.356
20
0.450
30
-1.150
11
2.356
21
0.450
31
-1.150
12
2.356
22
1.250
32
-1.150
13
2.356
23
1.250
33
-1.150
0
3DFACE
8
3d_bottom
62
25
10
2.602
20
0.450
30
-1.150
11
2.602
21
0.450
31
-1.150
12
2.356
22
0.450
32
-1.150
13
2.356
23
0.450
33
-1.150
0
3DFACE
8
3d_bottom
62
25
10
2.602
20
1.250
30
-1.150
11
2.602
21
1.250
31
-1.150
12
2.356
22
1.250
32
-1.150
13
2.356
23
1.250
33
-1.150
0
3DFACE
8
3d_bottom
62
25
10
2.602
20
0.450
30
-1.150
11
2.602
21
1.250
31
-1.150
12
2.356
22
1.250
32
-1.150
13
2.356
23
0.450
33
-1.150
0
3DFACE
8
3d_bottom
62
25
10
2.602
20
0.450
30
-1.150
11
2.602
21
1.250
31
-1.150
12
2.356
22
1.250
32
-1.150
13
2.356
23
0.450
33
-1.150
0
3DFACE
8
3d_bottom
62
25
10
2.602
20
0.450
30
-0.779
11
2.602
21
0.450
31
-0.779
12
2.602
22
1.250
32
-0.779
13
2.602
23
1.250
33
-0.779
0
3DFACE
8
3d_bottom
62
25
10
2.602
20
0.450
30
-1.150
11
2.602
21
0.450
31
-1.150
12
2.602
22
1.250
32
-1.150
13
2.602
23
1.250
33
-1.150
0
3DFACE
8
3d_bottom
62
25
10
2.602
20
0.450
30
-0.779
11
2.602
21
0.450
31
-0.779
12
2.602
22
0.450
32
-1.150
13
2.602
23
0.450
33
-1.150
0
3DFACE
8
3d_bottom
62
25
10
2.602
20
1.250
30
-0.779
11
2.602
21
1.250
31
-0.779
12
2.602
22
1.250
32
-1.150
13
2.602
23
1.250
33
-1.150
0
3DFACE
8
3d_bottom
62
25
10
2.602
20
0.450
30
-0.779
11
2.602
21
1.250
31
-0.779
12
2.602
22
1.250
32
-1.150
13
2.602
23
0.450
33
-1.150
0
3DFACE
8
3d_bottom
62
25
10
2.602
20
0.450
30
-0.779
11
2.602
21
1.250
31
-0.779
12
2.602
22
1.250
32
-1.150
13
2.602
23
0.450
33
-1.150
0
3DFACE
8
3d_bottom
62
26
10
2.602
20
-1.250
30
-0.779
11
2.602
21
-0.450
31
-0.779
12
2.655
22
-0.450
32
-0.538
13
2.655
23
-1.250
33
-0.538
0
3DFACE
8
3d_bottom
62
26
10
2.655
20
-1.250
30
-0.538
11
2.655
21
-0.450
31
-0.538
12
2.801
22
-0.450
32
-0.361
13
2.801
23
-1.250
33
-0.361
0
3DFACE
8
3d_bottom
62
26
10
2.801
20
-1.250
30
-0.361
11
2.801
21
-0.450
31
-0.361
12
3.000
22
-0.450
32
-0.297
13
3.000
23
-1.250
33
-0.297
0
3DFACE
8
3d_bottom
62
26
10
3.000
20
-1.250
30
-0.297
11
3.306
21
-1.250
31
-0.297
12
3.306
22
-0.450
32
-0.297
13
3.000
23
-0.450
33
-0.297
0
3DFACE
8
3d_bottom
62
26
10
3.306
20
-1.250
30
0.000
11
3.306
21
-1.250
31
0.000
12
3.306
22
-0.450
32
0.000
13
3.306
23
-0.450
33
0.000
0
3DFACE
8
3d_bottom
62
26
10
3.306
20
-1.250
30
-0.297
11
3.306
21
-1.250
31
-0.297
12
3.306
22
-0.450
32
-0.297
13
3.306
23
-0.450
33
-0.297
0
3DFACE
8
3d_bottom
62
26
10
3.306
20
-1.250
30
0.000
11
3.306
21
-1.250
31
0.000
12
3.306
22
-1.250
32
-0.297
13
3.306
23
-1.250
33
-0.297
0
3DFACE
8
3d_bottom
62
26
10
3.306
20
-0.450
30
0.000
11
3.306
21
-0.450
31
0.000
12
3.306
22
-0.450
32
-0.297
13
3.306
23
-0.450
33
-0.297
0
3DFACE
8
3d_bottom
62
26
10
3.306
20
-1.250
30
0.000
11
3.306
21
-0.450
31
0.000
12
3.306
22
-0.450
32
-0.297
13
3.306
23
-1.250
33
-0.297
0
3DFACE
8
3d_bottom
62
26
10
3.306
20
-1.250
30
0.000
11
3.306
21
-0.450
31
0.000
12
3.306
22
-0.450
32
-0.297
13
3.306
23
-1.250
33
-0.297
0
3DFACE
8
3d_bottom
62
26
10
2.602
20
-1.250
30
-1.150
11
2.602
21
-1.250
31
-1.150
12
2.602
22
-0.450
32
-1.150
13
2.602
23
-0.450
33
-1.150
0
3DFACE
8
3d_bottom
62
26
10
2.356
20
-1.250
30
-1.150
11
2.356
21
-1.250
31
-1.150
12
2.356
22
-0.450
32
-1.150
13
2.356
23
-0.450
33
-1.150
0
3DFACE
8
3d_bottom
62
26
10
2.602
20
-1.250
30
-1.150
11
2.602
21
-1.250
31
-1.150
12
2.356
22
-1.250
32
-1.150
13
2.356
23
-1.250
33
-1.150
0
3DFACE
8
3d_bottom
62
26
10
2.602
20
-0.450
30
-1.150
11
2.602
21
-0.450
31
-1.150
12
2.356
22
-0.450
32
-1.150
13
2.356
23
-0.450
33
-1.150
0
3DFACE
8
3d_bottom
62
26
10
2.602
20
-1.250
30
-1.150
11
2.602
21
-0.450
31
-1.150
12
2.356
22
-0.450
32
-1.150
13
2.356
23
-1.250
33
-1.150
0
3DFACE
8
3d_bottom
62
26
10
2.602
20
-1.250
30
-1.150
11
2.602
21
-0.450
31
-1.150
12
2.356
22
-0.450
32
-1.150
13
2.356
23
-1.250
33
-1.150
0
3DFACE
8
3d_bottom
62
26
10
2.602
20
-1.250
30
-0.779
11
2.602
21
-1.250
31
-0.779
12
2.602
22
-0.450
32
-0.779
13
2.602
23
-0.450
33
-0.779
0
3DFACE
8
3d_bottom
62
26
10
2.602
20
-1.250
30
-1.150
11
2.602
21
-1.250
31
-1.150
12
2.602
22
-0.450
32
-1.150
13
2.602
23
-0.450
33
-1.150
0
3DFACE
8
3d_bottom
62
26
10
2.602
20
-1.250
30
-0.779
11
2.602
21
-1.250
31
-0.779
12
2.602
22
-1.250
32
-1.150
13
2.602
23
-1.250
33
-1.150
0
3DFACE
8
3d_bottom
62
26
10
2.602
20
-0.450
30
-0.779
11
2.602
21
-0.450
31
-0.779
12
2.602
22
-0.450
32
-1.150
13
2.602
23
-0.450
33
-1.150
0
3DFACE
8
3d_bottom
62
26
10
2.602
20
-1.250
30
-0.779
11
2.602
21
-0.450
31
-0.779
12
2.602
22
-0.450
32
-1.150
13
2.602
23
-1.250
33
-1.150
0
3DFACE
8
3d_bottom
62
26
10
2.602
20
-1.250
30
-0.779
11
2.602
21
-0.450
31
-0.779
12
2.602
22
-0.450
32
-1.150
13
2.602
23
-1.250
33
-1.150
0
3DFACE
8
3d_bottom
62
27
10
-2.602
20
1.250
30
-0.779
11
-2.602
21
0.450
31
-0.779
12
-2.655
22
0.450
32
-0.538
13
-2.655
23
1.250
33
-0.538
0
3DFACE
8
3d_bottom
62
27
10
-2.655
20
1.250
30
-0.538
11
-2.655
21
0.450
31
-0.538
12
-2.801
22
0.450
32
-0.361
13
-2.801
23
1.250
33
-0.361
0
3DFACE
8
3d_bottom
62
27
10
-2.801
20
1.250
30
-0.361
11
-2.801
21
0.450
31
-0.361
12
-3.000
22
0.450
32
-0.297
13
-3.000
23
1.250
33
-0.297
0
3DFACE
8
3d_bottom
62
27
10
-3.000
20
1.250
30
-0.297
11
-3.306
21
1.250
31
-0.297
12
-3.306
22
0.450
32
-0.297
13
-3.000
23
0.450
33
-0.297
0
3DFACE
8
3d_bottom
62
27
10
-3.306
20
1.250
30
0.000
11
-3.306
21
1.250
31
0.000
12
-3.306
22
0.450
32
0.000
13
-3.306
23
0.450
33
0.000
0
3DFACE
8
3d_bottom
62
27
10
-3.306
20
1.250
30
-0.297
11
-3.306
21
1.250
31
-0.297
12
-3.306
22
0.450
32
-0.297
13
-3.306
23
0.450
33
-0.297
0
3DFACE
8
3d_bottom
62
27
10
-3.306
20
1.250
30
0.000
11
-3.306
21
1.250
31
0.000
12
-3.306
22
1.250
32
-0.297
13
-3.306
23
1.250
33
-0.297
0
3DFACE
8
3d_bottom
62
27
10
-3.306
20
0.450
30
0.000
11
-3.306
21
0.450
31
0.000
12
-3.306
22
0.450
32
-0.297
13
-3.306
23
0.450
33
-0.297
0
3DFACE
8
3d_bottom
62
27
10
-3.306
20
1.250
30
0.000
11
-3.306
21
0.450
31
0.000
12
-3.306
22
0.450
32
-0.297
13
-3.306
23
1.250
33
-0.297
0
3DFACE
8
3d_bottom
62
27
10
-3.306
20
1.250
30
0.000
11
-3.306
21
0.450
31
0.000
12
-3.306
22
0.450
32
-0.297
13
-3.306
23
1.250
33
-0.297
0
3DFACE
8
3d_bottom
62
27
10
-2.602
20
1.250
30
-1.150
11
-2.602
21
1.250
31
-1.150
12
-2.602
22
0.450
32
-1.150
13
-2.602
23
0.450
33
-1.150
0
3DFACE
8
3d_bottom
62
27
10
-2.356
20
1.250
30
-1.150
11
-2.356
21
1.250
31
-1.150
12
-2.356
22
0.450
32
-1.150
13
-2.356
23
0.450
33
-1.150
0
3DFACE
8
3d_bottom
62
27
10
-2.602
20
1.250
30
-1.150
11
-2.602
21
1.250
31
-1.150
12
-2.356
22
1.250
32
-1.150
13
-2.356
23
1.250
33
-1.150
0
3DFACE
8
3d_bottom
62
27
10
-2.602
20
0.450
30
-1.150
11
-2.602
21
0.450
31
-1.150
12
-2.356
22
0.450
32
-1.150
13
-2.356
23
0.450
33
-1.150
0
3DFACE
8
3d_bottom
62
27
10
-2.602
20
1.250
30
-1.150
11
-2.602
21
0.450
31
-1.150
12
-2.356
22
0.450
32
-1.150
13
-2.356
23
1.250
33
-1.150
0
3DFACE
8
3d_bottom
62
27
10
-2.602
20
1.250
30
-1.150
11
-2.602
21
0.450
31
-1.150
12
-2.356
22
0.450
32
-1.150
13
-2.356
23
1.250
33
-1.150
0
3DFACE
8
3d_bottom
62
27
10
-2.602
20
1.250
30
-0.779
11
-2.602
21
1.250
31
-0.779
12
-2.602
22
0.450
32
-0.779
13
-2.602
23
0.450
33
-0.779
0
3DFACE
8
3d_bottom
62
27
10
-2.602
20
1.250
30
-1.150
11
-2.602
21
1.250
31
-1.150
12
-2.602
22
0.450
32
-1.150
13
-2.602
23
0.450
33
-1.150
0
3DFACE
8
3d_bottom
62
27
10
-2.602
20
1.250
30
-0.779
11
-2.602
21
1.250
31
-0.779
12
-2.602
22
1.250
32
-1.150
13
-2.602
23
1.250
33
-1.150
0
3DFACE
8
3d_bottom
62
27
10
-2.602
20
0.450
30
-0.779
11
-2.602
21
0.450
31
-0.779
12
-2.602
22
0.450
32
-1.150
13
-2.602
23
0.450
33
-1.150
0
3DFACE
8
3d_bottom
62
27
10
-2.602
20
1.250
30
-0.779
11
-2.602
21
0.450
31
-0.779
12
-2.602
22
0.450
32
-1.150
13
-2.602
23
1.250
33
-1.150
0
3DFACE
8
3d_bottom
62
27
10
-2.602
20
1.250
30
-0.779
11
-2.602
21
0.450
31
-0.779
12
-2.602
22
0.450
32
-1.150
13
-2.602
23
1.250
33
-1.150
0
3DFACE
8
3d_bottom
62
28
10
-2.602
20
-0.450
30
-0.779
11
-2.602
21
-1.250
31
-0.779
12
-2.655
22
-1.250
32
-0.538
13
-2.655
23
-0.450
33
-0.538
0
3DFACE
8
3d_bottom
62
28
10
-2.655
20
-0.450
30
-0.538
11
-2.655
21
-1.250
31
-0.538
12
-2.801
22
-1.250
32
-0.361
13
-2.801
23
-0.450
33
-0.361
0
3DFACE
8
3d_bottom
62
28
10
-2.801
20
-0.450
30
-0.361
11
-2.801
21
-1.250
31
-0.361
12
-3.000
22
-1.250
32
-0.297
13
-3.000
23
-0.450
33
-0.297
0
3DFACE
8
3d_bottom
62
28
10
-3.000
20
-0.450
30
-0.297
11
-3.306
21
-0.450
31
-0.297
12
-3.306
22
-1.250
32
-0.297
13
-3.000
23
-1.250
33
-0.297
0
3DFACE
8
3d_bottom
62
28
10
-3.306
20
-0.450
30
0.000
11
-3.306
21
-0.450
31
0.000
12
-3.306
22
-1.250
32
0.000
13
-3.306
23
-1.250
33
0.000
0
3DFACE
8
3d_bottom
62
28
10
-3.306
20
-0.450
30
-0.297
11
-3.306
21
-0.450
31
-0.297
12
-3.306
22
-1.250
32
-0.297
13
-3.306
23
-1.250
33
-0.297
0
3DFACE
8
3d_bottom
62
28
10
-3.306
20
-0.450
30
0.000
11
-3.306
21
-0.450
31
0.000
12
-3.306
22
-0.450
32
-0.297
13
-3.306
23
-0.450
33
-0.297
0
3DFACE
8
3d_bottom
62
28
10
-3.306
20
-1.250
30
0.000
11
-3.306
21
-1.250
31
0.000
12
-3.306
22
-1.250
32
-0.297
13
-3.306
23
-1.250
33
-0.297
0
3DFACE
8
3d_bottom
62
28
10
-3.306
20
-0.450
30
0.000
11
-3.306
21
-1.250
31
0.000
12
-3.306
22
-1.250
32
-0.297
13
-3.306
23
-0.450
33
-0.297
0
3DFACE
8
3d_bottom
62
28
10
-3.306
20
-0.450
30
0.000
11
-3.306
21
-1.250
31
0.000
12
-3.306
22
-1.250
32
-0.297
13
-3.306
23
-0.450
33
-0.297
0
3DFACE
8
3d_bottom
62
28
10
-2.602
20
-0.450
30
-1.150
11
-2.602
21
-0.450
31
-1.150
12
-2.602
22
-1.250
32
-1.150
13
-2.602
23
-1.250
33
-1.150
0
3DFACE
8
3d_bottom
62
28
10
-2.356
20
-0.450
30
-1.150
11
-2.356
21
-0.450
31
-1.150
12
-2.356
22
-1.250
32
-1.150
13
-2.356
23
-1.250
33
-1.150
0
3DFACE
8
3d_bottom
62
28
10
-2.602
20
-0.450
30
-1.150
11
-2.602
21
-0.450
31
-1.150
12
-2.356
22
-0.450
32
-1.150
13
-2.356
23
-0.450
33
-1.150
0
3DFACE
8
3d_bottom
62
28
10
-2.602
20
-1.250
30
-1.150
11
-2.602
21
-1.250
31
-1.150
12
-2.356
22
-1.250
32
-1.150
13
-2.356
23
-1.250
33
-1.150
0
3DFACE
8
3d_bottom
62
28
10
-2.602
20
-0.450
30
-1.150
11
-2.602
21
-1.250
31
-1.150
12
-2.356
22
-1.250
32
-1.150
13
-2.356
23
-0.450
33
-1.150
0
3DFACE
8
3d_bottom
62
28
10
-2.602
20
-0.450
30
-1.150
11
-2.602
21
-1.250
31
-1.150
12
-2.356
22
-1.250
32
-1.150
13
-2.356
23
-0.450
33
-1.150
0
3DFACE
8
3d_bottom
62
28
10
-2.602
20
-0.450
30
-0.779
11
-2.602
21
-0.450
31
-0.779
12
-2.602
22
-1.250
32
-0.779
13
-2.602
23
-1.250
33
-0.779
0
3DFACE
8
3d_bottom
62
28
10
-2.602
20
-0.450
30
-1.150
11
-2.602
21
-0.450
31
-1.150
12
-2.602
22
-1.250
32
-1.150
13
-2.602
23
-1.250
33
-1.150
0
3DFACE
8
3d_bottom
62
28
10
-2.602
20
-0.450
30
-0.779
11
-2.602
21
-0.450
31
-0.779
12
-2.602
22
-0.450
32
-1.150
13
-2.602
23
-0.450
33
-1.150
0
3DFACE
8
3d_bottom
62
28
10
-2.602
20
-1.250
30
-0.779
11
-2.602
21
-1.250
31
-0.779
12
-2.602
22
-1.250
32
-1.150
13
-2.602
23
-1.250
33
-1.150
0
3DFACE
8
3d_bottom
62
28
10
-2.602
20
-0.450
30
-0.779
11
-2.602
21
-1.250
31
-0.779
12
-2.602
22
-1.250
32
-1.150
13
-2.602
23
-0.450
33
-1.150
0
3DFACE
8
3d_bottom
62
28
10
-2.602
20
-0.450
30
-0.779
11
-2.602
21
-1.250
31
-0.779
12
-2.602
22
-1.250
32
-1.150
13
-2.602
23
-0.450
33
-1.150
0
3DFACE
8
3d_bottom
62
29
10
-1.300
20
-2.750
30
-0.300
11
1.300
21
-2.750
31
-0.300
12
1.300
22
-1.750
32
-0.300
13
-1.300
23
-1.750
33
-0.300
0
3DFACE
8
3d_bottom
62
29
10
-1.300
20
-2.750
30
-1.400
11
1.300
21
-2.750
31
-1.400
12
1.300
22
-1.750
32
-1.400
13
-1.300
23
-1.750
33
-1.400
0
3DFACE
8
3d_bottom
62
29
10
-1.300
20
-2.750
30
-0.300
11
1.300
21
-2.750
31
-0.300
12
1.300
22
-2.750
32
-1.400
13
-1.300
23
-2.750
33
-1.400
0
3DFACE
8
3d_bottom
62
29
10
-1.300
20
-1.750
30
-0.300
11
1.300
21
-1.750
31
-0.300
12
1.300
22
-1.750
32
-1.400
13
-1.300
23
-1.750
33
-1.400
0
3DFACE
8
3d_bottom
62
29
10
1.300
20
-2.750
30
-0.300
11
1.300
21
-1.750
31
-0.300
12
1.300
22
-1.750
32
-1.400
13
1.300
23
-2.750
33
-1.400
0
3DFACE
8
3d_bottom
62
29
10
-1.300
20
-2.750
30
-0.300
11
-1.300
21
-1.750
31
-0.300
12
-1.300
22
-1.750
32
-1.400
13
-1.300
23
-2.750
33
-1.400
0
3DFACE
8
3d_bottom
62
29
10
-2.350
20
-1.750
30
0.000
11
2.350
21
-1.750
31
0.000
12
2.350
22
1.750
32
0.000
13
-2.350
23
1.750
33
0.000
0
3DFACE
8
3d_bottom
62
29
10
-2.350
20
-1.750
30
-1.750
11
2.350
21
-1.750
31
-1.750
12
2.350
22
1.750
32
-1.750
13
-2.350
23
1.750
33
-1.750
0
3DFACE
8
3d_bottom
62
29
10
-2.350
20
-1.750
30
0.000
11
2.350
21
-1.750
31
0.000
12
2.350
22
-1.750
32
-1.750
13
-2.350
23
-1.750
33
-1.750
0
3DFACE
8
3d_bottom
62
29
10
-2.350
20
1.750
30
0.000
11
2.350
21
1.750
31
0.000
12
2.350
22
1.750
32
-1.750
13
-2.350
23
1.750
33
-1.750
0
3DFACE
8
3d_bottom
62
29
10
2.350
20
-1.750
30
0.000
11
2.350
21
1.750
31
0.000
12
2.350
22
1.750
32
-1.750
13
2.350
23
-1.750
33
-1.750
0
3DFACE
8
3d_bottom
62
29
10
-2.350
20
-1.750
30
0.000
11
-2.350
21
1.750
31
0.000
12
-2.350
22
1.750
32
-1.750
13
-2.350
23
-1.750
33
-1.750
0
ENDBLK
0
BLOCK
2
SOD123_top
10
0
20
0
30
0
0
3DFACE
8
3d_top
62
30
10
-1.900
20
-0.350
30
1.500
11
-1.900
21
0.350
31
1.500
12
-1.723
22
0.350
32
1.573
13
-1.723
23
-0.350
33
1.573
0
3DFACE
8
3d_top
62
30
10
-1.723
20
-0.350
30
1.573
11
-1.723
21
0.350
31
1.573
12
-1.650
22
0.350
32
1.750
13
-1.650
23
-0.350
33
1.750
0
3DFACE
8
3d_top
62
30
10
-1.650
20
-0.350
30
1.750
11
-1.650
21
0.350
31
1.750
12
-1.650
22
0.350
32
2.250
13
-1.650
23
-0.350
33
2.250
0
3DFACE
8
3d_top
62
30
10
-1.400
20
-0.350
30
2.500
11
-1.400
21
0.350
31
2.500
12
-1.577
22
0.350
32
2.427
13
-1.577
23
-0.350
33
2.427
0
3DFACE
8
3d_top
62
30
10
-1.577
20
-0.350
30
2.427
11
-1.577
21
0.350
31
2.427
12
-1.650
22
0.350
32
2.250
13
-1.650
23
-0.350
33
2.250
0
3DFACE
8
3d_top
62
30
10
1.900
20
0.350
30
1.500
11
1.900
21
-0.350
31
1.500
12
1.723
22
-0.350
32
1.573
13
1.723
23
0.350
33
1.573
0
3DFACE
8
3d_top
62
30
10
1.723
20
0.350
30
1.573
11
1.723
21
-0.350
31
1.573
12
1.650
22
-0.350
32
1.750
13
1.650
23
0.350
33
1.750
0
3DFACE
8
3d_top
62
30
10
1.650
20
0.350
30
1.750
11
1.650
21
-0.350
31
1.750
12
1.650
22
-0.350
32
2.250
13
1.650
23
0.350
33
2.250
0
3DFACE
8
3d_top
62
30
10
1.400
20
0.350
30
2.500
11
1.400
21
-0.350
31
2.500
12
1.577
22
-0.350
32
2.427
13
1.577
23
0.350
33
2.427
0
3DFACE
8
3d_top
62
30
10
1.577
20
0.350
30
2.427
11
1.577
21
-0.350
31
2.427
12
1.650
22
-0.350
32
2.250
13
1.650
23
0.350
33
2.250
0
3DFACE
8
3d_top
62
30
10
1.425
20
-0.900
30
1.500
11
-1.425
21
-0.900
31
1.500
12
-1.425
22
0.900
32
1.500
13
1.425
23
0.900
33
1.500
0
3DFACE
8
3d_top
62
30
10
1.425
20
-0.900
30
2.850
11
-1.425
21
-0.900
31
2.850
12
-1.425
22
0.900
32
2.850
13
1.425
23
0.900
33
2.850
0
3DFACE
8
3d_top
62
30
10
1.425
20
-0.900
30
1.500
11
-1.425
21
-0.900
31
1.500
12
-1.425
22
-0.900
32
2.850
13
1.425
23
-0.900
33
2.850
0
3DFACE
8
3d_top
62
30
10
1.425
20
0.900
30
1.500
11
-1.425
21
0.900
31
1.500
12
-1.425
22
0.900
32
2.850
13
1.425
23
0.900
33
2.850
0
3DFACE
8
3d_top
62
30
10
-1.425
20
-0.900
30
1.500
11
-1.425
21
0.900
31
1.500
12
-1.425
22
0.900
32
2.850
13
-1.425
23
-0.900
33
2.850
0
3DFACE
8
3d_top
62
30
10
1.425
20
-0.900
30
1.500
11
1.425
21
0.900
31
1.500
12
1.425
22
0.900
32
2.850
13
1.425
23
-0.900
33
2.850
0
ENDBLK
0
BLOCK
2
SOD123_bot
10
0
20
0
30
0
0
3DFACE
8
3d_bottom
62
31
10
1.900
20
-0.350
30
0.000
11
1.900
21
0.350
31
0.000
12
1.723
22
0.350
32
-0.073
13
1.723
23
-0.350
33
-0.073
0
3DFACE
8
3d_bottom
62
31
10
1.723
20
-0.350
30
-0.073
11
1.723
21
0.350
31
-0.073
12
1.650
22
0.350
32
-0.250
13
1.650
23
-0.350
33
-0.250
0
3DFACE
8
3d_bottom
62
31
10
1.650
20
-0.350
30
-0.250
11
1.650
21
0.350
31
-0.250
12
1.650
22
0.350
32
-0.750
13
1.650
23
-0.350
33
-0.750
0
3DFACE
8
3d_bottom
62
31
10
1.400
20
-0.350
30
-1.000
11
1.400
21
0.350
31
-1.000
12
1.577
22
0.350
32
-0.927
13
1.577
23
-0.350
33
-0.927
0
3DFACE
8
3d_bottom
62
31
10
1.577
20
-0.350
30
-0.927
11
1.577
21
0.350
31
-0.927
12
1.650
22
0.350
32
-0.750
13
1.650
23
-0.350
33
-0.750
0
3DFACE
8
3d_bottom
62
31
10
-1.900
20
0.350
30
0.000
11
-1.900
21
-0.350
31
0.000
12
-1.723
22
-0.350
32
-0.073
13
-1.723
23
0.350
33
-0.073
0
3DFACE
8
3d_bottom
62
31
10
-1.723
20
0.350
30
-0.073
11
-1.723
21
-0.350
31
-0.073
12
-1.650
22
-0.350
32
-0.250
13
-1.650
23
0.350
33
-0.250
0
3DFACE
8
3d_bottom
62
31
10
-1.650
20
0.350
30
-0.250
11
-1.650
21
-0.350
31
-0.250
12
-1.650
22
-0.350
32
-0.750
13
-1.650
23
0.350
33
-0.750
0
3DFACE
8
3d_bottom
62
31
10
-1.400
20
0.350
30
-1.000
11
-1.400
21
-0.350
31
-1.000
12
-1.577
22
-0.350
32
-0.927
13
-1.577
23
0.350
33
-0.927
0
3DFACE
8
3d_bottom
62
31
10
-1.577
20
0.350
30
-0.927
11
-1.577
21
-0.350
31
-0.927
12
-1.650
22
-0.350
32
-0.750
13
-1.650
23
0.350
33
-0.750
0
3DFACE
8
3d_bottom
62
31
10
-1.425
20
-0.900
30
0.000
11
1.425
21
-0.900
31
0.000
12
1.425
22
0.900
32
0.000
13
-1.425
23
0.900
33
0.000
0
3DFACE
8
3d_bottom
62
31
10
-1.425
20
-0.900
30
-1.350
11
1.425
21
-0.900
31
-1.350
12
1.425
22
0.900
32
-1.350
13
-1.425
23
0.900
33
-1.350
0
3DFACE
8
3d_bottom
62
31
10
-1.425
20
-0.900
30
0.000
11
1.425
21
-0.900
31
0.000
12
1.425
22
-0.900
32
-1.350
13
-1.425
23
-0.900
33
-1.350
0
3DFACE
8
3d_bottom
62
31
10
-1.425
20
0.900
30
0.000
11
1.425
21
0.900
31
0.000
12
1.425
22
0.900
32
-1.350
13
-1.425
23
0.900
33
-1.350
0
3DFACE
8
3d_bottom
62
31
10
1.425
20
-0.900
30
0.000
11
1.425
21
0.900
31
0.000
12
1.425
22
0.900
32
-1.350
13
1.425
23
-0.900
33
-1.350
0
3DFACE
8
3d_bottom
62
31
10
-1.425
20
-0.900
30
0.000
11
-1.425
21
0.900
31
0.000
12
-1.425
22
0.900
32
-1.350
13
-1.425
23
-0.900
33
-1.350
0
ENDBLK
0
BLOCK
2
SOT236_bot
10
0
20
0
30
0
0
3DFACE
8
3d_bottom
62
32
10
-0.310
20
-1.151
30
-0.123
11
0.310
21
-1.151
31
-0.123
12
0.310
22
-1.077
32
-0.213
13
-0.310
23
-1.077
33
-0.213
0
3DFACE
8
3d_bottom
62
32
10
-0.310
20
-1.077
30
-0.213
11
0.310
21
-1.077
31
-0.213
12
0.310
22
-1.046
32
-0.431
13
-0.310
23
-1.046
33
-0.431
0
3DFACE
8
3d_bottom
62
32
10
-0.310
20
-1.046
30
-0.431
11
0.310
21
-1.046
31
-0.431
12
0.310
22
-1.046
32
-0.738
13
-0.310
23
-1.046
33
-0.738
0
3DFACE
8
3d_bottom
62
32
10
-0.310
20
-0.942
30
-1.046
11
0.310
21
-0.942
31
-1.046
12
0.310
22
-1.016
32
-0.956
13
-0.310
23
-1.016
33
-0.956
0
3DFACE
8
3d_bottom
62
32
10
-0.310
20
-1.016
30
-0.956
11
0.310
21
-1.016
31
-0.956
12
0.310
22
-1.046
32
-0.738
13
-0.310
23
-1.046
33
-0.738
0
3DFACE
8
3d_bottom
62
32
10
0.310
20
1.149
30
-0.123
11
-0.310
21
1.149
31
-0.123
12
-0.310
22
1.075
32
-0.213
13
0.310
23
1.075
33
-0.213
0
3DFACE
8
3d_bottom
62
32
10
0.310
20
1.075
30
-0.213
11
-0.310
21
1.075
31
-0.213
12
-0.310
22
1.045
32
-0.431
13
0.310
23
1.045
33
-0.431
0
3DFACE
8
3d_bottom
62
32
10
0.310
20
1.045
30
-0.431
11
-0.310
21
1.045
31
-0.431
12
-0.310
22
1.045
32
-0.738
13
0.310
23
1.045
33
-0.738
0
3DFACE
8
3d_bottom
62
32
10
0.310
20
0.940
30
-1.046
11
-0.310
21
0.940
31
-1.046
12
-0.310
22
1.014
32
-0.956
13
0.310
23
1.014
33
-0.956
0
3DFACE
8
3d_bottom
62
32
10
0.310
20
1.014
30
-0.956
11
-0.310
21
1.014
31
-0.956
12
-0.310
22
1.045
32
-0.738
13
0.310
23
1.045
33
-0.738
0
3DFACE
8
3d_bottom
62
20
10
-1.395
20
-1.151
30
-0.123
11
-0.775
21
-1.151
31
-0.123
12
-0.775
22
-1.077
32
-0.213
13
-1.395
23
-1.077
33
-0.213
0
3DFACE
8
3d_bottom
62
20
10
-1.395
20
-1.077
30
-0.213
11
-0.775
21
-1.077
31
-0.213
12
-0.775
22
-1.046
32
-0.431
13
-1.395
23
-1.046
33
-0.431
0
3DFACE
8
3d_bottom
62
20
10
-1.395
20
-1.046
30
-0.431
11
-0.775
21
-1.046
31
-0.431
12
-0.775
22
-1.046
32
-0.738
13
-1.395
23
-1.046
33
-0.738
0
3DFACE
8
3d_bottom
62
20
10
-1.395
20
-0.942
30
-1.046
11
-0.775
21
-0.942
31
-1.046
12
-0.775
22
-1.016
32
-0.956
13
-1.395
23
-1.016
33
-0.956
0
3DFACE
8
3d_bottom
62
20
10
-1.395
20
-1.016
30
-0.956
11
-0.775
21
-1.016
31
-0.956
12
-0.775
22
-1.046
32
-0.738
13
-1.395
23
-1.046
33
-0.738
0
3DFACE
8
3d_bottom
62
20
10
-0.775
20
1.149
30
-0.123
11
-1.395
21
1.149
31
-0.123
12
-1.395
22
1.075
32
-0.213
13
-0.775
23
1.075
33
-0.213
0
3DFACE
8
3d_bottom
62
20
10
-0.775
20
1.075
30
-0.213
11
-1.395
21
1.075
31
-0.213
12
-1.395
22
1.045
32
-0.431
13
-0.775
23
1.045
33
-0.431
0
3DFACE
8
3d_bottom
62
20
10
-0.775
20
1.045
30
-0.431
11
-1.395
21
1.045
31
-0.431
12
-1.395
22
1.045
32
-0.738
13
-0.775
23
1.045
33
-0.738
0
3DFACE
8
3d_bottom
62
20
10
-0.775
20
0.940
30
-1.046
11
-1.395
21
0.940
31
-1.046
12
-1.395
22
1.014
32
-0.956
13
-0.775
23
1.014
33
-0.956
0
3DFACE
8
3d_bottom
62
20
10
-0.775
20
1.014
30
-0.956
11
-1.395
21
1.014
31
-0.956
12
-1.395
22
1.045
32
-0.738
13
-0.775
23
1.045
33
-0.738
0
3DFACE
8
3d_bottom
62
20
10
0.775
20
-1.151
30
-0.123
11
1.395
21
-1.151
31
-0.123
12
1.395
22
-1.077
32
-0.213
13
0.775
23
-1.077
33
-0.213
0
3DFACE
8
3d_bottom
62
20
10
0.775
20
-1.077
30
-0.213
11
1.395
21
-1.077
31
-0.213
12
1.395
22
-1.046
32
-0.431
13
0.775
23
-1.046
33
-0.431
0
3DFACE
8
3d_bottom
62
20
10
0.775
20
-1.046
30
-0.431
11
1.395
21
-1.046
31
-0.431
12
1.395
22
-1.046
32
-0.738
13
0.775
23
-1.046
33
-0.738
0
3DFACE
8
3d_bottom
62
20
10
0.775
20
-0.942
30
-1.046
11
1.395
21
-0.942
31
-1.046
12
1.395
22
-1.016
32
-0.956
13
0.775
23
-1.016
33
-0.956
0
3DFACE
8
3d_bottom
62
20
10
0.775
20
-1.016
30
-0.956
11
1.395
21
-1.016
31
-0.956
12
1.395
22
-1.046
32
-0.738
13
0.775
23
-1.046
33
-0.738
0
3DFACE
8
3d_bottom
62
20
10
1.395
20
1.149
30
-0.123
11
0.775
21
1.149
31
-0.123
12
0.775
22
1.075
32
-0.213
13
1.395
23
1.075
33
-0.213
0
3DFACE
8
3d_bottom
62
20
10
1.395
20
1.075
30
-0.213
11
0.775
21
1.075
31
-0.213
12
0.775
22
1.045
32
-0.431
13
1.395
23
1.045
33
-0.431
0
3DFACE
8
3d_bottom
62
20
10
1.395
20
1.045
30
-0.431
11
0.775
21
1.045
31
-0.431
12
0.775
22
1.045
32
-0.738
13
1.395
23
1.045
33
-0.738
0
3DFACE
8
3d_bottom
62
20
10
1.395
20
0.940
30
-1.046
11
0.775
21
0.940
31
-1.046
12
0.775
22
1.014
32
-0.956
13
1.395
23
1.014
33
-0.956
0
3DFACE
8
3d_bottom
62
20
10
1.395
20
1.014
30
-0.956
11
0.775
21
1.014
31
-0.956
12
0.775
22
1.045
32
-0.738
13
1.395
23
1.045
33
-0.738
0
3DFACE
8
3d_bottom
62
20
10
-1.550
20
-0.927
30
0.000
11
1.550
21
-0.927
31
0.000
12
1.550
22
0.927
32
0.000
13
-1.550
23
0.927
33
0.000
0
3DFACE
8
3d_bottom
62
20
10
-1.550
20
-0.927
30
-1.450
11
1.550
21
-0.927
31
-1.450
12
1.550
22
0.927
32
-1.450
13
-1.550
23
0.927
33
-1.450
0
3DFACE
8
3d_bottom
62
20
10
-1.550
20
-0.927
30
0.000
11
1.550
21
-0.927
31
0.000
12
1.550
22
-0.927
32
-1.450
13
-1.550
23
-0.927
33
-1.450
0
3DFACE
8
3d_bottom
62
20
10
-1.550
20
0.927
30
0.000
11
1.550
21
0.927
31
0.000
12
1.550
22
0.927
32
-1.450
13
-1.550
23
0.927
33
-1.450
0
3DFACE
8
3d_bottom
62
20
10
1.550
20
-0.927
30
0.000
11
1.550
21
0.927
31
0.000
12
1.550
22
0.927
32
-1.450
13
1.550
23
-0.927
33
-1.450
0
3DFACE
8
3d_bottom
62
20
10
-1.550
20
-0.927
30
0.000
11
-1.550
21
0.927
31
0.000
12
-1.550
22
0.927
32
-1.450
13
-1.550
23
-0.927
33
-1.450
0
ENDBLK
0
BLOCK
2
Via33Hole17_bot
10
0
20
0
30
0
0
BLOCK
2
SOT23_top
10
0
20
0
30
0
0
3DFACE
8
3d_top
62
22
10
-0.375
20
1.546
30
1.543
11
0.375
21
1.546
31
1.543
12
0.375
22
1.359
32
1.585
13
-0.375
23
1.359
33
1.585
0
3DFACE
8
3d_top
62
22
10
-0.375
20
1.359
30
1.585
11
0.375
21
1.359
31
1.585
12
0.375
22
1.257
32
1.746
13
-0.375
23
1.257
33
1.746
0
3DFACE
8
3d_top
62
22
10
-0.375
20
1.257
30
1.746
11
0.375
21
1.257
31
1.746
12
0.375
22
1.170
32
2.239
13
-0.375
23
1.170
33
2.239
0
3DFACE
8
3d_top
62
22
10
-0.375
20
0.880
30
2.441
11
0.375
21
0.880
31
2.441
12
0.375
22
1.067
32
2.400
13
-0.375
23
1.067
33
2.400
0
3DFACE
8
3d_top
62
22
10
-0.375
20
1.067
30
2.400
11
0.375
21
1.067
31
2.400
12
0.375
22
1.170
32
2.239
13
-0.375
23
1.170
33
2.239
0
3DFACE
8
3d_top
62
22
10
1.375
20
-1.596
30
1.543
11
0.625
21
-1.596
31
1.543
12
0.625
22
-1.409
32
1.585
13
1.375
23
-1.409
33
1.585
0
3DFACE
8
3d_top
62
22
10
1.375
20
-1.409
30
1.585
11
0.625
21
-1.409
31
1.585
12
0.625
22
-1.307
32
1.746
13
1.375
23
-1.307
33
1.746
0
3DFACE
8
3d_top
62
22
10
1.375
20
-1.307
30
1.746
11
0.625
21
-1.307
31
1.746
12
0.625
22
-1.220
32
2.239
13
1.375
23
-1.220
33
2.239
0
3DFACE
8
3d_top
62
22
10
1.375
20
-0.930
30
2.441
11
0.625
21
-0.930
31
2.441
12
0.625
22
-1.117
32
2.400
13
1.375
23
-1.117
33
2.400
0
3DFACE
8
3d_top
62
22
10
1.375
20
-1.117
30
2.400
11
0.625
21
-1.117
31
2.400
12
0.625
22
-1.220
32
2.239
13
1.375
23
-1.220
33
2.239
0
3DFACE
8
3d_top
62
22
10
-0.625
20
-1.596
30
1.543
11
-1.375
21
-1.596
31
1.543
12
-1.375
22
-1.409
32
1.585
13
-0.625
23
-1.409
33
1.585
0
3DFACE
8
3d_top
62
22
10
-0.625
20
-1.409
30
1.585
11
-1.375
21
-1.409
31
1.585
12
-1.375
22
-1.307
32
1.746
13
-0.625
23
-1.307
33
1.746
0
3DFACE
8
3d_top
62
22
10
-0.625
20
-1.307
30
1.746
11
-1.375
21
-1.307
31
1.746
12
-1.375
22
-1.220
32
2.239
13
-0.625
23
-1.220
33
2.239
0
3DFACE
8
3d_top
62
22
10
-0.625
20
-0.930
30
2.441
11
-1.375
21
-0.930
31
2.441
12
-1.375
22
-1.117
32
2.400
13
-0.625
23
-1.117
33
2.400
0
3DFACE
8
3d_top
62
22
10
-0.625
20
-1.117
30
2.400
11
-1.375
21
-1.117
31
2.400
12
-1.375
22
-1.220
32
2.239
13
-0.625
23
-1.220
33
2.239
0
3DFACE
8
3d_top
62
22
10
1.550
20
-0.930
30
1.500
11
-1.550
21
-0.930
31
1.500
12
-1.550
22
0.870
32
1.500
13
1.550
23
0.870
33
1.500
0
3DFACE
8
3d_top
62
22
10
1.550
20
-0.930
30
2.950
11
-1.550
21
-0.930
31
2.950
12
-1.550
22
0.870
32
2.950
13
1.550
23
0.870
33
2.950
0
3DFACE
8
3d_top
62
22
10
1.550
20
-0.930
30
1.500
11
-1.550
21
-0.930
31
1.500
12
-1.550
22
-0.930
32
2.950
13
1.550
23
-0.930
33
2.950
0
3DFACE
8
3d_top
62
22
10
1.550
20
0.870
30
1.500
11
-1.550
21
0.870
31
1.500
12
-1.550
22
0.870
32
2.950
13
1.550
23
0.870
33
2.950
0
3DFACE
8
3d_top
62
22
10
-1.550
20
-0.930
30
1.500
11
-1.550
21
0.870
31
1.500
12
-1.550
22
0.870
32
2.950
13
-1.550
23
-0.930
33
2.950
0
3DFACE
8
3d_top
62
22
10
1.550
20
-0.930
30
1.500
11
1.550
21
0.870
31
1.500
12
1.550
22
0.870
32
2.950
13
1.550
23
-0.930
33
2.950
0
ENDBLK
0
BLOCK
2
W210502PS_bot
10
0
20
0
30
0
0
3DFACE
8
3d_bottom
62
23
10
-3.600
20
-1.575
30
-6.000
11
1.600
21
-1.575
31
-6.000
12
1.600
22
2.075
32
-6.000
13
-3.600
23
2.075
33
-6.000
0
3DFACE
8
3d_bottom
62
23
10
-3.600
20
-1.575
30
-6.500
11
1.600
21
-1.575
31
-6.500
12
1.600
22
2.075
32
-6.500
13
-3.600
23
2.075
33
-6.500
0
3DFACE
8
3d_bottom
62
23
10
-3.600
20
-1.575
30
-6.000
11
1.600
21
-1.575
31
-6.000
12
1.600
22
-1.575
32
-6.500
13
-3.600
23
-1.575
33
-6.500
0
3DFACE
8
3d_bottom
62
23
10
-3.600
20
2.075
30
-6.000
11
1.600
21
2.075
31
-6.000
12
1.600
22
2.075
32
-6.500
13
-3.600
23
2.075
33
-6.500
0
3DFACE
8
3d_bottom
62
23
10
1.600
20
-1.575
30
-6.000
11
1.600
21
2.075
31
-6.000
12
1.600
22
2.075
32
-6.500
13
1.600
23
-1.575
33
-6.500
0
3DFACE
8
3d_bottom
62
23
10
-3.600
20
-1.575
30
-6.000
11
-3.600
21
2.075
31
-6.000
12
-3.600
22
2.075
32
-6.500
13
-3.600
23
-1.575
33
-6.500
0
3DFACE
8
3d_bottom
62
23
10
-4.000
20
-1.975
30
0.000
11
2.000
21
-1.975
31
0.000
12
2.000
22
2.475
32
0.000
13
-4.000
23
2.475
33
0.000
0
3DFACE
8
3d_bottom
62
23
10
-4.000
20
-1.975
30
-6.000
11
2.000
21
-1.975
31
-6.000
12
2.000
22
2.475
32
-6.000
13
-4.000
23
2.475
33
-6.000
0
3DFACE
8
3d_bottom
62
23
10
-4.000
20
-1.975
30
0.000
11
2.000
21
-1.975
31
0.000
12
2.000
22
-1.975
32
-6.000
13
-4.000
23
-1.975
33
-6.000
0
3DFACE
8
3d_bottom
62
23
10
-4.000
20
2.475
30
0.000
11
2.000
21
2.475
31
0.000
12
2.000
22
2.475
32
-6.000
13
-4.000
23
2.475
33
-6.000
0
3DFACE
8
3d_bottom
62
23
10
2.000
20
-1.975
30
0.000
11
2.000
21
2.475
31
0.000
12
2.000
22
2.475
32
-6.000
13
2.000
23
-1.975
33
-6.000
0
3DFACE
8
3d_bottom
62
23
10
-4.000
20
-1.975
30
0.000
11
-4.000
21
2.475
31
0.000
12
-4.000
22
2.475
32
-6.000
13
-4.000
23
-1.975
33
-6.000
0
3DFACE
8
3d_bottom
62
23
10
-4.000
20
-1.975
30
-6.500
11
2.000
21
-1.975
31
-6.500
12
2.000
22
2.475
32
-6.500
13
-4.000
23
2.475
33
-6.500
0
3DFACE
8
3d_bottom
62
23
10
-4.000
20
-1.975
30
-7.000
11
2.000
21
-1.975
31
-7.000
12
2.000
22
2.475
32
-7.000
13
-4.000
23
2.475
33
-7.000
0
3DFACE
8
3d_bottom
62
23
10
-4.000
20
-1.975
30
-6.500
11
2.000
21
-1.975
31
-6.500
12
2.000
22
-1.975
32
-7.000
13
-4.000
23
-1.975
33
-7.000
0
3DFACE
8
3d_bottom
62
23
10
-4.000
20
2.475
30
-6.500
11
2.000
21
2.475
31
-6.500
12
2.000
22
2.475
32
-7.000
13
-4.000
23
2.475
33
-7.000
0
3DFACE
8
3d_bottom
62
23
10
2.000
20
-1.975
30
-6.500
11
2.000
21
2.475
31
-6.500
12
2.000
22
2.475
32
-7.000
13
2.000
23
-1.975
33
-7.000
0
3DFACE
8
3d_bottom
62
23
10
-4.000
20
-1.975
30
-6.500
11
-4.000
21
2.475
31
-6.500
12
-4.000
22
2.475
32
-7.000
13
-4.000
23
-1.975
33
-7.000
0
ENDBLK
0
BLOCK
2
MINIUSB2C_bot
10
0
20
0
30
0
0
3DFACE
8
3d_bottom
62
24
10
0.000
20
3.850
30
0.250
11
1.500
21
3.850
31
0.250
12
1.500
22
3.950
32
-0.125
13
0.000
23
3.950
33
-0.125
0
3DFACE
8
3d_bottom
62
24
10
0.000
20
3.950
30
-0.125
11
1.500
21
3.950
31
-0.125
12
1.500
22
4.225
32
-0.400
13
0.000
23
4.225
33
-0.400
0
3DFACE
8
3d_bottom
62
24
10
0.000
20
4.225
30
-0.400
11
1.500
21
4.225
31
-0.400
12
1.500
22
4.600
32
-0.500
13
0.000
23
4.600
33
-0.500
0
3DFACE
8
3d_bottom
62
24
10
0.000
20
3.850
30
0.250
11
0.000
21
3.850
31
1.500
12
1.500
22
3.850
32
1.500
13
1.500
23
3.850
33
0.250
0
3DFACE
8
3d_bottom
62
24
10
3.800
20
3.850
30
0.250
11
5.300
21
3.850
31
0.250
12
5.300
22
3.950
32
-0.125
13
3.800
23
3.950
33
-0.125
0
3DFACE
8
3d_bottom
62
24
10
3.800
20
3.950
30
-0.125
11
5.300
21
3.950
31
-0.125
12
5.300
22
4.225
32
-0.400
13
3.800
23
4.225
33
-0.400
0
3DFACE
8
3d_bottom
62
24
10
3.800
20
4.225
30
-0.400
11
5.300
21
4.225
31
-0.400
12
5.300
22
4.600
32
-0.500
13
3.800
23
4.600
33
-0.500
0
3DFACE
8
3d_bottom
62
24
10
3.800
20
3.850
30
0.250
11
3.800
21
3.850
31
1.500
12
5.300
22
3.850
32
1.500
13
5.300
23
3.850
33
0.250
0
3DFACE
8
3d_bottom
62
24
10
1.500
20
-3.850
30
0.250
11
0.000
21
-3.850
31
0.250
12
0.000
22
-3.950
32
-0.125
13
1.500
23
-3.950
33
-0.125
0
3DFACE
8
3d_bottom
62
24
10
1.500
20
-3.950
30
-0.125
11
0.000
21
-3.950
31
-0.125
12
0.000
22
-4.225
32
-0.400
13
1.500
23
-4.225
33
-0.400
0
3DFACE
8
3d_bottom
62
24
10
1.500
20
-4.225
30
-0.400
11
0.000
21
-4.225
31
-0.400
12
0.000
22
-4.600
32
-0.500
13
1.500
23
-4.600
33
-0.500
0
3DFACE
8
3d_bottom
62
24
10
1.500
20
-3.850
30
0.250
11
1.500
21
-3.850
31
1.500
12
0.000
22
-3.850
32
1.500
13
0.000
23
-3.850
33
0.250
0
3DFACE
8
3d_bottom
62
24
10
5.300
20
-3.850
30
0.250
11
3.800
21
-3.850
31
0.250
12
3.800
22
-3.950
32
-0.125
13
5.300
23
-3.950
33
-0.125
0
3DFACE
8
3d_bottom
62
24
10
5.300
20
-3.950
30
-0.125
11
3.800
21
-3.950
31
-0.125
12
3.800
22
-4.225
32
-0.400
13
5.300
23
-4.225
33
-0.400
0
3DFACE
8
3d_bottom
62
24
10
5.300
20
-4.225
30
-0.400
11
3.800
21
-4.225
31
-0.400
12
3.800
22
-4.600
32
-0.500
13
5.300
23
-4.600
33
-0.500
0
3DFACE
8
3d_bottom
62
24
10
5.300
20
-3.850
30
0.250
11
5.300
21
-3.850
31
1.500
12
3.800
22
-3.850
32
1.500
13
3.800
23
-3.850
33
0.250
0
3DFACE
8
3d_bottom
62
24
10
3.900
20
0.200
30
1.500
11
3.900
21
-0.200
31
1.500
12
4.430
22
-0.200
32
1.280
13
4.430
23
0.200
33
1.280
0
3DFACE
8
3d_bottom
62
24
10
4.430
20
0.200
30
1.280
11
4.430
21
-0.200
31
1.280
12
4.650
22
-0.200
32
0.750
13
4.650
23
0.200
33
0.750
0
3DFACE
8
3d_bottom
62
24
10
4.650
20
0.200
30
0.750
11
4.650
21
-0.200
31
0.750
12
4.650
22
-0.200
32
0.400
13
4.650
23
0.200
33
0.400
0
3DFACE
8
3d_bottom
62
24
10
5.400
20
0.200
30
-0.350
11
5.400
21
-0.200
31
-0.350
12
4.870
22
-0.200
32
-0.130
13
4.870
23
0.200
33
-0.130
0
3DFACE
8
3d_bottom
62
24
10
4.870
20
0.200
30
-0.130
11
4.870
21
-0.200
31
-0.130
12
4.650
22
-0.200
32
0.400
13
4.650
23
0.200
33
0.400
0
3DFACE
8
3d_bottom
62
24
10
3.900
20
1.000
30
1.500
11
3.900
21
0.600
31
1.500
12
4.430
22
0.600
32
1.280
13
4.430
23
1.000
33
1.280
0
3DFACE
8
3d_bottom
62
24
10
4.430
20
1.000
30
1.280
11
4.430
21
0.600
31
1.280
12
4.650
22
0.600
32
0.750
13
4.650
23
1.000
33
0.750
0
3DFACE
8
3d_bottom
62
24
10
4.650
20
1.000
30
0.750
11
4.650
21
0.600
31
0.750
12
4.650
22
0.600
32
0.400
13
4.650
23
1.000
33
0.400
0
3DFACE
8
3d_bottom
62
24
10
5.400
20
1.000
30
-0.350
11
5.400
21
0.600
31
-0.350
12
4.870
22
0.600
32
-0.130
13
4.870
23
1.000
33
-0.130
0
3DFACE
8
3d_bottom
62
24
10
4.870
20
1.000
30
-0.130
11
4.870
21
0.600
31
-0.130
12
4.650
22
0.600
32
0.400
13
4.650
23
1.000
33
0.400
0
3DFACE
8
3d_bottom
62
24
10
3.900
20
-0.600
30
1.500
11
3.900
21
-1.000
31
1.500
12
4.430
22
-1.000
32
1.280
13
4.430
23
-0.600
33
1.280
0
3DFACE
8
3d_bottom
62
24
10
4.430
20
-0.600
30
1.280
11
4.430
21
-1.000
31
1.280
12
4.650
22
-1.000
32
0.750
13
4.650
23
-0.600
33
0.750
0
3DFACE
8
3d_bottom
62
24
10
4.650
20
-0.600
30
0.750
11
4.650
21
-1.000
31
0.750
12
4.650
22
-1.000
32
0.400
13
4.650
23
-0.600
33
0.400
0
3DFACE
8
3d_bottom
62
24
10
5.400
20
-0.600
30
-0.350
11
5.400
21
-1.000
31
-0.350
12
4.870
22
-1.000
32
-0.130
13
4.870
23
-0.600
33
-0.130
0
3DFACE
8
3d_bottom
62
24
10
4.870
20
-0.600
30
-0.130
11
4.870
21
-1.000
31
-0.130
12
4.650
22
-1.000
32
0.400
13
4.650
23
-0.600
33
0.400
0
3DFACE
8
3d_bottom
62
24
10
3.900
20
1.800
30
1.500
11
3.900
21
1.400
31
1.500
12
4.430
22
1.400
32
1.280
13
4.430
23
1.800
33
1.280
0
3DFACE
8
3d_bottom
62
24
10
4.430
20
1.800
30
1.280
11
4.430
21
1.400
31
1.280
12
4.650
22
1.400
32
0.750
13
4.650
23
1.800
33
0.750
0
3DFACE
8
3d_bottom
62
24
10
4.650
20
1.800
30
0.750
11
4.650
21
1.400
31
0.750
12
4.650
22
1.400
32
0.400
13
4.650
23
1.800
33
0.400
0
3DFACE
8
3d_bottom
62
24
10
5.400
20
1.800
30
-0.350
11
5.400
21
1.400
31
-0.350
12
4.870
22
1.400
32
-0.130
13
4.870
23
1.800
33
-0.130
0
3DFACE
8
3d_bottom
62
24
10
4.870
20
1.800
30
-0.130
11
4.870
21
1.400
31
-0.130
12
4.650
22
1.400
32
0.400
13
4.650
23
1.800
33
0.400
0
3DFACE
8
3d_bottom
62
24
10
3.900
20
-1.400
30
1.500
11
3.900
21
-1.800
31
1.500
12
4.430
22
-1.800
32
1.280
13
4.430
23
-1.400
33
1.280
0
3DFACE
8
3d_bottom
62
24
10
4.430
20
-1.400
30
1.280
11
4.430
21
-1.800
31
1.280
12
4.650
22
-1.800
32
0.750
13
4.650
23
-1.400
33
0.750
0
3DFACE
8
3d_bottom
62
24
10
4.650
20
-1.400
30
0.750
11
4.650
21
-1.800
31
0.750
12
4.650
22
-1.800
32
0.400
13
4.650
23
-1.400
33
0.400
0
3DFACE
8
3d_bottom
62
24
10
5.400
20
-1.400
30
-0.350
11
5.400
21
-1.800
31
-0.350
12
4.870
22
-1.800
32
-0.130
13
4.870
23
-1.400
33
-0.130
0
3DFACE
8
3d_bottom
62
24
10
4.870
20
-1.400
30
-0.130
11
4.870
21
-1.800
31
-0.130
12
4.650
22
-1.800
32
0.400
13
4.650
23
-1.400
33
0.400
0
3DFACE
8
3d_bottom
62
14
10
3.900
20
3.000
30
3.600
11
3.900
21
-3.000
31
3.600
12
-3.900
22
-3.000
32
3.600
13
-3.900
23
3.000
33
3.600
0
3DFACE
8
3d_bottom
62
14
10
3.900
20
-3.000
30
3.600
11
3.900
21
-3.233
31
3.569
12
-3.900
22
-3.233
32
3.569
13
-3.900
23
-3.000
33
3.600
0
3DFACE
8
3d_bottom
62
14
10
3.900
20
-3.233
30
3.569
11
3.900
21
-3.450
31
3.479
12
-3.900
22
-3.450
32
3.479
13
-3.900
23
-3.233
33
3.569
0
3DFACE
8
3d_bottom
62
14
10
3.900
20
-3.450
30
3.479
11
3.900
21
-3.636
31
3.336
12
-3.900
22
-3.636
32
3.336
13
-3.900
23
-3.450
33
3.479
0
3DFACE
8
3d_bottom
62
14
10
3.900
20
-3.636
30
3.336
11
3.900
21
-3.779
31
3.150
12
-3.900
22
-3.779
32
3.150
13
-3.900
23
-3.636
33
3.336
0
3DFACE
8
3d_bottom
62
14
10
3.900
20
-3.779
30
3.150
11
3.900
21
-3.869
31
2.933
12
-3.900
22
-3.869
32
2.933
13
-3.900
23
-3.779
33
3.150
0
3DFACE
8
3d_bottom
62
14
10
3.900
20
-3.869
30
2.933
11
3.900
21
-3.900
31
2.700
12
-3.900
22
-3.900
32
2.700
13
-3.900
23
-3.869
33
2.933
0
3DFACE
8
3d_bottom
62
14
10
3.900
20
-3.900
30
2.700
11
3.900
21
-3.900
31
2.700
12
-3.900
22
-3.900
32
2.700
13
-3.900
23
-3.900
33
2.700
0
3DFACE
8
3d_bottom
62
14
10
3.900
20
-3.900
30
2.700
11
3.900
21
-3.900
31
2.100
12
-3.900
22
-3.900
32
2.100
13
-3.900
23
-3.900
33
2.700
0
3DFACE
8
3d_bottom
62
14
10
3.900
20
-3.900
30
2.100
11
3.900
21
-3.300
31
1.500
12
-3.900
22
-3.300
32
1.500
13
-3.900
23
-3.900
33
2.100
0
3DFACE
8
3d_bottom
62
14
10
3.900
20
-3.300
30
1.500
11
3.900
21
-3.300
31
0.100
12
-3.900
22
-3.300
32
0.100
13
-3.900
23
-3.300
33
1.500
0
3DFACE
8
3d_bottom
62
14
10
3.900
20
-3.300
30
0.100
11
3.900
21
-3.283
31
-0.029
12
-3.900
22
-3.283
32
-0.029
13
-3.900
23
-3.300
33
0.100
0
3DFACE
8
3d_bottom
62
14
10
3.900
20
-3.283
30
-0.029
11
3.900
21
-3.233
31
-0.150
12
-3.900
22
-3.233
32
-0.150
13
-3.900
23
-3.283
33
-0.029
0
3DFACE
8
3d_bottom
62
14
10
3.900
20
-3.233
30
-0.150
11
3.900
21
-3.154
31
-0.254
12
-3.900
22
-3.154
32
-0.254
13
-3.900
23
-3.233
33
-0.150
0
3DFACE
8
3d_bottom
62
14
10
3.900
20
-3.154
30
-0.254
11
3.900
21
-3.050
31
-0.333
12
-3.900
22
-3.050
32
-0.333
13
-3.900
23
-3.154
33
-0.254
0
3DFACE
8
3d_bottom
62
14
10
3.900
20
-3.050
30
-0.333
11
3.900
21
-2.929
31
-0.383
12
-3.900
22
-2.929
32
-0.383
13
-3.900
23
-3.050
33
-0.333
0
3DFACE
8
3d_bottom
62
14
10
3.900
20
-2.929
30
-0.383
11
3.900
21
-2.800
31
-0.400
12
-3.900
22
-2.800
32
-0.400
13
-3.900
23
-2.929
33
-0.383
0
3DFACE
8
3d_bottom
62
14
10
3.900
20
-2.800
30
-0.400
11
3.900
21
-2.800
31
-0.400
12
-3.900
22
-2.800
32
-0.400
13
-3.900
23
-2.800
33
-0.400
0
3DFACE
8
3d_bottom
62
14
10
3.900
20
-2.800
30
-0.400
11
3.900
21
2.800
31
-0.400
12
-3.900
22
2.800
32
-0.400
13
-3.900
23
-2.800
33
-0.400
0
3DFACE
8
3d_bottom
62
14
10
3.900
20
2.800
30
-0.400
11
3.900
21
2.929
31
-0.383
12
-3.900
22
2.929
32
-0.383
13
-3.900
23
2.800
33
-0.400
0
3DFACE
8
3d_bottom
62
14
10
3.900
20
2.929
30
-0.383
11
3.900
21
3.050
31
-0.333
12
-3.900
22
3.050
32
-0.333
13
-3.900
23
2.929
33
-0.383
0
3DFACE
8
3d_bottom
62
14
10
3.900
20
3.050
30
-0.333
11
3.900
21
3.154
31
-0.254
12
-3.900
22
3.154
32
-0.254
13
-3.900
23
3.050
33
-0.333
0
3DFACE
8
3d_bottom
62
14
10
3.900
20
3.154
30
-0.254
11
3.900
21
3.233
31
-0.150
12
-3.900
22
3.233
32
-0.150
13
-3.900
23
3.154
33
-0.254
0
3DFACE
8
3d_bottom
62
14
10
3.900
20
3.233
30
-0.150
11
3.900
21
3.283
31
-0.029
12
-3.900
22
3.283
32
-0.029
13
-3.900
23
3.233
33
-0.150
0
3DFACE
8
3d_bottom
62
14
10
3.900
20
3.283
30
-0.029
11
3.900
21
3.300
31
0.100
12
-3.900
22
3.300
32
0.100
13
-3.900
23
3.283
33
-0.029
0
3DFACE
8
3d_bottom
62
14
10
3.900
20
3.300
30
0.100
11
3.900
21
3.300
31
0.100
12
-3.900
22
3.300
32
0.100
13
-3.900
23
3.300
33
0.100
0
3DFACE
8
3d_bottom
62
14
10
3.900
20
3.300
30
0.100
11
3.900
21
3.300
31
1.500
12
-3.900
22
3.300
32
1.500
13
-3.900
23
3.300
33
0.100
0
3DFACE
8
3d_bottom
62
14
10
3.900
20
3.300
30
1.500
11
3.900
21
3.900
31
2.100
12
-3.900
22
3.900
32
2.100
13
-3.900
23
3.300
33
1.500
0
3DFACE
8
3d_bottom
62
14
10
3.900
20
3.900
30
2.100
11
3.900
21
3.900
31
2.700
12
-3.900
22
3.900
32
2.700
13
-3.900
23
3.900
33
2.100
0
3DFACE
8
3d_bottom
62
14
10
3.900
20
3.900
30
2.700
11
3.900
21
3.869
31
2.933
12
-3.900
22
3.869
32
2.933
13
-3.900
23
3.900
33
2.700
0
3DFACE
8
3d_bottom
62
14
10
3.900
20
3.869
30
2.933
11
3.900
21
3.779
31
3.150
12
-3.900
22
3.779
32
3.150
13
-3.900
23
3.869
33
2.933
0
3DFACE
8
3d_bottom
62
14
10
3.900
20
3.779
30
3.150
11
3.900
21
3.636
31
3.336
12
-3.900
22
3.636
32
3.336
13
-3.900
23
3.779
33
3.150
0
3DFACE
8
3d_bottom
62
14
10
3.900
20
3.636
30
3.336
11
3.900
21
3.450
31
3.479
12
-3.900
22
3.450
32
3.479
13
-3.900
23
3.636
33
3.336
0
3DFACE
8
3d_bottom
62
14
10
3.900
20
3.450
30
3.479
11
3.900
21
3.233
31
3.569
12
-3.900
22
3.233
32
3.569
13
-3.900
23
3.450
33
3.479
0
3DFACE
8
3d_bottom
62
14
10
3.900
20
3.233
30
3.569
11
3.900
21
3.000
31
3.600
12
-3.900
22
3.000
32
3.600
13
-3.900
23
3.233
33
3.569
0
3DFACE
8
3d_bottom
62
14
10
3.900
20
3.000
30
3.600
11
3.900
21
3.000
31
3.600
12
-3.900
22
3.000
32
3.600
13
-3.900
23
3.000
33
3.600
0
ENDBLK
0
BLOCK
2
PLS1.2771_bot
10
0
20
0
30
0
0
ENDBLK
0
BLOCK
2
W210502PS_top
10
0
20
0
30
0
0
3DFACE
8
3d_top
62
26
10
3.600
20
-1.575
30
7.500
11
-1.600
21
-1.575
31
7.500
12
-1.600
22
2.075
32
7.500
13
3.600
23
2.075
33
7.500
0
3DFACE
8
3d_top
62
26
10
3.600
20
-1.575
30
8.000
11
-1.600
21
-1.575
31
8.000
12
-1.600
22
2.075
32
8.000
13
3.600
23
2.075
33
8.000
0
3DFACE
8
3d_top
62
26
10
3.600
20
-1.575
30
7.500
11
-1.600
21
-1.575
31
7.500
12
-1.600
22
-1.575
32
8.000
13
3.600
23
-1.575
33
8.000
0
3DFACE
8
3d_top
62
26
10
3.600
20
2.075
30
7.500
11
-1.600
21
2.075
31
7.500
12
-1.600
22
2.075
32
8.000
13
3.600
23
2.075
33
8.000
0
3DFACE
8
3d_top
62
26
10
-1.600
20
-1.575
30
7.500
11
-1.600
21
2.075
31
7.500
12
-1.600
22
2.075
32
8.000
13
-1.600
23
-1.575
33
8.000
0
3DFACE
8
3d_top
62
26
10
3.600
20
-1.575
30
7.500
11
3.600
21
2.075
31
7.500
12
3.600
22
2.075
32
8.000
13
3.600
23
-1.575
33
8.000
0
3DFACE
8
3d_top
62
26
10
4.000
20
-1.975
30
1.500
11
-2.000
21
-1.975
31
1.500
12
-2.000
22
2.475
32
1.500
13
4.000
23
2.475
33
1.500
0
3DFACE
8
3d_top
62
26
10
4.000
20
-1.975
30
7.500
11
-2.000
21
-1.975
31
7.500
12
-2.000
22
2.475
32
7.500
13
4.000
23
2.475
33
7.500
0
3DFACE
8
3d_top
62
26
10
4.000
20
-1.975
30
1.500
11
-2.000
21
-1.975
31
1.500
12
-2.000
22
-1.975
32
7.500
13
4.000
23
-1.975
33
7.500
0
3DFACE
8
3d_top
62
26
10
4.000
20
2.475
30
1.500
11
-2.000
21
2.475
31
1.500
12
-2.000
22
2.475
32
7.500
13
4.000
23
2.475
33
7.500
0
3DFACE
8
3d_top
62
26
10
-2.000
20
-1.975
30
1.500
11
-2.000
21
2.475
31
1.500
12
-2.000
22
2.475
32
7.500
13
-2.000
23
-1.975
33
7.500
0
3DFACE
8
3d_top
62
26
10
4.000
20
-1.975
30
1.500
11
4.000
21
2.475
31
1.500
12
4.000
22
2.475
32
7.500
13
4.000
23
-1.975
33
7.500
0
3DFACE
8
3d_top
62
26
10
4.000
20
-1.975
30
8.000
11
-2.000
21
-1.975
31
8.000
12
-2.000
22
2.475
32
8.000
13
4.000
23
2.475
33
8.000
0
3DFACE
8
3d_top
62
26
10
4.000
20
-1.975
30
8.500
11
-2.000
21
-1.975
31
8.500
12
-2.000
22
2.475
32
8.500
13
4.000
23
2.475
33
8.500
0
3DFACE
8
3d_top
62
26
10
4.000
20
-1.975
30
8.000
11
-2.000
21
-1.975
31
8.000
12
-2.000
22
-1.975
32
8.500
13
4.000
23
-1.975
33
8.500
0
3DFACE
8
3d_top
62
26
10
4.000
20
2.475
30
8.000
11
-2.000
21
2.475
31
8.000
12
-2.000
22
2.475
32
8.500
13
4.000
23
2.475
33
8.500
0
3DFACE
8
3d_top
62
26
10
-2.000
20
-1.975
30
8.000
11
-2.000
21
2.475
31
8.000
12
-2.000
22
2.475
32
8.500
13
-2.000
23
-1.975
33
8.500
0
3DFACE
8
3d_top
62
26
10
4.000
20
-1.975
30
8.000
11
4.000
21
2.475
31
8.000
12
4.000
22
2.475
32
8.500
13
4.000
23
-1.975
33
8.500
0
ENDBLK
0
BLOCK
2
2SIP50_bot
10
0
20
0
30
0
0
BLOCK
2
2SIP50_top
10
0
20
0
30
0
0
BLOCK
2
KX7_top
10
0
20
0
30
0
0
3DFACE
8
3d_top
62
27
10
1.600
20
-1.250
30
1.500
11
-1.600
21
-1.250
31
1.500
12
-1.600
22
1.250
32
1.500
13
1.600
23
1.250
33
1.500
0
3DFACE
8
3d_top
62
27
10
1.600
20
-1.250
30
2.500
11
-1.600
21
-1.250
31
2.500
12
-1.600
22
1.250
32
2.500
13
1.600
23
1.250
33
2.500
0
3DFACE
8
3d_top
62
27
10
1.600
20
-1.250
30
1.500
11
-1.600
21
-1.250
31
1.500
12
-1.600
22
-1.250
32
2.500
13
1.600
23
-1.250
33
2.500
0
3DFACE
8
3d_top
62
27
10
1.600
20
1.250
30
1.500
11
-1.600
21
1.250
31
1.500
12
-1.600
22
1.250
32
2.500
13
1.600
23
1.250
33
2.500
0
3DFACE
8
3d_top
62
27
10
-1.600
20
-1.250
30
1.500
11
-1.600
21
1.250
31
1.500
12
-1.600
22
1.250
32
2.500
13
-1.600
23
-1.250
33
2.500
0
3DFACE
8
3d_top
62
27
10
1.600
20
-1.250
30
1.500
11
1.600
21
1.250
31
1.500
12
1.600
22
1.250
32
2.500
13
1.600
23
-1.250
33
2.500
0
ENDBLK
0
ENDSEC
0
SECTION
2
ENTITIES
0
LINE
8
board_outline
62
0
10
79.300
20
50.400
30
0.000
11
89.300
21
50.400
31
0.000
0
LINE
8
board_outline
62
0
10
79.300
20
50.400
30
1.500
11
89.300
21
50.400
31
1.500
0
LINE
8
board_outline
62
0
10
89.300
20
50.400
30
0.000
11
89.300
21
50.400
31
1.500
0
3DFACE
8
board_outline
62
0
10
79.300
20
50.400
30
0.000
11
89.300
21
50.400
31
0.000
12
89.300
22
50.400
32
1.500
13
79.300
23
50.400
33
1.500
0
LINE
8
board_outline
62
0
10
89.300
20
50.400
30
0.000
11
89.300
21
58.100
31
0.000
0
LINE
8
board_outline
62
0
10
89.300
20
50.400
30
1.500
11
89.300
21
58.100
31
1.500
0
LINE
8
board_outline
62
0
10
89.300
20
58.100
30
0.000
11
89.300
21
58.100
31
1.500
0
3DFACE
8
board_outline
62
0
10
89.300
20
50.400
30
0.000
11
89.300
21
58.100
31
0.000
12
89.300
22
58.100
32
1.500
13
89.300
23
50.400
33
1.500
0
LINE
8
board_outline
62
0
10
89.300
20
58.100
30
0.000
11
89.344
21
58.436
31
0.000
0
LINE
8
board_outline
62
0
10
89.300
20
58.100
30
1.500
11
89.344
21
58.436
31
1.500
0
LINE
8
board_outline
62
0
10
89.344
20
58.436
30
0.000
11
89.344
21
58.436
31
1.500
0
3DFACE
8
board_outline
62
0
10
89.300
20
58.100
30
0.000
11
89.344
21
58.436
31
0.000
12
89.344
22
58.436
32
1.500
13
89.300
23
58.100
33
1.500
0
LINE
8
board_outline
62
0
10
89.344
20
58.436
30
0.000
11
89.474
21
58.750
31
0.000
0
LINE
8
board_outline
62
0
10
89.344
20
58.436
30
1.500
11
89.474
21
58.750
31
1.500
0
LINE
8
board_outline
62
0
10
89.474
20
58.750
30
0.000
11
89.474
21
58.750
31
1.500
0
3DFACE
8
board_outline
62
0
10
89.344
20
58.436
30
0.000
11
89.474
21
58.750
31
0.000
12
89.474
22
58.750
32
1.500
13
89.344
23
58.436
33
1.500
0
LINE
8
board_outline
62
0
10
89.474
20
58.750
30
0.000
11
89.681
21
59.019
31
0.000
0
LINE
8
board_outline
62
0
10
89.474
20
58.750
30
1.500
11
89.681
21
59.019
31
1.500
0
LINE
8
board_outline
62
0
10
89.681
20
59.019
30
0.000
11
89.681
21
59.019
31
1.500
0
3DFACE
8
board_outline
62
0
10
89.474
20
58.750
30
0.000
11
89.681
21
59.019
31
0.000
12
89.681
22
59.019
32
1.500
13
89.474
23
58.750
33
1.500
0
LINE
8
board_outline
62
0
10
89.681
20
59.019
30
0.000
11
89.950
21
59.226
31
0.000
0
LINE
8
board_outline
62
0
10
89.681
20
59.019
30
1.500
11
89.950
21
59.226
31
1.500
0
LINE
8
board_outline
62
0
10
89.950
20
59.226
30
0.000
11
89.950
21
59.226
31
1.500
0
3DFACE
8
board_outline
62
0
10
89.681
20
59.019
30
0.000
11
89.950
21
59.226
31
0.000
12
89.950
22
59.226
32
1.500
13
89.681
23
59.019
33
1.500
0
LINE
8
board_outline
62
0
10
89.950
20
59.226
30
0.000
11
90.264
21
59.356
31
0.000
0
LINE
8
board_outline
62
0
10
89.950
20
59.226
30
1.500
11
90.264
21
59.356
31
1.500
0
LINE
8
board_outline
62
0
10
90.264
20
59.356
30
0.000
11
90.264
21
59.356
31
1.500
0
3DFACE
8
board_outline
62
0
10
89.950
20
59.226
30
0.000
11
90.264
21
59.356
31
0.000
12
90.264
22
59.356
32
1.500
13
89.950
23
59.226
33
1.500
0
LINE
8
board_outline
62
0
10
90.264
20
59.356
30
0.000
11
90.600
21
59.400
31
0.000
0
LINE
8
board_outline
62
0
10
90.264
20
59.356
30
1.500
11
90.600
21
59.400
31
1.500
0
LINE
8
board_outline
62
0
10
90.600
20
59.400
30
0.000
11
90.600
21
59.400
31
1.500
0
3DFACE
8
board_outline
62
0
10
90.264
20
59.356
30
0.000
11
90.600
21
59.400
31
0.000
12
90.600
22
59.400
32
1.500
13
90.264
23
59.356
33
1.500
0
LINE
8
board_outline
62
0
10
90.600
20
59.400
30
0.000
11
90.600
21
59.400
31
0.000
0
LINE
8
board_outline
62
0
10
90.600
20
59.400
30
1.500
11
90.600
21
59.400
31
1.500
0
LINE
8
board_outline
62
0
10
90.600
20
59.400
30
0.000
11
90.600
21
59.400
31
1.500
0
3DFACE
8
board_outline
62
0
10
90.600
20
59.400
30
0.000
11
90.600
21
59.400
31
0.000
12
90.600
22
59.400
32
1.500
13
90.600
23
59.400
33
1.500
0
LINE
8
board_outline
62
0
10
90.600
20
59.400
30
0.000
11
98.000
21
59.400
31
0.000
0
LINE
8
board_outline
62
0
10
90.600
20
59.400
30
1.500
11
98.000
21
59.400
31
1.500
0
LINE
8
board_outline
62
0
10
98.000
20
59.400
30
0.000
11
98.000
21
59.400
31
1.500
0
3DFACE
8
board_outline
62
0
10
90.600
20
59.400
30
0.000
11
98.000
21
59.400
31
0.000
12
98.000
22
59.400
32
1.500
13
90.600
23
59.400
33
1.500
0
LINE
8
board_outline
62
0
10
98.000
20
59.400
30
0.000
11
98.336
21
59.356
31
0.000
0
LINE
8
board_outline
62
0
10
98.000
20
59.400
30
1.500
11
98.336
21
59.356
31
1.500
0
LINE
8
board_outline
62
0
10
98.336
20
59.356
30
0.000
11
98.336
21
59.356
31
1.500
0
3DFACE
8
board_outline
62
0
10
98.000
20
59.400
30
0.000
11
98.336
21
59.356
31
0.000
12
98.336
22
59.356
32
1.500
13
98.000
23
59.400
33
1.500
0
LINE
8
board_outline
62
0
10
98.336
20
59.356
30
0.000
11
98.650
21
59.226
31
0.000
0
LINE
8
board_outline
62
0
10
98.336
20
59.356
30
1.500
11
98.650
21
59.226
31
1.500
0
LINE
8
board_outline
62
0
10
98.650
20
59.226
30
0.000
11
98.650
21
59.226
31
1.500
0
3DFACE
8
board_outline
62
0
10
98.336
20
59.356
30
0.000
11
98.650
21
59.226
31
0.000
12
98.650
22
59.226
32
1.500
13
98.336
23
59.356
33
1.500
0
LINE
8
board_outline
62
0
10
98.650
20
59.226
30
0.000
11
98.919
21
59.019
31
0.000
0
LINE
8
board_outline
62
0
10
98.650
20
59.226
30
1.500
11
98.919
21
59.019
31
1.500
0
LINE
8
board_outline
62
0
10
98.919
20
59.019
30
0.000
11
98.919
21
59.019
31
1.500
0
3DFACE
8
board_outline
62
0
10
98.650
20
59.226
30
0.000
11
98.919
21
59.019
31
0.000
12
98.919
22
59.019
32
1.500
13
98.650
23
59.226
33
1.500
0
LINE
8
board_outline
62
0
10
98.919
20
59.019
30
0.000
11
99.126
21
58.750
31
0.000
0
LINE
8
board_outline
62
0
10
98.919
20
59.019
30
1.500
11
99.126
21
58.750
31
1.500
0
LINE
8
board_outline
62
0
10
99.126
20
58.750
30
0.000
11
99.126
21
58.750
31
1.500
0
3DFACE
8
board_outline
62
0
10
98.919
20
59.019
30
0.000
11
99.126
21
58.750
31
0.000
12
99.126
22
58.750
32
1.500
13
98.919
23
59.019
33
1.500
0
LINE
8
board_outline
62
0
10
99.126
20
58.750
30
0.000
11
99.256
21
58.436
31
0.000
0
LINE
8
board_outline
62
0
10
99.126
20
58.750
30
1.500
11
99.256
21
58.436
31
1.500
0
LINE
8
board_outline
62
0
10
99.256
20
58.436
30
0.000
11
99.256
21
58.436
31
1.500
0
3DFACE
8
board_outline
62
0
10
99.126
20
58.750
30
0.000
11
99.256
21
58.436
31
0.000
12
99.256
22
58.436
32
1.500
13
99.126
23
58.750
33
1.500
0
LINE
8
board_outline
62
0
10
99.256
20
58.436
30
0.000
11
99.300
21
58.100
31
0.000
0
LINE
8
board_outline
62
0
10
99.256
20
58.436
30
1.500
11
99.300
21
58.100
31
1.500
0
LINE
8
board_outline
62
0
10
99.300
20
58.100
30
0.000
11
99.300
21
58.100
31
1.500
0
3DFACE
8
board_outline
62
0
10
99.256
20
58.436
30
0.000
11
99.300
21
58.100
31
0.000
12
99.300
22
58.100
32
1.500
13
99.256
23
58.436
33
1.500
0
LINE
8
board_outline
62
0
10
99.300
20
58.100
30
0.000
11
99.300
21
58.100
31
0.000
0
LINE
8
board_outline
62
0
10
99.300
20
58.100
30
1.500
11
99.300
21
58.100
31
1.500
0
LINE
8
board_outline
62
0
10
99.300
20
58.100
30
0.000
11
99.300
21
58.100
31
1.500
0
3DFACE
8
board_outline
62
0
10
99.300
20
58.100
30
0.000
11
99.300
21
58.100
31
0.000
12
99.300
22
58.100
32
1.500
13
99.300
23
58.100
33
1.500
0
LINE
8
board_outline
62
0
10
99.300
20
58.100
30
0.000
11
99.300
21
50.400
31
0.000
0
LINE
8
board_outline
62
0
10
99.300
20
58.100
30
1.500
11
99.300
21
50.400
31
1.500
0
LINE
8
board_outline
62
0
10
99.300
20
50.400
30
0.000
11
99.300
21
50.400
31
1.500
0
3DFACE
8
board_outline
62
0
10
99.300
20
58.100
30
0.000
11
99.300
21
50.400
31
0.000
12
99.300
22
50.400
32
1.500
13
99.300
23
58.100
33
1.500
0
LINE
8
board_outline
62
0
10
99.300
20
50.400
30
0.000
11
109.300
21
50.400
31
0.000
0
LINE
8
board_outline
62
0
10
99.300
20
50.400
30
1.500
11
109.300
21
50.400
31
1.500
0
LINE
8
board_outline
62
0
10
109.300
20
50.400
30
0.000
11
109.300
21
50.400
31
1.500
0
3DFACE
8
board_outline
62
0
10
99.300
20
50.400
30
0.000
11
109.300
21
50.400
31
0.000
12
109.300
22
50.400
32
1.500
13
99.300
23
50.400
33
1.500
0
LINE
8
board_outline
62
0
10
109.300
20
50.400
30
0.000
11
109.300
21
96.300
31
0.000
0
LINE
8
board_outline
62
0
10
109.300
20
50.400
30
1.500
11
109.300
21
96.300
31
1.500
0
LINE
8
board_outline
62
0
10
109.300
20
96.300
30
0.000
11
109.300
21
96.300
31
1.500
0
3DFACE
8
board_outline
62
0
10
109.300
20
50.400
30
0.000
11
109.300
21
96.300
31
0.000
12
109.300
22
96.300
32
1.500
13
109.300
23
50.400
33
1.500
0
LINE
8
board_outline
62
0
10
109.300
20
96.300
30
0.000
11
100.630
21
96.300
31
0.000
0
LINE
8
board_outline
62
0
10
109.300
20
96.300
30
1.500
11
100.630
21
96.300
31
1.500
0
LINE
8
board_outline
62
0
10
100.630
20
96.300
30
0.000
11
100.630
21
96.300
31
1.500
0
3DFACE
8
board_outline
62
0
10
109.300
20
96.300
30
0.000
11
100.630
21
96.300
31
0.000
12
100.630
22
96.300
32
1.500
13
109.300
23
96.300
33
1.500
0
LINE
8
board_outline
62
0
10
100.630
20
96.300
30
0.000
11
100.392
21
96.331
31
0.000
0
LINE
8
board_outline
62
0
10
100.630
20
96.300
30
1.500
11
100.392
21
96.331
31
1.500
0
LINE
8
board_outline
62
0
10
100.392
20
96.331
30
0.000
11
100.392
21
96.331
31
1.500
0
3DFACE
8
board_outline
62
0
10
100.630
20
96.300
30
0.000
11
100.392
21
96.331
31
0.000
12
100.392
22
96.331
32
1.500
13
100.630
23
96.300
33
1.500
0
LINE
8
board_outline
62
0
10
100.392
20
96.331
30
0.000
11
100.170
21
96.423
31
0.000
0
LINE
8
board_outline
62
0
10
100.392
20
96.331
30
1.500
11
100.170
21
96.423
31
1.500
0
LINE
8
board_outline
62
0
10
100.170
20
96.423
30
0.000
11
100.170
21
96.423
31
1.500
0
3DFACE
8
board_outline
62
0
10
100.392
20
96.331
30
0.000
11
100.170
21
96.423
31
0.000
12
100.170
22
96.423
32
1.500
13
100.392
23
96.331
33
1.500
0
LINE
8
board_outline
62
0
10
100.170
20
96.423
30
0.000
11
99.979
21
96.569
31
0.000
0
LINE
8
board_outline
62
0
10
100.170
20
96.423
30
1.500
11
99.979
21
96.569
31
1.500
0
LINE
8
board_outline
62
0
10
99.979
20
96.569
30
0.000
11
99.979
21
96.569
31
1.500
0
3DFACE
8
board_outline
62
0
10
100.170
20
96.423
30
0.000
11
99.979
21
96.569
31
0.000
12
99.979
22
96.569
32
1.500
13
100.170
23
96.423
33
1.500
0
LINE
8
board_outline
62
0
10
99.979
20
96.569
30
0.000
11
99.833
21
96.760
31
0.000
0
LINE
8
board_outline
62
0
10
99.979
20
96.569
30
1.500
11
99.833
21
96.760
31
1.500
0
LINE
8
board_outline
62
0
10
99.833
20
96.760
30
0.000
11
99.833
21
96.760
31
1.500
0
3DFACE
8
board_outline
62
0
10
99.979
20
96.569
30
0.000
11
99.833
21
96.760
31
0.000
12
99.833
22
96.760
32
1.500
13
99.979
23
96.569
33
1.500
0
LINE
8
board_outline
62
0
10
99.833
20
96.760
30
0.000
11
99.741
21
96.982
31
0.000
0
LINE
8
board_outline
62
0
10
99.833
20
96.760
30
1.500
11
99.741
21
96.982
31
1.500
0
LINE
8
board_outline
62
0
10
99.741
20
96.982
30
0.000
11
99.741
21
96.982
31
1.500
0
3DFACE
8
board_outline
62
0
10
99.833
20
96.760
30
0.000
11
99.741
21
96.982
31
0.000
12
99.741
22
96.982
32
1.500
13
99.833
23
96.760
33
1.500
0
LINE
8
board_outline
62
0
10
99.741
20
96.982
30
0.000
11
99.710
21
97.220
31
0.000
0
LINE
8
board_outline
62
0
10
99.741
20
96.982
30
1.500
11
99.710
21
97.220
31
1.500
0
LINE
8
board_outline
62
0
10
99.710
20
97.220
30
0.000
11
99.710
21
97.220
31
1.500
0
3DFACE
8
board_outline
62
0
10
99.741
20
96.982
30
0.000
11
99.710
21
97.220
31
0.000
12
99.710
22
97.220
32
1.500
13
99.741
23
96.982
33
1.500
0
LINE
8
board_outline
62
0
10
99.710
20
97.220
30
0.000
11
99.710
21
97.220
31
0.000
0
LINE
8
board_outline
62
0
10
99.710
20
97.220
30
1.500
11
99.710
21
97.220
31
1.500
0
LINE
8
board_outline
62
0
10
99.710
20
97.220
30
0.000
11
99.710
21
97.220
31
1.500
0
3DFACE
8
board_outline
62
0
10
99.710
20
97.220
30
0.000
11
99.710
21
97.220
31
0.000
12
99.710
22
97.220
32
1.500
13
99.710
23
97.220
33
1.500
0
LINE
8
board_outline
62
0
10
99.710
20
97.220
30
0.000
11
99.742
21
97.461
31
0.000
0
LINE
8
board_outline
62
0
10
99.710
20
97.220
30
1.500
11
99.742
21
97.461
31
1.500
0
LINE
8
board_outline
62
0
10
99.742
20
97.461
30
0.000
11
99.742
21
97.461
31
1.500
0
3DFACE
8
board_outline
62
0
10
99.710
20
97.220
30
0.000
11
99.742
21
97.461
31
0.000
12
99.742
22
97.461
32
1.500
13
99.710
23
97.220
33
1.500
0
LINE
8
board_outline
62
0
10
99.742
20
97.461
30
0.000
11
99.835
21
97.685
31
0.000
0
LINE
8
board_outline
62
0
10
99.742
20
97.461
30
1.500
11
99.835
21
97.685
31
1.500
0
LINE
8
board_outline
62
0
10
99.835
20
97.685
30
0.000
11
99.835
21
97.685
31
1.500
0
3DFACE
8
board_outline
62
0
10
99.742
20
97.461
30
0.000
11
99.835
21
97.685
31
0.000
12
99.835
22
97.685
32
1.500
13
99.742
23
97.461
33
1.500
0
LINE
8
board_outline
62
0
10
99.835
20
97.685
30
0.000
11
99.982
21
97.878
31
0.000
0
LINE
8
board_outline
62
0
10
99.835
20
97.685
30
1.500
11
99.982
21
97.878
31
1.500
0
LINE
8
board_outline
62
0
10
99.982
20
97.878
30
0.000
11
99.982
21
97.878
31
1.500
0
3DFACE
8
board_outline
62
0
10
99.835
20
97.685
30
0.000
11
99.982
21
97.878
31
0.000
12
99.982
22
97.878
32
1.500
13
99.835
23
97.685
33
1.500
0
LINE
8
board_outline
62
0
10
99.982
20
97.878
30
0.000
11
100.175
21
98.025
31
0.000
0
LINE
8
board_outline
62
0
10
99.982
20
97.878
30
1.500
11
100.175
21
98.025
31
1.500
0
LINE
8
board_outline
62
0
10
100.175
20
98.025
30
0.000
11
100.175
21
98.025
31
1.500
0
3DFACE
8
board_outline
62
0
10
99.982
20
97.878
30
0.000
11
100.175
21
98.025
31
0.000
12
100.175
22
98.025
32
1.500
13
99.982
23
97.878
33
1.500
0
LINE
8
board_outline
62
0
10
100.175
20
98.025
30
0.000
11
100.399
21
98.118
31
0.000
0
LINE
8
board_outline
62
0
10
100.175
20
98.025
30
1.500
11
100.399
21
98.118
31
1.500
0
LINE
8
board_outline
62
0
10
100.399
20
98.118
30
0.000
11
100.399
21
98.118
31
1.500
0
3DFACE
8
board_outline
62
0
10
100.175
20
98.025
30
0.000
11
100.399
21
98.118
31
0.000
12
100.399
22
98.118
32
1.500
13
100.175
23
98.025
33
1.500
0
LINE
8
board_outline
62
0
10
100.399
20
98.118
30
0.000
11
100.640
21
98.150
31
0.000
0
LINE
8
board_outline
62
0
10
100.399
20
98.118
30
1.500
11
100.640
21
98.150
31
1.500
0
LINE
8
board_outline
62
0
10
100.640
20
98.150
30
0.000
11
100.640
21
98.150
31
1.500
0
3DFACE
8
board_outline
62
0
10
100.399
20
98.118
30
0.000
11
100.640
21
98.150
31
0.000
12
100.640
22
98.150
32
1.500
13
100.399
23
98.118
33
1.500
0
LINE
8
board_outline
62
0
10
100.640
20
98.150
30
0.000
11
100.640
21
98.150
31
0.000
0
LINE
8
board_outline
62
0
10
100.640
20
98.150
30
1.500
11
100.640
21
98.150
31
1.500
0
LINE
8
board_outline
62
0
10
100.640
20
98.150
30
0.000
11
100.640
21
98.150
31
1.500
0
3DFACE
8
board_outline
62
0
10
100.640
20
98.150
30
0.000
11
100.640
21
98.150
31
0.000
12
100.640
22
98.150
32
1.500
13
100.640
23
98.150
33
1.500
0
LINE
8
board_outline
62
0
10
100.640
20
98.150
30
0.000
11
101.800
21
98.150
31
0.000
0
LINE
8
board_outline
62
0
10
100.640
20
98.150
30
1.500
11
101.800
21
98.150
31
1.500
0
LINE
8
board_outline
62
0
10
101.800
20
98.150
30
0.000
11
101.800
21
98.150
31
1.500
0
3DFACE
8
board_outline
62
0
10
100.640
20
98.150
30
0.000
11
101.800
21
98.150
31
0.000
12
101.800
22
98.150
32
1.500
13
100.640
23
98.150
33
1.500
0
LINE
8
board_outline
62
0
10
101.800
20
98.150
30
0.000
11
101.800
21
102.440
31
0.000
0
LINE
8
board_outline
62
0
10
101.800
20
98.150
30
1.500
11
101.800
21
102.440
31
1.500
0
LINE
8
board_outline
62
0
10
101.800
20
102.440
30
0.000
11
101.800
21
102.440
31
1.500
0
3DFACE
8
board_outline
62
0
10
101.800
20
98.150
30
0.000
11
101.800
21
102.440
31
0.000
12
101.800
22
102.440
32
1.500
13
101.800
23
98.150
33
1.500
0
LINE
8
board_outline
62
0
10
101.800
20
102.440
30
0.000
11
100.640
21
102.440
31
0.000
0
LINE
8
board_outline
62
0
10
101.800
20
102.440
30
1.500
11
100.640
21
102.440
31
1.500
0
LINE
8
board_outline
62
0
10
100.640
20
102.440
30
0.000
11
100.640
21
102.440
31
1.500
0
3DFACE
8
board_outline
62
0
10
101.800
20
102.440
30
0.000
11
100.640
21
102.440
31
0.000
12
100.640
22
102.440
32
1.500
13
101.800
23
102.440
33
1.500
0
LINE
8
board_outline
62
0
10
100.640
20
102.440
30
0.000
11
100.399
21
102.472
31
0.000
0
LINE
8
board_outline
62
0
10
100.640
20
102.440
30
1.500
11
100.399
21
102.472
31
1.500
0
LINE
8
board_outline
62
0
10
100.399
20
102.472
30
0.000
11
100.399
21
102.472
31
1.500
0
3DFACE
8
board_outline
62
0
10
100.640
20
102.440
30
0.000
11
100.399
21
102.472
31
0.000
12
100.399
22
102.472
32
1.500
13
100.640
23
102.440
33
1.500
0
LINE
8
board_outline
62
0
10
100.399
20
102.472
30
0.000
11
100.175
21
102.565
31
0.000
0
LINE
8
board_outline
62
0
10
100.399
20
102.472
30
1.500
11
100.175
21
102.565
31
1.500
0
LINE
8
board_outline
62
0
10
100.175
20
102.565
30
0.000
11
100.175
21
102.565
31
1.500
0
3DFACE
8
board_outline
62
0
10
100.399
20
102.472
30
0.000
11
100.175
21
102.565
31
0.000
12
100.175
22
102.565
32
1.500
13
100.399
23
102.472
33
1.500
0
LINE
8
board_outline
62
0
10
100.175
20
102.565
30
0.000
11
99.982
21
102.712
31
0.000
0
LINE
8
board_outline
62
0
10
100.175
20
102.565
30
1.500
11
99.982
21
102.712
31
1.500
0
LINE
8
board_outline
62
0
10
99.982
20
102.712
30
0.000
11
99.982
21
102.712
31
1.500
0
3DFACE
8
board_outline
62
0
10
100.175
20
102.565
30
0.000
11
99.982
21
102.712
31
0.000
12
99.982
22
102.712
32
1.500
13
100.175
23
102.565
33
1.500
0
LINE
8
board_outline
62
0
10
99.982
20
102.712
30
0.000
11
99.835
21
102.905
31
0.000
0
LINE
8
board_outline
62
0
10
99.982
20
102.712
30
1.500
11
99.835
21
102.905
31
1.500
0
LINE
8
board_outline
62
0
10
99.835
20
102.905
30
0.000
11
99.835
21
102.905
31
1.500
0
3DFACE
8
board_outline
62
0
10
99.982
20
102.712
30
0.000
11
99.835
21
102.905
31
0.000
12
99.835
22
102.905
32
1.500
13
99.982
23
102.712
33
1.500
0
LINE
8
board_outline
62
0
10
99.835
20
102.905
30
0.000
11
99.742
21
103.129
31
0.000
0
LINE
8
board_outline
62
0
10
99.835
20
102.905
30
1.500
11
99.742
21
103.129
31
1.500
0
LINE
8
board_outline
62
0
10
99.742
20
103.129
30
0.000
11
99.742
21
103.129
31
1.500
0
3DFACE
8
board_outline
62
0
10
99.835
20
102.905
30
0.000
11
99.742
21
103.129
31
0.000
12
99.742
22
103.129
32
1.500
13
99.835
23
102.905
33
1.500
0
LINE
8
board_outline
62
0
10
99.742
20
103.129
30
0.000
11
99.710
21
103.370
31
0.000
0
LINE
8
board_outline
62
0
10
99.742
20
103.129
30
1.500
11
99.710
21
103.370
31
1.500
0
LINE
8
board_outline
62
0
10
99.710
20
103.370
30
0.000
11
99.710
21
103.370
31
1.500
0
3DFACE
8
board_outline
62
0
10
99.742
20
103.129
30
0.000
11
99.710
21
103.370
31
0.000
12
99.710
22
103.370
32
1.500
13
99.742
23
103.129
33
1.500
0
LINE
8
board_outline
62
0
10
99.710
20
103.370
30
0.000
11
99.710
21
103.370
31
0.000
0
LINE
8
board_outline
62
0
10
99.710
20
103.370
30
1.500
11
99.710
21
103.370
31
1.500
0
LINE
8
board_outline
62
0
10
99.710
20
103.370
30
0.000
11
99.710
21
103.370
31
1.500
0
3DFACE
8
board_outline
62
0
10
99.710
20
103.370
30
0.000
11
99.710
21
103.370
31
0.000
12
99.710
22
103.370
32
1.500
13
99.710
23
103.370
33
1.500
0
LINE
8
board_outline
62
0
10
99.710
20
103.370
30
0.000
11
99.742
21
103.611
31
0.000
0
LINE
8
board_outline
62
0
10
99.710
20
103.370
30
1.500
11
99.742
21
103.611
31
1.500
0
LINE
8
board_outline
62
0
10
99.742
20
103.611
30
0.000
11
99.742
21
103.611
31
1.500
0
3DFACE
8
board_outline
62
0
10
99.710
20
103.370
30
0.000
11
99.742
21
103.611
31
0.000
12
99.742
22
103.611
32
1.500
13
99.710
23
103.370
33
1.500
0
LINE
8
board_outline
62
0
10
99.742
20
103.611
30
0.000
11
99.835
21
103.835
31
0.000
0
LINE
8
board_outline
62
0
10
99.742
20
103.611
30
1.500
11
99.835
21
103.835
31
1.500
0
LINE
8
board_outline
62
0
10
99.835
20
103.835
30
0.000
11
99.835
21
103.835
31
1.500
0
3DFACE
8
board_outline
62
0
10
99.742
20
103.611
30
0.000
11
99.835
21
103.835
31
0.000
12
99.835
22
103.835
32
1.500
13
99.742
23
103.611
33
1.500
0
LINE
8
board_outline
62
0
10
99.835
20
103.835
30
0.000
11
99.982
21
104.028
31
0.000
0
LINE
8
board_outline
62
0
10
99.835
20
103.835
30
1.500
11
99.982
21
104.028
31
1.500
0
LINE
8
board_outline
62
0
10
99.982
20
104.028
30
0.000
11
99.982
21
104.028
31
1.500
0
3DFACE
8
board_outline
62
0
10
99.835
20
103.835
30
0.000
11
99.982
21
104.028
31
0.000
12
99.982
22
104.028
32
1.500
13
99.835
23
103.835
33
1.500
0
LINE
8
board_outline
62
0
10
99.982
20
104.028
30
0.000
11
100.175
21
104.175
31
0.000
0
LINE
8
board_outline
62
0
10
99.982
20
104.028
30
1.500
11
100.175
21
104.175
31
1.500
0
LINE
8
board_outline
62
0
10
100.175
20
104.175
30
0.000
11
100.175
21
104.175
31
1.500
0
3DFACE
8
board_outline
62
0
10
99.982
20
104.028
30
0.000
11
100.175
21
104.175
31
0.000
12
100.175
22
104.175
32
1.500
13
99.982
23
104.028
33
1.500
0
LINE
8
board_outline
62
0
10
100.175
20
104.175
30
0.000
11
100.399
21
104.268
31
0.000
0
LINE
8
board_outline
62
0
10
100.175
20
104.175
30
1.500
11
100.399
21
104.268
31
1.500
0
LINE
8
board_outline
62
0
10
100.399
20
104.268
30
0.000
11
100.399
21
104.268
31
1.500
0
3DFACE
8
board_outline
62
0
10
100.175
20
104.175
30
0.000
11
100.399
21
104.268
31
0.000
12
100.399
22
104.268
32
1.500
13
100.175
23
104.175
33
1.500
0
LINE
8
board_outline
62
0
10
100.399
20
104.268
30
0.000
11
100.640
21
104.300
31
0.000
0
LINE
8
board_outline
62
0
10
100.399
20
104.268
30
1.500
11
100.640
21
104.300
31
1.500
0
LINE
8
board_outline
62
0
10
100.640
20
104.300
30
0.000
11
100.640
21
104.300
31
1.500
0
3DFACE
8
board_outline
62
0
10
100.399
20
104.268
30
0.000
11
100.640
21
104.300
31
0.000
12
100.640
22
104.300
32
1.500
13
100.399
23
104.268
33
1.500
0
LINE
8
board_outline
62
0
10
100.640
20
104.300
30
0.000
11
100.640
21
104.300
31
0.000
0
LINE
8
board_outline
62
0
10
100.640
20
104.300
30
1.500
11
100.640
21
104.300
31
1.500
0
LINE
8
board_outline
62
0
10
100.640
20
104.300
30
0.000
11
100.640
21
104.300
31
1.500
0
3DFACE
8
board_outline
62
0
10
100.640
20
104.300
30
0.000
11
100.640
21
104.300
31
0.000
12
100.640
22
104.300
32
1.500
13
100.640
23
104.300
33
1.500
0
LINE
8
board_outline
62
0
10
100.640
20
104.300
30
0.000
11
107.900
21
104.300
31
0.000
0
LINE
8
board_outline
62
0
10
100.640
20
104.300
30
1.500
11
107.900
21
104.300
31
1.500
0
LINE
8
board_outline
62
0
10
107.900
20
104.300
30
0.000
11
107.900
21
104.300
31
1.500
0
3DFACE
8
board_outline
62
0
10
100.640
20
104.300
30
0.000
11
107.900
21
104.300
31
0.000
12
107.900
22
104.300
32
1.500
13
100.640
23
104.300
33
1.500
0
LINE
8
board_outline
62
0
10
107.900
20
104.300
30
0.000
11
107.900
21
107.100
31
0.000
0
LINE
8
board_outline
62
0
10
107.900
20
104.300
30
1.500
11
107.900
21
107.100
31
1.500
0
LINE
8
board_outline
62
0
10
107.900
20
107.100
30
0.000
11
107.900
21
107.100
31
1.500
0
3DFACE
8
board_outline
62
0
10
107.900
20
104.300
30
0.000
11
107.900
21
107.100
31
0.000
12
107.900
22
107.100
32
1.500
13
107.900
23
104.300
33
1.500
0
LINE
8
board_outline
62
0
10
107.900
20
107.100
30
0.000
11
103.050
21
107.100
31
0.000
0
LINE
8
board_outline
62
0
10
107.900
20
107.100
30
1.500
11
103.050
21
107.100
31
1.500
0
LINE
8
board_outline
62
0
10
103.050
20
107.100
30
0.000
11
103.050
21
107.100
31
1.500
0
3DFACE
8
board_outline
62
0
10
107.900
20
107.100
30
0.000
11
103.050
21
107.100
31
0.000
12
103.050
22
107.100
32
1.500
13
107.900
23
107.100
33
1.500
0
LINE
8
board_outline
62
0
10
103.050
20
107.100
30
0.000
11
102.714
21
107.144
31
0.000
0
LINE
8
board_outline
62
0
10
103.050
20
107.100
30
1.500
11
102.714
21
107.144
31
1.500
0
LINE
8
board_outline
62
0
10
102.714
20
107.144
30
0.000
11
102.714
21
107.144
31
1.500
0
3DFACE
8
board_outline
62
0
10
103.050
20
107.100
30
0.000
11
102.714
21
107.144
31
0.000
12
102.714
22
107.144
32
1.500
13
103.050
23
107.100
33
1.500
0
LINE
8
board_outline
62
0
10
102.714
20
107.144
30
0.000
11
102.400
21
107.274
31
0.000
0
LINE
8
board_outline
62
0
10
102.714
20
107.144
30
1.500
11
102.400
21
107.274
31
1.500
0
LINE
8
board_outline
62
0
10
102.400
20
107.274
30
0.000
11
102.400
21
107.274
31
1.500
0
3DFACE
8
board_outline
62
0
10
102.714
20
107.144
30
0.000
11
102.400
21
107.274
31
0.000
12
102.400
22
107.274
32
1.500
13
102.714
23
107.144
33
1.500
0
LINE
8
board_outline
62
0
10
102.400
20
107.274
30
0.000
11
102.131
21
107.481
31
0.000
0
LINE
8
board_outline
62
0
10
102.400
20
107.274
30
1.500
11
102.131
21
107.481
31
1.500
0
LINE
8
board_outline
62
0
10
102.131
20
107.481
30
0.000
11
102.131
21
107.481
31
1.500
0
3DFACE
8
board_outline
62
0
10
102.400
20
107.274
30
0.000
11
102.131
21
107.481
31
0.000
12
102.131
22
107.481
32
1.500
13
102.400
23
107.274
33
1.500
0
LINE
8
board_outline
62
0
10
102.131
20
107.481
30
0.000
11
101.924
21
107.750
31
0.000
0
LINE
8
board_outline
62
0
10
102.131
20
107.481
30
1.500
11
101.924
21
107.750
31
1.500
0
LINE
8
board_outline
62
0
10
101.924
20
107.750
30
0.000
11
101.924
21
107.750
31
1.500
0
3DFACE
8
board_outline
62
0
10
102.131
20
107.481
30
0.000
11
101.924
21
107.750
31
0.000
12
101.924
22
107.750
32
1.500
13
102.131
23
107.481
33
1.500
0
LINE
8
board_outline
62
0
10
101.924
20
107.750
30
0.000
11
101.794
21
108.064
31
0.000
0
LINE
8
board_outline
62
0
10
101.924
20
107.750
30
1.500
11
101.794
21
108.064
31
1.500
0
LINE
8
board_outline
62
0
10
101.794
20
108.064
30
0.000
11
101.794
21
108.064
31
1.500
0
3DFACE
8
board_outline
62
0
10
101.924
20
107.750
30
0.000
11
101.794
21
108.064
31
0.000
12
101.794
22
108.064
32
1.500
13
101.924
23
107.750
33
1.500
0
LINE
8
board_outline
62
0
10
101.794
20
108.064
30
0.000
11
101.750
21
108.400
31
0.000
0
LINE
8
board_outline
62
0
10
101.794
20
108.064
30
1.500
11
101.750
21
108.400
31
1.500
0
LINE
8
board_outline
62
0
10
101.750
20
108.400
30
0.000
11
101.750
21
108.400
31
1.500
0
3DFACE
8
board_outline
62
0
10
101.794
20
108.064
30
0.000
11
101.750
21
108.400
31
0.000
12
101.750
22
108.400
32
1.500
13
101.794
23
108.064
33
1.500
0
LINE
8
board_outline
62
0
10
101.750
20
108.400
30
0.000
11
101.750
21
108.400
31
0.000
0
LINE
8
board_outline
62
0
10
101.750
20
108.400
30
1.500
11
101.750
21
108.400
31
1.500
0
LINE
8
board_outline
62
0
10
101.750
20
108.400
30
0.000
11
101.750
21
108.400
31
1.500
0
3DFACE
8
board_outline
62
0
10
101.750
20
108.400
30
0.000
11
101.750
21
108.400
31
0.000
12
101.750
22
108.400
32
1.500
13
101.750
23
108.400
33
1.500
0
LINE
8
board_outline
62
0
10
101.750
20
108.400
30
0.000
11
101.750
21
115.400
31
0.000
0
LINE
8
board_outline
62
0
10
101.750
20
108.400
30
1.500
11
101.750
21
115.400
31
1.500
0
LINE
8
board_outline
62
0
10
101.750
20
115.400
30
0.000
11
101.750
21
115.400
31
1.500
0
3DFACE
8
board_outline
62
0
10
101.750
20
108.400
30
0.000
11
101.750
21
115.400
31
0.000
12
101.750
22
115.400
32
1.500
13
101.750
23
108.400
33
1.500
0
LINE
8
board_outline
62
0
10
101.750
20
115.400
30
0.000
11
79.300
21
115.400
31
0.000
0
LINE
8
board_outline
62
0
10
101.750
20
115.400
30
1.500
11
79.300
21
115.400
31
1.500
0
LINE
8
board_outline
62
0
10
79.300
20
115.400
30
0.000
11
79.300
21
115.400
31
1.500
0
3DFACE
8
board_outline
62
0
10
101.750
20
115.400
30
0.000
11
79.300
21
115.400
31
0.000
12
79.300
22
115.400
32
1.500
13
101.750
23
115.400
33
1.500
0
LINE
8
board_outline
62
0
10
79.300
20
115.400
30
0.000
11
79.300
21
50.400
31
0.000
0
LINE
8
board_outline
62
0
10
79.300
20
115.400
30
1.500
11
79.300
21
50.400
31
1.500
0
LINE
8
board_outline
62
0
10
79.300
20
50.400
30
0.000
11
79.300
21
50.400
31
1.500
0
3DFACE
8
board_outline
62
0
10
79.300
20
115.400
30
0.000
11
79.300
21
50.400
31
0.000
12
79.300
22
50.400
32
1.500
13
79.300
23
115.400
33
1.500
0
INSERT
2
CC0805_bot
8
3d_bottom
62
22
10
94.380
20
110.820
50
360.000
0
INSERT
2
CC0805_bot
8
3d_bottom
62
21
10
91.000
20
110.700
50
180.000
0
INSERT
2
CC0805_bot
8
3d_bottom
62
21
10
89.470
20
83.575
50
90.000
0
INSERT
2
CC0805_bot
8
3d_bottom
62
21
10
94.870
20
85.765
50
270.000
0
INSERT
2
CC0805_bot
8
3d_bottom
62
21
10
93.015
20
82.220
50
180.000
0
INSERT
2
CC0805_top
8
3d_top
62
23
10
108.310
20
92.975
50
270.000
0
INSERT
2
CC0805_top
8
3d_top
62
22
10
105.335
20
95.280
50
180.000
0
INSERT
2
CC0805_top
8
3d_top
62
22
10
104.240
20
89.205
50
90.000
0
INSERT
2
CC0805_top
8
3d_top
62
22
10
105.030
20
83.775
50
270.000
0
INSERT
2
CC0805_bot
8
3d_bottom
62
21
10
99.110
20
79.015
50
90.000
0
INSERT
2
CC0805_bot
8
3d_bottom
62
21
10
96.210
20
82.170
50
360.000
0
INSERT
2
CC0805_bot
8
3d_bottom
62
21
10
91.400
20
107.200
50
90.000
0
INSERT
2
CC0805_top
8
3d_top
62
22
10
97.380
20
80.000
50
90.000
0
INSERT
2
CC0805_top
8
3d_top
62
22
10
93.985
20
81.500
50
360.000
0
INSERT
2
CC0805_bot
8
3d_bottom
62
21
10
90.970
20
78.955
50
90.000
0
INSERT
2
CC0805_top
8
3d_top
62
22
10
86.315
20
87.940
50
180.000
0
INSERT
2
CC0805_top
8
3d_top
62
22
10
89.960
20
90.730
50
90.000
0
INSERT
2
CC0805_top
8
3d_top
62
22
10
87.600
20
102.390
50
270.000
0
INSERT
2
CC0805_bot
8
3d_bottom
62
21
10
96.930
20
98.115
50
270.000
0
INSERT
2
CC0805_bot
8
3d_bottom
62
21
10
96.560
20
94.805
50
90.000
0
INSERT
2
CC0805_top
8
3d_top
62
22
10
86.400
20
95.800
50
360.000
0
INSERT
2
CC0805_top
8
3d_top
62
22
10
90.000
20
102.400
50
270.000
0
INSERT
2
CC0805_top
8
3d_top
62
22
10
100.700
20
113.560
50
90.000
0
INSERT
2
CC0805_bot
8
3d_bottom
62
21
10
94.860
20
93.100
50
90.000
0
INSERT
2
CC0805_top
8
3d_top
62
22
10
85.980
20
103.335
50
90.000
0
INSERT
2
CC0805_top
8
3d_top
62
22
10
81.925
20
102.700
50
180.000
0
INSERT
2
DTYPE2_bot
8
3d_bottom
62
24
10
82.580
20
63.400
50
90.000
0
INSERT
2
DTYPE2_top
8
3d_top
62
25
10
106.030
20
63.300
50
270.000
0
INSERT
2
SMW5.7_bot
8
3d_bottom
62
26
10
89.812
20
62.175
50
180.000
0
INSERT
2
SMW5.7_top
8
3d_top
62
27
10
98.788
20
62.605
50
180.000
0
INSERT
2
WIMA4.8x3.3_top
8
3d_top
62
28
10
92.600
20
63.470
50
90.000
0
INSERT
2
SMW5.7_bot
8
3d_bottom
62
25
10
96.100
20
63.470
50
270.000
0
INSERT
2
CC0805_bot
8
3d_bottom
62
21
10
87.400
20
67.025
50
270.000
0
INSERT
2
CC0805_top
8
3d_top
62
22
10
101.200
20
67.025
50
90.000
0
INSERT
2
CC0805_top
8
3d_top
62
22
10
89.200
20
66.925
50
90.000
0
INSERT
2
CC0805_bot
8
3d_bottom
62
21
10
99.400
20
66.925
50
270.000
0
INSERT
2
CC0805_top
8
3d_top
62
22
10
83.800
20
69.575
50
90.000
0
INSERT
2
CC0805_bot
8
3d_bottom
62
21
10
104.800
20
69.575
50
270.000
0
INSERT
2
CC0805_top
8
3d_top
62
22
10
90.764
20
75.700
50
360.000
0
INSERT
2
CC0805_bot
8
3d_bottom
62
21
10
98.725
20
75.800
50
360.000
0
INSERT
2
CC0805_bot
8
3d_bottom
62
21
10
84.000
20
108.840
50
90.000
0
INSERT
2
CC0805_top
8
3d_top
62
22
10
83.520
20
75.445
50
270.000
0
INSERT
2
CC0805_bot
8
3d_bottom
62
21
10
105.580
20
75.445
50
90.000
0
INSERT
2
CC0805_bot
8
3d_bottom
62
21
10
93.100
20
75.350
50
90.000
0
INSERT
2
CC0805_top
8
3d_top
62
22
10
95.500
20
75.345
50
270.000
0
INSERT
2
CC0805_bot
8
3d_bottom
62
21
10
91.500
20
74.430
50
90.000
0
INSERT
2
CC0805_top
8
3d_top
62
22
10
97.100
20
74.430
50
270.000
0
INSERT
2
CC0805_bot
8
3d_bottom
62
21
10
88.425
20
77.700
50
180.000
0
INSERT
2
CC0805_top
8
3d_top
62
22
10
100.015
20
77.700
50
180.000
0
INSERT
2
CC0805_bot
8
3d_bottom
62
21
10
88.425
20
79.300
50
180.000
0
INSERT
2
CC0805_top
8
3d_top
62
22
10
100.015
20
79.300
50
180.000
0
INSERT
2
CC0805_bot
8
3d_bottom
62
21
10
88.425
20
70.400
50
180.000
0
INSERT
2
CC0805_top
8
3d_top
62
22
10
100.175
20
70.400
50
180.000
0
INSERT
2
CC0805_bot
8
3d_bottom
62
21
10
80.840
20
72.450
50
90.000
0
INSERT
2
CC0805_top
8
3d_top
62
22
10
107.760
20
72.450
50
270.000
0
INSERT
2
CC0805_top
8
3d_top
62
22
10
106.630
20
83.620
50
270.000
0
INSERT
2
CC0805_top
8
3d_top
62
22
10
84.950
20
108.530
50
180.000
0
INSERT
2
CC0805_top
8
3d_top
62
22
10
85.330
20
106.830
50
180.000
0
INSERT
2
CC0805_bot
8
3d_bottom
62
21
10
93.935
20
95.830
50
360.000
0
INSERT
2
CC0805_top
8
3d_top
62
22
10
89.910
20
113.860
50
360.000
0
INSERT
2
CC0805_top
8
3d_top
62
22
10
88.480
20
108.430
50
180.000
0
INSERT
2
SOT235_bot
8
3d_bottom
62
30
10
94.100
20
108.460
50
270.000
0
INSERT
2
CP1641_top
8
3d_top
62
32
10
87.000
20
72.700
50
360.000
0
INSERT
2
CP1641_bot
8
3d_bottom
62
21
10
101.600
20
72.700
50
360.000
0
INSERT
2
TSSOP16_bot
8
3d_bottom
62
22
10
86.000
20
74.100
50
90.000
0
INSERT
2
TSSOP16_top
8
3d_top
62
23
10
102.600
20
74.100
50
270.000
0
INSERT
2
SOT235_top
8
3d_top
62
25
10
89.400
20
111.100
50
180.000
0
INSERT
2
SOT235_bot
8
3d_bottom
62
28
10
92.170
20
84.700
50
270.000
0
INSERT
2
SOT235_top
8
3d_top
62
23
10
105.610
20
93.000
50
90.000
0
INSERT
2
SOT235_top
8
3d_top
62
23
10
107.280
20
89.020
50
360.000
0
INSERT
2
SOT235_bot
8
3d_bottom
62
28
10
96.665
20
79.490
50
360.000
0
INSERT
2
SC705_top
8
3d_top
62
28
10
92.960
20
79.540
50
270.000
0
INSERT
2
MINISO8_top
8
3d_top
62
29
10
86.400
20
61.200
50
270.000
0
INSERT
2
MINISO8_bot
8
3d_bottom
62
30
10
102.200
20
61.200
50
90.000
0
INSERT
2
SOT235_top
8
3d_top
62
23
10
86.500
20
66.900
50
270.000
0
INSERT
2
SOT235_bot
8
3d_bottom
62
28
10
102.100
20
66.900
50
90.000
0
INSERT
2
SOT236_top
8
3d_top
62
32
10
81.510
20
107.360
50
180.000
0
INSERT
2
UFQFPN48WIDE1_top
8
3d_top
62
22
10
93.280
20
96.580
50
360.000
0
INSERT
2
SPBT2632_bot
8
3d_bottom
62
23
10
79.700
20
96.400
50
360.000
0
INSERT
2
m4.52.2_top
8
3d_top
62
24
10
84.300
20
53.900
50
180.000
0
INSERT
2
m4.52.2_top
8
3d_top
62
23
10
104.300
20
53.900
50
180.000
0
INSERT
2
L1154RY_bot
8
3d_bottom
62
29
10
94.150
20
113.980
50
360.000
0
INSERT
2
P1_top
8
3d_top
62
30
10
81.300
20
112.780
50
90.000
0
INSERT
2
CDRH4D28LD_bot
8
3d_bottom
62
20
10
103.800
20
89.840
50
90.000
0
INSERT
2
CC18121_bot
8
3d_bottom
62
21
10
81.360
20
84.900
50
90.000
0
INSERT
2
CC18121_bot
8
3d_bottom
62
20
10
106.000
20
83.000
50
180.000
0
INSERT
2
LABEL_top
8
3d_top
62
22
10
103.100
20
57.000
50
270.000
0
INSERT
2
LABEL_bot
8
3d_bottom
62
23
10
89.300
20
113.300
50
360.000
0
INSERT
2
LABEL_bot
8
3d_bottom
62
22
10
103.100
20
57.000
50
360.000
0
INSERT
2
RC0805_top
8
3d_top
62
24
10
80.500
20
81.801
50
90.000
0
INSERT
2
RC0805_bot
8
3d_bottom
62
25
10
93.000
20
103.890
50
180.000
0
INSERT
2
RC0805_top
8
3d_top
62
23
10
99.630
20
91.350
50
360.000
0
INSERT
2
RC0805_top
8
3d_top
62
23
10
108.230
20
83.700
50
270.000
0
INSERT
2
RC0805_top
8
3d_top
62
23
10
107.230
20
86.200
50
360.000
0
INSERT
2
RC0805_bot
8
3d_bottom
62
24
10
92.570
20
78.890
50
90.000
0
INSERT
2
RC0805_top
8
3d_top
62
23
10
86.580
20
92.740
50
180.000
0
INSERT
2
RC0805_top
8
3d_top
62
23
10
93.250
20
109.580
50
180.000
0
INSERT
2
RC0805_top
8
3d_top
62
23
10
86.900
20
100.000
50
180.000
0
INSERT
2
RC0805_top
8
3d_top
62
23
10
86.900
20
98.400
50
180.000
0
INSERT
2
RC0805_bot
8
3d_bottom
62
24
10
80.850
20
105.340
50
90.000
0
INSERT
2
RC0805_top
8
3d_top
62
23
10
93.490
20
106.500
50
180.000
0
INSERT
2
RC0805_bot
8
3d_bottom
62
24
10
94.300
20
106.100
50
180.000
0
INSERT
2
RC0805_top
8
3d_top
62
23
10
102.640
20
89.880
50
90.000
0
INSERT
2
RC0805_top
8
3d_top
62
23
10
102.910
20
93.980
50
90.000
0
INSERT
2
RC0805_bot
8
3d_bottom
62
24
10
94.300
20
100.760
50
90.000
0
INSERT
2
RC0805_bot
8
3d_bottom
62
24
10
92.700
20
100.760
50
90.000
0
INSERT
2
RC0805_top
8
3d_top
62
23
10
83.300
20
63.500
50
180.000
0
INSERT
2
RC0805_bot
8
3d_bottom
62
24
10
105.300
20
63.500
50
180.000
0
INSERT
2
RC0805_top
8
3d_top
62
23
10
80.400
20
60.840
50
90.000
0
INSERT
2
RC0805_bot
8
3d_bottom
62
24
10
108.200
20
60.810
50
270.000
0
INSERT
2
RC0805_top
8
3d_top
62
23
10
82.000
20
60.840
50
90.000
0
INSERT
2
RC0805_bot
8
3d_bottom
62
24
10
106.600
20
60.840
50
270.000
0
INSERT
2
RC0805_bot
8
3d_bottom
62
24
10
92.212
20
66.950
50
270.000
0
INSERT
2
RC0805_top
8
3d_top
62
23
10
96.388
20
66.950
50
90.000
0
INSERT
2
RC0805_top
8
3d_top
62
23
10
82.900
20
66.050
50
360.000
0
INSERT
2
RC0805_bot
8
3d_bottom
62
24
10
105.700
20
66.090
50
360.000
0
INSERT
2
RC0805_top
8
3d_top
62
23
10
86.700
20
64.200
50
360.000
0
INSERT
2
RC0805_bot
8
3d_bottom
62
24
10
101.900
20
64.200
50
360.000
0
INSERT
2
RC0805_top
8
3d_top
62
23
10
99.100
20
113.485
50
90.000
0
INSERT
2
RC0805_bot
8
3d_bottom
62
24
10
89.000
20
66.950
50
270.000
0
INSERT
2
RC0805_top
8
3d_top
62
23
10
99.600
20
66.950
50
90.000
0
INSERT
2
RC0805_top
8
3d_top
62
23
10
82.200
20
69.500
50
90.000
0
INSERT
2
RC0805_bot
8
3d_bottom
62
24
10
106.400
20
69.500
50
270.000
0
INSERT
2
RC0805_top
8
3d_top
62
23
10
80.400
20
67.060
50
90.000
0
INSERT
2
RC0805_bot
8
3d_bottom
62
24
10
108.200
20
67.400
50
270.000
0
INSERT
2
RC0805_top
8
3d_top
62
23
10
83.020
20
77.880
50
180.000
0
INSERT
2
RC0805_bot
8
3d_bottom
62
24
10
105.880
20
77.880
50
180.000
0
INSERT
2
RC0805_top
8
3d_top
62
23
10
83.020
20
79.480
50
360.000
0
INSERT
2
RC0805_bot
8
3d_bottom
62
24
10
105.880
20
79.480
50
360.000
0
INSERT
2
RC0805_top
8
3d_top
62
23
10
93.100
20
69.370
50
270.000
0
INSERT
2
RC0805_bot
8
3d_bottom
62
24
10
95.500
20
69.370
50
90.000
0
INSERT
2
RC0805_top
8
3d_top
62
23
10
91.500
20
72.900
50
270.000
0
INSERT
2
RC0805_bot
8
3d_bottom
62
24
10
97.100
20
72.900
50
90.000
0
INSERT
2
RC0805_bot
8
3d_bottom
62
24
10
93.100
20
72.050
50
270.000
0
INSERT
2
RC0805_top
8
3d_top
62
23
10
95.500
20
72.050
50
90.000
0
INSERT
2
RC0805_bot
8
3d_bottom
62
24
10
91.500
20
70.900
50
270.000
0
INSERT
2
RC0805_top
8
3d_top
62
23
10
97.100
20
70.900
50
90.000
0
INSERT
2
RC0805_bot
8
3d_bottom
62
24
10
87.230
20
107.000
50
360.000
0
INSERT
2
RC0805_top
8
3d_top
62
23
10
90.900
20
107.100
50
270.000
0
INSERT
2
RC0805_bot
8
3d_bottom
62
24
10
80.850
20
108.760
50
270.000
0
INSERT
2
RC0805_bot
8
3d_bottom
62
24
10
82.450
20
108.760
50
90.000
0
INSERT
2
RC0805_bot
8
3d_bottom
62
24
10
92.690
20
91.920
50
270.000
0
INSERT
2
RC0805_bot
8
3d_bottom
62
24
10
93.550
20
97.730
50
360.000
0
INSERT
2
LABEL_top
8
3d_top
62
21
10
81.700
20
87.300
50
180.000
0
INSERT
2
TSSTD26EA1_bot
8
3d_bottom
62
30
10
100.000
20
111.100
50
90.000
0
INSERT
2
SOD123_top
8
3d_top
62
31
10
105.000
20
106.100
50
360.000
0
INSERT
2
SOD123_bot
8
3d_bottom
62
32
10
84.380
20
105.065
50
180.000
0
INSERT
2
SOD123_bot
8
3d_bottom
62
31
10
103.650
20
85.700
50
180.000
0
INSERT
2
SOT236_bot
8
3d_bottom
62
22
10
96.940
20
102.810
50
90.000
0
INSERT
2
SOT23_top
8
3d_top
62
23
10
99.800
20
109.900
50
360.000
0
INSERT
2
SOT23_top
8
3d_top
62
22
10
92.900
20
111.820
50
90.000
0
INSERT
2
W210502PS_bot
8
3d_bottom
62
24
10
86.900
20
111.400
50
270.000
0
INSERT
2
MINIUSB2C_bot
8
3d_bottom
62
25
10
106.140
20
100.300
50
180.000
0
INSERT
2
PLS1.2771_bot
8
3d_bottom
62
26
10
96.870
20
113.660
50
270.000
0
INSERT
2
W210502PS_top
8
3d_top
62
27
10
84.000
20
111.400
50
90.000
0
INSERT
2
KX7_top
8
3d_top
62
28
10
86.950
20
90.335
50
180.000
0
ENDSEC
0
EOF
